<mxfile host="app.diagrams.net" modified="2021-12-15T08:51:54.050Z" agent="5.0 (X11; Linux x86_64) AppleWebKit/537.36 (KHTML, like Gecko) Chrome/95.0.4638.54 Safari/537.36" etag="VYx-LLKu7PhfRW-2tw_q" version="15.9.6" type="github">
  <diagram id="-whKEtaZQIbx7iYWfvTw" name="Page-1">
    <mxGraphModel dx="868" dy="434" grid="1" gridSize="10" guides="1" tooltips="1" connect="1" arrows="1" fold="1" page="1" pageScale="1" pageWidth="1920" pageHeight="1200" math="0" shadow="0">
      <root>
        <mxCell id="0" />
        <mxCell id="1" parent="0" />
        <mxCell id="58oBhlepc2mfSOxgYQyz-1" value="&lt;font style=&quot;font-size: 15px&quot;&gt;Cassandra is no sql db&amp;nbsp;&lt;br&gt;uses p2p approach with no master&amp;nbsp;&lt;br&gt;uses consistent hashing to partition data&amp;nbsp;&lt;br&gt;uses qourum protocol&amp;nbsp;&lt;br&gt;&lt;span style=&quot;white-space: pre&quot;&gt;	&lt;/span&gt;ie write qourun - write to 3 servers but give confirmation from atleast 2 servers&amp;nbsp;&lt;br&gt;&lt;span style=&quot;white-space: pre&quot;&gt;	&lt;/span&gt;&amp;nbsp; &amp;nbsp; read qourum - (replication factor / 2 ) +1&lt;br&gt;&lt;br&gt;Servers are constantly talking via gossip protocol and thus each node knows what partition lie on what server&amp;nbsp;&lt;br&gt;&lt;br&gt;Incase a node goes down&amp;nbsp;&lt;br&gt;After it comes up it can requeest &lt;b&gt;read repair&lt;/b&gt;&amp;nbsp;to the replicates of that node&lt;br&gt;the diff using a merkel tree is sen to it&amp;nbsp;&amp;nbsp;&lt;br&gt;&lt;/font&gt;" style="text;html=1;strokeColor=none;fillColor=none;align=left;verticalAlign=middle;whiteSpace=wrap;rounded=0;" vertex="1" parent="1">
          <mxGeometry x="190" y="120" width="580" height="268" as="geometry" />
        </mxCell>
        <mxCell id="58oBhlepc2mfSOxgYQyz-3" value="" style="shape=image;imageAspect=0;aspect=fixed;verticalLabelPosition=bottom;verticalAlign=top;image=data:image/png,iVBORw0KGgoAAAANSUhEUgAAAtUAAAEiCAYAAAA2zC5XAAAABHNCSVQICAgIfAhkiAAAABl0RVh0U29mdHdhcmUAZ25vbWUtc2NyZWVuc2hvdO8Dvz4AACAASURBVHic7N1ZcBxnltj7/5dL7UChCvtKkAAJLhJXiYtISqS6pW7t3TOt2WI2e8L35do3/OBHe67D1w++YY8jHI774p4Yz/TM9KKZnmkt3RKbotSiSJHiLoI7QIIEQADEDhQKqC0z70NWFQogwH0DeH4MBMBCVmbWgsqTX57vHJVKpByEEEIIIYQQ98zQNO1x74MQQgghhBALmqGUetz7IIQQQgghxIImQbUQQgghhBD3yVCagttlVStuv0xuuZw7WefdLOvc4X4sxH1drI/rdp6kfV2sj+t2nqR9fZyPayHt690s+7D2VV6DO192Me/rYn1ct/Mk7at8bj5Rr4FyHEcmKgohhBBCCHEfZJaiEEIIIYQQ98m4o2F2IYQQQgghxLxkpFoIIYQQQoj7JEG1EEIIIYQQ90mCaiGEEEIIIe6TBNVCCCGEEELcJwmqhRBCCCGEuE8SVAshhBBCCHGfJKgWQgghhBDiPklQLYQQQgghxH2SoFoIIYQQQoj7JEG1EEKIaeoRbMMp+J77+VFsVwghHiIJqoUQ4ini2A6O48wMZnMBrQPYj2AnFFgZC8uybrpdgmshxEJlPO4dEEII8fA5toPSFIODgwD4fD5M08Tn92FlLFLpFLqm4/F45l6BYjoQv+edyH7XYHx8HMdx0DQNj8eDz+cjkUig6zper1eCayHEgiNBtRBCPAUcHM6fPc8vf/lLAEKhEKtXr2b9+vWMj4/T29tLbW0tlZWVaJqGpmnT1zKzwbBt2e7tMPM6Z2EaRyE182fHcVAoRodH2b//C/pu3EChWL9+PeXl5Vy+fJlly5bR0NCAYRruOtUc63Lm+FmCcCHEYyZBtRBCPA0caG9v5+c//znr1q3jxo0bnDp1Co/Hg2maHDt2DF3XqaioQNM0NwC21YxgVdO16f/bTAfWt0rbKMifVigcx+HI0SN8+OFH6LqOYRj4fD76B/r5/LPPefnll6mtrSWdTuP3+2dsz8FNW1FK5UfOHceZXr9S0/sjhBCPmATVQgjxFNA0DV3Xqa2t5c/+7M9oa2vjb//2bzl79iwtK1tIpVKk02lMr8lUfIrBoUFCwRDBYDCfEmJbNuPj40xOTqLrOtFoFKUU8XicVCo1HeBm6bpOKBTC6/MCYFkWN27c4KuDXzE+Ps4777zD0qVL8Xq9DAwM5PdhaGiIc+fO4fV6WbNmDSUlJUxMTDAxMQFAdXV1PrAeHR11t6Xp+ZQWhQTXQohHT4JqIYR4GmhukBsMBgkEAsRiMZRShMNhUskU4E5gHB4c5te//jWffvopXq+X733ve+zatYtMJsOZM2f40Y9+xNDwEC/ufJHvfOc7ZDIZfvGLX3Dp0iU0TaOyspKmpiaOHjuKpjS+//3vs/tbu/Mj1n19fbS2tnLy5El27NhBZWUlmUyGeDyOx+MhFovx3nvv8c+/+GdMw+T73/8+GzdupLu7m08//ZTy8nK++93vUldXx9dff017ezvDw8M0Nzfz27/925SXlz/Wp1kI8fSSoFoIIZ4GDkxOTtLa2sp/+PP/wED/AFVVVYRCIUzTxOv10t/fT2trK1988QXPPPMMQ0ND/OM//iOZTIbyinL+6Z/+Cdu2WbVyFXv2fMLw8DBLly6ltbUV27ZZv2E9radb6ezqZP269Zw+fZqLFy+yectmgoEguqETLgkTDAUpKysjHA6TyWQYHh4mnU6TsTIEg0GUUkQjUWpqali5ciUXL17g7NlzbN26lZGRYfbt28fq1as5cuQIk5OTRKNRPB4PmqZNp4AIIcQjJkG1EEI8DRw3BcTv97PrpV2k02lOnDhBW1sbZWVlgKK/v59Tp06x5pk1/P7v/z69fb387Y/+ln379lFTU8PIyAjvvvsujY2NlJWVce7cOSYmJvB6vTz77LO8+p1XMXSDy5cv8/rrrxOLxRgcGmQiNoHf50czNELBEJGSCCtXrmTFihXEJmKMj49jGAa2ZePz+WhoaKC0NMru3bt55plnOHr0KOfPn6eiooJ4fILh4RFisRi9vb2sXLmSt956i/LycsLhsPtYJa4WQjwGElQLIcRTwHEcDMOgubmJP/iDP8AwDLq6uvjmm29Ys2YNpmli2zamaVBRXkFNTQ1+v59wOMzg4CB+v59gMEh1dTV1dXUsX7GctrY2RkdHCYVCVFRUUFNdQ2NjIz09Pfj9frxeL5lMZrpiSFYgEKC4uJhgMEhsIgaA7dj5/SyvKKeoqJiqqiocx2Fyys3hrqmpobi4GHBPEFa0rGDlypVs2LDhpkolQgjxqElQLYQQTwGlucO3fX03+MUvfkEoFGJoaIjq6mpM0ySTyVBRUUFDwxIuXbrIRx99RCqVYmxsjDVr1lBRUcGRI0c4cOAAHR0dHDp0CK/XS3FxMSMjI2QymfzXbfdFqZtTNXJFPBwHj+nBsiyOHDmCUorysnKKiopIJBKEw2FCoRCWZVEUKiIQCMxaORJYCyEeCwmqhRDiKVFSUkIoFOL48eN4PB7Ky8vZvn07lZWVdHd3U19fT319PZ999hlHjhxB13VWr17N5s2bKS0tJZVKcfr0adrb25mamuLFl17E5/Vx9epVysvL0TSNkpISGhuX5CuN5EbIcwG0z+ejvr4ex3HQdZ3SaCnJRBLLsmhe3kxJSQler5e6ujouX75MNBplzZo1JBIJ2tra6OzspLq6mpUrV7Js2TIikQiWZaFr+mN+doUQTzvl2I6c0wshxGKnYGx0jLNnzpLOpPF6vIRCIZYvX046kyY2HqOkpASAzs5OxsfHMU2TqqoqSktLsSyLeDxOT08PIyMjGIbBqlWr0HWd8fFxAoEAkUiE/v5+UqkUdXV1dHZ24vV68xMJUW5Zvv7+fiYnJ6mtrSUej5NIJDBNk1gsRjQaJRwO09XVRV9fH4FAgPqGesbHxunp6cG2bUpKSigrK3PL5ylFOBKe+VjlqCaEeAwkqBZCiKeEYzvYto1t2/mRYt3U3U6JSsunTmQyGbfmtAJDN9zUkezvbMvGsiwcHEzDzcPOpXNAtmtidvlUIgWAx5dtfZ5tGONYjlsT2zSxLAulFLqpu81cbGd6PUqRyWQwTRPHce9jGAaWZQHk88A1Q5v1QB/BkymEELNIUC2EEIvdo2zlPd+2FG5QfSf7kGtPXtim/FZHqlxHx8L7CSHEIyY51UIIsdg97GA6F8zOblfuMHeAfDt3sb+O40x3UBRCiMdIgmohhBD3rjCetcGxIZ2GeHySjJXBdixQEAoGCIa87mj17PvdybrnW0SavQghnhASVAshhLh3BakWU7E0Pd3DXLs6yMhYjJSdxDYsSiLF1FWX01BXSXGRD02/h8Hz2SPgQgjxhJGgWgghxL1z3Bg3k4Zzbb2cPnOZvr44U1MJbGxs3aK4ZILOnmHGJ2xWrVhKSRR0QN1NSogQQjzhJKgWQghx95zpL2XB+bYhvv6mjYGBSSYnNTRVhKNsHCfD6LjNZDwOThe2bbJhfQVFARNQd5drnXOr5WUUWwjxmEhQLYQQ4t5kg+qpcThzvoO+oQmmEgrb8eLYCqUcUAplWyjLYuBGjEt0sqIpSNBbfHNXRSGEWMAkqBZCCHF3ZpXNu94zytjoKJl0GttSOHYGHB0HB6VsUDa2ZaM0RXo8RmoyiW057t01RwJrIcSiIEG1EEKIuzO7JrTh4Bg26BaOAltlUNnI2wGwDbcZDIpJ3SFjgWNrOJqkVAshFg8JqoUQQtwVBygcXE5ZKTRsdOUG0iqfcO3+D6WhlE7aSpOywUFDoWUXkSRoIcTiIEG1EEKIe2Y7UBQO49F0DMdBg2zah4OTDa81pdCVQtegLFpCbnxasj6EEIuJBNVCCCHumuO4JfGUgtJSH6tXrmBsbIJkIo7lpLPhtMJRCk05GJpN0G/Q3FBDOBJG6bNWKHWohRALnATVQggh7lph3OvxwfLlDUwm4pw4dZbR0aRboxod5ejoSqfI72VVSwPNjbUUBT3oOvdWTk8IIZ5QElQLIYS4O2o6FnZwR6yLixTr1i7H44WTJ88Sm0iQSjt4dB/lpSUsbaijuameynIPpieb+qFmrUwIIRYw5diOXGgTQghxx5yCiDp3BFEKbBvSGYvu7m5OnfyGq5evUhGtZPv2nZRVVuLz63hMUBpuIJ1bz+ygWo5KQogFSEaqhRBC3Bs1/U0BugLN0KmvrmFkYIgb1/uoqa2mvqEGjxfQmHkHIYRYRCSoFkIIcc/UrAmGSoGmaTiOQyaTQukOmgHozByZntVARgghFjrt9osIIYQQ81OFP+T/45YHUZoDynKPNrdK+RBCiAVORqqFEGKxelC5yXcaAOfSQZQ7FO2OWiupRy2EeCpIUC2EEIvNg57oNytVQ823/oLbLctG0zSUBrqhz79f97uvUpZPCPGEkKBaCCEWEweSySQTExNYlvXAVquUmvH95u1O53ZkMhkmJyfJZDKMjo4yPDyM4zjz3/c+FIeLMXRDAmshxGMnQfVCMteIzL2O0kj3MiEWpWQyyeXLl+no6GBycvK+15fJZAB38qGmaXcUVAP09/czODSIZWewbfuWAf7dBtuWZYFy259v3ryFhoYGGbEWQjx2ElQvII7jZOvCOmjGfcwxlVn3QixaiUSC06dP093djWmadx2w5pbXNEU6naG7u5tUKkU0GqWkpASPxzN3gJwNqpVyvzKZDJGSCF6vycDAAKlUat5t3XVQbVsMDw2TSqXw+fxUV1djGMZDGQkXQog7JUH1AjI8PEw8HscwDIqLiwkEAmh6NrguLFF1K9llrIxFIpEAwOv1YpiGBNtCLAKWbTE6OkpxcTHbXthGKBhC09zPCaUUSrv1H7imppcdHR1l7969ZDIZNm7cyPLly/H5fFiW5Z7kF1BoOA7Ytp3/ndLcEnuO49y0vPt7NWObdyqdTnPy5EmOHj1KOp2eflzyGSaEeIwkqH7SZQ8OVsbi3//7f09vby9+v5+mpibeffdd1qxZg+GZ52UsPIbNqgsbn4xz8MBBenp6eOGFF1ixYsWtL+0KIRaG7NUsv99PTXUN4XA4n7oBzAw4b/PnXlJSQnV1NSMjI1RXV1NdXZ2vQX3zdhWO4wbjM4Not3j1nJvKN4/JfkDd4cdPOp2murqaoqIidF13t2fPkbN9q/VJ2psQ4gGTOtULhG3bjI+PU1JSwooVK7h+/To/+9nP6OnpcQ8ONmTSGVBgW7Z7m+Z+2baNY2cPctlRo2QiyfXr1zl//jyTk5P5S7ZCiMVHKXXPXQyVUmiahq7rM9I1Zn9pmkI3FJoOuqEwTC37pWMYGvpcX7r7pekKTdfu/Ct7kmB6zOl90/IR+szvQgjxiMhI9QKhUBQVFbF+w3pe2PYCP/zh/6K7u5vYRIx0Kk1nZyednZ0Eg0GWLl2KYRh0dHQQi8UIh8O0tLTgD/iJjcfo7e3l5MmTnD17ltHRUTxeTz7gFkIsLneS8vEgtvEoW48bhuF+6e73/ByTO02Dy8ntr4xaCyEeAAmqF5DJyUnOtJ4hnUoTi01QW1tLOBxmcHCQPXv20NXVRSAQYNu2bSil2LfvU5LJFD6fj9dee40dO3dw+vRpPv30UwYHB+nt7SUQCODYElALseA4bmUOy7JIpVJkMm6VjaGhISan3KtPg4ODZDIZvF4vtm2TSqWwbCufIjJjdY6DaZo4joNlWei6TjqdZmxsjJGREcbGxujp6UHX9fzy+ZQSyE9UtG07/3twq4akUik8HpPCD5rc723bRimFaeo48xTAVtkJkCj3Z8dxGBkZYXx8nLGxMQZuDKDrOpZl5dcH05VLcuX8LMvCNE08Hg+RSASlywefEOLBkaB6AcmVyjp//jymafL6669TEi7hxIkT/OpXv6K5uZmhoSESiQTNzc2UlpYRCAT48ssvOXXqFOUV5Xyy5xP6evvYsmULuq4zOjoK5HIahXjA7vZtJSOGt5cbjc2mcnV2dnLo0CF6e3sBmJya5ML58yil0dPTg8/nQ9d1vF4vkUiEmpqafLBZKJFIMDIywvDwMJBNE0smOXXqFLZt09vbSzQaBRxCoSJCoRCRaASP6cmuQcu+3G66yMjICBMTExQVFeH1evOBbS7gzeVdx2IxRkZGiE9OMN8bYHYKSiqVYmhoiGvXrnH16lUuXbqUPyHwer3U1ta6E7mzaSKFOd6pVIqpqSnWrVvH6tWrH/oovhDi6SFB9QKi6zpNTU14PB6uXbtGLBZjfHycM2fOMDAwwKpVK4lEIui6Tk1NDc3NzVy5cgXbtonFYlxuv8z17uusWbOG3/qt30LTNI4dPwbcPGolhHgCFeYLO+4o8JEjX/NXf/VXtLW1Ae4kvlgsht/vY+/evflqHHV1dbzzzjssWbJkzlUbhkFfXx8ffPABPb09ZNIZMpkMiUQiPxmwuLiYVCqF3+9n+/btvPbaa/h9/uwatPzuTU0luHjxIp2dnbS0rGDdunU4gFNQGQTckeRz586yb98+bvTfYL6g2nEcbNvOf6VSqXzQHwqFUErlTxwaGxvZvXs369evx+v1kB04B9xKR8lkknPnzpFOp6mpqSESjdzrqyGEEDNIUL2AaJrG+vXr2b59Oz/+yY/5+OOPCYfDOI5DRUUFK1eu4vnnnycQCNDe3s5f//Vfk0wm0TSNdDqN1+vF6/MSj8cZj40zPj6OYzszJiAJ8UDc69vpcea43uk27+ax3Ut+710s76Y6uKPCfX19mKaJZVlomkY8PrPxSyDgBsKbNm3C4/XctLrEVALbttmzZ0++BvRsuWYyNTU1vPjii3z7298mHA5nd0fLP4hkMolpmkQiJWzZupm1a9diGO7hJjdq7OCQTqWJT05w4OCX9A/ccFNT7tLo+Gj+5+JQMY2NjXznO99h3bp1AG650CxNaYyOjmIYBul0Op+qIoQQD4IE1QuIz+fD5/OxavUqXn/tdUaGRzh69CjPP/88RUVFdHd3k0wmCYfD9Pb20tnZySuvvMLFixeZnJykpqaGFStWcPHCRT784EMuXrxIKpW6/4D6UXYye9jbedjB3Fzrl/MZcTvZ1uPJZBKAQCCA4ZnZ7CQ3mmzZFnP9SWuaTlFxER6PpyBlY5qu6YRCIQxDz6dpzHcFy+PxEAqF8Pv9+AK+m37v9Zp4vV48Xg9+vz+figEzg2rTMAkGgxiGgWmYKOve/xhsy84/D4FAAL/fP7P+PoAGvoQvny8uV+iEEA+SBNULyNatW2lqagIFa9euzeZOXmDlypV873vf4+zZs3R3d1NSUsLKlSuJxWKk02lqa2uprq7G9Ji88/Y7HCo/xMWLF4lGoyxfvpzS0tKZE47ugWM7N+cmLsRg8RG1by88mCvUg3+uHvT67ubEySn4mm2+dTiFP7qdQ23bxnbse3od8sFmwcS22y77OKm55zUU7ndXVxenTp0iFouxatUqVq1ahcfjmbGcbdtoSsPOTT4ueNhKKRJTiXnr0edyljVtZum8uVhW5pZBd24AOJPOuKkazNofBcqZeX/btvOB8b1wcFNEJifj+QmchmHM/Fsr3OYT8LILIRYXCaqfdNlgRtM0fu/3fi9/CdXn97F1y1bWrF5DuCRMQ0MDO1/cSSqZoqioCNM02bhxI8PDw2iahs/no6qqikAgQDgcZsPGDTi2QyQSIRKJ3NcBxnGcmbPoc5UF7iModew5uq89xOBnzpJgD3Jz2SAzV51g+mYn/1jvd9Qsd/8HOfqWW1eug96dbCM/ElnwZdt2PljOKZyw5ub92rPWM/d27vQEMPc859Y93/ry+1zwWtxKYQA7+zHdtEz2pOBeXpPp58W9b29vL/v27ePChQuUl5fzwgsv8NxzzzE8PDwzjWGe97DtTI/k3u6x3d48AbU9vR7HcdD06QB+xsmjk33vZ5d7kH/bhmHi8/nyz9+c676Dky0hhLhbElQvBA5ohkaoOJS/SaHw+/0Eg0HQwB/wU1xSnF/esR2KwkXU1NXkb8spLS+ltLz0pm3ck2wFgu5r3Xz99dd0d3ffd0pJbjJSLtCZ3tTDa1BzU8tl5W6Rgm8PbmMUXJ5/cCvPBScPOkiZPWo53wjl7N9PB5zTr+Ls0djCsmt3uz/3uv9zcRwnH3TeUnZy4HzB9IM0u9FKKpVibGyMK1eucPLkSdra2vInaR6PJ/+8z9vy22HO90a+pXiuZN0dPL/2rAmHc+57wWpuVV2oMLAu3PZdv4+zVzdisRhjY2NkMpn8SH4hTdPy+yNBtRDiQZKgeiGYKz9S1+a/JK9wR47nalNe+B3mX8edcqYP+rnJP+l0esFdWi08eOeaZWhKuyk4uKN1FQT/dxoUPIoUhFxZslwAO3ubuQoKuZHM+9mnu338d7PeBzGxdroLoHbfqU+32oama/kR0bsN4HL7ltvXsbExzp07h67rNDY2smPHDpqbm2lvb8eyrPw23e+Qe+MWngAUBqqzrzoopW45ql54e+6kybIssHNXptw25e6+Z/8Oso89l44xW76mNTPXPdfPtyt9p5TCdmyGh4d5//33OXXqFI2Njaxfv56qqipMjwnKzQfPTd6+1ai9EELcLQmqF7LbxRXz/X727XdT9WD2stkAvqamhrfeeotEIoHS1B1dRp+xmtsEfIXLPQqFqQt3q7BJxd3s78Puapnbn8J84xnbz7aytx37rl+/m7aVDYByo6azg+yHkapyJwqDVNTcaUYPUi794FbP+7wcZrwHe3p6GB8fp7a2lg0bNrBp0yZKS0vp7e1F1/XsttwNONkrBIWU5ga4iUTCremc/X3hc5DJZPIpZjftTsFrZts2qWTqptHt3ENLJ90R9GQyydTUVH40fTbLdtOKdE1H0+a+EpJ/3m7zUtmOjcId0Z+cnKSzs5P+/n7OnDnDkiVLiEajNDc3Y5omk5OT+cmKQgjxoEhQvVjc7USy+93WLJruBk9+v//htUV+1KPf95ES80Sb73FNV0R7eNssmKh2v1dIHoSHepKmbp2/fCf3V47KpyqEQiG+853vEAqFqKyuBMBKWwQCAUKhED6/75ZPqWM7XLt2jY6ODvf/s05sEokE7e3txGKxm3dFU5i6mT/pDQQC9PT0cOXKFSomKrBtG8tysC03LSSdTjMyMsLo6CidnZ1Eo9E5n4t0Ok1nZyeJRALDMFFKy6Z/WViWnZ04qc08KZnv8WUbv5RXlPOtb32L8vJyOjo6+Oqrrzh48CCRSIRVq1YRLY0yODBANFrK+Pg4VdVVNz3v0oRICHEvJKheCGYHzLPTOuzsrH9jjsvYc6SA5EYk51z+dtuebz+ycsH1Q7FQDnSFgePdLP8kuNt9v5t1OnPcNjsd6W7W9yA87BOguR7zPQqHw5SUlLj/yVXXyGRoaWlh9+7d1NTU3Lz5gsA5GAwyODjIqVOn5kx5yQXDa9eupbKyMr/+7u5ulFJUVFS4czhwy3sqpTh9+jSBQAAApTQUWr4deH9/P6bHZGJiggsXLmSXmfmEW5ZFMplk5cqVLFu2DMuySCQSdHR04PP5qKmpwfSYKFRBOszNz42dnRitaRoVFRUMDAzkOycGg0FaWlqoqKigt7eXjo4rDAwMUltbSyQSwXHcCdtlZWXTn4n3mxYnhHgqKceWmRoLRWIqkc9X9nndg1rGymDohnvA0TVQkJxKkslksG0bv9/tdpZIJNB0Db/Pj23bpDNpfH4f2BCPx4nH45SXl+ereKSTble2oqIilFJ0d3fj9/sJh8P4fD454Ii7M9enzNP2HnpIn7QTExNMJaYYGR65eZMF1VeAfD76XCk+uYYthak6ExMTfPbZZ4yPj/P888/T0NCAprmjyaZpAtN50Tju5YfCvG4HUGo6hWWuEefCSY9KUwwNDvHRRx8RDAbZuXMn1dXV+ccyn/xjzH42WpaFUorrPdf5dO+nVFRU8OabbxKLxRgdHWVgYICpqSn6+vqYnJxkSeMSNm7YSEtLC8FgcPpKm4xaCyHugoxUP+myn+3pZJq/+/u/Y3RklEwmQ21dLaXRUs6ePcv4+DgtLS289tprmKbJsWPH2L9/P8lkkmeeeYadO3fS0dGBYRq0rGjh7NmzjI2NsX37drq6ujh06BB9fX1s27aNLVu3kE6l2bNnD9988w3V1dVs3LiR999/n5GREXbu3Mmbb71JVVXVrfdbCDHTQwrQgsEgfr+faCTqbmZWBY1Ct5srMDvojcfjXLt2jf7+fpYvX87y5cvd6idzlFfMdVScMfERB9T828tNnMyNnOu6zo0bNzhz5gymadLU1ERDQ8NNj2u+fS+cfOg4DoZhEI1GiUajbo1/3JSTqakppqamuHHjBh0dHVy92sEHH3xAVVUVGze6wbXbCMd4+k7+hBD3TILqBWJycpJ9n+5jbGyMTZs2cbXjKl8fPkxxOEx1VTXvv/9+vnPZ3r178weXzz77jI0bN3L27FnC4TCrV62mvb2d7u5u1q5dy5EjR7jWeY2ScAnvvfce8XgcwzD44osvKCoqyndxu3jxIlVVVe4l0vlKdgkxHwlMXA9jqoFS6NrDqWKRG5U2DAPDMKbzotXNZfKUM1dSvoOj7qyhS65SiFIKn8+HYRh4vd7pNd3moqrjOPmR+Fzgrxs6hqHn/296TQyP4V7B06CyspJly5bR3d3NtWvXOHPmDD/96U9pWNLAls1b2LRpE16/N/dQhBDiliSoXkCSySTPPvssv//7v8/hw4f56quvWLp0KTXVNaTTafbu3UtRURF+v5/XX3+ddDrN3/zN32BZFmNjYzg4pFIpUqkUIyMjXLlyhePHj+Pz+aisqGRoaIiRkRFqa2vx+XyMjY2xY8d2ampqiEajvPLKK+zevZtQKCQ5h0KIR8LwZA9TDncW2OaKhVhzdeUpWMYGwzQoiZQQDrsNtNasWcOJEye4cOECv/rVr2htbWXTpk00NTVRUlLycCZgCyEWDQmqF5itW7fS0tJCd3c3wWCQ0tJSli9fnq8R8PZL3gAAIABJREFUfeNGH7W1daxatYrBwcEZl0Jty57RZc6yLCbiE0QiEaqqqvj2t79NS0sLy5Yto+9GHx988AGtrWdoamrGH/DPmKjkrhQJrIVYxHLl7ZLJZD4fGeZr1qNlyzZCLtfFdhwcsjW0b/NhkWv6lEwmiU3E0DWd0dFRwmG3qdUcVQLn3WelFLZtMzY6RjKZmr8mdUFDnKKiIoqKiqitrWX79u0cP36c1tZWvvjiC1pbW1mzZg3Nzc1Ey6Iz7i+EEDkSVC8gudn5uqFTVV1FXV0dU1NTKKXYsmULlmXx5ZdfMjAwwNdff83k5GS+Tq5h6PT19XHmzBn6+vpIp9NEIhHq6+rxeDz4/D4qKioIhUIopSgvK6c0Wsr+/fvZtWsXAb+fQ4cOUVpayooVK9zgWgJqIRY1TdPweDzE43EutV3ixo0bbi1r0z10zAiUsxMV3UmDFpmMhe3YGIa7jtt2YMxKJBL03+jHtm2OHj1Kd3f3Xe+347iNafr6+kimkpSUlLgdFvVZtbIL0lhy+2CaJpWVlbz22mssX76co0ePcv36dQ4ePEhvby8tLS3U1de5V+yEEKKABNULSGVlJdFoFBQ01Dewbt06Dh48yN69eykrK2P9+vU888wzHDx4kCNHjhCLxUilUvj9fmpqarlxo5/f/OY39PT00NDQQGNjI6tWr+LsmbN8+eWXxCfi+dzJq1evous6y5cvp7a2ltWr1/DVoa/47LPPiEQiBEPB2++wEGJB0zSNZcuWMTQ8xPDQMDf6bmAYxpzdEd1C5+TbhQ8NDTE6NoLf73MnG97iJLwwONc0jXA4TCqVon+gn7Gxsbva58KJj5OTk5SVluUnWM7a6MzvhV0ndYWdtlm6dCnVNdV0XOng8OHDHD9+nKtXr7J27Vo2b95MsCgoo9VCiDwpqfeky37gZ1IZTp48SV1dHdW11WDDyOgIF85fYHJykkAgQFNTE0opBgcH6e/v58SJExw4cID/8T/+B6ZpcuXKFUZGRjBNk/r6eurr64lNxOjo6GBkeATbtmlubiYSidDV1cXg4CCVlZU0NjaSyWS4dOkSgUCAuro6yivKH+/zIoR4+BwYGRlhcHAwnzpWWCFkRkUOZ7qjTyqV4ptvvuHcubMsX9HMc889N2+nxofN5/cRjUbx+/zoxi0mdBYE1bPZtk0sFqO1tZXjJ44Tn4hTU1vD1i1bWbJkCT6f7+HW6BdCLAgSVC8EDqC5E29yE2VyNWZz/0+n0vmDXSaTQdd1Dh06xA9/+EP+03/6TzQ2NubzqAs7lOXyCcE9cOimDg5k0pl8EwdgxrJuOkn2ACkpIAuP5MKLO5HNN861/57xqzkPG1o+ME2lUpw7d47f/OZznnl2Dbt27crXtX6UcqX/dF2//STDWwTVOVNTUwwMDHDh4gX2f7EfpRRvvPkGa59dO3PUWv7GhHgqSfrHky4bUOc+rG3bRtPdoBgNt7OaxoxRINM0cRyHxsZGtm3bRlFREWigKc3tGJb7wLfJB866oU9ParSd/Ix7XddnXCa1M+725ZLnAiQHenE3VLZcn5pndHeuz4DsbV7lJZFIoBs6pmliGMb8I7kP8bOksKnM7DSP+cxXD9txnGwqXQ0VlRW0rGjhi/1f8LOf/oy2tjZ27dpFZUUlHo/ntjW1hRCLkwTVT7qChhFKU+6I0ezREGfWgUCBchSVlZW8++67blA9V6vo7NXafI3b7PqUXrCN6Su6ADODcvFkKnhtrLQ1nWOaPQlzHGd65FFeR3E7c7Wuv59A+A6D2wch/7l4F6X45ltWKTcwN70mJiaNyxopKioiFAzR2nqars4udu/ezapVq4hEIvI5KcRTSILqhWr2h/WMmDr74W+alJaWzj1qMleQPdf/57tNPLGstMXo6Cjt7e3E43E0TSMUCrFkyRIikQi6ruNQEFjPZa4A43YdAe/39+LJdr+v3Vyv/5OYLnEX+1FaVsrbb79NY2Mjv/niN3z55X6Gh4fZtGkT5eXl0pFRiKeMBNWLmNLUk3WwEg+dlbG4du0an3/+OceOH6OivIJMJkM6nebll19m586dBAIBd+FcWlHuPaK46f2SSzfKBT+ZdCbftS63Djvjlm1U+sxL7LZlT1/yzw0YOs70lZXs9h3bzdWfiE/Qea2TVCpFS0uL2/VuViCWKxEJc1xRkYD90cg+107u5XYKvlI2pCfQhnpo6m5DXb/KMsNCX1IO9Y3g9WRXYLrfC99/sDA+q5yZP+u6zrNrnyUSiXD06FFOnz7NwMAAW7ZsYfXq1TPvM8ffmBBi8ZCgerGTD++nSldXF/v27eOzzz6jsbGR1atXk06nuXLlCvF4PN8Uw3EcDNNwA19tuhTaDA5ouubm0WeXyeXaO5ZbdsyxHDdwVtO3UdiVWrkj57nAXOnTb8jc8rnbUskUFy9exHEcGhoa8Af9+Rx+K2Oh6/p0gJ8N5jVjnn0XD18usM6du9sWxPrg4gk48inG6dOs6L1BWUcpjF2FTdth3UaoLgctBI5REFQ7sBDzkJX7N2Iqk7r6OoqKiggEApw6dYrx8XHS6TRr1qxx63rPCsbls1mIxUeqfwixGGQnnn788cf89Kc/paGhgT/5kz+hvr4ey7KIx+NYlkVpaSmjY6O0XWoDoKysjGXLlqFpGt3d3XRf7ybgDxAIBNB1ncnJSRKJBM3Lm9GUxuDgIMPDwziOQ21tLdXV1YyPjzM+Ps7w8DDpdJri4mIikQjXr18nlUpRXV1NQ0MD/f39tLe34w/4aVzSCODWMh4dJRQKUVJSwsjICKlUisbGRkKhEJcvX6avr49oaZT6unqCwSBjY2NcvXoV27bxeDzU1dVRWlo6Y0KveASyJzcZbAwsGO+EA7+Gf/prOHkE+oFc35ZqYMNaePN34Z23oKoJnMB0UK1x0/yNhcaxHWzbJpFIcOnSJfbu3UsymeSll15iw4YN+P3+O6tCIoRYsGSkWojFwHHLmF26dAld1/kX/+JfsHTpUpSusNIWXq8X3dTpuNzBL3/5Sz755BNSqRTr1q3l3Xd/h5qaGv77f//vfPHFFzQ3NxMIBCgtLaWrq4sbN27wb//tvyUcDvOXf/mXHD9+nIqKcl56aRe/+7u/S09vD/s+3ce1a9eYmJigpqaG555/jl/88y8YGxtj9+5d/OAH77Jnzx5++tOf0tTUxNtvv83atWv58z//cwYGBnjmmWd49dVXiUQiDA0NUVpayhdffMGPfvQjrl69yrJly/jBD37Aq6++yqeffsp//s//mXA4jM/n44/+6I/4/ve/T3FJ8eN+FZ4eKgO2e/iwSYE1Bic+J/l3/y/en1y7efleoPc0tnYardSBN/4YfIDygdLyVYwWclCtNLdSSjAUZMOGDZSXl/Phhx+yZ88exsfH2bRpE1VVVY97N4UQD5H+H//v//gfH/dOCCHuXzwe5/jx4wwNDfHKK6/kg0xN19y0CRt+/vOf85d/+Ze88cYbvPDCC7S1tTE+Pk5ZWRnnz5+nubmZt956i9bWVjRN4/XXX6Ov7waBgJ9MJpMPDnbv3s2hQ4cYGBjA0A3Onz9PY2MjL730EuPj43x16CsqKyvZtGkjJ06cxOfzMTw8zOXLl3nzrTd5/vnn6ezsZM+ePWzZsoUdO3ZQVlbGxMSE2wU04Ocv/ttf0NDQwNtvv008Hqeru4vKikoGBwe5ePEi/+pf/SuSqSRej5fm5mZCwdDNXfPEg6fAwUbhpv3oWDB0FT76e4yPD8DQLe46AfhTsGoDFJWAx4fjaKhFEFTnZUfcg8EgtbW1jI2Pcf7ceUZHR4mWRuV9KsQiJiPVQiwG2YO43+8nnU4zMDBAWVkZHq8nX1/ccRxisRhlZWX80R/9EUopuru7uXq1g56eFkKhENXV1WzcuJHDhw/T2NjIli1buXGjH8MwyGQyVFZWsmHDBjZu3EggEOCTTz4hGAzS2NjI5s2b2bFzB4ZpcODAAepq6ygtLWNJ4xKampowPSbRaJShwSE0TaOlpYVdu3Zx9epVpqam8Hg8aJrmdq8bj2HbNj/4wQ/Yvn07xcXF7P10LxcuXEApRW1tLVu2bGFgYABN00in0/l66+Lhs9Ax8rMUbeyrV9CO/xIu3uaOPUD7Aei9DvUr3Psv8LSPGQomXOqGTm19LW+8/gb79+/n1KlTJBIJdu7cSVNTk5tnLYRYVOR0WYjFwAHd1Fm3bh3BYJAf//jHnDhxgth4jLGRMQ4dOsQ333xDKpUik8kwMjKSn7BYWlqG1+slkUxgWRaGYaDrOiUlJXi9XkJF7sia47g5o4ZhYNs2/f39mKZJJpMhEolQWlpKcbiY8rJywuEwtbW1bN26lddfe53i4mKeWeOmeAwNDbF3717i8TjvvPMOy5Yt4+DBg7S1teHxeAC3HGQqnWJiYiKf123oBqZp4vV6813ydF13u+ZJMvWj44DuKBzAyiZFq/gUTI3d2f1tIJEmNxFAKRbPKPUcyirK2LlzJ7t372ZkZIQPP/yQkydPMjU59bh3TQjxgMmpshCLhQPLVyznxRdf5JNPPuG//Jf/kp9g2H29m5defIm6ujqi0Sj/83/+T3w+H5OTk2zevJloNIqu6ViWhWVZN9U293g8GIZBX18f7733Hp9//jldXV2sX78+PzqeU1dXx+rVq7lw4QLpdJpMJpMPKA4ePEgmk0HTNDo7OxkYGGB0dJSBgQGmpqawbCsf0C9pWMLf/d3fsX//fsbHx6moqGDJkiV0dXWhaZo7Mp3t+KlQ0sXuEVIOOFouDtaxgsUYWhkwePs7OwAewAA7O66j5fI/FpGC8pLlleXsKttFqCjE5599zv79+9E0jTVr1uDz+x7rbgohHhzJqRZiEQkGglRVVRGJREilUwQDwXyFjK1bt7JhwwaqqqsYHBzE4/Gwbds2du7cSU1NDV6vl6VLl1JTW4NlWVRWVtLY2AhAeXk5yWQyX5qvurqalStX8s477xAOh/H7/TQ2NhKJRAgEApSVlZFOpzEMg+LiYlavXk0mk2FiYoLly5ezefNmli9fTl9fH6Zp8sILL7Bp0ybKysqIRCIsWbKExsZGUqkUiUSCxsZGXnzxRdauXQtAcXEx69avwzAMqquqqa6uJhAI5Mv7iYfMyZXSUyilYyUn0Nvb4GjbbSuwJLc8h7HjbaheBkY2oNSYLqmn7uDrSadu/llpioqyCkpKShgYGKCtrQ0Hh0hJBNM08x0bhRALl5TUE2IxydaLdnDmbpqSa9zhuA1Xci3MbdtGaSrfiCWZSpJJZwgVh0hOJfF6vRw4cIA9e/bQsrKFV195laLiInQtm37hOGiahmma7s+GRjqZnrFrpsfEtmwm4hME/AEcx8mnmzjZj6FcOkduvxwcHNthYmICv9+fz+22bTufemKaJqlUCo/HI+XKHhWbfO8WBTiTN1A////gJ/8P7Jn/blObwPit/xPzd/4vqF0G2brn6M70CheDW7wNbcvm4oWLfPbZZ/T39/PCCy+wefNmioqKJM9aiAVO/oKFWEwcd0RMOQoK5uxpznRXxPxV9oIGFIXVCJRS7iVpv7uM1+vFwc1hLi8vZ0nDEqLRaL4Fs2O7K84FxplMBo/mwfSY050Us8toukZRUZHbhMayMb2m25FRUyjcxjSapuU7LipHoTRFcbg4vx7TNPP76vFO52BLQP3o5QaXnVAxaud2aN8F538DnXMs/Az4v7URXvkORErdUnr59+DT89ppusaqVavcybd793LixAkymQzPPfcclVWVj3v3hBD3QdI/hFiMCtuOz75tvvglm5s85+1KEfAHKCoqYvXq1fh8vnxb8tn3yQXoqqANtULlR88dN2nAHZHO5kLn1pEbPb/pseR+zI22q3luF4/OjOdfh5JyiDTC0mUQHoFQv3tiFwK2Ad//M3j1/4CWHRAqAl2bmfLxtMi+d4vDxTTUN9DT08OxY8cAKCstIxgIzmxk9DQ9N0IscJL+IcRiNTuoLrydOX433/IF4vE4uqbj8/lIJBJkMhkCgQBKqfxIdWFQnPvZKfiYyaV3FO7LfMG8WECUA4lJ6O+Dq+dgoBvGEmCHoDwMzU1Q24BdVIqmKbfHef6+j2+3H5tsJ8ne6718/vnnXLhwgTVr1rBjxw5q62vdFBt4Op8bIRYoCaqFEDcrSA3BcXOyOzs7+fjjjzFNk5UrV/LJJ59QUlLCH//xH1NeXj7nam4VVBfmeM995wf2aMSjkGs5jgPpOKSSbnUPLQSaCYHs7/WCSh9P89En9zemIDYW44MPPuDrr7/m+eef5+WXX6amtsY92ZS/AyEWDMmpFkJMK2hekTvo25bN4OAg77//PsdPHGdJwxLa29s5e/Ysv/M7v4PP55uRBuI4znR+c3Y9SlM4lkMqlcIwjOmRbQcphbdYaJACkijQQ/h9IXQgg0Myu4gJeKEgAC/wtL0Nco/XhlAoxMsvv0wymeTs2TOYpsmLL75ITU3NY91FIcTdWWSFQYUQ98xtjkcmlSEeixOfiJOcSpLJZOjs7KStrY1lS5exZMkSLl+5zK5du3jllVcwTZPhoWGSyWT+EyUxlWB0ZJTEZAIcSE4l+c1vfsO+fftIJBKkUinGx8cZGBggkUg81octHoBs+rwOeHEIYGPgoBwwbUXIhpAD3txItpjxNCilqK6u5s0332TlqlV88803HDp0iNhE7Ob7zHVCIoR4IshItRDCLaWnK0aHR7lw4QKnTp1iYmKCmpoaXnjhBbq7uxkaGsLj8TA4OEjP9R4cx6G9vZ22tjbGxsZYtWoVzz//PLFYjIMHD+bL4D3//PNcvnyZH/7wh3g8HjKZDKFQiLa2NjJWhrXPrmXbtm1uNRGxIE3PqXMwcNDmmmWXr7/3FE5OnIua9R2oqKrgte++hsf0cPHiRXw+Hzt37qS4pFgCaSEWADmKCSFQuiI5laS1tZVf//rXdHV1oes6R44cybcJn5yaZGRkBMMwGB8f5+rVq/j9fn7+85/jOA4er4eGhgaOHj3KP/zDe0QiUVKpFH6/n8OHD9PW1saSJUu41nmN693X2b9/Py0tLURKImzbts0d5bZnTWQUC0S2ZOLsYdQ5X8ZcTtActz/tgaMDFRUVvPLKK3z00UccOXKEYDDIli1b8Af8c04Gnn1/d4FHs7tCiJkkqBbiaZZrBmM5xONxzp8/T09PD//yz/4l1VXVfPLJJxw4cIAVK1awaeMm6uvrqKiopLOzk7feeguv18uhQ4coiZSwsmUlk5OTXL58Gdt2eHbts/T29DIxMcHatWvp6uqisbGRt996my+//JL29nZqamqor69namqKkB6aOYFRLBh393Ipt1KImJPSFOUV5bz66qv8wz/8A4cPHyYYDLJ69WoCgUC+2dKc91VqxnchxKMlOdVCPM2yx2alKTKZDPF4HI/XQ3NTM01NTbS0tDA4OEg8HidcEiYaLSVUFMLr9bJkyRKamprYsnULA/0DHDlyhO7uboaHh/F4PDz7zLN8+9vfdlujV1Xh9XoJBALU19ezceNGXnrpJU6dOsVnn33GjRs3sCxr4bShFuJhUlBbW8s777wDwIcffkhPbw/pdPqmgNpxHGzHzv/s/vBI91YIkSVBtRACAJ/PRzAYpLenl6+++oqLFy/y8ccfE41Gqa2tRVMauj7dplHXdTKZDJUVlYSKQnR0dNA/0E80Gs1fqvZ6vaRSqXy1j3g8zoULFxgbG6OhoYG6ujqOHTvG8PDwjK6OYiGTM6P7ls0/r6+v59vf/ja6rvPFb75gYGBg3lFo27FvOYothHj4JP1DCAFAUVERL7zwAjdu3OBHP/oRU1NTlJeX86//9b/GNE0OHz6MZVluC3QUum7Q3X2dX370Sw5/fZjvvfM9Nj+/hXVr1/HX//uv+a//9b9hmgbvvvsuu3fvprq6mr1799LX14eu60xMTHDp0iXeeecdqqqq5JL1onCnr+EcBcolFryJYRqsW7eOdDrNp59+yi9/+Utef/11Kioq5pzYm+tWKoR4PKT5ixAiL51K09vby6lTp0ilUtTU1LBx00YUihs3bhDwB0mn0wwMDrJs6TImJiY43XqakeERlq9YzqqVqwC4fPkyly5dQGmKlpYWVq5cyeXLl/nmm2/yaSDJZBLbtlm3bh3V1dVukCDxgBAzOTA5Ocm+ffs4fvw4O3bsYOu2rfh9/ptORHOTfDVNk78lIR4DCaqFENOyrZNz7IyNZsyRluGAY4HSIZ20sCwLr9eD44Cmc+vEMsdtKKPp7oHfsQqaxQgh5tTb08t7773HRHyC3bt3s37degKhAI7lHsJzqR8SVAvx+DycoLqgvbEQYgFxsqNdesEROdtV2s7YxOOTWBkLx4FUKpXPsXYcB03T8h0TNU3DH/ARCPndVWSmg2hsbp12K58bQkwr6G7a3dnFz372HhMTE/zhH/4hTcub3DKUODj29B+OBNVCPB4PPqdaQefVTkZGRli3YZ0cIIVYYJRSbjOYXGm7bP3orq4u2tsuo5SWnwxVOCnKvRLtHsmnpqYwPQZLlzbS2NiIx+dxF8oGB/n1y9xEIe5YbW0du3bv4qc/+SkHDhwgGo1SUlLyuHdLCJH14EeqFfT39ROLxdyzaAmqhVg4Cv5ecyPWkxOTnD59mtbWVgL+ID6ff86gOvd/XdeIxSbo6+shHAnz6iuv0tjYiG7o+fXnG7zMFVTLZ8bTY475imKWwhFnBxJTCQ4fPsyn+z5l48aNvPH6G3g8Hizbcuu8I+kfQjwuD36k2nFbrVZUVciHpRALTWFXadtB2Yrz58+zZ88eqqurefGlFwn4g9j2dF3c6QDbxnGmL0Vf67zKV18d5OTJk5SUlBCNRmc2p5CD/tOrIM0ol7agdOmoeCd8Abd1eUdHB8eOHqOyopLNmze78xJyreCFEI/FwympJx+MQix4Sils2yYWi1FTW8Nzm56joqIC0/DkA2k3uHZwHGYE2gCarhgeHqK/v5+JiQlKSkpm1LmWAEDYGRtN09z3joVMWL1Duqnz0ksvMTo6ysGDB6mpqaGurk6ePyEeM8loFELMSWkKy7JIJBJESiJEo1E8Hk9+dDr3ZdvOTbc5joPHNCktLcU0TcbGxqS5i8gbGhpi//797Nmzh1/96ld88803TE1NTS9wJ/1jbvX7uQZ2Cm9Ts74vFAX7W19fz/r16zEMgy+//JKJiQlp/CLEYybNX4QQt5QLki3LygbRdkFA7Y5UW5Y9I6AGyFgWlm3l7ydEzoULF/jxj3+MbduUREowDZNt27axe/duQqHQdK71fFczslVkbNvGsiwutV1iaHCILVu24PF43Kssls25c+cYHh6moaGBxsbGmeulYP0OMyfnLgCGYbB27VrGx8c5efIkra2tbNq0Cb/f/7h3TYinlgwdCSHm5wAoHEeBo/K5sG5gDY4Njq2y38G2HWwb7Oz/sbNDjo60rn7qFbz8U1NTdHV1sWzZMjZu2Mj4+BgHDhygvb0dy7JmTGhFQSadmR69VjA8OMyVK1dIp9OYHhM7e1Jn2zYdHR10dHSQTqeZnJxkZGRk5kldQYk627KxM/b0/R17ZtD9pHLcK0mRaITnnnuO6upqjh07Rn9/fz4N64l/DEIsQjJSLYS4BQ0cDeWofLBsOw52NvBwHOUG1/nvuXJ7jhtkWw44GnL+LvKy+fdKKdauXcvGjRs5d+4cV65c4cKFC1y/fp34ZJw1q9fQ1NRELBbj4sWLpFIpLMvC4/Fw5swZenp6qKys5OWXXyadTjM1NUV7ezs/+clP0HWdb33rWxiGQWlpKcFgEMuyOHv6LO3t7YRCIdavX09paSlDQ0O0trYSj8dJp9PU19ezevVqQkWhx/1M3ZamNCoqKti0aRMfffQRx44dIxqNEg6HH/euCfFUkqBaCHGz/CiXQjlusWrbcrAsB6tgVBrHvczuZGtbO5AfwbZtyGRsFFp+lJvp1YqnSUEOcy7NYnJykoMHD9LX18e1a9eIRqMkEgkOHDhAf38/R5cc5U/+5E/o6Ojg7//+75mcnKSsvIzKigouXWpjYGCA4uJiSktLSafTHD16lM2bN/P+++9TVlZGWVkZ4XCYjJUBIJPJ8JOf/ITe3l4SiQQvvfQSf/qnf8qlS5f40d/+iJHhEfx+P9XV1fybf/NvCBWHnozR3lvtgwJd11m9ejXXr1/n448/prKyku07ts+cFCyEeCQkqBZCzM9xsPO50ja2Y+PYTva7ygfPtnK/Z+/idnmzc4G0I5MUhcuZztGPx+McPnyYq1c7WL58BRs2bKCsrIza2lomJib4x3/8R/r6+khn0iQSCTZs2MB3v/tdMpkMFRXHGBoa4uWXX2b7ju388H/9kGQySTQapaWlhW3btvHGG29w6dIlOjs7OXfuHJ2dnTiOw7/7d/+OCxcusOfXe6itrUUpRTQS5a0338Lr9fIXf/EXDA0NuX0WFgBN1wiEAqxbt47Tp09z+PBhqquraW5uzpewlJNYIR4NCaqFEHNT2VSPXLSMGxBZtuXWFnY0N+DGHbXOjVS7NzjTK0G5TSlyObFPwuifeGxyjX/CJWF+8Ns/4Hvf+x5FRUVomsaVK5dpbb3OwMAAqVTKzXO2bJqbm3jjjTfYuHEjo6Oj9PX1EY/HqaiswOvxuuvFobS0lPLycurr6ykvL+fMmTNMTU2haRqmabJ161Y2btxIU1MTp06douNqB5GSCMXFxSxZsgTDNDAMA2ehvUltqKur4+233+a9996jtbWVqqoqgqEgKvtPAmshHj4ZPvr/2XuzIDmuM7/3dzKz9up9X9HYNxILCYAkSImLNBJlaaQRJUozku0Zh+bBN67D79eemNfrmJiIefGEH8aOuB577NBij0dDjQaiRqQWLsJCEgsJoLEDBLobjd63qsrMc+7DyczKqq4GGiAa3QDPH1HoqtzOycyTef7nO//v+wwMDJZGzDExJM6GZLO/AAAgAElEQVRSqoBsB0Raoi3TlC3XKvYPKFvMDD6diDT45egwtmXT3NxMR1cH2XwW13V57733+dWvfhVtMzo6yvT0NPl8HQ0NDThJh2QySSKRQFiCifEJCoUCruvillyKxSKJRILZ2VlGR0cpFAoIIUgmk0gpmZiYYGhoiPHxcebn56mvqyeRSJBMJkkmkzi2g23bD197FeAkHDZu3MiuXbt4//33OXv2LG7JjZw9DQwMVh7GUm1gYLAkFIvjT+sVIvgdEGnC6Al6G1G1z0NHUgxWBFEK7fB3rF3Mzc0xOTnB+fPnGbk5wuDZQU6cOIEQgnQ6XRHBI5lMcuPGDf7yL/+Sr3/960gpSWfStLe3Y1mC119/nXPnzpHJZOjp6aGtrY2GhgZef/113nvvPdLpNM3Nzezbv4/Rm5q4Symjuj2s7TWXy7Fnzx5OnjzJsWPH6Orqor2jHcs29jMDgwcBQ6oNDAyWCR0aT0nww4yKKJTQao8gtyJK26yD38GeDydHMbjfEJqwbt++nX/9f/1r9u/bH61qaW3h85//HVpaWvE8j7m5OZqbm6mrq6Ouro6mpibcoksul+OJJ54gmUxy8eJFOjs72bRpE3v27GHDhg1897v/nA8++ID6+nq6u7tpbGyko6MjsmJPz0yTSqbYsmULGzduZLJ3kp6eHtrb28lms/yrf/Wv6O7qfihlSsIW9Pb2sm/fPk6fOc2pU6d4ruk5Ek7CWKsNDB4AhJImK4OBgUEVgji+hXmXnx16nZmZGfbs3ktf/wCu7+MHDotKhbprYg6NCoGP75Y4N3iW6x9f5Zlnnmb7ji0VMYKB2gI080Z65OGWXKSUJFPJytTaEgqFAlL62IEUw7IsbWmtIoVKKubn5kmlUjhJbR+SnsSyLTzXiyzbWs8vkFJSKpWwbRvXdclkMno/qSODhOnShaU1yA+ldTdIinP+wnl+duhn2LbNF7/4RXp7e3ESxoZmYLDSME+ZgYHBsqB11SGZDgl1kARGgYq+S5SUATc2DNmgCgISqQQAyq9qHxaks+nlHcYS5PK5ioGa5WgibNv2IlJtJ2wSyQRKKlKpVEVkDCfh6P3DUd7D2GxjA9We7h4ee+wxjh49ysmTJ2ltbSXv5I212sBghfEQDsUNDAweNMI05dLXacelLIfXU1IGVmo0mVZL6LANDKog7E/I8pbYXdhau12hjZbaug0xzXSoUQrCQEYfFfs8LIjVN5PNsGHDBpLJJJcvX16cVdLAwGBFYEi1gYHBHRGSY22ZVpHVWn+IpSkH6aMTxASduOnMDdYKQqt1lPL8UUTwuHV2drJp8ybm5+c5c+YMxWLx0T1nA4M1AkOqDQwMloXImBekKZdSk2ffV3jBR2dc1H/jOmsDgzikJ++80bIOVENCEoZ4VFVW6RBxQi2W+DwCcJIO27dvJ5PJcOrUKebm5h4uy7uBwUMIQ6oNDAyWhTAFua90qnI/iFntV398FaQwV3fuxFXs78M23W5wb1Bl7fMnhlgsIYkkR2IxoVZhmwwkHlJKpB/KmB6xxidh3bp1dHZ2MjQ0xI0bN5D+fRrMGBgY1IRxVDQwMFgWQvlHKPmAssU6kodIpYPpSYkQEqVMJ24QIIz6EvydnpzG8zydeCWVxPd8LMsilUnhu36UybNYLDI7N0sykdTrUylmZ2fJZDLk83ncksv09DSu6+I4ThTTem5ujkwmQyaTIZlK4rket27dIpvNUldXh+u6FIoFUJp8h7KmXC6no4UoiSUsnQzGEpVRax4GBOOW3Xt2c+nSJY4cOcL69evJ1+WX3ic+rljr5xqv3yM2HjJ4eGFItYGBwR0hBFHkDwjIswr01EoEf3U0EFRg9ROagJsY1QZQTk+ulOLtX7/Nz3/+c8bHx/nsZz9LZ2cnIyMj1NfXs2fPHt5//31KpRKWZXHixAnOnTuHUorGxka6uroYHR0lnU7z6quvMjQ0xE9/+g+MjNwkn8/T1tYG6NB8qVSKL3/ly2SzWd58403ODp6lp7uH73znO0gp+dGPfsT1G9epy9dFcpEDBw7w0ksv8cYbb+D7PgcPHqSrp+vhIm6xZ27Txk1093Tz9ltv85WvfIV8XR7P9RaH2Ks+vyjI/EpW9BNgte/HwzbIMnggMPIPAwODO0ItSldeTluu/CBtuSo7Lyol8T0f1/Xwq6ecTUf0qUQoxXBdl7fffps333yT6elp6uvrmZycZHBwkJs3b1Iqlfj444+jz+DgIPPzOh71a6+9xsWLF2lsbGRkZITTp09z+vRp3n77Hebm5mhra+P06dOMj4/T0tLC8ePH+c2vf4P0JXV1dTi2wzvvvMPQ0BDDw8O89957XLl8hfr6elpbWykUCvzoRz/izV++ydtvv8358+f1LIyvHtre0k7Y9Pb0AnDz5k2kL3GcGvY0UY7yUyqVcF0dSxwVRE35JCR2JZ55RaV050GSbIFuD0Jfm7Aeq070DVYdxlJtYGBwR2h5hwys036Q8EWhpM6wqAhSlAch9VAS5Uukryp1nOH0v8GnDwEplVLS3d1FU3MTvb29tLa2cvPmTWzbxnEcHMeJoswopejv72fnzp10d3fj+z59fX380R/9Ef/9b/47CwsLzMzM0L+un3/2pX/Gl770Jf7sz/6M7u5uvvnNb3LhwgWmp6epq6tj27ZtzM7NcuTIEebn58nn83R3dzMwMMAf/MEf4Dg2x957j//w//4H/s/f/h8ADh48SHt7e1m3/ZC237a2NlpbWzl16hQbN24kk81UbhBYXYeGhrh16xYLCwu0t7fT2toayWEiJ85aFu1qKUbcEfROuEcZh5QS39eSIctanBxoRRH4f0gpmZ+fRykd+zyRSCCItRWDTx0MqTYwMLgjpJT4UuJLH6n8IEa1pQm1UlGUDxlkglFSRgRbCAuFMp3Mpx0B2RJC8OST+yiVXH71q1/xox/9iK6uLqSUuK5LqVRiYnyCfD6PbdtkMhmamppoaWlh9+7dNLc0U19fT8JJoJRidnaWXDbHunXr8DyP+vp6Ghoaov2llAwPD/Phhx9yc2QEx3EouSVKpRJ1dXVs2LCB5pZmbMtmy+YtbN++nePHP+DAU0+xbdu2KFtjdA4PIXp6eli3bh3Xrl1jobBAJpepOBcpJYODg/yv//W/uH79ejDw6eall17i4MGDSCmxsCqzX4YQld+lLxkfH+f69eu0trbS09cTrXOLLoODg2QyGXp7e0kmk+X9l3ltpa+zZr7++utMTU3xhS98gfr6eoQSD/YdI2BmZoajR49y8+ZNvva1r0UZQBdFnDH41OAhndAyMDB4kFCBTlqpsvQjzKYoJcHvcJ2MLNmoWp2wcV78NEMIwdjYGJs3b6a5pZkPP/yQ0dFR5ufnGRsb49SpU5w4cYLx8XFs267YVymFJSwWFhYQQlAoFFBKkUgk8H0fz/Mia7cQOgHM0NAQx48f58yZMySTKZLJJEM3hpibm8PzPAAsobvCtrY2Xn75ZZqbW9izew/9/f2xwh/YJbrvqK+vZ8OGDVy7do3xsfHKBDfo6zoyMsL58+epq6vj2Wef5eTJk/zwhz/kww8/jKQgS0ocAiv23Mwcruty9uxZ/vf//t+88cYbuEVXh1CUsLCwwPvvv88HH3xQvv6S5V/bIHKM53oMDg5y7twgc3Nzq5ZkSkrJrbFbDA4ORm1JWA+Y3BusKRhLtYGBwR2hlEKhOy4/0lNbICVSCiQyItyh/MOE7zJYhCDSxuzsLD/5yWtcuHCR/fv38+qrrzI6Osrf/u3fcujQIUqlEgcPHqSlpQWAhoYGMpkMra2tNDU1oZSio6MDyxIsLHSSTqdpaGigvr6ejo4O+vv7SSQSbNiwgVQqxcDAAKfPnObw4cMUCgUOHTrEl770JdatW0dzc3PkQHnr1i0uXrzIxk0b2bVrF5lMJqr3www7YdPc3EwikeDWrVv09fWRSqX0yti5pdNpNm/ezHPPPcfp06c5ceIEhw8fjgYqnZ2dZLNZZudmmZ+bp1gsYts2uVyOX/7yl/zmN7/hD//wDxkYGODb3/42yWSSDz/8kAsXLjAwMEBfXx979u6hLl9HMplkYWGB2dlZ5ubmSCQSNDc3k06nmZubY2xsjFKpRDabpbW1lUwmo2UesYGAbevB08TEBKVSicamRmamZygWi9GsRSKZoLBQoLm5GdASl+bmZvL1eU3oLZidnmVqaopSqRSdj+d5zMzMkEgktAymLkdhvsDExAQLCwtYloXruszP6cHg4OAgDQ0NtLe3R9FlRkdHKRaLJBIJOjs7SaaSD/bGGzxwGFJtYGBwR0TxfGOWap32WejvlEPqgbZq+1Ka0NMGi+A4Dk899RSPPfYYAPl8nnw+T39/P1u3bqVYLKKUoqGhAdu28X1fOxk6DrlcjmQySTab5ctf/jKO42gC5Xq0treCgG9+81Uy6TRCCP74e3+MsCxSqST79x+gUCgACsuyqK+vjyzblm3hez5DQ0O8/vrrfPe732XLli2fPI36GkJjYyNNTU2RZtpxnEVSBd/X1+DEiRNcvHSRUqnEsWPHeO2117Adm698+St89atf5Y033uDtt9/m448/ZmBggPb2dn7wgx8wMjLCwsICBw4cwLIs2tvbOXPmDH/xF3/BE088wYsvvsj4+Dh79+7lmWee4dSHp/j7v/97Pnj/Azo7O3nllVd49tlnOXz4MP/1v/5/DA0N09Pbw+9+5Xd55ZVXqK+vj+oqgwH80NAQ7777LjduXOezzz/P0SNHuXr1Kjdv3uTpp5+mra2Nq1ev8q1vfYv6+nr+/M//nC984Qu8/PLLOEkH5SvOnDnDn/3ZnzE3N8fmzZvZs2cPly9f5vDhw3R2dvKNb3yDL//ul/noo4/44Q9/yMmTJ8lms/zOF36HUrHIG2+8weDgIIVigX/zf/8bXnrpJS5cuMD/+B//g48++oi6+jr+3f/z79ixYwfpbNq8FB9hGFJtYGBwR3iuxPf0J3QiQ1qB7INIBqLC7ypIDkOQ4O7R4SYGnxDCEjQ2N9LY3FheKKGuoY66ujotSqzl/Aa0tGrLted61DXUoXylne6EPob0oLG5IZIUJJNJsPX3TK7SOU/5CmGJKOmLlJKrV6+Sy+V44oknyOazK3QFVgcNDQ10d3dz7tw5mlua2bB+Aw2NDaSSqYhYh/KMmzdvks/lObD/AP39/Zw6dYqx8TF+/vOf8/zzzzM5OcnQ0BDt7e3s378fz/Po7Owkk8nw+c9/nlw+x4njJ6KBS2dnJ1//+tfZvHkz3//+97l+/bqOnX34CMVCkW9+85sMDp7lr//6r2lvb2d09CZNzc08+eQ+5ufneeuttyLtdAjHcRgfH+e1117j7NmzHDhwgFMnT3H+/Hna2toYHh7m8OHD7Nixg9nZWf7hH/6BUqnErVu3aGlp0Vp5BdeuXePQoUM4jsOrr75Ka2srxWKR3r5eLMvizJkzvPXWW+zevZvDhw8zMTHByy+/TCaTobOzk1u3btHT08PnP/95zp49y8mTJ2lvb+eXv/wlly9fpquri+vXr3PoZ4fo7+8nnUmvVhMweAAwpNrAwKCCwCi0FNoCpBD4WHjKwpMWvm+j/LS2UqOQKBQ6UYZEx6wObNV40seTPirImyGFjnetQoc1MDGsP62Ik+bqaBFSE1zL0VP9pWKJmZkZPM/TEiQZ7qAbk870KYgktfHgCwqk76OUIp/PU99Qj5PUjS90ugv/KqVobm7me9/7Hn19fZE04KG3KiqYGJ/g/fff59y5c5Fm/dlnn+WLX/wiPT09USg9IQSbN2/m+eefp6WlhZaWFkZGRhgdHWVqaoqZmZlou00bN/O5z32O/fv3c/36dc4Nnuejjz7i2Wc/w+zMDBfPXyKXq6O+roEtm7fy+c/9Dq1tbbz+s5+jJFy7eo3RW6Ps2rWL733ve7z//vv8+3//75mamqKuvp6nDjzFSy+9xPHjx/n+97/P1NQU3T3d0WlJ6XPkyBFm52bZvm07L774In//93+PEIItW7bQ0dHBxMQEff19zM/N86tf/YrR0VG+853vsHPnzug4o6OjnDlzhueff57f//3fB+DixYucPn0at+Ry7tw5Ll26xMzMDDdv3mTXrl383u/9Hs3NzYyMjPDmm2/y+OOP853vfId33nmHU6dOMTw8zMWLF7FtmxdefIErl6+Qy+Z0iMKHNIKMwfJgSLWBgUHNKFmRlRmBVPrjS4H0tCVaotOVh5ZrGToyBqmgfSnxlbZWK1H2WVQCRMzfyfDqTzFUje8WWJaF9CQjIyNcvnyZoaEhhBBlqUKMRCulkFG8N1Bhi1JhOOGyJdq2bR5/fCfrN6zHToqK8p2Ew969e8lms2Vr4qNAfgR8/PHH/PSnP+Uf//EfGRsbw/d9BgYG9Ooge6SUklQqxfbt23niiSdobW1lcnKSU6dOMTc3R2trK1euXqFQKGDbNn19fXR1dZOty5BOZxDCwrYdSsUSvu9TLJZ0pA7LZmJikoWFAm5JR3eRUkWOj2GEljA0neM4uCWXdDpNNpvVOmr0QD2EUgonkaCrq4uhoaEopjnotuM4Ds899xzFYpH6+npu3LjBr3/9a3zfZ8eOHdQ31kczFQCJRIKpqSmmZ6ZpamxiamqKkZERCoUC7e3tjI2NYds2rquzd4Za8mQyiRCCZDKJk3DIZDLR8mw2y/z8PB3tHWxYv4FisUg6baQfjzoMqTYwMLgtlNCEOrQGyiCTogSkimmng45ZofUfIfFWKGSMv5hEZAbA0uQiaCDDw8O89dZb3Lp1i6amJjKZDIlEItgmtC6HTrQiItMyCGolgnwtbqkAwNTUlCbowzf4vd/7Gt19nRVWQ8uyaG5pLke4eBCNtFriskLl1tfXY1kWIzdHmJudw3EckqmkjpJiC/CD6ghBLpcjnU7jJB3m5uYYHBzk5MmTdHZ2cuPGDS5cuMDCwgJ1+Xrt4OlpaUlvbw+HDh3i+9//fpTQx3Ecurq6sCyL//yf/zPPPnuQ8fEJOju76OntpeXCed577z2mpqa4dEkn9QmlG8VikVKpVEGmw+ujUJSKJbZu3crnPvc5fvjDH/I3f/M3tLe3USgUOHPmDHNzc/T29rJ5y2Z83yeXz/HCCy/Q39+HW3RJJBMgYGBggIGBAd544w0cx6avv58zp89w9epVWltbmZ6eZmpqCsuy6Ozs5OjRo/zP//k/6enpoaGhgVwuF0WlCUl2fX09fX19DI8M884777Bp0yZ6e3vL99wQ60cWhlQbGBgsA5FZMMiaGJLqQGMtwzjVod46INcmyZjBvUDC4OAgly5dYvv27XzmM5/RFlUpKZVKeJ7EsR08z8PzPJKpdCQ98nyFL30sBBbg+24U6rGrq5Ojx45w9uxZWlqbSaWTFURWICpjMVc33vtNeMOyg6yFwhL354GJH8OCdevX8eqrr2pt76FDdHd309XZRUNDA6DJdFNTE3v27GHDhvV68CI1GV+3bh1XrlxhenqaXY/vYm5uju7ubpqbW6P9c7kce/c+weOPH+bDDz9k27ZtDAwM0NraSmtrC6+88gq//e1vGRm5yaZNG1m/fj3bt28nk0nz2muvcfjwYZqbm/njP/5jtm7diuu6LCws0NDQQFNjEwcPHqQuX6dPLXjXDAwMoFDs3bOXgYEBfvzjH7Nhw0b6+vq5ePEiR48epbm5Gcd2GBsbI5PO8NnPfpbe3j4SqURZp9/Wwr/4F/8CKSWnT59hbGycbDZLU1MTY2NjLCzMs3HjRorFIs888wyTk5OcP3+ejz/+mBdeeIHe3l527txJXV0dzc3NbN68mfXr19Pd043ruhw/fpxbt27x3e9+N7quEYx14ZGDUHIVgjsaGBisKVSHkw77+rl5j3889AuuXL7B1s3b6O3pwy15WvYB+EpLPFRcAiIlKB/Xm+fG0FWmpsb43Oef57EdWyNbolCBNTEM6WreQgYx+J7PoUOHmJiY4MCBA/T29iKVx8TEBGdPX6RYLLJuXT/FUpHpqWk6u3qoq6/n4+vXKRRc2tvbyOfz+CUP5UVmWGZmZjh85F2amht4+eUvkKvP6oa83Kx+95MExSyWSiqtGVfqvicOEUIgsJhfmOett97mL//jfySfz/Mv//APee7ZZ7FsG0sIbMdBSUkylcT3fBQK27JxPQ9LCD14CSyxvvSjZE+WbenBiLCic7AsG9u2sKxyanot2XAQCGwnWF7wcD0Xz3NJJBKkg6gtKhi8h9KQcEBlWVYkMXNdN4pFbts2nufpegXSEtCzD5cvX+bv/u7vKBaL/NEf/VEke4mudXC5F+YXIr14uD6EZVskE0k8zwsGdV5UX8uykEpiCSuqZ1h2GEc9lNYIS5BwEpVtwOCRgrFUGxgYLEJZoRr2/QpfBfGplU724iuFH6Qnl3FiraSOX01MN63Kx1qywGoYov2phSZNJerq68jmslpzuzDHu799l1/87DfYluDxxx/HdmyuDw3R3dPLwIYNfHjqQzxfsnfvXnq6urGFDb4KUkcrSkUXS9g4doJCoUiuLrs6xCZWZmGhEOl0C4VCBam+U0KTO60XhNpzff4tzS08//wLFItF3JLL0NBwREwdxyGRcPA8P5iNkpHG2XGciCyG6cF9pQmoCgYHiYSD7TgIoUPzheTX9yUoyGYzkZa6VPJQvqQun6eltZVsPlOWdvh6gBEm/rEcPQC3sCIiLISISGo4OEnayUX3UvqS6elpSqUS+/bti+Kex5PFCLRXdjqdjhwJw2RAFddZQNJK6lTkQuD7flRHW9jRYMBJOpGzbRTnHFZkwGSw9mBItYGBwZKwQEdYCBwPtXORQPqaNEekGr2OkFSHspAgQogALBWL/lGFmknajPbwUw0hdOxoz/UBwc3Rm5w/P8imTZtwLBuhBG0t7RRdjw9OHOfkhx/S3t7Jxg0baWpsRAgLVECnlR4mCmykr/A8H0tYWnIRs1Y+aEyMT3Du3DmuXbtGoVCI4kaH5Mv3/YjM1sLtiJpeZwdWZL2N53mkU9oaPHRjKEpkEsKy7Mi6vHSZwd+4n4RSIHwi79C4G7ISCJxFy0DQ3t7Gtm3bWDfQTyqdwEZb1hOJRHnAEJtJCM+j4p5VO7vGqm8JHSv7xRdfZMuWLdpRMNi/+r4LS2ALOyq3esBSIQ0SRFZzILKmx5PTWJa1SD8dlWnea48sDKk2MDCoQNQnxkzVMgiR50ofpfQUp44MIrUzopJatxoEqlZSBtE/ZNmSTdkCbvoUgztDO8d6ro/A4uboMNOzE+zZ/hhIn2vXrrJx0ya2bN3K0ffe47dHjvKNb36Trdu2ks/nEVEqbk3AlQSvpPBchfRVpQPcA4byFRMTExw+cpjr16/T1dlFZ2cntm0RPnhh2vXbkWqgPDukKpf5vg9YCKWlGaFTZ3tbZ2SJ9n2furxfebwlrouKovsEM1ZCh8lUwaC7vFss1E+wWEoPVSEmtpgcn+S37xxhcmKadDpJ/0Bf7TCLwe/QEnxHa29VWCEdpaQLJ+Hg2DHKYy3aMwj1GY/JGH6tUWZs21ACUzW9V7m5sVJ/KmBItYGBwbIQOSMGyTLCtOXR3yicXridxPdl9F2pclxqQ6oN7gyBUBbSsxA4JJMphKUouNO4BZ9iscjCwjyXrl2lUCzwwgvPMz+/wKWLl9i5cweOndCE0rJACqRVzgyqZQhLaJIeAPdRSjE8PMzI8DDNTc088eQT1NfVl50Wo+fHX3L/8G+4bXxduK/0VUBwywxSL/drPIPljKgylhAnXobOqBrMXKnQWTmoh56gir6HkMrHlx5aLBZkW/UkbU3t+K7H8PAw58+fp6Wtmfq6XPRyqEVkK4jpUi+RKmKeSCRIJBLlGNHhNnfYvyaRvpttRdXfWusMHjkYUm1gYLAkVPQfERHRnWecTIeJX7SFOoxTrclLObV5lPXFwGA5UICykD5IT9He1s6OnVt5/8h7lOagvbWT8xcuMToxxjPPHGTDxs188MFxjp84wfzCgs4U6AuEtEFCwkmQzWUDaYG8ox55JSGlZHZ2lkwmy44dO2htbeXW6C3OnTtXISlYqo6VpDqcIarcZmFhoUyoY5ZjTbi92jKsWNnx3yKmxdLEWeD6El+qclzwKKNqvC4qCLvpIVUgD0EgJfT39tDV2cXo2E0mJiYoLBTI57JYn/QdEbdUx84xjHcdbVNdTJWF28DgXmBItYGBwWJEFpiQOKMtaL5ORy79cmSoMrFWkTWbkIAHHWx1By6IdcYGBlUIXcik9PE8F9f1yeXq2Lnjca5eHEU0Znlsx27GJydoau9gx47tOIkkjpPi3LlzTExNI5SFkAJLCYSEZCJJC81BCfcpdN29QmjimkgkcBIOszOzHDt2jB//+MfL2r3aUr1I/xtpjy1QgTQhjL3jSzzfq3HQ4HgQDTrijoFRGQr97Aqh3wGBU58VyqkRZc9kNAn3pR8QcH28hJNEHTjAunV9jE9asUgeojLknIHBQwZDqg0MDOJ9YLAg/KPndC0pEFLrUpWvLVUCEEqTFhUeI/BeUkidfEOKaBsR82wKk5mHnf2i8g0+1VBKR5Uo+S5Fv0TRLaG8PG35nfzLbz+OlBJPSlzfxVUlFFrS0dHZTXtHF1LosHx4CiEVlmaKTE5Ocn3kWtBMRaW33YMc46kYMZaKhYUFRkdHmZycjF2D+/BQqJBMC4Syl1Ot5Y01hEIKiRI67Y4lBJayYtcyZMb6GqtQfqIEUipcJVG4YEmtta7lwHw/7sfdHMOM8Q3uA5zVnAIzMDBY24gcEKVEBRZqzw/0lWi9pCJ0RgynofU+er+ynrps8Y5MWvFZYgODqBmEzq2+r/W4nu+hpAXS1sRMhdk8BTJwaJShalfpbJ5+oO+1graKUnhS4kk/aouVUoUHeJ4xC3M8fN19RzRaXZ5jZjTYuP1WwbElCBWQYp3RUoRG6rBcJbQlO7JuB7RdgGc4vnsAACAASURBVOuV8Lwinu9GKctX634YGNwvGEu1gYHB0gjJb+CgGJGdKudETVBEmTjrUNW6o5SmlzS4O0RW3CCyjE44oioCNijQpE6BEkrPngiBRDvI6vjIZcdZTezC36txVrVQ5eS7QmUg1PItscvcToUEeVEYvapjKRWRbBE4KwuBlvb4Hp7nBrVcMzfFwOCeYSzVBgYGSyKu3ZSUrdFSxaMCVDowoURZgx1ZqOPa7FoeUg/unAzWLiK7aqyNaEuuT7Ho4bkFpC/BEthJh4XiPMr2EULPoBRLnm6HWChfgZTYKEQYci5GqJVaPctonESHluoVs1ZHxHflxMoqighUo+jIqSKuy9aWcxnMZulFVQML804weAhhLNUGBgaLEXjHC4JOPxaHOkpNTjzygPboV6r8kZKgw9TOUmUrY1x7uQrnZvBwIByQSUWxWGJ0dIxjR97n+PHjtLS1sffJvVy5foVk1ubxxx5nfqHAu789RktTG7t278G2E1hKW7jBwpKgpIXytTPcbXOcPKBg6qEzrybUK0V6Q+348kPELe+oohxEQ5XtzFKI8uMt0A6jWDG/Ce1JoSU8gZTHzGYZPCIwlmoDg7WI1XwsAx6sp6aDTIp+kMzFl3hSE+tAPq07RFm2XodmaimDBBRKOzMhFEonx9OoJi7mVfSpR7wJROmwpY7VfOXyZY699x65XI6bt25yevAMC6U5FkbmGR0dQwibK1eu0VDfgudLhPCRSmBJEEF7lV6Q+CXQ+WPpJCbKA9d18XyXbD67vLb4CdprxUyPkhUW25XDnRmzUMvaTCNyOi7/v/gMNPUWoVI7LEBYWveuwEfgSb9sqTfvAYOHGLVyChkYGKwWQmd9axU/UZAAFQW+KxOAQFsdaKb9UGMdkIRQGuLHEkWUT0of2yu5zM3O4ZU8fFfGYvMt42PwqUHciU8qydjYGENDQ3z2hedZv3EDwhJs3LSZVCrB6z//J956+202bdrMrt17cWwn0PQH2v5QkiTLH4EgDJ18+fIVjr33HmfPng0Kr9w2+sTXLae9LvERCGxbP2gqZq1eCxBqmR+W5t9RzBGlgu/6xEOCrRBlUq0IMq6aB9zg4YexVBsYrCGMjY7ddr16AJ1P5NNkS1wXZudmI8ci7QCmtPwjjE8tVRTXVgaxaFES6fva+qYsfB9KBcWN61e5eOECyXSK3Xv3kK/PBtuHJ7iip2awxhFJCAIi7fs6TbfnlphfWNBk1LJxS55WEUlJqeTiui6JRJLGhkbcoouVsiGICiICB1qkCqQfFsVCkempCWbmJvjgg+McOXKE0VujfOYzz9LS0oJlWRX63jBWs2VZUQzoT9J3+r7P+MQ4CwsL+FE0kk9X41cECaUUgYzMWKoNHn4YTbWBwSpDSonv+Xz00UdcvnyZUqnEwsJ8TX++ijS9KwhbCJQlUdgUCj6WZWvS7PtIKQKHxXIYrMpUxjqYdTjFLqXP5MQEb7/9DkePvMvJE8fZtHULuXye7u7u6BqEiBOMcHq8TDgUUvoREa90gtRyk9C66Xke8/PzFcfr6Oigp6eHdCZdmWHNYO1BEUg1FEJY5HJZfOlzdnCQsbExWtpauHz5KpPjU3z2s89TKJQ4dvQ9HCdLNp0LHBYVQikcyyFp2aQtG9u2EAJOHD/JiY+O8/Ofv87HH39Mc0sLmzZt4I0336DWYyaCid1yYpV7fxZ96esym5qXlw77EcanbCxh8IjDWKoNDFYbCm7cuMGvf/1r5ufnqa+vX3IqWAix4s59oaVaCYlUNp7nAFYwlR7GnC4TahlEVtApzIPpeiQWCt/3KBaL/PSnP+XSxUEOH3mH+lwOJeAXv/gFyWQS349b6hSe5+N5Hn6gs/Q9T4dHQ5OkmZkp/T22T62LYlkWjqPtBo7jMDMzQ29vL1/72tfYvHkzyXTSWMXWIBREsiHX9ym5HgqL7p5e9u59gqNHjtLT30sqk2V+aoyB9ZvZvHkzMzPzfPDBSY4ePoZlOXR0dDA6egvHtulobSNpO/R2tlPyPCw7g7AFk5OTDA+PMD4+QS6XY6GwwPTUdM3nL7RWawde8YlIted5TE1OUV9XrweefqD1foj641qKrEXLQsNztEJ/0QN0ha/0bEMgMjOW6lVGvH0b3BuMpdrAYJXh+R7Dw8NMT0+zbds2PvOZz0RksBoPylJtAVIoPE/w85//hkuXR6NoHqGWWskwLJZ2ToxrWGVQV6WgVCqBEIyNjTE3M0dDPk8mm6WhoQHHcUilUhXnm8lmyKQzEU/OpNOk0mmtzbQEjmNjWVb0EZbAEpVWZ6VUtD78ffz4cc6dO8fU1FSkZzVYQwgd3wQoZQW6WwvXU7iuorWtk5c+9wX2H3gaK+lgOQ7zpXmymQyJZJpspsRnPtPM2K0pclndxorFIkoqpOchPRc7ncJVEl/AzscfZ8+Tu3ns8cf4ux//HVOTk2zcsJFnnnmGXC63qHrVFupP8iy6XolTJz/k5s3RwBqvpSoPLOzICqHWFYmGvGHWxECUrQcTUj/D0Zaxgzy8l+HhhSHUnxjGUm1gsMoIY7wmEgmyuSx1dXUkU8lVrhUgoFSCTDaPJ0dwPYnrKzypnYuihDCRhbrsdAVKkw6lSCaTvPjcM3zh8y9w9Mi7nDnzEa0tLezevZu2tjYcx8FxbIRlYQkL27ZJJBw9dS/K5MW27UjTatv27T2lquCVPK5cvUIikYgkIpY08o81hZiuXkugbZSy8TzBwoIHOCQzGeqdJK70kEhyCf2cuCWFEAnSGYfunrogXjokEimdOMb3kb5HoTiHa/m4wieRTdLV2cY3vvUN9j21j8uXLpPLZOjt7cVJOrVJ3X3iG26pRDqdwbZsSkWPpCN1xkhlBfGk72O/vFJEaYlDiho/dHIeVfHbl5JSwcWyys/6Ij4iK49jsLIQSruRSmrM1NzTTSiPkFQ0U1GGigbS4UC1aveaPkRBTcJ9ohLi+8TLDDfVs0uV28cSLy0qpqoy8bYZHEdEEkJdlsBYqg0MDG4DHehAd4DlVORCR/uokHvoyB+hNEQoicLDVwrHSdDW1s6O7ZvY9+QeBgfPMDM3R19/H40NjdiOrV9QdqzQKkWHUgpRI7Cw8m9PPpZyKjPGhLWNMF22QlByfYquj+/ruMbaoGsFcY4DWZASQfvUO6vou8606PsSz/coei4l38VHRn1oOpVmx/Zt9PX2UlhY0AO25QTiWG4Tqm62MfKoKEs/Pm2mWelLXNfD8zxiQawN1iBWdEwjqv5Wr1N3P3sT7rGsPWs9eqKySgrCKbTYNqLWLsZSbWCw2ggjelQ73a0FSAm+ryN8+MrH8yW+JMqsiNKZFsNtNBnRo37fd/E9H9vSEhcnoahvzrN3717mFhZIp9NaIhKkPxdSaMt0GNov/lYU1I56cgdjc8U+KkZm1tA1NggQux0yCs8IvlR4nouSATn2fLB1xkRt0w2dVonaoCIc4IHveVEkGtdzdez02PMmLPA8SS6XI5/Vsg9f+jV743uSfizqsMvh8+Jxqlcs98uahIr+SBncD2o8k+YRfaBYKrKUiv1fCyJILKTCwZEKrciL91Sqip+GkqBFyYnUEuWGHYKKlVCjpir2S4mgDFDhs1tlnI5/D+VIKk6rVXyliu0kKlYZS7WBgcFiRO+dIKJHREJkEPM3sFIrLfmQfvCOCwYIIgq1F7xobAcl9cvUTtjUOfmqQX/NcAu1vxt8aiACRzbfD6QCtkM6k0aBJsiep/X7MuzfbJQQ+J5mqNJX+J4m1BIZWbbjUEpr9cP2C8EEc60meT98GhZxhFoDvOWUcxeM8y4TuqwkIgISSLvuFPPa4MFDVNt41R0c5CPLbpWJN7Z6sRSjksaKGH8tH62K2FaUsYRpO4iNrkRFzs9gv8XW5ZBki8oKVh2+kryH51A+dhnGUm1gsMqI67nWmqVaBSHyfOnjuUGc6kD+oa1rAukFyRukVuMpfITykX4gDbFkaIeKptpUdL61CqW2ceKTnEdVmL61dI0NAsT78OheCTzfw3VdpJIMX7/O5atXyeVyNLc04XouwnLIZnJ4UjE2MYElEjQ2NWknVaWjySilUMLH9/wgLnSN2YoYqV7xUw3KFwRSFXz97Ei5tFa5opfXTFTC4u3V4hmaaLBwh0GBoLYSo9Z+ZWvg8q6ZjG0pECA1AVJBRlYRm0mqLMTggSEywNZ4Ad/XexGz9AaW3yX7gggxd1YRI8FL7aLK+0BoCFdlq3qsDpWDaBHbv7r02LGXmD01lmoDA4M7QxElqZC+npJXBFZqFSSYU7JMnKUgEMYGL6zQCsAS0+oP7lQM1igqBYxBLygQSpPj6alpfvnmLzlx8iTrN6xn/cYBhkdGqKtr4LHHdjE2PskHx0/Q2dXNzsd2kUwlgxmVgFTjRz4Aqx0cWSihn4sw06NeihBW0FGX66dD+VXur9DRUeIz0RXHJ+jwQ0cvUZabAItjtCv08YJkOfEVSsSdzGpNtlNx7FoIXgURpFJIy0VZJRAuUvm1ybl5L6x53Pstqm39rmgHtz34UitVzdXVjpaLrer3p7EZS7WBwSqj2nK6lqyoUd1QOna07yN9C50BjSCEnooSwQRujVh+OTKI75ePcc+W6vt1HmtQt24QImwUItZOynHLz507x6WLF/naV7/KjaHrSM9jw8AAwyM3eevXv8bzIZVM0d83QCKRiEI9Kl931EqEzrQqklyspqVaShVkgyyhpIdt62yRKs6UQ4tYVb3CqewljXvBf0qBEn5FlAUROIDGSYZ+NgVK2aAsyvrWcPYpfGjLJcqQKAfRFuJ1tLS2I7IAKlHWyesNLJSyEFhYygLfBukYS/Uqo+xAG0otguXlDfTfWOQNtYiMLuem3b3zYTWWO0Nyr9vfK4yl2sDA4M4ICIeSKshYqPSEtQTl66nbcCpYBct1qL0Yg66BagvcSlmshRDljiJM4mGwthDrZy1L3yc9KPMpuS7T09PYjkMmm8GXOoV5Q0M9I0PDfHDsPZpbO/jSV79Ke3sHngwbZJCsCAhbZznk1mpCt7+SV8J1S0ilcBwLqyp+ehiespq0gkApK5iCXoxYULHouYwi4VAm1pXbC1AOSCuqX7ivDKL/VJYRXNGIwJfX+1XnqiK1h9Jk27IpFqCwICkUJEolQJnY8WsGoTdhxaLyPbbATC8uAWOpNjBYZaxlva+uS6xzVxLf13Gq/cBRUfeWMrD+SRQSoYTWYfs+iUTsHKus0FWGjzL/9rmvU79a/61jZset72uAXRlEqJzJUErglkrRcsdxkNKnVCqRTGpL9PjYOIVCgabWFjK5LBcvXCSXa8CXWuLg+1JbgR2B5ehIILNzc5HFOv6cLc818BM2mJjFOJ1Og1TcvDWKnbDp7e1n//5StKn0fVzfq9g9GgwqgVKJioAJ4bnIMCmTL8uyFyErtvNcL8qEqo3J2vItfRvpW2VDeXi6Cj0zFTgoQ6VGWte3HF9bQeDIHDg6V+i/BcoSYCW5MXQTzyuRydWRztUZS/UqIxqMBbM54YtZBbMMOlKLANvGCmdK7ikc4m32We7h7qD+uOv97hOMpdrAwOC2EGjLhJ6VLss6wrjUwdyuXhc6RKE7Ve3ouPRbbJGxYwUt1dF3y1iq1yR0D62/+iB9D88tIlDYQtDa2kxDfR1v/uKfaG5tobm5mYsXL+I4DgefO8jcfIErVz5mcmqaZCpNXUM983PzCOmRyaSpa8iRr0/j+15QlrVqpM22LdatW8elS1cYPDvI8PAQPd295PP5iFh6nkfC8yqJfxWplkuRahVIspQCfBR+2fisFJ7jRVF9ytfAQkkBQTZLvS3BIEdoGU1IrKskH1JKfLtWZBU9WyCF1LHtg3p5UjI1NYb0XNb197DzsW3Yho2sGSjiES4AUZ6lBIFtWXcMZ7pWEB/6ifjUzgp1AcZSbWCwyliTet/AgoVUKN8DKYMkFZrwKGkFq2VkpdbhyrQGEyUDnbVEYBNqWKMXmqLCyibi5a7E6cSuaRioqWYWLYNVRtlanU4lKBUXmJ2ZoiHfQGdbG/v2PcGVK1dpaGwklU6TyWTI19fR0tbGQtElkUqyMF9AKUE6ZSNkArBJpRIISzI6OsL1jz/myb27cOwESgaZ/B7g6QFgQWNjA3v37iaZTDA0PMTM7LROhBJuGliZ445UURxgBEq4FYeMthMKoRQicshUFQRCScXs3DRz8/PU5fOkMxktCBECizBIfCzSgirvp+ulJSThOl1PK4izXX7GwhNWyorqrUKJmNBJd9raWnnssR10d7VjW0tEgKg4SYMVRVk8HRhDYjMPqkyqI0v2J0JtVrvc2SCxhLEmHtWjYtAY31wsvf8nhRkbGhgY1IYCJXV6Z6EU0vf01K8MHJlUMPMn0GlthYp14jrpSzLhgJSLXKqqowGIWn4rK/POXhqm414zsCzYsmk9Zz46zYcfnmRsdJxsOosloKOjXUfJEJDJpFG+z+jICCXXxxGKTNrRzdArkUrqeRZFiYVCgfGJMfr6+tizezd1+bpygRWNcQVPLD6QdKC/v4+2tlYmJ6e4efMmiYQTWYFRtyGZAnylFj1HcSw1MHfdEidPnuTK5St0drWzbft2AKxABmItZYIUMaW0AGHZFVNNFkT8vTr8mFB2RV2lgObGRtrb28nms9hWtOmyDYlmrukBI/CpgVASSM0AHqFUJGy8cR+W8r0VRMlYApX/UnK8stNkZbSORYYREZ/JKdclWqf0oPTe0q0vH8ZS/ajikzvXGjwgxJ/BNWOpDuBYDrl0GiV9vFKRUmkOnwSesip04JqAx6Z/hdbDTk/P0NZaF2gxVdQu450n4fcVPGUZhFJbNBuwqBIGq42wbfT0dfPMMwc49t5xbt2cwLK0hSyZECghIlnR7Nwshbl5EokEyWSStGUjApYmhcCzJVLYIGx2btvGiy88x4b1/SScGDlYpRMVNmTzGbL5DB2dbTpFerj6NhVTLE2qI4O1tYjeEupkpdRxsbft2MrTTx2IyFEo9brL06got2LhUoj1T0qUbZNLTR6FhN1gZRG1ueimRuw0sFSHch8fK2pflW3Ml1LHlfd9PfthWTiOE7Q7qduYbUd+N6jAkVyp6HcY8jHS/aOLsYSlibPQMye+70cJnSxhYdt2dKwQEamvmBktO67fbxhL9aOK27WXB2WVMXi4IUBY0NHdjkgc59bkx4ikIpNtAGHjep52VvRlYHrWL1j9/pIU5qaZGL9Fb08rTU2Nuj9fpY6xPHVpsOahwLYh4Qj27d/N+k0bmJ6cwfW8aEDmex4q6EzPnzvPlUsXaW9rY/eu3aQTKTzfQ6Gd4zxLIAVYjkNLSzOtTXmSybsgaiv1jqxio7Zjl8tS3Fb3L4L/a7bo29RXhUqQsEzbRirtWKzQofCW+5SE1atZ3J2uWWDlrL7+xha0NlAro2iFrTmQ/dTaTqmA7Pp+RI59368g1SooIzR0hPuF7+i4Vj+S7QmBspT2iQn29Twv2icsK06qhRAIqzz7slSm1PsJY6l+VBHc1mKxiOd55HK5isa0sLBAsVAkl8+RcBIPnlybt2eENRunWoFlQ19fN5s29/Pu4aPcvHmF+oYWLEtb1HxfUiwEZCdSf+goINIv0dzcwPYdW2lsrCecNgwO/WAt1WEkBBVoQ2XZwl5ZCYPVRsS3AnLd2pKnuTkfOMrqbaQkMjHPz01w/fpF2jua2LS5n0w6hR/qfxH4aLmBsLSsxLKC+//gT6027rENLrnpbQ0qWkNOEO4y/AgrWn3XqDZq3rEOUGmpXsamtWUBBvcbsTmD4AKXpxb1q11F2+lJjxr23mDgJoSlia4QeKHDbeDAoFztOyAs/TuyWIdO5DIoQ6oKggxlLXQ4+xhaqpHauVfP0BD5CQglwGaxrGmlHBVX5rAGqw4LSoUSp0+f5vz58zz99NP09vXqdQo+eP8Drl69ytNPP01PTw9Owgkc06iwllQ0vOrfsDQ5rmUNLw9RDR4WWNDc3MBTT+0jkUxw4dxFEpaN5WhnpkLBR5WKkQ7UcRzS6QwAzY1dPPbYDjZv3kQqlVx06BVvBir+VVvSRTTBbS1m9gZrAnFLKgRa35hMwwIcp7xRImGhlIsSEh8fkmDHdBHx6Mfh4O1ReQXd/XmEwfMInBl1jHk7Cp12f+t3L4iT8wpC/ajctIcB8VmSij673OEvdTuECKzGQmHZFkoFGXiVRFj6vRuG5rOC0Vw5/rUVLauFuO5aBQ9y3OEwXC8InHqrZ3weQBsylupHGKWSJtV/9Vd/xdDQEN/61rdoaWnhxInj/NVf/RW2Y7N+/Xp6enoqLaPh/F81oY4NYrGqfgtqkxSr8nja215UCvc+5U0wHjd5rWmqw3vT1dHJS5+tZ8/2HTo2gLJQUnHm3Gle+4fX6Ozu4jPPP09Xd3cwLS/IZXLU1TWQTqUA7bwiJIRhPyre2yv8sgut1OXvYTjAlS3X4BMiNJSpcnupnNVQoLQ+WFgKyyln7hOBVcxStV9NtZpcLOBBbOH9Opn7iyqfrOUhMJro0HmCKHiPLB9l2a+emhdwmfvGiPKi8mr1O2Zm88FALfoSPG+RqTr6XSaw1RBaMy0lkUzEApQVDZht24m0zkIInCCeYijtCN/RPn5UFRGQ8DCRl6WsMnkOS44n9hLl39WyD4Uy0T8M7g0LCwtcunSJH/7wB9Q31LNv3z4OHfoZR48eZefOnViWbqQ6cL+eUrEdG4GgWChqBwPATmh7j1tycRwHITUxlr7EC6Zywm1LbolUMqWndDy93HVd7WSUSoKAwkIBx3ZwkqYJrlnEOrGkbZOqq6MxX6dXKIFfKnL4yNucOnEc5Xvk0yn6e7qwA2mIfpMKhIhTGmNuMrgLxKzT1YvDSV4V2l6VnoXQVtiyRZbg7yPX8oKLcNfnpYLrGeRqETFitNpj+aWkHjWXPXI39NGAEALbspGRhlppuWAUiaNMjsPtQ9lHnFBLJSNDXMV2kbpbBU6uoeVcLKpH9LFqk+uVgLFUP8JQSmeQGxgYoKWlhXffeZd//Ok/kkwmefzxx0mlUriey+XLlzl85DAT4xNkMhn2799PKpXil7/8JdPT01iWRT6fJ51O8/HHH9PW1sYXv/hFWlpbOHXyFO+++y7jE+OsH1jP008/jeM4fPDBB4zcHMEtuXR1dVEoFMjlcjz11FMUCgXODp6lrbWNPXv2aAedTzHikSjWlKU6lAIFiomKGinF0MgQ//TGP3Huwjmmp6d5fPcu1vWvo6m5SW8SvfRAxQ+wCqdWEfUDY6l+KBG7X3E5vL6PQv8NNMKRRXZVKvoAcbcnGFj9y3GGVcz6GNvsXi/cPex3211ut9JICe87yv1O1YVXwfs8pq+OtqrVWER5YEtkLQ6+R3+1xVlQSZQ179XOhcIqW6IrrNBh+ZaqUdUYyQ6OVUG4VeV29xvGTPiII51Os3PnTl5++WV+8pOfcP3GdV75+iskk0lOnDjB9NQ05wbP8Zu3foNt2QwPD3Pjxg22bt3KsWPHyGQyJJNJrl27Rk9PD9PT01y7do3unm7a29r5b//tvzExOUFDfQOXL12mUCjQ1tbG22+/zdVrVxlYN0Amk2Z6eoZTp05RKBbIpDP85je/4bnnnmPbtm3k8rnVvkwGy0HsvVQoFPhw8CxjU5N09fSSdBwuXLjAzZs3I1JtYGBgYPBoQKDD48V1ykvqqkNCa4XJzIOZIyEqdH+RBENUWZoDY46OSrOYJNdCmfDH5CB32GclYCzVjziEEDgJh/Xr1/P1r3+dffv3sXfPXj766COklExPT3PsvWM4tsOT+57kzOkzTExMcGvsFi0tLbz44ots2LCBP/3TP2X79u2sX7+eY+8fY2pyioX5Bc6ePcu//bf/lu3bt/ODH/yAy5cvMzs3QzaX5fHHHueVV16hvb2diYkJLl++zM9+9jNamlsQlmDHzh2k0+m1YZVdRUTW0+BlEAW1X20sVQUFxUKRYrHIgQMH6OnpwRKCnp4eHf828hCPWzRUxf4PGuE1Dss3luqHFDFLdXlReG/jPgmrUru1D0X1g7noWQiks/d+/Pu5i7mPDxQ1rbex6BsJJwHo0IvRDAdlYhwchLCRlcmsiFbVDKuqliibKkJ8m+1qbh/f5wHxamOpfhSxqPEocrkcBw8exA9iR544cQIhBIVCgampKRobG+nr7aO7qxulFEPDQ/i+TzabJZPN4CQc2jva6e/v59y5c3iepyUd+RybN2+mr6+P1vZWhoaGyOfz1NfVM7B+gA0bN5BMJMlkMjz99NP89V//NZMTk3zjG9+gu6s7ciaqXW+DNYOq91g+V8f+fQfo6e7ln37xT2zYsJ5NGzfS0dW16JW36CUnqv5Wf7/Luhh8+nCbEM4GnxDLvbQ1upm1i9Wu20q117s5r0/oWCAsUfaXqdQCLlEXETyn91joUrstdc5r5J1gLNWPMMIpGtf18H2fdCaN7/t4nhd9UukUba1tLCwsUCgU6O/vZ3Z2luHhYQqFAp7nYQkLz3VJJpIIobMg2bZNKpWisFDg0KFDPPfcc1y9fJX29nY6OjpwXZf6uvrI8cBxHPbt38ebb76J4zjs2bMncmz8tLfBKF7yWtNUV8vrQg2j0j6ITc3NzM8vkM1kyWazdPf20NDYVI4bGt+3ArXCy9zFG/FerGGBhrQyo+K9HctgFbGUE1tMK2ws1bdBjfdMxbNwF34P9yt4glri+7IO/7Dkc1op/fd9nhmIqhl7gKp106J6h6oTUzW+1cQdrsdS0TmWtGivdAipZeJuM5IaPEQQQpBKpejs6CSVSkUvTSEELS0tdHV10d3VzTe+8Q0SiQT/5b/8F/7Tf/pPDA8P09XVRV9fH6lUCqUUvb19WLYFAhobGsnlcuzes5tvf/vbvPHGG/zJn/wJ09PTPPnkk2zZsoVEIkEmk4nIoed7TE9Pk8/n2bVrF/39/ViWo8IKNAAAIABJREFUtTbIo8HyEbtdCccOPLS1l7cVZGcLETqIVDqXqCDcQNXHwMDAIAZ1h4+BwVqEsVQ/igiGm4lEgqeffpqdO3fS0tJSTucpLF588UX27NlDS0sLtmPT1tbG2NgYUkq6urpIp9Ns3bqV9o52bMvme9/7Hrl8jlw2x0svvUQymSSRSPC7v/u77Nq9i/m5ebq7u2lsasQSFlu2bCGdSSOVznrkllx+8tpPyGQyHDx4kERSa7NM+ytrqKs/q447VUHpkIphylgNgYoT6yBlbK2Uy5XneBfney+XJsymWK27XQOX2eAuUFPyWXlPjaX6Nohbqms9C3dhqb6fVVqdnR8B3G9LdTmY/5I7LlZ5qJrbLfpZrQK8g2X5bqNzrFQ0j7uF0VQ/whCWoKGhgYbGBh1eytfkxrIscrkcubocKPBcj76+Pnp7eytIUHNLc5QmdN26dUglsYRFOp3WxxeCRCLBzh079W9bRC/mbC6L9DWh9nyP8Ylxpqam2L17Nxs2bMC2bO1J/CAQzmndSwKB2+1b4ZhxFxBUZq6sXn07weidzuFe63Qn3O78w59CYAmBVNSwUFciItrVmbuWKut2daoyhC+6BtrtfIlKL6Os220TX3cv7eteyv2k5Sz3nLnDdndTj/txvOWWdTdtJ/77brb/pFhOu1mqfd/peHfC3ZzHMp77u0L8fO7Wj6LW9rXa1VLXYqljxO/D7cqvLvNhhLp99W87afgwn/cDhLFUP+qIvWCklFiWpQOy2wLlaWJj2za+72MnbKSnrYwhuUaAkjoQu5IKV7oVZDiUcCilQJYJoZRSOzYkbErFEpMTkzzxxBPs3buXVDoFxEbFt3sx3isRXm7GxxrXadGxav0Oy6i1zZ2OXVWPuGU6Hq+65n5hhspqOXKtet7uGt4tmay1vVVZ/yjCRqzzisIcKVWW+wid9U4opdPWxutcfQ61sBwiHdY5dq2U0jGMFSpISiAW3Yta+0W/q7eprudS9yFsi/HjCGqXU13/6mWSStFeeIxahCEs93YE405kTsW+ixrLqPpdTZpqXZtw+6Wyqi7VVsPl8WcgfFYILVXxZ6nGuYXHq1VOHPHzqL6O4TWPv2OWqmf1PuE2YWj++P280/O41L283X2IZ7SNbVMdfmxJHlB9r2vVs1a7Xap91WpXtY5RvVuwfcUYPN6Gat2P25UdL7O6Pd7uufApPwfVx4DFbWuliejd9I3L2LZ2O1B33wcDi06+6hjqEZX9GVL9KKLWS0HGyJsokzYlVPCyEviujy99EolEucGrMlEWltDW7tAiHRDuivKCF5vl6DeU8lWgye6ls7OT1vbW6EW+JDEidrzqvzVeUspXCEssetGFlvnw/Gu+4KpJTsWBqZ1WHX39hBSVHWwt1OqUCI5r6YWh1T6ZTJJwEti2XSan8WPHO6tavn5hedVlL1Gv6F7GlklfD7wWWZOqO8NgWTabJZ1OkUqlcBwnamPxNlM+vAKlUEH6Wiw7Rnz0F+nJqO3UgvSk1vZXX/PwOOHyRR27Hhj60o9S4lYM6vyq860elFWTrHiZApQXuxVq8TbSAytRtX+sPN9V2AlRc9/4Ofqewk7G7pmkkjRVX5NqQhWSuVrPXq22VItIxtfFj7/kM1RJhhaRmep9wt/hsasJT3y5Qs+gWQLLEhAaA+LHqtWcqkl9uCx+buH1iidBomobWPoZXOKdFr8e0gdrqcFFLfIff89Wl1lrEBSvQ/jO9olSPQshEE5Z/qF8EHZVvcPvcUJZ655V1zO+XfB8KUWQsprKwdFS72EffQ/CulcVu4gg16p3cOzoutfYRvpg2TX2DfcP62vVWAdLt7Hq+t1v3O9jqkVf7rosVeMbcPu+qgYqEsIsAw8yFvXtYOQfjxKCl8rM1AyTk5OMj4+jlCKXz9HR3kF9fT0A01PTXL9xndmZWZLJJB0dHTQ2NpLOplGuYnhomMmpSWZmZkin0vT19ZHNZkkkEkgpuXzxMqO3RrEti1wuT1tHGw11DSilWJhbYOjGEHNzcwghaGxspL6hnlw2h23bDA8NMz42TqFQQAhBb28vLS0tWLZFqVhiZHiE0dFRfOVTl6+js6OTxsZGlFJMz0wzPjbOrbFbZNIZUqkUPT09ZPNZUDA5PqlDAXo+QggaGhvo6OjAsR2UVAwNDTE7O8vs7Cy5fI72tnby+TyWZeG6Lv8/e2/6Jcdxnvn+IjKz9r2rurobGxcQADcAIimRMiVb4lgWKdqyZEujESnbI5tnRqZnjucc339kvszcsY+vZI9EiZRsa6NFj0lqLBHiToKbCIIb1kY3et9qy8yI+yEys7J6ARpAA2iQ9eA0uroyMzIyMpYnnnjfN5aWlhgfH8fzPIrFIoODgyZtBYvzixw7dgzXdfF9n8H6INWBKql0CgSMnxpnZnaGdqtNNptloDpAuWw2Qem0O4yfHuf0+Gk0mnKpTGWgEh1vNBocO36Mo8eOopRi69atxq49Y6K1TJ2eYmp6Crfj4iQcqgNVSuUSjmNY2onjJ1hcXKSx1CCbzVIbrJHP5xGYkInj4+PMz8+jtaZcLjMyMkIylURYgvm5eY4dPYbWRr2t1WpUKhXzXMD46ARjY2P4vkc6k6FWrVGtVkCA39G8//77vPvuu8zOzZAv5Nm9Zw+ZVBrXc3E7ZrfOTqeDlJJSqcSWLSPYCRvf95g8fZqZ2VlazSbJZJqBgQFKpRKOMM917NgxJiYnAEglU2zZuoVyqQwCFueXOHVqjMXFxaieDQ0NkcokQMH09AwnTpzE8zyEECQSCTptkw/P9zhx4jjz8wu4rks6k2ZoaIhSsRC8L4/xsTHm5uZRSlEsFqlWq2QyadN+ZucZPTVKq9kGYHh4mHp9EDDkeHx8nJmZaTodl2w2S7VWJZ/PI5VFq9lhdHSUyckJpGWRy+UYHhqmWMqDhmajzdFjR2ksLZFIJikWCtSHhkikbFAwMzvD2KkxhBC4rsvIyAiVgQq2JXFdn+mpaSYmJuh0OuRyOUZGRsjlM6bMFhomb7MzpJIpCoU8Q0N1EqkEaFiYW+LIkSO02i0SToKRkRHTNh3otDzGTp1ibm6ejmvSrtfrpswkLC00mZiYYHJqkoTjkMlkGRoaIpfLADA9OcupUdP+EolEty7YDkLAxMQkY2On0Bps26JeH6JQyJNIODSbbebn5zh9esL0Z9ksW7ZsIZVOgIDGkqkLWkO5VKFaqzJYq5FIOKBhbnqB48eP0+l0EEIwPDJMtVrFTki8juLU6Chzc/M0W02KhSLVoO0KC+ZnFpmbm2ViYhLf96hUBti2fRuJhBk6Z2fmOX7sGK12m1w2S7lcoV4fNMRUwcnRU0xPmX44mUpQKpYZqA5gC0mr1WFicoLpqWmU8imXK2zZugXHsaJ8j4+Ps7C4QDqVolgqmf7MMZPKqclpTp0aw/M8EkmHgUqVwcFaRFqPHTnOwsIinU6HYrFIuVKmVCwC0G61mJud5c1fv4nyfWq1QbZu24oUJu2FxXmOHzuB73tYlh1EdapF5PHoe8dpNBs0Gg0K+QLDw8PkCuZdtxsdTp8+zfT0DL7vU6tVGRoexklYaA9mJmeZnJik0+lgWZJ8ocDQ0BC2I9E+jI2Nc+LkCZKJJE7CoVgoUhus4SQtOi2X0ZOjLC4u4Xke5XKZgYEBcsUM+DA/v8jMzAyzs7PYtk25UqZarZJI2mgNczPznDxxkmarSSqZYmRkmFKpjLTMxPj48eM0mk0WFxejfjaXy2Fbklajw8TEaWZmZvF9n+FhMzalUkm8jmJhYYGxsTGSiST1ep1sLr2x4/vlxMXUXnUouAR/C9Y2HbxUKwAXgL5S/UFC8ConJib4zne+w7/8y78gpWTPnj088MAD7Nu/D9uyee+99/jv//2/8+abb1Iul/nN3/xN7r//frbt2Ear1eKZZ57h7//33/Peu+8xPDzM/fffz+c//3mcpMOpU6d45JFH+Nd//VeazSY7duzgwQcf5Pbbb8eyLA6/dZiHHnqIX/ziF2SzWe68807uv/9+rt15La7r8tRTT/Hw9x7m6NGjlMtl7r33Xr72R1+jXCkzNzvHP/7jP/LYY48xfnqc4aFh/uqv/opPfPITOLbD6MlRHnroIf7vv/1fLGmxd+9e/st/+S9ct/s6tK85ePAg3/zmN3n99depDlb5d5++iz/+4z+hPlRnbm6On//85/zgBz/g5MmTbN+xnS9+4Ysm8knS4Z133uEHP/gB//Zv/0an0+GGG2/gG9/4BjfdeBNCCF56+SUeefgRXnzxRQDuuece/uRP/oQtW7bgui6PP/44Dz/8MKdOnWLbtm3cc889fOUrXyFfzDM5Ocn3H/k+Tz75JKOnRtl13S4efPBB7rzzTqSUHDp0iEcffZSDLx/EdV2OHTvGn/7pn3LtzmvxPI9nn32W//3t/837779PfbDO7/zO7/BHf/xHlIolZudm+dEPf8Rjj/2MU6fG2LVrF1/8gy/yuXs+RyqV4siRI3z3u9/lwIGnmF9Y4I7b7+Av/9tfsmvXLnzX58CBA/zTP/4Tb711CCktPv/5z/PVr36VeqpOY7HJY//yGI88/AjT09Ps2LGDez53D1/6wy+RyaeYnp7m8ccf59FHH2VxaYFXX3uN//j1r/Px228HDa+8+grf+c53ePXVV1G+4ve/8Pt87f77GR4Zotls8stfPsX3Hv4ux44eY2Cgxh/+wR9y3/334SQc5mfn+cEPfsBjjz3GwsIC1+26jv/wlf/A5z73OdBw9Ogx/vZv/5bnnn+OdqvNJz7xCf7iLx7k2p3X0Gp2ePrpZ/iHf/gHjh49ihCCz979WW64/gYEsLS4xD+/8DN+/OMfMzU1xY4dO/jqV7/K3XffTSqdYGZ6hv/xP/4nv/jFv+F5Prfc+hG+8Z//nD3X7wGtefnlg3zrW9/i17/+Nb7yuf+++/nKf/gKI1uGWFxc5Mknn+SHP/ohp0ZHqdVqfO2PvsY9d38OO5FiYnKCb3/72zz+xOP4nse+/fv58pe+zG/91m8CcPjwYf7XX/8vXjl4EKU0n/nMb/P1r/8pV129nYX5JQ489RQPPfRdTo6eRErJAw88wBe/8EVyxQzj42N8/5Hv8y//5/8wOzPL9u3beeCBB/itT/0WiaTN6KlR/uZv/oYDTx0A4GMf+xj/6T/9J66/aTe+q3n22Wf51re+yZuHDpHP5fnCF77AV7/6VQaHq0xPTfP440/w4x//2GwMVRngG9/4z9x992ejPufv/v7vePKJJ/E8lxtuuJGvf/0/8vGP3wEWvPvOu/zN3/w1b7zxBpZtc+/nPsd9993H1h1bWJxr8NRTv+Sh736XkydOkM/n+dM//TPuvfdenITNiRMn+Id/+AeefPIJ5ubm2b1nN3/x4F+w/yP7SaRsFhcXef6F5zl54iQ/+tEP+fhv/AZ//Ed/zNXX7MD3FL/4xS/4+7//e957/z0q5Qpf+tKX+PKXv0S5UmJ6appHH/1nfvrTnzJ6apSrr76aB//8QX7zt34T25KcGhvl//2f/4sXX3qRxlKDj37so/z5N/6c62+4HjsheeH5F3jooYc4dOgQpVKJ3/293+Xff/nfMzBYZmF+iX/913/lh//0Q06Pj1MfqnP/177GPXffA8kkp06N8r3vfY/HH3+C+fl5brzxRv7yv/0l+/fvxfc0r7/+Ot956DscfPkgjuPwqU9/ij//xp9TH66Bhp/97DG+//3vc+LkCarVKvfd91Xuu+9+bCRz8wv88Ic/4meP/YyZ6Rl279nNAw/8GR+/4zdQWjG/sMBTB57i2NHj5HJZbrnlFv7j17/OjTfcgJDw9NPP8M3/75umz6nX+b3f+z3uu+8+coUMnZbLTx/9Kd/73vdoNppcd911fOUrX+He370XgeDkyVH+7u++xVNPHWBpaYmbb76Zv/p//orde67DdV2eefppHnnk+7z73rukkik+9alP8fWvf53hLXWazTb//M//zCOPPMz09AwjIyPcf/99/O7v/h62LZmdmeO73/0eTzzxBDOzM+y9eS8PPPBn/MZvfBzX83n7ncP87d/+f7xy8CBaw1133cWf/dmfcdXV2/F8nyefeJLvPPQdxsfHGazV+MIXv8g9d99DdbDCzMws33v4YX784x/RbLbYt3cf999/H3f9u0/jej5Hjx3lb/76r3nppZdZWFjgE5/4BA8++CA7d19De6nFM08/zfcefphkIsl//a//lRtuuKFX/b6IY/6GJXcGB8X4Fzr6vruircMPAlaTpbt8WPQcjlbQY4RZCrkmcY4r0vHPfUfFPjYeQf1yEg7JVJJyuYxlWeTzeZRSOLaD0gohBIVCgcHBQVKpFOl02qieGmzHjtTryYlJKpUK2WwWKSW+66OUolKpMDRkiFE+n8f3/cgG27ZtiqVi5PSYz+ejhiqEoFwqUygWyOfzDFQHSKfTZlk7SLtULlGtVkFArVbDskyvFKadzWapVWsgoFAo0Gg0AHA9F8dxKFeMElupVEgkkszOzVIfruPYDrZtMzAwQLPVpFwqk0wm8TwPgGwuS6FQIF/IG5UdgVYaaUm00ji2Q6FQoF6vk0wmyeVytNtGqbRsi1KpRLlcpt1pUygUyOVy+MqseabSKQYHBykUCjSbTXK5HI1mg2azGeUhn89j2za5XC56XwhjPpHJZqiUK3iuR6FQwHEcGksNSuUS6VSafD5PvT6E63nkcjkAs8mPLUkmkxRLRWq1QQrFIuVymaWlpUi1KxaMI2upVCaRSJBKpWi1WiBMXcjnzHtyHIehoTqZdBrLktE9EskEtmPKplgqIoN64DgOyWSSSrlCqVgyarGTiMpbCOMsWy5V0AqqAzVsx2ZhfoF0Jo2UklQmZRRDIchms0ad9Yxan06nKZVKVMplOq5LoZCj0WgSBh7J53OUSiXm5ueM4mU7NFvNaIfRYrHIwEAFz3MplUpIKbEdG6RpP7ValUqlguf7ZLPmXWql0IHJS6VSoV6vY1kWhUIhGhSklEYVLJWRQpLOpABBx+2QIYVt2QwMVKiUKywtLZFwEnTcDo1Gk2whTSqdIp1KUSgWSTgJCsUi7U4bJFiWRSaTpVqt4rodsrkcqWSSdrtNTmVIJlJm5ahWw7EdisUivu8Fa+7g2A7lUplcLou0LBLJBK12C+WatplOpxkaHmZ2do5UOkWtVjWFqQnqZpZarWaU5mKRVqtNo9Eik08hpWnbtcEaYMpIaY3vayzLpJ1OZ8jl8yQTSVKproqXSDhkslkK+QJesDKVSCTMcxUzRu2vVqnVBrFs26StFI7dHb4saVEoFigUimTSaXzfx3V9HNvE06/WqjQaDcrlEqVSCYTA88K+ME+9PkgqnaI6MGBWbXwfkCAEhWKBUrFEsVAkmUiyuLgY3TebzZJOpxkYqJh64vksLi4yMFgO6mGeYqmAUop6vY7WGsuSWI4glUqTSqUZHjYhTxOJhKkPbRdpWSbtVIp8PksmkyWZSOK6ncgUoVgsUijk2Sa2mTosLJRS6MBvxtTjGlJI8rm8cRwP+n/bskmnTH1LJJPkCwWkEAgblAvpVJpCoWCU2CCK0+LiIrlCBq01paJRzVvNFqlUKjL9siwZtI8Bo/A6pt74nh/UI4dKZYBCoWA2Fgvuo9HGBMqS5PM5Bgaq2LbJfzqdCUx7zCpGuMJiOzZDQ3WktPB9jeNYWNKmVq0yODiI1pBOp+m4HZAE7THNQGUA7ftkczmUMs70xgzF1OFSsUwu55mVjoAA2o4kl8sxWK9TrpRxEg6pVAqlTR9v2zbJZIpMxtRXCMy9rpQ42ucAE2FH9frSKIWKmZcKIQk2XcSY3ulIkRYIhOw6suvYsRBCiIh8CyGiv6PP8syO8JcTYnxsfHPQ+z4uHIHdlud5zM3OMTs7GxG2Wq1mzDe0YmlxiZmZGTpuB8d2InKWSCUAmJ40kTo6nY4hotUB8rk8YIhUo9FgaWnJ3FIKSsUSqVQKX/koXzEzM8PCwgJWsLydz+exHRspJEtLS8wvzNNpd0ilUjiOY5b8k4bUz0zP0Gg00FrjeR7Dw8MkkmZ52vM9lpaWmJ2ZRSlFLpejXC4bG3CtaTabzM7O0mg2SCYM8S2VSpHd8PipcZqtJu1Wm0wmQ7FYjAis53nMzs7SbrfxPC8iwuEGNY2lBlPTU2ZwwAympXIJ27YRCDzfY2JiAs/1sGwzEagP1iNSPj09zeLiIlJKnIRDPpcnk8kgbUlzqcmBXx3gVwd+xTXXXsNdn76LwfqgIXkaFhcWmZ+fx3VdM7HIZcnmspH5x8yUKe/FxUUKhQLlStl07AJazRaTE5NmsNWaRDLBQGUgKlPXdTlx4gRgQjDmC3nyubyxa1YwO2tMbnzfo1AokkqnjKmCgk7H5dBbh3jyiScZqFa47WMfZefOnUjAsm3arTazs7O4rhuRtpAkh+9rfHwcX/nksjlyuRy5fC6ysRwfH6fT6aCUiki0ZVlYloXreszPLbCwsEC73aZSKVOuVLBtiVbGEfLE8RN03A6WNBPLV149yMkTo+z/yH62jGxhbn4OgZlgJpNJ8iUzGGoPxsbHabfa0fsydTwZLeufODFKu9PGkhZbtozgJE098VxFs9Fkbm7OkAzbIp/Lk0olcZI22oeZmVnm5uZQWlEqmuXlZNIBCa1Gh+mZadqtNlrraLJiWxae79FudZiamsKyZEDgSyRTSeyERHswOTmF63Zotlrksrnu+xLQbrhMzUzhtl1Ak05nqAyUsRMWvqvxXBOlx3M9pBQUiyXSmRSWlPhKMz83x9zcfPAOzL0zmTTCBq+jmJ6aZmFxAUtaZDIZSqUiibQDvtmAamJigrk5E6s+m81SLBWxbGMouzC/xPT0NGAmD4ODpr8SEnxfMzU5xeLiIr7ySafSVCoVMtkUSDjwi19x4MCv2L5jO7fecgu1Wo18IY8UEqU1nXaH6ekpXNdDSkm5XA6EAjPoz83P0261WVxaJJ1KMVivY1sSLGgutmk0GiwuLmBZNqlUKnofwobWUoeZ2RlazRaO45DNZkyfE5DTpaVFZmfnogloPpcnk81gSYHWcOLEyaivM5PnMomUg+cqPNdjZnaGZqNJKpVAWjZDI4ORHfLC3BKTk5MobSYYpXKZQj4XkB6Yn59jaWkJ31fYjiGbTsLG9zVP/+ppXnjheXbt2s2u3bsol0pmwp4yfU676TI6OoobmPpkczlTjwLMzS4wPTVtJqO2RbFYikwwXM+YIXU6HVrtFtlslkq5QiqbQHvQaDRZWFyg3TJllsmYyZYlJULCzPQsMzOzWJYVmfFlMhmchIXvaRYWFmg0Grgdl1QqRaVSNvnGvK/5+XmazWYw/mTN+whMYuYXFpmbnUMphe/7VAYq5PM5LCmjujA/N29s9C3L5DtjzIx8V3PyxMloHCyViqTTGWOGhDGvWlhcAGB4qL66ffdGY4PZWxhE4EzpRiQ6GFPCiUlIrIHAL0esDBUbkGppyS4pjhPquAlInEQHRFoK2fN7uep9UbG8TNZS0vuk+gOGM1Qw7a/9qrXW0eYuEVR3ZnkmhDGKQ0U6JJXxSqiUWnNmecEzzss1YV3NyWo1nMVJRSvNSy+9xHPPPcf+j+zntltvM3G8z3TdOTp9XBQIOHl8lCeffIJ6vc4dd9xBLp9Hxt/net/NWvlf7fvV0ow5amm9zDEOaDbbPPPMMxw/fow77riDXXuu2/h6s5qT2fJj53PPs9WzS2FnuDwPG6XAXagDl4Bnn36egwcPcu3Oa/n0pz9tHD5h7ago680XF5i3C8H55vtsCBwVn33uOQ69eYiPfvSj3Lj3+q6jbnDOedXls73L5dE5liPuvHg+uFjOgBt174vxPi8WqV4LUR8bRnoKnFxDgh1blY6yp4O4PDHH8LgSbb5apXDEKt+vQrY3G/o21R8irPauhTRKUbvdNspQ1BjMDHTVeNKxDiRMs91uG2VBBqH64nZP8WWeDxrW80hnOWd5OLoVNmbne98LwToHda27ioXGKBj6TGHyzicf6z0vdu7yqhZGJNGEy5cXqQD1st9rHT/fdC/0nAuBXuPzRqV5rggHeML2smyL8mV14pLla6NwMfIQ8hoh8DwP3/fQ3vLGEraR8NzuoTNymLPldz1kOZwInQ8u5zs73/a5EZxwA5+7J5TrGhNLTXgsILZKo6U0m+Mus2wWPVedgTgv/71KvnqcGeP53Sic7V2sU6nu21T3AQKef/553njjjahJbN++nX1791EfqkekWi+bhSKMyjo+Ps6pU6cY2WKiBQi64Zri1/Vc28eF40xq0qXKwtk6tQtVqq8kxNTyD8TzXAk4U6SAPs4I3/fxPB+lloX1o3dSuhq5Pmf0X9EHBzFBTWsVbfJmTEIC8isMNQ43+IoryxqN8lXXvlqs/hMn2ggQWkQhgMP7A2etW5c61F5fqf6g4RyXgjUat+PyxBNPMDk5SblSxu24HHrzEL9+49fceeed3HbbbUzPTPPO2++wfft2tu3YFm320m63Ofz2YV5+6WU++clPUq/XI5vY0CwkPuitIOawbG67gbhCqnZcmT7vbco3+lnXmd5q26v3dHbnojRfQD7WtRqwfCVgo6HpE+pLiWgCYwpdR+82ON5/F6ujp8xi6n7MfCo8DWKC5fJJ/Lkor+fyHvrv7NywkeUVazt6xZfE6kfXrlr5CuX7+IEjbGh+17WFjtlBB3bWvu93nRpDYh04H4bndX8gLpuHpiRilex1sZJfrDn5DjXCFemsfv4K+++eY32l+oOLc2hoylc0m01++7d/m1tvvZXFxUVee+01Hn30UcZPj7N9+3YajQYnT56kUqngdkwMYsuysGyzY2LoXIgAt2Mc0yxpfTBNPi42li+/bVZcTDOKiwLdM4FZ1VZ0+eMs3+wkDrFGGn30sYmh4huBsUyBjvl9xb++opp5HxuCNTc81BhFWmtj8iHC2e/cAAAgAElEQVSMU6cId1cmVncCxTpSq4PPYVSv7mk9ta1L3ANbkx5eTcxee628o5f1zfFZoIjVeXHBY61e9ruvVH/YESjKlm1Rq9UYHh5Ga83Q8BCpVIof/ehHHDlyhJEtI2zZsgUEvP7a67zzzjtUBipcc/U1PfbUv3791xw7dozd1+9mZGgk8uCGZQ2ntw1dHGz2qh2UQaSi0iWpSqtLvmzVg3NUquOflfaDvF9g/s9FvV6PUq1AaT9mg7tKGsu/W74j4fLzN0KZ6+P8EC0DBz/EVNfweP89rEBUXjrS/dZNms962kaUd/+dnRs2sLxWs1vuHoz388rspkxAeWV3/8NuEsvS0hodsGMZmIWsSDv6qFatk9F1Ud1dCYEw94kdNgp5aE6iQYfmJcR8M85NIYnf37Qi0Veq+6BL7JSOYphKS1IsFNmxYweJRILjx48zvzDPG6+/QbFYZGJigkNvHeK2W2+jWDA7dHmex5H3j/DKK68wNzdLvV5nuD68qodu3wYygKa7DTrgK7/72fejcH5XFpaZflzIu95gb34T/skMCOsi1Kzx3WrH13Dq6aOPTYNo1bq7YnPeE/cNbpt9bHLESC8Eph2y5xChymA4sVpJ0FdwVr3K+LC2aUVIjHvY9irVV6MRepmAF9wrqvPx1eDlffg6sVoTEPSV6j6IqY3hcn5Q2SzLijbrUL5ifmGeRCLB0tISnusxUDVB/E+cOMGbb77JCy++wMjwCL/9md/m2p3XRqTwstWxzV61g/KemZlhdsbEup2YmGBqaoqBgYFICbgsgvU5KNVA4KhiJmYy7NAupWq1HqUajVbmRykdDQrR9ReS33jHvNnr3QcFkVIdvLyNjP7xQUSsvDSxiD3r6Z/XOwndCPTf2blhg4WHNfswvUwbDhRj0D12z6EJyKrVSgcRQqIY1Sv14eXotaleH3o2ktGghUAEjgNxv66u/484K1lfq5yDIkAI3Veq++iF53nRRim+5zM+Ph7tBNbpmJ28rrrqKm697VZ+8uOf8NQvnyKTNrubvffeexw/cZw//IM/5KYbbyKdTne9ffsTtzVx7PgxfvLjn/D8888zNT3FwYMv884773D7Hbdzx+13mJPOcybdx0XGauYf/arex5WG5SRqPXU42ICmjw8RImJKl1CvYoAvpTHvWFGNROzX2WIzrloHz6FzXSV9Ef9/3XEi18hGrM2I4LtwPtJXqvuISO/Ro0d55+138FyP5194npdefImRkRGGhoeYnppGa02n06GQL7Br1y5+/vOf8/TTT7N3315uueUWbr31VgCeefYZaoM1crkcnu8hhTzT7S/ig12e254LPNdjZmaaw4cPMzY2FmylXuUzn/nMqtFTLgpWUybWU3aiu5Tsa7PNvAqcV9adxtmwgUo1kTIXW5GJX38++Q1trvsE49Kjx5yBfvSPsyGuVEerk6v4F1zuMrvc97/SsJHldYa0Iq4YM/dYZthp/hd0HRRXHl75ecV9Vw5IOgpPc4Y0z4DluQn3LQj+WPOq3izG2oladlR3/+4r1X1EleuZZ5/hyJEjNBoNZmdnqVQq3HvvvQzVh2i322SzWZrNJu+++y7vvPsOAPmC2W77pptuYs+ePYyNjfHiiy9Sr9f5xCc+QcJJ9JXq5Yi1xsH6ILt27eHAgV9x8sRJUukU1+7cyc6dO9e+fr3FuZ4O50J9CbWOyH/3ywtP94y4kpwD11sOmyHvq723D5s5y5X0vi4X+hPIDzci/5FAjY77pPfYV6/OV9fSkKPrlvdDustR1sMlVtuFcT25OCcsf95YP9lXqj/s0CCl5O677+bgwYMorSgUC9x5553s3beXWrVGMplkZHiEz3zmMySTSWZnZ9m2dRu33Xobe/fuxfM92te0GRkZ4eabb6ZWq9FxO3Q6HSxpXVyl9XyWLs8Fen0NeT0QUvTmV0MqlWL/vv3s27ufU6Nj7N+/n9/65KcQwsIPtpWX4bLZWsV4riRz1U7wDJ/PAOUrY3cfqb8ahIUOl4cvtOyWX34mkncWO7iu6e0a6tyFZPViqPLns8CjufBngRX1dNMhNvDGbYMvSKk+1wnEZiyXs6FnlWaVVZt433CGNM7p+Ll2/1diuZ4vVnvWsF6fodxCk4M10zjv7Oi1282ZnLHD9hj0+aFDoY4f1L2ndutanEUvV8OX3WMd3+lANo7I9aoiz2qxQ0T88Mq8xMez0LxllfGtr1R/2BGQ6js+fgd3fPyO6GtLWiilkLYZ2SvVCpVqJTp+++23R/bXy/HJT34yqtRX8qRN+QrXc7sOgxuAuJOECOJ1VmtVbrjhBt5+5x327dvP0PBQEOub4FwZ/GbVnra7w6WIMe+zMIqAgEjLwrLEeU/cVzo6bU4Za9WYvJsZEnxXo4Jd7zzPXddlIUlSoff9em8nJLZtRQUkpSSZTJq60UcfffQRYp1dgga0MnYSURSw0IkxOCF0QuxaYqzO3M/NV/H8x7NzRjBXiI/rfaX6ww4BwhImBE1c1RO618lQG5IZkmwkaF+vqnpqrRGye+0lrWMbcSsBjcUG4+PjzM/P4/nequegOQvhXmnHFXUqQZlY0sL1PLQS7Lt5H7lsjjffPISUMppphyGAQiEtPomO52V16FU+dZHLZRgZGaFSLkE8Hv86y3F5jOoN363wQpOK1UkdK/sNV6o3AjG1R7tw5Mj7HDlyFCklyvfPfGmszNcufh1EllpmCRnNybptNpVKMTwywtDQEJlsqpu/zYL4+wojF3GBSvX55OFKg4631TXawgbc47Je/wHBWYvhYijVF9J3x/ITtkWlFWhBuNdLqO5qYiKR0GuS6Z6k1521rpq87jyf4d7RoTXOVbq7z4Sgr1T3sR6RMThHWrJ3KWWNdiCkWKUSXhnQymyh+uZbb/L8c88zWBvEdoJmoiHuPayVWp1wLzt3zXtFs1uJBoaHR3ASCU6dPIXreUgZBgLtLlYpuh1TPA2zuYnq+a4nKwHi4Yk8z2NycpIbrt/DnXd+nHKlaOJmy0s1zb90CAwEVtrbbTYoaDbbHHrrEK+9+hrJZIJyuUIi6XSX6ntnv7GLNaYKLJvYxJZhVWxitxr79n2F57scPvwWL798kE9+8pPcvPdmpLXi1D766ONiIBhjN3lPtTYERqQTIMOOIzLziBHqSJ6Gtbdv3ISIvRglzJgc/gjRt6nuYy2EY7da49h60+AKUapjDeWXv/wlB351gHvuvoeBgQq27cTSDkm12e7X871zfr5QsQ63ejVCkSCa70b/hXK4xlcquE6YWX20gKB71CeTfnC9iC21BWdHm58A7XYHaVkceustBgZK3PEbt5sViHNQrroK8OZWqlVYfqKromxGpdrteIyPj3Pw5YM4jsOtt95KNpczplSr7TKmZVAnTGPVWnXVIB0K33GVXqG0Ms6ly9q2EuArD6V8arUqzz/3IocOvcmWLSMMxEy/NgVi70uHk84Ltak+nzxcaQj7iojg9JXqTYnLVQbndV+9+p9xu2Yg3HzLnCAJ61/P+bEdE5ene86CyHrGoVVOWfUq3TVBiXcvSoOPxkPjY56xr1T3sTYudKocLitv5jn3sqxNTk6ytLTEdTuv46abbsKyrVg4HxGO4EC8k1hNHV75fUR6lSFHIdHTEfXpXgeA0rEBEEOelAjSCjqg6HSNIiTrJt1AtzZOFUobVT2WnlKafC7HCy88x6nRMSZPT1KtVc+3JDc3YjZvmxbBoNJoLJFKpdi792a2bt2GEAKl/J7JkSHSBPVBBHsXaJTqneTFn1bpbh0Ik+k5QZhVGl/7FPJFlA9vvvlrjh09vvlIdR9XDpbXsz4+PIj7/mltJu2+WW81Q2kYNlZiWRLLshBCbop+uqfaxjQuICLXPhoXRRuftvbxlOor1X1cAlzKKnaB9+q4HTSaUqmEkALPNSRFEDZ00bVtXsvLma5arHWMJkekutee0ZBp0dNoQ9Kt4gQo5PPh78DONpo5Bwq47xvirMIjQqC1wvPUCkdJJ5Ekl8vT7nRYWFxkoDZwTgpfRPrjz7MJlWqtzY6PkWq7GZVqAGEmO1JKEokEQpgt63vXG0IVWgQx4CVSisg5UWufeI0M66TSGq1Ej4AjgsmcWZ1VaC3QvkApGKoPcfitt+m4fo9vRSzJy4e4Uh2p1LE2ueyci5aHKw097ZTV28IG3GNd3/Wx6XBG5+b1vsM1+n+lNL7n4XouylfB+KYQQiClhePYOIkEtgWwklhfKq6q6W5co6G74U38S2lWln00HRQN7dJULi3P6yvVffQRh/IN8ZRSYls2WIGiDKBl4JwZ2H7osKEHpEVpZMwe2bTFgISrIMacAJCogMBAQHIiL2IRrX5pJEqHDmoiiKYC4XK/7/cS2HAZPFLEMUv6hvMKlBCBwt0lW54CaTt0Ws3IJvuDiG4xXW42eDb05s9bxUGxO5ETWMKKgr5ISyKEjecRKdsaiY5ItUTp+ODUtWmM3COUQiCxZLgyE/6syFofffTRxwpogtVYQpMJMwgp7eN6Hu12m067g+d5aMxY6zgOSicNwRYCKcVlUavj4thKWaL3PA0oNJ72aXsuS26bpU67r1T3cZlwsardBaYbqTYCmq0mlrQCpVAAEq/j4fkeyUQS27YRELN31szMzeG6LqlUilQyaZwNAyYbdhJKBTatoWqqAGmhpTAzd4y5hlIqZFCYRi4Bgef5+L5CSmEIU6SKx1RwNFooQ6qDewvA1woZOLcJGSi4WhuyBd1oJudSjstU6s2pVHcV3sgEZrMp1SHHjdmor9hYJ4BxqPWYnJlhfGwCy7LI5zMorfB9l2ptEI1gdn6JVrtDNlcgl8uhtBXZ1JtbCrMcqzRSg0BG5eC7Xfv9lbupXWbElepotadvU31WhO9SxxX+S6BU93FF4Ix992rMcrU0gvFNa90NpYfpr1zXpd1q02g2cF0TJtSyLBKJBAC2ZZlxVciVeVlPvTpzEJGzQrNKt6HNLsFxXUZrUELjo3CVT8tzWWq3mGq3+kp1Hx9yrKHASSEDQq3wvZCE+Lx/5Agvv/QyIyMjXLdzJ9VaDWlZtJpNxsbHee3VV5lfWKBer7Pv5pupDAwAZglpsdmksbTIUqNJvV7HtoKNcSwJQtBoNBkbH2NqcgrHsdiyZSvZbNZ4UAujOXY6Hq1Wh3azRSaTwXacIBQaAREPSa1GhXxbaHzls7CwAGAc30QQRjEg6nEy1cdmwiovJZiItVpt3nj9DV45+Cq2bbH7+t0gNGNjY9xyy0ew7CTPPPsi6Wyej3zkVtLpLGZEkEEyGl9rlK9RysfSCgsdKN9xlbovUffRRx/rgY58Q6J+BCLxRykfpYzJhyWt6Fzf941yvQapj4ejhShcgPk/rmhfAvO0OPEWwXP5gdAltO4r1X18wLABSrWOKcu+pyJnRID5uQVOnDzJW28d5r333mPPnuup1WrMzc3x/PPPMzY2hm3bnDhxgqWlBh/5yEcoFYs0mg2OHjnKocOH6XTaXHvtNVx99TWUiiU6rsdSo8mRY0d55ZVXmJiYJJlMsHPnTvbs2UOpVCaZcGi22kxPTjM3t8Dc3Dy5bI7aYI1sNkPCSaCUZnFxkY7rAhrbcUin01iOw9zsLCdOnqSQL7Btx3ajDIQievChR2VeZzmuFvnjoirV52qGEFczo7yyUp3bDEq1MiZEKsijrxTKX5kpjbGPXlhY4PkXX6CYL1EoFpidmaVaq+J2XJ468CuksFlcarNlyw7yuZxZhQhXJDRReD3fNyRdAmZNxhBrX5sQfIpVbKovN+LvK3iObh1e5ZyLlYcrDbFVJaJi6yvVVwRW6/c2uqzXlV7MMGK5KVnYwYSRP6Kvuytv4WqslNLsZ4FZvfX9bj9j6qgiihKybGwJPZt6CHWwucx6sTyAgl72V3yoCc0m40cjfymt0b5CK4Wl+3Gq++hjFQTKLRZauZFSJxDs27ufa6/Zybvvvsuht97i8cefoNPp0G61uPqaa/j93/8CpUKRI8eP8dSBA5w4OcrwyDCTE5McO3aM4eFhMpkMjz/+c8rlg1y781raHY/333+fZtts9f7pT9+FRnHw4EFefPFlrr76KtKZDMePn2B+bp5EIkE6nabRaGJbFsVSiWwmg68UM9MzzM8v0Gg0KZdK3HDjjRSLRd5++zBIycduvx0riH+tfBWy6isLV9KgfY551YGZj9Lg+Tow+emFUgpfazqey/zCAldffS2ZTIaJiQmuKZW4ee8+vvmtb7G4sMTvff6L7N69C0taCKVROogyExDmkGAb2/5AVRIgA5vCKC56iCutrpwLrqR6dbHQL4PNic3a7gIiq5QfI9MsZ6CA8flIJBKgNR3Lxfd8VECMLcsilUySSCSR0or5/agekt5NNWZzfRFtr1fVcGL5sYGEtMkkk2gJSZXoK9V9fMCwQUq1sXX2I5vWaN6qNdlshhtvvIHtO7YxOnqKyYlJ8vk8lYEBBger2JZDvlgkmUrxwosv8vY77zI8PMRn77mbwcE6Ugr23HADR44c4Z1330UjGd6yhW1bt7F121bK5TLtdov64BDjp8d49933mJubY/fu66gPDpPJZMmk0yw1zK6P01NTNJpNHNtm3759ZDI5AMbHxzh8+C1c1yOdTvGxO+5goFw2c3xf4Wuz/bUfLLudr1IdqcFcAqX6fJNZoWZuPqVaaVAm2GmkIPqq11GxG7VBBc6qPr7vk0qnsCyLxYVFms0mUgjK5TKddoeZ6WlK5dgAJIypjwqjhwiQaDytjEqtNQphBj3fD0JAbrJxIva+Yq/20irVVyLCMgr/XQyb6j4uHTb4vZ1L9I/QJj9SmZUCYfoUaUlkLOSrDshzIuGYALJS4kkPX/lRpKNkMoltOwgpQatljvMi4NemrgphBIdIsQ5+r9ZPrRXSV4uV9T70ye6ad9Dbn4S/VOAcjsBBkrGTCClJaL+vVPfRx7lAa40WAiElhUKRbCbH1VddhSWtoOMwDhYJx2H3nt0MDg0xOWVId7lUJpEwG8lUqzWGhoe45pqrEdKiWh0kmzP201opUsk0w8NpaoNVtmzZilKKfD5HwkkRxt6rahgaqtNqtfA8HyEkmXQayzJ21lu3bqFULjMxMcFgvc727dtxksYhxNd+zAb78pVnH2dGT3SX3v9IJBIMVMq8//4RJk6fplypMDo6yvjpMT59110knSTvHznOyy+/TLU6iGVZZPPGTCSXz5PO5KhWqyQSCRTBqkVIrEVQR/qVo48++oghNM3wfZ9Op0On4xpxxvdQWuNYNplMhkQyEanOAuOnZFsOMmlhOwl8z8f1XBCQcBxs28ZsWa4M8RYiEg5c1zX3cV201liWjeM4JBIJLNvGkhsf23qt1MLvQ0qfEJKMdLCFhYvfV6r7+IDhAquz0kGoPKVRvsIPnCpC5z9BNx4wGrQQWE4CtILY0rqZ5UrK5TLlcjnqHDyvO/suFoqUSyX8wJZWa22UQYimx0JYVCqV7vFwR6rguG075HJO5KgIGO9rIJVKc/3117Nr126EJY3dte8bO1kVV5V1N9+b3ab6fJMJFd7Y35tNqQ7tnHXwjkMTjZ4T6OY9lUpx8817ef/9oySSSQZrg7Q7LRLJbdx8000kUxksJ8nSUov5hXksy8KyHWZmprEcGyeRxPNcHNsK6q9vFKKgMHzPN7svhna3mwlxpZqwDl9im+orETrWznV3dalfTlcoNlqpPlM7j0Un8n1Fp9Oh0WjQajbpuCGx9kk4idg+CGBZQVhPGQQAsC0cBL6vsDwTjci2baSUkd21lKFjo8b1PBqNBs1Gk3a7jdKahJMglUqhtSYJiNj1Jqux0LZrbYG+Sv/QK0oHqYRDbrwcdOB7AtgI0sLGERoX2Veq++ijB7FBZ7WmqLVppN3G1yU6vXxUmL2iegb4KGh05FPhe8GeUvEICz1L2WH6sQzEko2ui0wCukdD+1zbRNPH84LNYpSO4m1HjkofImyG3brWwvJJCjHys/y3Yzt87I6PsXXbdtCQyWSC5VRBPp/H9zU7d+7E9Xza7Q4IgWM7lEpFEqkklmWTTDgBmQ4nZapbZQOC/2GrH3300cfaCPsn3/fptDu4nocQJjRe2G+1Ox0s20LaMnBIjF0fjH9SCGzLQhOcE0QMAaKQsr7v0261aDQadNodwFzneR6u28H3EyjtxMbq7vh4Pjs5i+januRWPzH2UerQQVH0leo+PmC4wOrcY28YNOw4CQvtqXoUT4jtfCgCExHTNFVgE6tC0h0SI6VjDVOiMbP/KC5xRK6W5U0QI8IiIOhmdycVI2RAtKW5H5KzKJ2AOgXKaLi9efzac1GqeyYim1mpjin8vq+wIkcXLr+qqQOnQK0jG+ae8owItSYMCBKubNTqgzHV0dQfT/loDdlc1hBjgkdUmnw+b+qbAo3CC4iziAi7ga+N3bXChN4LqvTm8JmKK9WRnXlfqT4rwr5jxeTtcmesj/PCRr+3daRnVtAUnu/Tdju4novt2IiAGGs0rtuh49ok/IQx64g2NQsHwcCXQ5qxL7IRQQQrdgpfGfOQttuh1Wrhum6wy6wh1cIVkS13OGaH43DMnLvHuTGOVcNun4VRn4ljS+hH/+ijj+WIE5nQzrTbkETIY81P0LmIuCodU5YDDXq1u8RviEKhFPi+t4p9c1yp1mgd7vQklp0bhibq6RUiIhUmooXpsKSw8LWPQnWPf0ggotBLm4IedhEQnji5DjcACutbdzIngg17eldN4isnpo5ogiB9y4ho955RnTU37qandLDzp46Ka5OVWB999HGJIRAIKbAssxOi7/uRqZjWwQYugY208THqrsx2w9AFq6ZhvyRCMtyNQC2lhWObFTnLtvF8Hz/YydhXPjY2SOPfZNLinMLq6fBGq31/hr9X+zJMxuor1X184LABSnW4FG7sjsNYmSZxHcywDf8wMayjdhwpyAYh4Q7TjUTgUBkKbNNM+DTVtSXDbNO60jQjTEMEyqJJxle+cVZ0PSzLwbGdnsD7SiuWlhqAxnJsbMtCyfA5Ywv+cZX5HJTq3tiim1epZtk76Mnn5VY1dXfQCd+Dgm70mZ4yNgpyj2lGGA5Pdc8jUHwiMxII7KPD+kuXVGvN8s0bVVwtZ9muYpcb8fcVW4XoK9Vnge7WIWJ1rV9OVyg2+L31GD2eIW0TZ9rCcWxc16LT8YLxy4rItiHVIurbgGhMjdqoMHUxotLBuCVFED3EsrAdG9u28Twv2qkxsp2O7VS8ens3QlR0Qg+JDuXstRTp0KY61qcIQIkVZ4bpGhvrPvroY3XosMF3G12r3cTzfTLZHEJK3E6LTqsDQpJwbCzbRkor2DlK47ptmo0Gvq/IZDMIIbAtG8sy25/PLyywsLDI1PQMmUyGWq1KMpmKZvjK9+m4brD81SGVzpJMpUzcYUuiPI9Tp05x5L0jzM7NUx8cZOvWbVQqZTzfp7G0RKPZ5PTkJO12m3p9kFp1EBl1MLEer49Ng5AId82KYiTZ+MajI1YsIsXHmC3FJw3BdQHZVkqjg/OVH14T3s+k281ENx3jjX8pS6CPPvrYlAjMNpyEQ0ZncRwnIrxCGLKdSDiR8yFht9Iz6e2OOV11OiDIontcCoHjOORyOZLJZCQyCMAOon8gMKt6Mh4jexXiC5H4sIJcr3zE2B9dXyjzt14jHYO+Ut3HBwsboFR37bOC3Z+ima7gjTfeYGZ2lltvu41MJsPYqXHGx8axbZtsNkulUiGVTqO1wnVdjh87zhtvvI6QkpGRLdTrg1Gc6cWlRd4+/A4nRk8yPTWDlJKtW7dy9dVXMzg4SDKVwvNcxsbGef3115mdmaFcqbLz2uvYsnUbtmPxzjvv8uorB5mZmUUIycT4OBMTk+y4ageL84uMjZ9mcWmJjtthsFalWq0Zsq7CSCZGrRYxu9RzKccecwMNm1apDlT+KL8sWwW43KpmqCBHyrBRqfUy849uHs2L0zowA9IyIOEmMTP46Oi40rGINaFZSEwd18G5cf8BpVVgj93N06ZB7H11617vitBlf6ebEfH3TXx15HJnrI/zwkYr1Wfqu+OHQnEobUVkN+xz0CCkiFTkSO1VQX+iVYyMBtuZh7+jCCPhbQS2bUL0hfcQgLSsoK8KVmOVRqCMwyMxxX3F82iWCwfrgYj3KfEPcQU7+NxXqvvoYxkMoTZOEqEuaPb0FnQ6Lu+9d4SO61Gv13n78NtMTc0gLbMc73outuXgJBxc10MIQSaTBl+ZXRgPvYXrugB0Om2SyRTV2iBbtu5gaXGR06dPc/LUr8hls6SSKVzPo9VqobSiVB5gabHJ88+9wGuvvk4+X+D0xGmcRIJ9+z5COp1manqKU6NjHD92AoSkNlijWquRzWap1qrkc0VUGLheCrOUpcXaYYc+IFjVNCXWEW4a9BB9YbYQj6nQBGYYAgHKbDEuRRKtLTThJi0eSnuBs47Ap+tIG4pEUbi+OBkV9NjX+0oZv4JwVWMN8eeyYOVGk3308cHFMi4Y4TL1Yd3hwphqCCmwgpB25ieMe79yMh4p0zHTjR4zDroxqsM0zIYyAm1ZMZMlHRByc39DqGOmIBCZOXVtuVlB6KPP9B4706fl0LHDfaW6jw8WLlSpDv752qfjdjDL7DJKd2hkK6fGT/P24bd57bXXqQ/W2bXrOpLJJK7nMj8/T6fdMW1X2pTKZWrVKtKyWFpaZG5ulqWlJTzXQ0qLanWAykDNxKLWmtPj45waG2P0xEmmZmZIplIMDQ9THxyiVCrTXGpy/OhxTo6Ocnp8nKHhEXZcfRWDg4MkEgkWlhapDBxnZnqOTCbDQHWARDJFIuHgOE5gmmI4iQa0kmgljW0b525THVenN7tNdUhOu2pI7Fkvt6oZI7doM2gprfHjMdEBobRRqH0f7Xt0fIlj2fiextcKaWsQPm2vFWz/6+BrY7NvRpjAZl/IQL02dtZm4BHo0K5agJ5+s3EAACAASURBVK8NqVZCRTbewaHLT6pjCFcgutEswgNsqnxuCsRXk3SszffLafNjtXd0LiZZ63nHes0/ut/q2DHRVaRNB2W2LPcDEzQVqMeh7XRIsqUINx2P/b/idiJSvwUCAjtrrUxkEONwL0Fqc4/QUDPq54L+IIjitXxcihP64FHoWnd3vbJ1D/lmBfHWvf/1leo++lgOo/iZJaqucGcGnvrgILd85BbyuRxT0zPs2nUd9cEh0pkUaOi4HZSvaLXbJJJppG3hJBJIgYndKSTtTicSGEx8ToklTVPcvmMHI8Mj7Ny5k/n5eVKJJNl8LgioLynlS5RLZbZftYPZmVnqQ3WK5TJK+Wg06XSanTuvw3N9hLQCZ7dgRh8onOEY2hUTNEIGiuQHFHGHu80M3fXa6YbWMweic4xnPIyfnuDgq4dwOzbbtl6LsAVT0+MMDpWp1UucPDXG7NwC9foQ1Vo9coJFByH30KBCUk0UTcTc3DgzRgx6synVffTRB8u56CVZcBQQ7rmgY47UkT1zKA4QV6AFQsbyKuLEtXdmoNFd2+nQxCMwH1FhfygEUlhRdkJSG9131ZUsHYyFIoqLHWVnGcHumZCvQqhXMyoJ0Veqr3D4vs/szKwxVfAVpVKJZCqJZVmXO2uXBxeqVGuzk2KPfWao6gQMuzY4SK1W7fFkVtrIi8lEEo0mlU6bCA1hmoBtGeKcTCQiohR0AZFiJIRAWpJysUSpWDLph1nwjZ13IplkcHCQwcFBk3YQC9sPSJjQGtuS+Jg+wLJE5KgWdoKR7a2vUL7CkstU5nWWY5yobmalOnqHPT/L7rNZlGqCOK1+N5xdpLKjEFrhdhq8d+Qwbx5+nXZTMDM7TzaX4+Sp9yiNZbnq6qs4fmQCpTWZdIFyJa5IChNaUelIme5GF6FrAhL556zyTjfRsKG7hddXqs+GaDWka6ffV6qvYCx/dWd6j+t4x/FJ9VnP1Lon5KdxZha99alrHB0cl927iFhasdO1VvieD0JgBbbTIdEOyba0LKNaR2Oojq41JLzLfsM6rmL7TsgwDF9gQhJkco1HNc7dUfgjIaJ7dp+gi75SfYVjanKKRx99FMuykFKyfft29uzZw+Dg4LktDfURoOv4EBKKgFl3p8TBwC0wG5X2qJ9hw9Ndc7fwNejgipAkq+AM0ZO06naUoSkA4bJ8915C09txhLavOvoUId70NcYp0fwZdkohtf9wVJhNryNE9s/d7eTDt6jROELgdjq88uor7Nt7M5aV5d23j5PLD/Kx7bfy7HMHOHn8JIMDO7hp/01s2boFy7ZAdWuqCpyG4tVbBfdWXaYd/F5WLzZ7+fXRRx+XACLaGrzrym/IpwyJtTJ9lrB0ZHcXdR8BQQ2htNnMKjLViKnd4e/QQTFygCRMo5uDM+Y4DDPbs6lb3Pyjm7XeJ+39tHzRLv53X6m+wjE7O8uPfvwjrrn6GqSUHDl6hKWlJe666y4SqcT6B8DzcXhYbXnkcuNClWpFYFuqo10QI6eLYBkqYr1Kms1TCNS8iNgGzn8x+xEtTDxoGSO9ipAcd5NFhGHUAgKkNEKLaFnPD55RKhDabDqjQqJOaC4QkP2YHbFUunezkEixNrG2jdIehmlbfzkuj/qxWZXquKOKeeZ4VBcuv6oZF3cIJ1IKrfxuWD1MU/MltFodXNcjn88hRBI7IZBCUx2oknTSvHzoVYY+cQ2DgybajK80WoTvWkXKDbH612uXrKO6FM4CQwfXeJ43D4IBu69Unxm6W0bxmOj9crpCsdFK9Xr67p5TQvOOWB+lBZa0os2rtO/3mJ5Bd28EiQiUX6Miu56Hr3zzPWYlXgZh+qRlmVCyUnTrbZAfjV7WN+nY88THJFP3Pc8PFGuBEDLIX/fhVhSDMM+1nmD9faX6CofSilKxxGfv/iz5XJ6f/OQnvPrqq9x6663UUjVarRazs7PYlk0ul0NKyYsvvsjC4gK33nIrqVQKKSWJZALLsnA7Lp7vkUgkaDabZhkGsGwLgdke1HVdkqkkuWzOVPArGcunmeF3xGzDegZqgfJ9hDbRQJR0Qdn4KDQuAgsTKYTushFmmV0IjfQlnuXjopFKdgm1CE1JNBrfGI5oCSgsDcKXaC1wZaxD0hpfBrHotSHfhtobyq6FofyWFji+oC0CNRKN7FHDg/SkXL08Pqg430nhcvviM2GtTTVXSTOcOIWROZTShgwvI9UCTSKVolAoc/r0FJZMIoVgYX6WX7+xiO8LPvvZe5mfafLWocMMb99CNpszu56hcZwEXtsjnUlFNorxe4R2h3FzmTDcVVhd1h2z+lzKqo8++tg8OM+JliacuKvIpLF7JDQVMSZonpGyzb4MJiRV6G7YtZWO2znHsJpNNMvJdXQ87Le6qnQ8JF+3/+sl173frY7lOkNfqf4AwHEcLGlsqBcXFxkZGUFKidt2OfDUU/zjP/4TAF/+8pfRWvPTn/6UQ4cO8dGP3sbuPXsQCK6//nqGh4d5+pmnSTgOQ0PDPPvcs4ydGqPVarF9+3YsS3JydJTR0VGGh4b5gz/4A/bv37+5Bs3zUdvjYQ0CpVr54Huiq0JrY6ZhofHbDRw7jec7uHYCy7OwAmdAB4nbUdiJJE3l4WsZkFcfC0VCuVjBzomutiNia+JEK7Tw0HhRt6Kx8BAooUFoXNFVhhEWHUKBW6KFjw6NOJRE+GbO7HsatKJh+ShhIn9ICbY2274q5QfK9fnbVMdtMzetUh3mNYj/rHXMm+ViqZrnkGZ4qu/7eJ6H57qBDWHoDGTO0lriJLLs2nUz//LY/8H1FLv2XE+r06YxN8eNN+7juuuu46WXDvLmoTd579j7JJMpOh2XTqdDrVZDKc3u3bspVwaidY4QylcIKY2NvgpjYXePaw3K18Ey7IUW0MZAyK7nf49SHf/dh0FsBet8/Cj62ETYYKWaqCqscvIq6u1qf2qt8X0/qlcCYUQcEROEhEShA4dpsAIlW0uBEaUCMYvA6DFavQ1X13oz0zvmxIlyuCrTPbaiz4rZZaPFSj4Tt+MMBbeVjx/0P32l+oqHJS1mZmb49re/jUZTLBbZu3cv2VyW1157jZ/97DFqtRq+7/PLp37JzTffTDaXZfuO7dx++x3Yts2TP3+Sbdu2YVkWk5OTpFIpcrk8bx9+G4A9e/ZQLBZ59713cV2Xm268iaWlJZ78+ZPsuX4PqVTqMpfCBkJIJBZoC4HZ1TDcDtrWHs7k+/gzo2TzVWR6mEQ6iaUtpNuG1izu+GmsxQ52aQBRG6CTzIK0EH6HhNsg6bn4CBJOmiUnTVtIpNY4rkvK90h5Syi3ga/BTedpC4eOdHCRCKWxNQilsJF4SqEt8DAN2sdHorF9sJWgqcGXEi09hO9hewotJVpKFMaRMRDJzaNvqtnRBkOIwCnTp9FssrS0hAyceXsUj/j/oZqxIvTS2uUkYteu1oHHwzYtP6i0sfXzfR9fmR8d27QlHCB8pQCLq6+9nt+5O4nSmoFaFSEkzXabgYEqdjLJDXtvoj4yYkyUtDH/cV2XQr6A5/nkcvkehSb0H1BBHYucWGNu+6dOTXLixHHm5ma5Zf9+KrXymSckF2uyYrIMgsius48++rh8iC3moqUwlo9B9+kFjvCu7+H5Hl5g5uFphZD/f3tv9h3HkWZ5/sx8i31BYAcIbhIlkaJSa6UyVZVZXaWTlae756X7nJkz0/NYf8jMP9On62H6par7VClPpTKzMjuzslILtZCSuIkESIIEEAAigFh8MZsHc/fwAEESpEiRkPzqUIFY3N0i3M38s2v3u5/Asd240rDEsiQiJrGEUuZxb1WYA+NuXatOpJyY1eMk1ymt15CVBe4TYz/ocDlTfcghhMD1XGbnZtnp7lCtVrEdGykkd9bucOXKFd59912CIGBlZYVqpcrszCzNRpN3332Xq19fTWeViadjIvkol8u88sor/OQnP2G3Z6ryVcoVfvjDH/KHP/yB3/3udwwHQzzPe8q/QgaPwlSPPddobaQfSoGKYrZaCWwVoS5+wub53+FOTFKfPkl9eh7plWC4y+aVz1HXriLWO1gLR3FePoszdxSnXKEQBoQ3r9Df2MSyi1iNKWjOgFfCAbzeDpXtbZzbywy2VukHIfXF0zA9yaBUZGjZ6GEAuwP0wMeSFoFl49g2kecQ2IKh1MhQ4Q0jvEAxsBROswpC4Q4HFAcRgVPG9yoMhADLTiv2mbjt0Zjq7LbPqqbakhb9fo/1jQ0++vBDvvzyy9i3W44FwiLOCpdSphni2c9IKbAsG2OLKo3GLxN8J0k0Vrxtsr/xwH20L3PTiW0VbQeAdnuDKAzj31KllncJE2IWFQS2U+L5F8+kenEtFLWYY/K1wi0WmZ2fN4mH8WdM4mNCBI1Y3SwTpFSEgJRF8oOAlZXbXLx4kQ8//JArly9z+vSLzM3MGIlKFMblz0duAGOn8IDXg2XbB3YtEiIpOmHySnq7u2mC011MdY4xjK3aPO6VpRzfLmKziwT3PZUHOM1Z94992ep99pcy1GLUJC1iWWI8Hmo0oVYMIt+sqPX7BGFApDWWZeEVPApegZJVQEobELEnf0Y6krm33I/YGF9Vu/vvZMUv/Q4J0SEygyxx27PlyFP+IeW190XOVB9yhFFIsVjk3b9+F8uy+MUvfsEf//hHlpaWqNaqWLZFvV5nYXGBEydPcPzEcS5fuUyv38OyLWOevgdCCGOsbklOnTrFRGsCx3Eol8qUy2Vs28ZxHLTWaeDxQDxKIuTTRGaJKQlCpJaUIxcr6lO49A/Iq0CrBuUzsNuj1j6H1cdkE179hHDn18jnf4ooVRH9bezL/0JhrQMW0HqB0tIZKFWwBbhbG3h3biBvfkylCxWA81OweJTK4iI4Hqq7i+z2odNFhZqBZROVKzhTLXYcQc/SSD/E7g5wO0Osukd0ZJbIcxFbA4rtIbtTp7HnXgDHIhRG9xZphfO0fudvCVIKZmfn2NjYIAgCer0ejm2Gv2wgljpfxAFHMnaLuJ+M/FtGnxlNRHS6r4T/2G/sT94fDfIaIS0sy8a2bXzfJwxDLMsU6knbxuhaTBNOY/31XoOO9Fgx+2yCKDl2zOSrpoUXMlXMVCyTUVHErVu3uLN6g/fff59PP/uUYDjk6NIiX375JZcuXUbp2KYq8aTd+6UPGLQlgfmDkF1RiZRpn1aKer3+EGLvHDm+IzhI9/oW770mlpZYpAV7TcaRjhiGAQN/yCAYEoQhGoFUikArIq2xbRtbWljxMlSS25GVdKQv7T3uAfr+SEIXPwLoZJxOqiqO3EW00DzsCm7OVB9y+EOfKIyYmJjg2LFjXL9+nXPnzvHhBx8yOTXJzMwM6+vrTLQmaE20aDaaFAtFLly4wG9+/RsAbNvms88+486dO1y6dInTp08ThRFhENLv902FQG1YqKE/JIxCk6kbBGPaqXtCk5bw6+32EEJQLBdJNX3qYNegkOLujvNNL989y9NRHIAoHRFFEUoJtDIFU3paEDz3AmG5jNj4C4LVK/Q2zuOu3cAXZaLpv6F28nlsWzBcu8nW5/+L6rn3cKMhYQCUGoTzpyGKiDp3sD/4EscCy/bQbpM7kSA68jp2vUXJKxF+fR21fonSxp+wIggiUI5EOU20XcAOI8TyKnoFPAscd5LQclGRJFTgdn0KX9+h5EBf12iXT7M7eZIeCrSFirSpxKdM5SsdO0OIe0Vo+/18e7TUzypT7bgOL51+iampSXw/yATL5o8wilBRtCfgHb82x5L5tCYMw9iablSkZS8zoiKVMrj+cHif+NI4uURKm6qcfghCEoQhxG4u5rgi3kc4zjgrnZYZT9qRdXVQ2lDcSRLkaCIh0HrUh7UeuY1oDVGksCwTdHe722itCMIAPwgIgiD9/bTWxplmD8bZoQfjYEF18lmDyVaLer3OzPS0Wc7Nmer7Qo8unPHVqRyHDw976h4wtB+k/+3fhAzVIBLNdJKmpAjR+CpkEAzp+QMGvk8QmTFOSyAEJTTFYgHPcdBYGQZ579gbryru+WL7t12P/glSgkGl139mD3GOiMAUhpHIPSTKwZAz1Ycc5UqZEydOUG/UqTVq/Pmf/zm2bTMcDpmdneXtt9/mww8+YG1tjTfefIPjJ45z/PhxLnxxgXPnznHi5AlOv3SamzdvsrW9RalUotlqUq1WWVpaolwuE0YhGk2j2aBUKlEql2g0G5x87iSVauVgDVWw0d7g2tfXCMKAF154gUajYQLlp+kgci+GTxObzQuS8s0DoN+ao1hdoL+xSWXhNJXBG4TtdTyrxKCxSGd6EeUK5NwGyptm++qnlP1dvGoDPXsUsbDIIBwSba3jr3yNu7FB6BaIGhMwNYeeWaLv1RgKSTR9E31nme31GxSjIV6lgaxNE7oFlCPRoY/c3GJ3c5MojBBOAYpllO2ipWA4WMW9OSBqdxCVMtbsccTEJIGUSEAoHZdwfZSh9HBBCPA8h/mF+bEAL5XqZVw2xCjizpQ0H98m+/ooiLv7VxRS3Pd987pI9cG7fZ/Pz5/nyy+/YugHoyA5CazjpdRM6J65SYwqgKp9Jqoq8UDXiQdM7BaTfG+V1W8D2ky4680GZ0+/wOzsNB988AGXLl5kemqa115/ndbExP7fCb611SmlNLZjU29U03Z/l9MDcuT4JngyXVJk5BHjxxAmTMWSEsd2cB2XMFKx8+z4GDTuOZ3JTUmzXUbvZQ5nnmWlGtl2CUBIQ1uIMY4v3lGGENGA1LF9XrYRBx9Qcqb6MEPA0pEl/vZv/5aJ1gRRGDE/P8/Pf/5zpJSUSiV+/vOf88477wBQ8ArUajVee/015hfm6ff7FLwCExMTbG1vobXGtmwmJibQWnPqhVNGdyokUkjeeP0NAFzb5Y033uCVs6+YmVxWhyvG26eVZntrm9t3bvPee+/xb3/8N95++22OLh1l4A0eKqB+7FnqcUCk4qqIWo0sf3Q6oyUtkhEJgW8VGdoWdqvIbrWJYx/F9gcIbdMLPHZEkVAKrEqN4stNyotnkH6fwLIIGi26hQK+Z6OCAfZSm6nOkECAX63Qt136VolIe2gNg8UZnKkT2P0OAwvjJGI1UVYB7Qgs5aN3dpBBgA4VwnYJsQmRaBQquEnYOIG3voldaDI8+jJhuRVP2JOqkZmqfY/AMqd50xmW+llkqrPY13JJxgP22PU7CjAzjk3mIRmZyWyyZ1nSbJOxeLrnpa7T923bplQqmd9R7PEgxyTwaJUp4zvaOlUsjUlSYpiiCvHn4kA9UtktQemYqU88zCNFpCJKxRKTk5PUajVefOFFrl69yrDfZ25ujkKhcE/FxbetxBhb8Rq7a+7B/dr1PbgdjiRKj9bncxxu3O9s64TQzX7qIfqRjv9nJuzjH5ZII++wHWw7MPUCiFfRyJjg6+QuHEtAyMrbzOtajwrO6LsG5z2NSxsi0hhbx9o+kbDVSWANSKUY1TkX6ZfSyfYP6C45U33YsPdCljA1PYVSyuijbag1aunbjUZc7nrPJe46LufPn6fT6fCzn/2MhYUFszspR6VATaSR3uwRjI4jwSt443f0TBuTQPTmjZv86le/4r1fvMe1r6/heR43b5nXIhWNMYQP/Op3r/l8M2hIqgpKS1Islqk3moAmUhF3jysaO9SE0RAfi8guAgWEV0REGqUESlpEGtAu0GS7WaUtA5Dm/UhLwqFAySLUa3SKITqK0EISCIHWDpaykQh84RAUHKxCg57SaOWgVQmlLeOVLUIo1zALbBApicZCKWns/9Qkw+JJvMUQS9j0rTKRtpIvnrN5WWR/i4PKB/bxoH6UQDJL0uyVmGQUHKMGKYVQylwjQx9hSYS0CbUiDBWW7aRL/Mn+EiZolKio02Ob4ErFN4uRvVQSdCXMvG3bVGs1zp59GVtaCCkPp4Q5jyFz5Dg4HmHFKTssJOGpEhJbWni2g3Y8bGmZgNiIsHEdB9eyY9FFlvl+FF+qcYYv1Ugn/6QcjW+ZwDo53hg7/UBSZBw5U31YoMdZQTRIO65fHy/ja2m8YxP3DmntpdJGUErR7XZpb7SxpMXNGzcpV8uUi2VT0hgTqgktTK/IdCyNRoWKKIxwXJPiFvgBm5ubaK2p1qoUi0WEEJRKJcqVMtVq1cz1pMnaL5VKRo/KwwXVj9/2zXRhaUlKpTLFYpHdbt9Ym6kolX+YZDBhgnAVL6Frs+SkMVUSQ08RYZIvhIY+EoVNpI3iC5GcQQFKoLERlmV+6SiKje+TqbDGDTVKWiZ2UxqwYi9qs4yvEh5TxAEYCrRAao1AYkmPyIVdO4wZd7PEn2VGo/h7pslsD8tUJ9txeJjqp3qc/Q6dYb8TfbSKkseYNUaSpMxIrZEK+jtdvl5eRgtJozmBkDbd3R2q9SrVapXt7Q693i7lcpVqtUYUxZ7TscQjisbD9VEgHh8zsfRLVmsw9xpp2yP25lm9fSR3zxx3Iemvqa76mT2JOb517NEZj721l3vek3uj93mWjUctBLaQKMsG18VWtlkhlBJp2TiWjSOteIFQk7hwje1ov+Pte/2OzwQEhtEerSrGLHW2yNWoQkzmCGIUnydExD5HyyJnqg8LBFy9cpXd3V0CP8B1XRYWFujudLl16xaWZbG4uEi1UmVzc5PllWWKxSIL8ws4rkMYhiaQjUyCYafbAYx7yPLyMr///e9pNBocOXKEY8eOMTk1CcDQH3Lxq4tsbGzQaDY4sngEgJWVFTY3NylXypw+fZrN9ib/9E//RBiFnDl9hldeeYVqvUq5XObtH77N/Nw8586d4+LFi8zMznDy5ElKpRKu68Zs2PisMPUEfqJ0qpmNaq2RQuB6Hu3NLVZvraXFdMaQMpijOe/Y0rsALSKkNvuNbIFSEhWZIDuRFySLWsSBLhibtiRAFlIjlDYr2EqQzvW1YJweTefdJtgiUcnGj1oQxez46BubgEqIUQXG7J5yfPswAz7xuSfW85vAmtHZHF/FlILbN2/yxYUvCJRmamoWr1BkY7NNrVFlfmGOWzdX6fX7LCwsUigU4/1lllj3nnCVlLYHTYROncxJ71HZimRpW57UD/OweARGLUeO7xWeYP9Iut9eYjcVcmiBwMK2BEpYqcQNaQY+ITDOWZjiU9nuPKZx/ibtuxfrnQ2ySca3JHHx4ZAz1YcI7//yfZaXl7Ftm8mpSRYXFtnubLO7s4sQgo31Der1OteuX+OLL77gpZdeAg29Xo+1tTVef+N1Bv0BN27eQAqZOndcu3aNDz76gHq1zu7uLtVqldZkC4CN9Q3+/u//Hsu2OHH8BFJIbt++zfnz53FcU8kxDEMGgwG//d1v0Uoz0ZzgzMvGP9d2baZnp5mcmuTEiRMsLy+bqm7TUzSbzXt/Wc3dbh9P8lKNg5rd3iAtJqGUMm4LyrDTCtPptDIhh0LEwou4acpUXEyCXK10zA4mX4i4PPi4dZkYy3YjdlIwjhyjBLQ4CE/Y7phRzCaWCQXoiOQloa1R8gUAEbEqBxm/FiltqiqKhB14yB85WUHRo+0PJVP9tJESh8bmMCm8EkWjFQ6NWbKUUtLb7XLhs09x3QKWsNja7lDRGtux+PrqVdburBIMNYtHj1Cr1mIPZ5EqHZNrKFLJ+UuWQTVaRyBVrLFWY2xm+vhUfqQHQO/5+5ls5NPHaHWJx99fcxxq6ERUPfbiPT6bvLHP+yLzR/K3xEhKHSGRVuJfbTZXQKgUYRQYpski1TWnI44eD3jv27j9voJImO/E0yPzqEePjO3f3HMPdgCDnKk+RFheXmZ7e5sf/OAHzM7OsnJjhU8/+ZTFI4sAbH+6Tblc5sbNG+zs7FApV/A8j+WVZW7evMnZs2fZ2d1h9dYq1WoVx3FwbIfp6WkKboHjx4/z+huvMz8/H7O3ksFgwCeffsLC/AJvvP4GW9tb/OZffsONGzc4/dJpbt9epdPpcPLkSYrFIqVSiWPHjlEqlkarJ8r4WTcnmjQnmvT7fWzbTrXZKdSoo6b66QN28G+EexxnPIHPuC9kc7tUnE0Md69A6bgiXWpflViPIe66iak44E6W1M0+dXp8c5ikVHU80MQ3RaET/+RsI8yj0tG+v5fSOrUlirQiyqOPZwIjLlrEkovRNWhEO3Gug9YM+n06m1uceu11cDyWr9+gWCoyt3CEO2vLfPLxV7x86s84MnuMRr1OEITmFpLcB5UiUqQFU4gTf5JUXYEaTdr24Jlhpu+HB13S9/oSeVfIkePxISPfMC4gyb0rYX5EKq2QYOQfgNxLpmWf6syOM68/cFzS4zy6sd8UI/l0KvMwmupHzRfJmepDBCEEr73+Gv/xP/xHhv6QGzdu0Ov1mGxNUiwWCcOQerOO67pcvnyZtbU1pmemsaSF0grHdVL9sPHXNVZUk5OTVGtVfvCDV3jxxReB+MKXRh/92quvcePmDbY720RRRL/Xp1AoMDMzg+d5VGtVpqanmJubY7I1yYkTx7Edeyx41GmwCMVScfRa9vIb60f3ngU/VqQdKX6aYZCVilDKGgUicSOjSMVBjo773/gAkOqt4+/sOK6pOpewQnFArLQiCkOiSOEHPlJIioVChok2ulpBUpqadHYfqVg3j8D3A26v3kJFika9nhboAYHSEb4fsLu7QxQpbNumXK2kkhutVVxV8dFYq/08qnOm+hGRnRTFN54oihJyBRXPQJWURJEiDEOEEIQqYjDs0e8X2GxboC2mWjMgNJ3uNm7JASHQUTyBi1dhLNuNKyCaa1mk136EFCotxjJagYibd1hkFo/SxsPwvb4h9J5xKI8BcqTY51K4t8p6HPcmdBNdsk7SheIcoLh4nAa0Gd1kXKH2rnuJHg06Y8Fu5pj6rjf2E2Lfq5GjIHtvHHKgug05U304IYSgVq1Rq9VMAF2vU61VOXr0KMeOHUNrjWVJ+icG9Pt9fv2bX9Ptdpmbm0NrzebmJusb6/T7fZNIGMsrex6WmAAAIABJREFUCoUClrTY3e3hD30cx0kvrEKhwN/8/G/4p3/8J95//32mp6exbZulpSXOnDlDqVwiDEKT9BZG7PZ2abc3KVcqJonxsI7XGZaamKHWaNrtDYZBQLVRBykYDH26O10sS5qleEsghIXWEVEY0dvt0e/3iVREwfMoFotpNcooiuh0OnQ6Xba2NnEch+bEBNVKBc8rYDs2URgyGA7Z3tyiPxhg2w61RoNiuQRAv9dn5fp1rl65SjD0mWhNsLCwwNzcLP3egJ2dXbqdLu32BkJKjh0/TqlaNsG6JUaB/uHgH78fSKJoRJogqOLJlBAQhQrX9ViYP8LNm7fwEdi2Q6+3y1Z7m1q5xauvvMXNm9e5dPlLtrvbNCeaCCS9Xp9avYbvB1Rr9fGKqHqkyE8njQ/ov8/sVfOgceewjks5cnwLGAukD9iX7v2xPZISMZ4rleYYjX9kFD2nC737jDbink/2x/0+oh9PBlfOVB8iJMGu1hrHcXjxxRc5f+E8ly5fYmtrC9u2cV03nhhqCl4B3/cpl8sEQcDHH33EhS++wLZsfvrTn2JbNn23j2VZtCZbfHzuY6Io4sSJExxZOoLWmvX1dT768CMajQbtdpt6vY7ruGy2N/nk009otYz2emFhgXK5TLfb5dNPPyHSEc+deM40/HHeeR/35bpHe2m8M01BFKVM6VSTgWjSAC9fucza+jrHTp6gWCpz89Yt2u020rbwPA/btnBcDwuB7w/pdrpsbm0SRRGFQoFKuUKlUsEreIRhyMryCu32ZspkFwoFZqanmZqexvVcAt/nzp01NjbW2d3ZRVoO0zMzTE5PUSqVjH729h1sx6HeqLPZ3mSnu8Pa2hqBH9LZ7hKEAZ7ncvToMTyvYPS6RiQeTxZEylg9kvvHGJuZM9WPCrO4YbQeWmHk8SrRHYpUT6+UxrI9Tr1wmt989AH9IGBp6SjSEgyk4siRJSpNj9DusHpzi9trtxn6Pmjo9fv4UcCgP0BISaViCqYkqzCJBF8oYfTWmRUcrTKyRNJV2xyHDOnqEo/W53N8d5HNj8m8+KCN7guRSir2JFuTSCLHb8KJrDktE7BvQP3kp/NJOw7K1CfImepDhFdffZXJyUmTRKcVx48f56/+3V9x4YsLrNxYYXFhkYnWBIP+AMuyeOvP3uLNN96k2WxSKBS4dOkSU1NGpjE1PYVWmmKpiG3b/PDPfsi5T86xvLLM3PycOaAGz/WwHZv+oM/p06c5e/Ysrufy8Ucfc2ftDv1en5dffpm5uTnefvttLnxxgbX1dXa6OyitDBO23/X/rIzjdy1la8wCuCJUEUrLlMEDQaVW4cq1r/nss09xHIcoMkbxWkN3s0OkTHnzKIpQOqJSqTA3NwcINtttNtob3LlzB6UVlrSoVCqcPn2aiYkW0pJcu3qVza1tNja+NGx2GGLZNq3WJKeef5Ht7S43bt7gzu01I7FRmqNHj7E4v0ChUGBra5sbK8us3rqDZdnMzM4y2WpRLBZxPQ/LtgkjU0BW69hhYh+/5Yf/Ge/Win9jPCvXyLcBc89BKGEYEy2R2kIom8QE0VyVOmZULApzc7xT/yuEFFjS+MjryKwYSVsy23qeZsUnSoq+xJIkE1OZQgwqWSbVcSBP7N4oFJEyy6FSy7SWyjPLTOfIkePx4WHG3gcNCtmsxQPtOP7cQXIR7yEf/aZIF28fYdDLmepDhB/96EdIS5oAT4HjOrz55pucOnWK/qCP53qUK2WiMOLMmTNIKWk0GliORb1R57nnDHNcqVQMow0QV5J7+eWXOX78OL7vp84fSikazQbv/vW7ALiuQ61WB2BqaoowDNFaU6vVKBQKuK7L0aNHUVrRqDfiEs16/wvzGb3stFZxhUUdJ/TF3r7GL4/Z2Vl2+32Wl5fZ2d1lcWGR2bl5hJREofGbHgyHhGFAoeBRqVZMQqjr0u108Ie+CbpVBEJQKZexpIXnFRBCcObls3Q623S7Xba3O7iuS7lcoV6vYlk2zYkJZuZm2Wy36fX6NJoNmo0m5WIRy7JwXZdKuczk1BS27VIolrAdG0tKhJQghClhLRIttDIJl4md2iO4f6QBdaKtfvB64IH3/b1DonVV2gTIkUlPNM6Lic80oCFCUCiV483MNn4UgCVNYKwFtuMaJXaqoyWuYoaRbCWJtCphLuPHSBNFpPKTMU11jkONrE91zlQfcjxmwmrfayG7NPVI+xztJDUi0GLkqrFntThltMfI8r1BxH3a+TBtfUDArrPzgAPuM2eqDxEq1Yr5QxuZAoDt2kxMTowuzFgiWamNPouGYrFIsWgSBLNVEc0LgIBa3VRiNCVABVEUYVs2k9OTccKcSJf5G42GKS6jTTljrTTVapVKxRxXCpnuN23HYaC59nTw5GmyNO96HseOHaNerzMc+lSrVWr1him6E2ksy2IwGBCEAcWih5QWUWQmH82JiThgUoRRlB5DSguB8eW0bc3k5CTNZpPd3R5SGg9rKQRCGt12qVShUW8wHA5BCIoFDxUqwrjoT6FYYHZ2Dss2THrWBURlvxikbibpYIc4OKFAJknzGw68Oe6G3vuoM9di3LdUnHQYRdFdXu9a65TlJp4kmv2ZDySJiOYD0ky2NDFlPrK7yk9pjhzPLp4EWXvh/IU9x9AP3Pl+xPJelfLe+0w2pkDvSfq/a2/77XG/FnD/yca9GPBkKNz7DXKm+juMzJJEqkdSe87fAZbyjYPEnmX/PbtJ/Co1miiMRttkD5WsK2du4mPbP+i7PIMYLZFn7PQUMatjfgPXdZmano4D5KTyHKAFoVLYloVlmSSzIApGOrV4fV2lzhvmRzC/YzzYCIFWCoGgWCxmsp91Zk0KhDQJpol1nxCk5eW11kgpUEph7IlkzLib/agx/ZpKy2EDoyDrgOcny3Ql9myPbUx5Rq+RJ4n0uiPue1EU+6Fro6mONf4aULElXrKyYrzV9568hJ0enZc02E6udWV2phMZCNo8jyeASVvyW8V3A1mfah5nf83xVHDX2fsmpzPe9vyF83fv75tE7PsEskKM6lCoRHsWfzY91H2/y57kxvu2b28iZBw/jQ2VSYSTMTcVDwjU90HOVB8mfJuUkbj/nPC7jFSyokRc0dAEyDqdPZDp7PdKY8hkN2sRB9Sj15JKivEBRwkRmZ1JyLCLaePMe/rBY+eYH2imWUkwleiqUQqh5UMnUud4Mkh8y7U28gxFEgRHceBr/ikVGd2zuURjS6tR4Gz2FQfEKg7GdZIWpMk63Oj4gGmypDQMeB5u5cjx/UGkIixp8Z//03+++82nfU94mMHoccg/HnGfOVN92PEkT99B2cpHacQzetkZts+wgKZrmMBaxTGxxiyjR1qlntEkgcl99GhhOFqeH3nExpIare5yVoB4FSKz33Tpn+znzPti7M1YD75nNm5SMFUaWAmSyo2k7XmorG9GgfsTcf94Rq+RJ4mEUY7QhNpo71WyRJqkwytTvEcrNUo0JLuSlLDWESDRIraE1CM/8sQiMrmoRpppAZjcgCgKY4eP5Pw+jV8kx+PGXk/5PAY43HicTHW/16dQLGBZ1gEO9AzjSbT1gPvMmeocOfZCa2NlpkFH8WO85L7b7+OHgXHSkBZCSBJlWBgF9Hp9wiAwRVbKZURc8ty2LISUCAFBEBLrNYB4ickyrg3JcjtagxBIAULGT0lCnkw7dUQYRIYNJwmW4/qLSaEYbTS3liWTnLR483iCkARmh2nQ/I5CA5EALQRRPOkZKXJG8o90NieMNCS5NhDxqorSSGmlk8NEGpIsUphTHbPTKpECJNeQmXwlcqIcOXJ8P+D7Pr7v7/9mzlQfCDlTnePRcZ9L54Hs9TN62WWDDx2JWDMdL5sLuHXzNteuX2N6ZprmRJNatZbqsDY2NlhdXaXb7VIulTlx4iS1Ri0OhDX97g7bnW2kFDQbTePkErPWSkUMhwM2NtpJS6hUKhSLxVGBDm0Y7yAICYMQx7GxbAvLsjOBEoRBwMD38QqlNEAPw5DBIERaEsdx4+8a63FVxv1D6YNZGWV+ryxTnzPV3wypNhpNqBRRLBsysXC8oqFAahMQb3e3wLZNQaFIEfhDyqUyQkC/NyRSGiGtOKlYZgLnkf4++Z1Tpw/Dlxtmm0wwz2jVI8fhRTLmJKN0HgMcbjxOpvqZxlNknx8GOVOd49Fxv+DrWfamPgBMcK3SgFrFgWMYhuzs7nLjow8pFIosHT3KwsI87XabSxcv0x/0EEKwrtfY3d3lpZdeolQp0+/1uH59mevXviYII5aOHGF+YZ6J2BFkOOhz8eJFlpeXGQwGhGHI/Pw8C4sLtCZaWLYNWtNub7J6a5XBYIDjuszNztJoNHEcN2YZAobDAbv9PghJa2oKy7LY6XZptzcplIo0m01cz00ZzcQ68O7M6xxPC1qb5B0dGR7ayPHjdQghUJFmc2uTf/voA4JIcfT4UfzBkP7uLktLS3Gxpg2Wl2+weGSJ1tRkHCTL9AA6lpCMNNYJ320mVio6RB02R44cOZ4B5Ex1jieDQ3pZZQtkGGcFw1Yb2YSxu7Mdm+3ONp3tbZavXeOLC+eJlKLVavHyy2dxY0/qK1cu8/s//J5SsUSn20ErTatlirwsL1/n8uXLTE9P43kuG+tr+L7P5NQk9VodrTU3bqxw7tyneK5LGEX4Qx8VKRqNJl7BY2OjzeVLVyiXyoAgjCJUZPyvLdtGa83M/ByNZpOV5WUipTj1wouAIAojwHhWJ8H1XSzzQZjqRHSyh61+PCfj8ezmMGGURKrRUayZTsjk9HcVBGHA1StXcB0XpX3Wbq9RKBQYDHw+OfcJCwuL3Lp1k1K5grQsolAZn/JY0qHS8wUZfQmpb7kwto86lpo87HWR49lFmqx6v1yQHIcGOVP9bO0zZ6pz5LgHsv6ZCYNXq9YoFQtMT03iBwF3bt9hvb2OVygwNTlpvKiB6elJXM/l0sVLbG9v05ho0Kw3mJmZQUhJqzXBrVurrN25Q6lUpFQuc+K5k1RKZbxCAYBGs8nm5jYbGxuEYcTsbBXLcmg2GxQLRfqDPu12m+FgSBgaWz0pLBzXwbZtev0ey8sr3Fi5ge04HD9xwkgDEEShMsko8UrwXXKd7+rAfAiQrBeojN55FPdopIRer8elS5d5+bVXGfpDut0uQgumZ1tcOL/Khx/9G63mDMeOz1Gr1U1Ane6XkS47u3+NYcU1IDHSJ42RjextYH595Mjx7eIeC4l3vXyvBcfD3mcPWkDuKS+45kx1jhwZJC4Hqe4wZvMSn2dFhEBgSwvLkywdWeTI0kL6vtZhkmPI4uI8E60mGxttypUy01NTBHESSLVaZnpmio2NNlpr6o06Ba8Qxysm4CmWypSrdSanZgijkGqlFqdEmnGjXKvRmpw2ko+B2a9tSSzbRkqJ7w/x3AKdTofW9BSTk1PI2B4w8SBPg6lECqJiGUhykAf9XvGkIylGlDPV3wAiw1LHBV2CMLbRy0JKwCKKjOtLySvRvrOBLW2KFZtCRbK+sYstirhukSCMTF6sNh7qURhhCZPdb4oDJXppOXJ5jAPq9FFnvFuTZuY4lEj7aO7+cXjwOCayz8JpPmgbHjXR8GF/p5ypzpHjW4KOK85pTRQXf4lfziRyJcFGJhBPNo8j61KxSHFhHsBUvZMy1bG6jtFEZ4sxJIlDGhPoWrZNqeoQhgFBFJnqisj0fRVphJR4RW+s+QqN47gcO36cXt/YJEWRigvxxUv6iaxFHzCCfuBP9iyM2ocZmr3Vm0aWhSOEKiRUIZV6jc3NTTQQhAFOEHHrWhtbVzi6dAIIuLW6wna3SrVWjwsOKTzHI/ADPM/Dsqw91y2AQkuTqGjeybX2OXLkyHEQ5Ex1jhwZJFII40et0DoOguO4Mw2oU5Z35NFMNrjO9quknHQYjr2GEIRBECcIjjys41V5tFaEkdmnkALbtiBmqgF0lLQxfiVpo04m7CawLxS8uNJeUogmbkBGL571mU73daDfaxTy5Zrqb4rM75d1U4Fs3SBUpCgUixw9dpRrX18DNLVaHcuyCIeaxZkTNCdrrLZv0N3q4/tharXX6XSo1+qoSFGv1ymXy+bImdUGhAmoVeqTntVfp03NcUiRV1T8nuJZOM2Puw3PIHufM9U5ctwDYRAgpDRMbhprJmW+M4EPAEkZ8NH26c0qdUlJfKRjlhnDMqea7btsywRC7OV/M23Zs/u09HTMMCaBUNr+OKDWGG9t89GkauSzMOLmGEGkMgsT/IzeSa6rxYUFPM+wzqVSCdtyUIFFsVjCdgVTrYBSwSeKBF7RlLQvlkpIYSZTdpzMmlwraElqpSdS9RP5tZEjR44cB0POVOfIkUUcgGqt8X0fy5aYrK1RYYwktAYjEUFqIjVO4yUa67giR7rPZOuE5TYQacCdst9JkJOy4Ym8IinuMXo9ZaiJTGlpvSfA18K4OCiBylKecf0ZU7lxjx76oMOCHv3Lmepvivi6UAKhzKoC2lTdjBKhPoAyqxSWdJiemkWpCGlZoJQpWx4pVCgpWk3cRry2IgzzrJRCJqXOhSkMZI4M6AiljXRIAjoSCK2BKNXO61FTcxxSjOWLkDPV3xs8C6f5STPVmVvqI23/GJAz1Tly3ANKaWQStcZBY6QjpC1NYIOx3fP9IcKSWLHDgnFtiGNdIUAIBCJ1YIiiCLRCaVNFMYoiwjBESrMPadkgDGvo2DZhpBgOB0hhI2KfYSGMX7ElLYbDAevra2itKFcqRisrbTSKwA8RwmLQHxCGikKhiCVtw8ArFVvqPZWfN0eCWP2jESitkJYR+fR7PWzbxfZckhmX0MJUwdTRaNv4XKZCHDmaAKYFzLVOrpz4P0myCwChTfBtJCDmsTcYYruuyYtUZiUktTLf+wijCVaOHDlyPGk8o2NNzlTnyJHBmKYVnZF+mH7SbrcJQp/WZAu0ZjgcMgiGgEkqlEIiJIBEKU13Z4cwCMzOhcC2bTzXxXYcwiCg0+2yvb3FZnsT27aZaLWoVmt4hQJSWIQqwvcDut0u/f4A13GoVKoUCgUs26Kz2WF9Y507d0xBmFqtxvT0DK2JSYZ+wG53l63NbXq7A4SQzC8coVatIq3R91U6LjDCwzPVeysp5kz1IyBZaRAgpaBUKlIseGy2N9BoiuWKWSyJg1ZTrGePKCh+ruIVDBXF1++eHIA4ZjYHy6xaaDRRpEgSJYf+kJVr13nu5CytqRZa6DSHMp2D7VEN5a4ghwPjSdHkTPVhx2E6fY+zrY9jX0+Cqc47VI4cI6QJh2DYaaUMqxe/f/PmDW7fuc1Lp1/EsR3W19dZ21hDaYVl27iO8YhGSHq9Pp3OtkkUi1GplLFtG2lZaKXp9Xbx/YCkJHS7vUmpXKZaq1EsFBkMfXq9PltbW/i+TxiGNBp1mhMTeIUC62trbLbbOK5DqVSk09mm2+myVluj3x/S2+mBFlTLDerNOp7rEimFEiGWFGgdGSmLtr5RomI20TEPqh8NRuEhaDRqHFmaZ/eLS9y+fR3H9dBIU5RFj/jn7HY6o80wqyNxzCtifb1KGGiMHEiN7wNtEiATBf9wMKRWcjl7+iUazTpRqEFgVm7EPU5NHlQfCuSWet8xHKbT97ja+hj3k73+71VVWCfZ/wdALv/IkWNfxOXJ1bg2olgsEQYB5z8/j+d5+MMhlmOjhWbQ79Pr9YjCkChSWLaD63pUqjXAdMxer8dwOEz9oF3XpdWqMtFqEYYh62vr7O7usrtryp1HyljjVapG1hGGAd1uhxsrKygUUkoazQazs/MUiwW2tztstjfZ6ewgpGSiNUGlXKNcqVMpVxBYsYQ7jo4SzXeOp4/4NBRLLi+eOY5XslhZuWGcO+Lr0dxMBHd5V+/ZR/opoYCIrNhQxDkCKT0OoAVhpNDaiEMc12FxcY6TJ4/j2qPbhCa/WnLkyPEUcZCA+gADVZonkgmqtdZpYJ08Zieeeyeg2SA8eS9nqnPkyCC1DtNJOWeVmthpYH5+nl6vx8rKMp1Ol6UjS8zOz6JQKZPsD81joVSmWq+P9e2d3V0CPyAITLGWSqVKsVTEdd3Y5qxJt9uls92h2+3geAVak5NUq1Vsx0IpzebmFpubW+x0d5icmmRycgrHdgx/2XAoFSvs1Hs4tk2pXMaSNmiJFHa85JuwVCaBMcPNPxJTnScqPl5YlqBer3L27BlefOEUkdIm4B2b4N2DUUmU1fH5EDJgb1BNrK5OKiWKOLhWSiK0cYaxbItKxcWSpNuKzKWRM9WHF2NWjTlTffhxmE7fMyLZSPuA0ncx1cm/bCA9qkcx+vx+rLbWOmeqc+QARpXkjLo0TjIcLfsk3c62bI6fOEGj2WQ4HFKv13E9N+uIl+pXlSJNQovfwPNKccdMKjCajaJII5AUCiVs26VUrjBvLZiN004OCJtmY4pqZQLf97FtB9d2DKsO2JaFLDg4TikeHCRaaUQqoh59WaWMswRqlL6Wnann+JaQVWEoWL+zxpWrXxuHD9tmYfEIk5OTgNFca20mezJOZjUbxjeETEVxIyeJMHaPUXwdyfizxn9dCCuTMiAT+/S9zRqHziQs5tR1jhxPHvfrZ0/R6eKhsTex+ds4zh5kyR/jljUeKEsp7wqslVJpTYh7BdU5U50jR4JMQIyI7fJiXaqOIiKlkJYpCx0pEzA3Gk3jriBMB9zbiyKtx0p3jyMRppqoO5Fi6DgJTSNwXQ8tIsY21RZaSTSGdS54npkCxASmjjXgGguZCaKTzq/0qJAHWhHFwb3v+yAKcfyelRk8GFk9dZatfiz4vgxNmRtmf3fAr371K/7hH/4HnltgOBzyk7/8KT/72c9YWJhDyngSFhoP8zRZUMZyj0xQHYWw090lDEMqlQqO44DSRFHEbn+HdnuT1sQElUoFaZkdqXTVYbQfER9j39ORnTjmTPWhQNZSj8fZX3M8Wex3mh5mQvssnuZ7tekJtjUbUEdRhJSSQrFAsVBkc2szfS37eaUUjutQqVSwbZswCtnZ2aHf6yNiA4J6vY7jOjlTnSNHFp7nUSqVuLFxh253G9ctIqVFGAUYy7NRf1eRRmF8yXSm0mESgCg0kUoYaXXvm1f8cqSiEYuNSSDUYuQjrJUFykYrG5UUbMnsU0HsOW0GjbvG29g1ImmHFJLdXp/BYIjn1vE8z/gYZwaUHN8uwjDEcVzOvvwy/+6v/orr16/zq1/9iolmg/m5/40gULGLjJk0DYdGRoQQWFLiD4esb6wz2ZrEchyWl6/jD30WFheJoohut8vs7AzLy8tcvnyZ48eOc+rU8xRKBbqdXWzbwrZsLMtYMvq+T+Ab9xrX83AdJw7AyVnqHDlyHEokgXWlUqFYKsarucLkUMW31KymWlqSRqPBYDBga2uLYrFIo9EgCAICP6DZbKK1pr3RzpnqHDkgJm2AWq3GkaUlrl65zoUvP2NmZh7P80iih3ESN2aXSRjgUYShtEbHxTWMF/S9abxIqZhhTtqShOTjgbhGoELQKtHE3v0dzKOKW7fnfWXYcxWZtiitGPQHeHbA7PwcxWIp1Zkd/HeLGeqM3ixnqh8BGXs6KQXlSoWlpSXm5ub4/e9/z/r6Ol9++RV37tyhXC5x9uxZBoMB58+fZzAYIBB4hQKbm20+/PBDnnvueZ577iTlcoVqrcr6+jq/+93vuHXzJu+++y6tVotjx44xPT2NlBbXr63w1ZdfYtk2J44fN69bki8ufMHq7VUcx2VmZoajR49SqZTHGPEUOVN9KDBWhIqcqf7e4Fk8zU+hTVmmejAc0O12cV2XRqOBikZ5K+VymUKhQLvdRmhBt9ul2+0SBAH9QZ9y2Th5+UOf3d1d+v0+g8EgZ6pz5ABSIwzbkiwuLPDKD87y1ZcX6fe7BOEw0/n1fWRhWd9fEyRHabDJ+Jp6dh96j+9wrHseeTyM9mvpke3Z3qg5TTaMn8u9h0sCIWv0ubmJGgsLL3Dy5HGjJxPyLv/hHN8uVKS4fOkS//N//g86nQ7lchmtNZcvXeLipUu4jkOtVqdQKPDee+/h+z6Li4tMTExw48ZNvvrqIpOTU7Q32qysrFCpVGhvtDl//nM629usrd0BIej1dqnV6nz2+Wf86x/+lTtra9RrNa5cvsyPfvxjZmdm+NWvf81wOGRyssW1a9fQWnP69EtY1v4Tuxw5cuQ4DBBCMBwMiaII13XT15OgOwxDfN9Ha00QBAyGg9S1q1wyY/JwMCRSEdvb27mmOkeOLLK9oFR0eOGF52lNTDAchiMNIiBQe7aMXRm0+Xu0Px1LQB6MvYGzqZo4nlSWCEzMipQeWTGMfYkkqWKvk/GoTdnPaaA1McFEq4XtObE8RMVuEAdoOAnrNa6nzpnqR0B6atK1R8IwpF5vcPr0GRYWFhgOBwz9IRfOX+DatWucOHGCbqfD4pEl3nrrLQqFIoVCkeXr1/nBD37AwsICH3zwJ9rtNoVigXqtTr1W5/lTLzAcDrh+7Rr1eoMPP/yQTqfDz372M3q9Hn/4w+/56KOP+PGPf0y73WZpaYkji0e4dPkya2traP3i/i4xOVN9KDDqp4msOj9p3ws8i6f5KTHV2cfk772rrcPhkOFwOOb+Ua/XqVarAGxtbZlVwjj/qlAoMDU1lTPVOXLsh2q5RLVSMhrqpAqdIv6f3mN/YDAWxO510BDGW2FU2S7DOKebyPENEAg9vh/9kGXrhLj7ONkjJAmNEtBSPFRAnePJQKOp12q8+uprzM/PU6/X2el2uHjpEjdv3mIYWzcCeIUCzz//PK+cfQXHtQmDgGqtxokTJ6jVaji2g+8HtFqTzM3NMRgOWVpaYvXWLVzPA0yV0IX5ed566y1WV1f54sIFup0Ow+GQSqXM8WPHWFxc5Nr1a0gRXyM5cuTIcQiRJONn7fOy3tT3ul8C7OzssLu7m2qq/cBn0B8AMBwOWV1dzZnqHDng7ji88MLxAAAMGElEQVQyycESmWQsYcWevkJkYub7BxhhqNICMhGgVYTjuliehY7u/vzdsfp4y/TYhw4C6659jO0sk3NmHvfKUB6A1C1i3AEkx0Mi+7NrmJ6ZYW5ulqnJSZTWfPHll/zxj3+k0+kSBD69Xo9+v49SGksKbNdCo/EDU52z09kGYDBIlizNDaPT6dBut9na3iIIfBzbplarsbm5yerqKu2NdZTWeI4T5xKY7RzXwXFcLNtcT1rf3e58MnYIkMl/AD220pTPlQ4hvs0+d5j690HbGtv2azGqDJy8PpJTamzHxrM8dnZ2iKKIfr9PtVqlWCgS+AHFYpHBYJBrqnPkeBCEAPmIN5ve7oDPPvuMra2t9DXP85hstTh67BiVSmn8RpZome9zvAM3ZWxQeXD1vRzPBqSUlEolarWqWUWItf67uz1832diYoL2xga3bt1ifm6OarWK63pEocayBZVKhWajyb/+6x+ZbLUAqFWrNJtNJlotrn79NR9//DFaKzyvQLFU4syZ0/zxj3/kv//3/49qxSxtnn7pRUqlIuVyBdsxAXWxUMC2bBRmqpYjR44chxlJHpGMV4mllGPVjl3XpdvtppWLHceh1+vheR5CCmNHCylr3dnu5Ex1jhywD1O9HxP3kNje3ua9995je3ubiYlmvBTv43oeb775Jj/60Y9wC5l5beaY4dAU67DdR7S3+5a6dapFy+jRDhWj8awgnkzZtsXx48doNuoUi4WU9X/ttVeJooj1tTVKpRKe51GulHn9tdeYX5gDNFrB5OQkP3z7bS5fvsxgMGB6ZoZarcbU1BSvvvoq3W6XjY0Nji4tMTU9zdTUFPPz8xQKRT755BylUokXXniBl06fplIp89prrzI3N0+1VmVp6QjNiQkz99vPISY/788+kpWkTPJ03mdzfN+wb9yrGZOC2LaN67omoXE4ZGtri3K5TKlUIooitra26PeNT/XGxga1Wo3WZCtnqnPkeFIIAp+dnR2ee+4kP/3JT6g3mty4cYNf/vKX/OM//iNHFhc5snSEwWCIUopisYhbsOlu7/LVV18hhODEiRO4rksUBmigXKli5b32uwkNjmtz7NhxwoVFXM8lzlGl0Wjw7rvvMhwOUk1zoVjghVMvYIoQGXvH1lSTSuU1nnvuJMViEcdxjHzDs2nU60xP/yeU0hQKHrZtE0UK25a89tprnDlzBq3NdSgtgY7g1Vdfw3UcNJo33nzLaKr3W+HIg7IcOXIcEmQ11FLKVLqRvCaEoN/v0+/3AcNgDwdDBv3BWEVFyzKriWEYsrGxAeTuHzlyjOtZsyWax80yHg7xfixL0mxOMD0zS6NZY3JykjAM+Ie//wf+9MGfuLO2xoUvLrB66xbv/Pk7vPXmW5w//zn/7e/+G5VKhTffeAPX87h9+za+7/PKKz/glVd+QLHk3v/4Y9/rQV/g0XUg2WzpnKl+PJAWuJZDVrtsWcbqsGQXzQsxs23FhXq0Ms4wKgTHsZloTiCkSbI1j9psX85ubyQjGvNYtL2Mxt583i3YEO87cZ7RucvH4UWS/xA/yftsju8rkmTF/ZAt/JL9TLZ0+di2ybipNXnptBw5snjMNxeBmQmPZsawuHiEhcUFLl++zPbWJmjFzm6XTz/9hBs3V9ja2mT11i2KxQKNZoOrV65gWxZaKT766CM+/+yzh0jE0KMy0vf7l+PZxt5ztNdcZp/3tR496sTbMRsQ6wf8g5EnZOJ+o8gDsBw5chx67GWrs/8Stjr5W0qJZVnpY/L33ueWZeVMdY4cd+Fx2SzvwwhprfF9H3/o43keR48dZ2Z2lrX1NdobbdobbZoTTY4dO8qxo8c4+/LZmN0O+ezTz1heucFOtzvK2H/QFznod3nE75yyXFlXgXxI+faQWU0RYvSYvDaGgxT12eNCMvZalpjZbyKWT86efWScenTeZ3PkeCjci9nOvperM3PkeEJIZrhRFKG1QitjcfbVV19xa3WVt956izAMuHnzBmEYUiqXAGhONJmZnaVYKlIulxFCsLy8TLfbRWDKmucWWN8/6Ag63Q7+cEi5XDFSjkSuFAfM6ZgvIAoivr72NcPBkLm5OSYmm/s7zOwTNGf3NaYiyq+5HDlyfI9wv0B6P+RMdY4cTwwCrRRXr17l448/plAocPPGTb6+do2pqSleOHWKK1ev8Kc//YmEzU7KUkshufb115z75By//Zff0uma1wF2drqoUCMeOCV+iL79yEx1TFTrRGag88DrCcEPQlZXV+l2uhxZOoJX8MbeFwiy9YP8wOfypcsMhkMq1QrNyQY6Mn7rwLgMZD8kQfQ+gXh+2zikGPOUT6oq5kx1jhyPCzlTnSPHE0K5XKLebLC9tcXnn3+O6zhsdzo0mw1efvll5uaM7KNSqaC1Jgh8ujs7nCyVaE1Ocv3adT766CN2dnZoNpp4XoF+v4/ruoRRiGM/C91XxNmdmcccjxdxwBOGIWEYEUYhSilWb63iB0NAYFk2zUaDUtnYPa2u3qbT6XBnbQ0pTcl7fxBye3UVy7Ko1etYloXv+8Z1xrXp7fYJgoBCoYjrOoap3o/RzpEjR44c+yJnqnPkeBLQUKmU+ff//m/odLppVcVKpcL01DTlShnbsnnlB2ep1WsEfgDAxESL6elZ/vInf8na+hpRpNBplhl4XoF6vY4Q8gCVC78NptoIqnP3jyeAPe4zMq5CFAYhgR/wy/d/ye3bd7Asi4mJJm++8SbHT5xgefk6v3jvF/iBz9bWNs899xzdbpfV1Vt88MGHeJ7L7Ows1WqVr776iuefP8WpU6c4d+4c6+tr/MWf/zlz8wtY9kOWrM/P+7OPrE815H02R47HjGeB6sqR4zsJaUuef/4USqlUFmFZ1phdT9kqc+b0mbHASdqCljXJ9Mw0UTQqcy4ESGmlJadzfL+gIoU/HNIf9NnZ3eHixYs4jsPS0hF83+fK1Sv4QcD77/+SYqHICyde5ML58zi2zccff8TKyg1mZ2cpFAosL6/w3HPPEQQBf/rTn7hw/jztzU2Wlo4YL3Qnv75y5MiR42GRM9U5cjwJZHSo0pJjdZ1T5w5hTOX3Kia01nFQo7GkwNL7FYXWB9C1fjtMtWlHzlQ/EWR+y0gpoigiDCNj4SQE77zzDqdOneLLL78iCkO2tjZpt9v8l//yfzMzM43vDwFYWbnBrVu3KBYK9FyX69evcezYUd555x3++Z9/ye/+1//ih3/2Z/z4xz+mVqves+JYjkOO1Kc6SYLI+2yOHI8TOVOdI8eTQPYmdT/S7yCEYK5rzbEPLNuh2WhSrdZwXZeBUgyHPsPhkHK5TLlcwnVddnd7BEGA57m8+NJLHDlyhCgMqdXrKBUB4Ps+ANVK1ayC5E4fOXI8cXibm8z86x+Y/PBDal9/TeR5dI8d49aP32HjlVcI4+T0HIcHOVOdI8fTwqN0vaz92TPCVKNzTfUTw5hvdMwwJt7CaLMKgiYMA6SUuK7D/PwC7733HnNzc6ys3KBUKjE7M4OKIlZXb1EoFHAch16/z7lz5wjDkHfeeQc/8PnnX/4zP/7xO8zNzzylL5zjiSHxk896VOc+1U8NrU8/4fm/+zvqn38OYQhRBEJQvHqV6d/+ltt/8Rdc/N//D3YXFp52U3M8BHKmOkeOJ40nccO6H5OYHi+nGr9LcGybZnOCKIoolyu8+OJLFIslXNdjaekog8GAyVaLSqXKZ599xq1btxAClpaOMDc3z8rKMl9/fY0rly8zNTVFsVTEcWzOnDnDiePHub58nWvXrtHr9572V83xpJAPCc8EWp9+yqn/+l+pffqpCaYTaA1KQRgy88tfglJc/D//L3bn559eY3M8FHKmOkeOw4pnoevqEduVM9VPAJnf0rZtZmZmaDYbWJbNj370NvVaHcuSTE1NojUUi0Vq9Rr1Wo3BcIglJROtFrValampSebjm3OxUMR2bI4cWaLRaFCvVZmcmuLo0aNMTEwcwFkmx6FD6iYzqqioVN5nv214W5vM/+p9ap98YgLoeyEMmXn/fbaeP8Xg3b8mLJa+vUbmeGQIbVl5d8qRI8ejIRt85Y4kOXIcDuT99ukhrZR1sNBL/eQnbP0//y/BSy8d6PP9QZ/hcPhNWpjjETEcDPn/AUtsHVFnRMxGAAAAAElFTkSuQmCC;" vertex="1" parent="1">
          <mxGeometry x="100" y="496" width="520" height="208" as="geometry" />
        </mxCell>
        <mxCell id="58oBhlepc2mfSOxgYQyz-4" value="Read" style="text;html=1;align=center;verticalAlign=middle;resizable=0;points=[];autosize=1;strokeColor=none;fillColor=none;" vertex="1" parent="1">
          <mxGeometry x="285" y="460" width="40" height="20" as="geometry" />
        </mxCell>
        <mxCell id="58oBhlepc2mfSOxgYQyz-5" value="" style="shape=image;imageAspect=0;aspect=fixed;verticalLabelPosition=bottom;verticalAlign=top;image=data:image/png,iVBORw0KGgoAAAANSUhEUgAAAt0AAAEgCAYAAABo08+oAAAABHNCSVQICAgIfAhkiAAAABl0RVh0U29mdHdhcmUAZ25vbWUtc2NyZWVuc2hvdO8Dvz4AACAASURBVHic7N15dBzneef771tVvWLfFxIgCZAEd5ESRVKERO2UoiV27ERKHFueE9+bxJOc8ZycjH3jexL7xI4tLzOWxxN7PI7t+MayZNGyFkvWQtpaTFOURJHiTnHfQBAAsfW+VNV7/6juRgMESJAWRIp+PueASy/V1Y0G+ldvPe/zKu1qjRBCCCGEEGLKGJd6B4QQQgghhLjSWdqVgW4hhBBCCCGmkhWJRC71PgghhBBCCHFFs4LB4KXeByGEEEIIIa5oyrWlvkQIIYQQQoipJBMphRBCCCGEmGISuoUQQgghhJhiErqFEEIIIYSYYpZS6lLvgxBCCCGEEFc0C8ncQgghhBBCTCkpLxFCCCGEEGKKSegWQgghhBBiiknoFkIIIYQQYopJ6BZCCCGEEGKKSegWQgghhBBiiknoFkIIIYQQYopJ6BZCCCGEEGKKSegWQgghhBBiiknoFkIIIYQQYopJ6BZCCCGEEGKKSegWQgghhBBiiknoFkIIIYQQYopJ6BZCCCGEEGKKSegWQgghhBBiiknoFkIIIYQQYopJ6BZCCCGEEGKKSegWQgghhBBiiknoFkIIIYQQYopJ6BZCCCGEEGKKSegWQgghhBBiiknoFkIIIYQQYopJ6BZCCCGEEGKKSegWQgghhBBiiknoFkIIIYQQYopJ6BZCCCGEEGKKSegWQgghhBBiiknoFkIIIYQQYopJ6BZCCCGEEGKKSegWQgghhBBiiknoFkIIIYQQYopJ6BZCCCGEEGKKSegWQgghhBBiiknoFkIIceVTl3oH3gfUmK/Lib7UOyDE78661DsghBBCvNsc2+H48eO4rkt7e/vvFCJdx8UwDdAwMDDAya6TlJWW0djYSCgU4vDhwyRTSaqrqmloaMCwcuNZmvOHxakOt2pkPzKZDF1dXaRSKVpbW/H7/ZimCTCyzxPt24WG3gu5/XivwZj7a61RxTec6HXLXZ5JZTh69CimadLQ0EBpWekF7JAQU8P8/Oc+//lLvRNCCCHEu6n7VDcPPvggv/zlL7n55psJl4QvbAPF+U4pULBt2za+9KUvsX79ehzHoa6ujldeeYUvfvGL7N61m+rqKlpbWzGUF9CVGp0MdT5JFl/3Xowoa8CAWDTGU089xc9//nPmz59PXV0d/f39bNy4kWwmS01NDcp4d3dIF6XnfGg+67JzPKRGg/ZCt3fTSbxuCrpOdvHQQw9x4MABVl23ikAg8Ls8DSHeFVJeIoQQ4oqj0USjUXp7e0cC1yRGVMdleLfbsmULzz//PPfccw+f/JtPUlJSwsaNGxkeHuYv//IvWbXqOgzDIJPJnB24tS6MOLuu6/3/XPvvnn39eJehJ3heeYrCJ31FZQU33ngjf/u3f8usWbMwfSYHDx7kP/7jP9iwYQPZTPbc27kYmlEj/sWvQyFMjz0jkL+cc1zOBK9Hbj+z2Sy9fb309fXh2M5F7rwQ7y4pLxFCCHHFyY+I2rbNCy+8wM6dOxkYGMCyLFauXMmqVatoaWkhk8mwYcMGlFLcdNNNlJSWeBvQ8PjPHse2bdauXcuhQ4f49a9/TTwe5+WXX6auvo49u/fw2muv0dPTw/r16zEMg4ULFxKLxXjrrbf47W9/S/fpbqKRKLNnz6azs5Nly5YRCATo6upi06ZNhMNhbNtm+47tzJwxk/vuu49AIIBSilQixZYtW3j77bdZuXIlK1asQCnFtre28cyzzzB//nw6V3fSNK2JwYFBnnzyScLhMGvXrmXfO/vYs3sP06ZNY+/evRw6fIiPP/BxbNtm3759VFZW0rOrh6eeeopdu3cxMNAPwCc/+UkMw+DYsWNs3LiRXbt2EY/HCYVCXHPNNdxwww00NTWhtaarq4tXXnmF3bt3Mzg4SElJmHnz5tPZ2UlbWxvBYHDU90Rrjdaa3t5eXn/9dfbs2UNfXx+RSITGxkY6OztZsWIFlZWVRCIRXnjhBSoqKggGg7z22mv09fXhui4LFizgAx/4ANU11ZiGyZkzZ1i/fj179+4lEolQV1dHU1MTkeEINdU1WJZEHXF5kJFuIYQQVyStNSdOnOAnP/kJJSVhli1bRklJCd/4xjf47Gc/y8GDBxkeHuaFF17giSeeIBKJFO6bzWR57rnn+OlPf0o8Hsfn8+UCYIBQKITP8lFSUoLP56O8vJz6+noqKiqIRqP88Ic/5POf/zxnzpxh6dKlXH311ezYsYN//ud/ZuPGjRiGweDgIOvWreMrX/kKjzzyCBXlFSxavAgA0zRxXRfT8v7+yU9+wjPPPINhGSTjSX7+85/znW9/hy9/6Uvs378fgIMHD/LjH/+YXbt2YZome3bv4Zvf/Cb//b9/nUOHDrFgwQJCoRCvvPIK69ato6enB8uyCIfDlJaU0tDQSEtLC1prdu/ezRe+8AV++ctfMmPGDDqv76SyspLvf//7fOWrX+HYsWNEo1G+973v8f3vf5/S0lJuv/12pk9v4eGHH+ahhx6ir69v3NH8SCTCo48+yle/+lXOnDnD6tWr+YM/+ANisRif+tSn2LRpE47jEI1G2bhxI5/+9KdZt24dDQ0N3HvvvViWxfe+9z3+9dv/it/vZ8+ePfzjP/4jP/rRj6isrGTNmjWUlZXx+OOPs23bNtLpNI4rI93i8iCHf0IIIa5IWmsqKir46Ec/yt13343P5yMej1NXV8cPfvADXn31VdauXUs6nSaTyYy+LxqlFLZtY5omHfM6WLlyJb/61a9Yu3Ytt629jXnz57Fp0yYGBgb4kz/5EyorK3n2l8/y5JNPctddd/HXf/3XBINBlFIsWbKEz33uc/z85z9n+fLl+Hw+kskk5eXlPPjgg7TPaS+Uniil8Pl8WNqifXY7M2bMYN++fXSd6CIajbJr1y46OjoYHh7mnXfeYfHixWzdthXHdVi2bBnlFeU4jkN3dzcf/vCH+dSnPkVldSW9p3uxbZtMJo3WmkWLFhGPx/ntpt9y1VVXceeddxJPxHnuuefYt28fn/nMZ7j55ptxXIdUMkVdXR0PPfQQ8zrmcc8993DixAkAli5dyg033EA4HOauu+7i1KlTVFdXj/s9sW2bRYsW0d7eTmdnJ6WlpfT09JDNZnnxxRfZtm0bt912G0opNJq6+jo+9rGPsXTpUoLBIDNnzuTw4UPs2rkL13F54YUXWL/+Rf7pnz7Hn3/0z/EH/GQzWebMmcPf/M3fYJrm+GUoQlwCErqFEEJckfKhe9mypRiGQSqVIhAIcN111/HUU09x/Phxstnx65jzQS0WiwFeNxTXdUfdxjItDMMgnU7jui62bdN1sosTJ47z8ssvc/r0aVBgZ20SiQSpVIpUKsnAwIDXjUPBzJmzqKmpKWzTUKNPQNdU13Dffffxne98hw0bNmCYBtFolPvuu4/nnnuO119/nTVr1rDxNxtpbmrmqquuwnW8mnHLspg1axZlZWWjaqodx9tXx3EwDAPD8B7TdV2ikSg7d+6kv/8MTz/9NM8++yypVAqfz0csFiNrZ+nt7aWkpIT777+f7373u3zpS1+iurqaOXPm0NHRwYoVK3AcB1e7mMoc9XxCoRBz585lw4YNPPTQQwwMDOC6DmfO9DM4OFjYFwDTMJk5YyYtLS2EQiHvMtPEcVz8fj9nzpyhr6+PpqZmOjo68Af8oMHn9zFr1iymTZuG3++/0LeNEFNGQrcQQogrjlIKrTWu6+LkQmggECCTyZDNZonH44TDYRxn/NKDdDpNIpHwglzO2HKJ4v+7rotpmliWRUVFJff+4b3cduttuK6LZVkMDw/T399PZWUltbW1HD9+HNtxKC8v9yZd5idEKsAd2XY4HOaaa66hrq6ODRs2EAqFqKys5JZbbqGvr4+XXnqJF198kf7+fj70oQ/R0tJS2J9gMEhZWdmoIKvRI51AlMIwjFGt+JShCAQCzJgxk/vvv5+qqiqUUlg+i8HBQeKxOO3t7QQCAa6++moefPBBIpEIR48e5Y033uCRRx7hiSef4B/+n39g1apVGH5j1KTSQ4cO8S//8i8MDAxwyy03s3btWtra2jh27Bi7du0qPG+NxrS81zPf1nDsa54/IxCPx0kkErkLvb8ymQzxeNw7g3G59RwXv7ekplsIIcQV6+jRozz22GP09fXR29fLkSNH+MlPfkIqlaK9vZ3Kqkosy+TUqVMcO3aMRDxBX28f69atY/+B/Si88B4Oh8lmsyilzupM4jg2ruviui4dHR3MnDmTXTt3ATBr1iyam5sZHh5m3bp1HDx4kPLycsAb1TYMo9CSsFh+0qHWmuqaapZfu5xNmzaxZcsWli9fTk1NDR/5849gmiZf//rXUUqxZs0a/AF/IZgahuFNIsz16lZKFQK2oUbCsOM4ha/GhkauueYaYrEYR48eZcbMGcybP4+qyip2bN/BU08/RTQapa+vj699/Wt873vfo7y8nA984AP83d/9HR/+8IfpPtXN0aNHCQaDGIZRCPpaawaHBjl48CDLr13OJ//zf+b222+nsrKSPXv2EI/HC68j2ju74PP5zjowyj+vsrIyFi9eTCwW44UXXqDrRBexSIze07388pe/5GTXSYBRBxVCXEoy0i2EEOKKY5om01um09bWxqZNm9i3bx/l5eWcPHmSRCLBJz7xCTo7O7FMi+uvv4H9+w/wjW98g7a2NjLZDIMDgzQ3NVNaWophGDiOQ0VFBdOnTy+MHPv9fmbPbse27UJ4Xrx4MQ888AAPP/wwf//3f8+MGTPQWnPkyBHmzp3LggULcByH0rJSpk2bRn19PT6fb9S+jx1RD/gD3HD9DTz7zLOUl5ezevVqwiVhKioqWLlyJQODA3R2dtLU1FQI1yUlJTQ1NXmTMR1vUma4JExlZSXNzc2ES8KYpklpaSnl5eX86le/ory8nPvuu4+1a9cSjUb5xS9+waZNm6iurqavr49kMsmaNWuYPn06FRUVNNQ3sG7dOnbv3s3ChQtxXZcDBw5w+9rb6ezsBMMr0ynuxd3Y4HUpef311/n85z9POBQmFoth2zbt7e0cPnyYjRs3Mnv27EKrx3B4pMe6ZVlMnz6dbDaLbdvceuut/MM//AOPPfYYn/70pykvLyeZTDI0NMTSq5Z6ixUZMr4oLg9Ku+dpFiqEEEK8z6RTabq7uwuj06dPnyYej6E1zJw1k/a2dnwBH5lUhnQ6zZEjR+ju7sa2s/h8fpYuXUo0GsXyWdTX1RMKhRgeHubgwYPMmzevUKoyNDTE0NAQc+bOwTRMDMPAtm2OHTvGqVOnSCaTOI5DbW0tc+fOpby8vDBye+zYMZRStLS04Avkgrcev/90PB7n9OnTaK2ZMWMG/qAfJ+vQ19fHmTNnqKqqorGx0Qv/hmJwYJAjR46wYMECr3WfAa7t0tvbSywWo7GxkdLSUgYHBzl27BjHjx+npqaGRYsXUVFegeu67Ny5k97eXpRSmKZJY2Mjbe1tmIaJ5beIRWLs37+fWCzG4OAgfr+f2tpa5syZc1ZZS57rugwMDBTuV1paSklJCa2trfT2en21p02bRlNTU+77YTN37tyR72s6TU9PD5lMprCqJgbs3b2Xk10nCwcYM2fMxO/347ouzc3No8qEhLhUJHQLIYQQ5zLBp+So1RJzlFIo8xzlDLl67eISFa31yEqQxYvIMLJyZaHWuehvjTeKnL9N8TZHrXipx/m7+LHH3rawkXGf9Fn7f9btip7D2FKc893nnJUg51sISIjLnJSXCCGEuDTOFaLGBsALvf9kH/9dprVGuWpkUuQ4jzU2iBYmUo697FwUKH3uJdRHPe7Yvzm7jGWyr8dZ+6bPPkg4r4u5jwRu8T4noVsIIcR7b2zAO9cI69jwermMeJ5jBFyhJr+f+ducK/QWTYbM3zY/On6+JeWn2kSPP9kwfc4RcSGuIFJeIoQQ4r0zpnyieLRzvLIMO2MXQtlIC0Cn0MHC8lsXPmI9Zh9+V2O3U+hwkn86xaP2Y8soxpZ9nGeXpjpgX2z4veBR66L7nbNURYgriIx0CyGEmFoTjPjmw6m3YItDdDhKMpEsTD4cGhoqBO1sNuu1tXO91nbNTc20trZSYVUUbfAc+zCZcpVx6p2L9/W8T7PoQKLQ//ocd0ulUpzpO4PP56O+vt476Jig3nps/fZ4jyuEuLxJ6BZCCDE55yt/mODyfNs4V3v9lw3TIJ1KE4/HGRoaor+/31vcREFpSSmWZREKh2hpacE0zcKotjJUoW+2ZVkEQ8EL2798ZcaY7iD5YG+aJq7rFiZITjRB0dUudtbGsiy6urrYvn07ixYtoqWlZaS0JLfdUWUmuVDvut5iPfFYnC9/+csYhsFnPvMZmpubCx0/CkE6fz/H+zv/Gm7duhWAxYsX4/P5UErhOI7XlxtGHUAU9/wuPB/17vavvtgRcikrEb9PJHQLIYSYHINJlUCMUtzdQ3ut7yKRCMPDw3R3dxOPx2lqaqK5ubnQs9p1XQzTwDTMwmh48XLlYzt/5BV34dCu1xHEdVzvcidXA629tnP5HtBAYdtaa0zTHDVinQ+5efnSFtM0sW2bN998k29961t89rOfpaGhweu5PU5NumM73vMwvZ7ftm0D0N/f713vOGitsW27EKBd1y3sm+t6S59rrUkmkjzzzDN0n+7mv37qvzJ/4XxwKRw05F8/QxlkMhlM0/RWdcx38NNjvi9CiPeEhG4hhBCT41IIheMF4HHv4rgkEgm6T3dzqusU8XicktISGuobmD9/PmVlZYRCocIo7VlLrY9TVjGZsg/HcYgMRti8eTNvvvkmsVgMv9/P9OnTueuuu2htbS3c7vjx42zYsIFDhw6hlKK+vo7bb1/LjBkzCAQCOI7Dpk2biEajTJs2jY0bNxKLxWhqauKNN97gwIEDPPzww2ituemmm7ye0IXjDI12NAMDA2zcuJEdO3YQiURoaWmho2Mu0WiUqqoqfD4LwzDo7u7mN7/5DUePHuX06dOk0ynmzu3gpptuYuHChQwODrJhwwZeffVV+vv7eXz649ybuZdFixYxPDzMa6+9xubNr9HfP1BYIGfNmjUsWLCAUChUKOcZ73WTUWchppaEbiGEEJNm2zaHDx/m1KlThZURgdETBHMlFKlUiu7ubg4dOkQqlaKtrY1FixYRCoUwTXNUTXd+NHes4j7VhdKNcVrxjQ2MqVSK7373uzz55JMsWrSI2bNnk0wmefrpp3nzzTf4yle+SmlpKZs3b+ab3/wm2WyWuXPnEggE2Pjb3/LjH3srSt59991ordmxYwfPPfccpaWlKEMxd85ckskkSqnCcuf50ev865Afbe/p7eGLX/wir732GkuWLKG5uZm9e/fys5/9jK6uLjo7O1HKYHBwkG9/+9v8+te/ZuHChbS1tRGNRnn00Ud5/vnn+PKXH6SpualQKuI4DslkEtM06evr49vf/jYvvfwSV199NbPnzCYWjfH888/z0ksv8eUHv8yC+Qu8A5YxpSUykVGI94aEbiGEEJOjvBKG7du3s2XLFtra2mhrbxt1vWM7JBIJurq66OnpIRAIMHfu3Nxorm9UmchknLVITK7euvCQE4zOJhIJ3n77bbTWfOxjH+Pqq6+mvLKcbW9t49ChQwD09vXyb//2bziOwxe+8AXmzZuHUor+gX4+90+f48c//jFLliyhqamJbDbLgQMH+C+f+i/cf9/9NDY1Eo/Feeyxx9i+fTsf/OAH6ezsLJSp5Efnk8kkzz77LPv27eMv/uIv+PjHP044HCYSifDkk0/y9a9/vbBqpmVZLFiwgOXLl3PDDTdQXV3N4cOHqays4PHHf86pU6dYuHAhd999N2+88QZdXV3cf//9LFy4kDNnzrBg4QI6Ozvp7OwkEAgwNDSE3+/npz/9KUcOH2HunLmFJefHLS2RwC3ElJLQLYQQYnKUN9KdzWaJx+MkEglvNDc3MS8WizE8NMzhw4fR2mXGjBnU1tYSDAaxbbtQI630+F043k2hUIg//bM/5Tvf/g6f/exnmTt3LkuWLGHevHmsXLmSUCjEqVOn2Lt3L7fddhtz5swhXBpGO5rqqmruvfdevvnNb3Lw4EHq6+vRWtPW1sZ1q66jvr4eQxkopQgEAhiGgc/vG9VDOx9g06k0W7Zsob6+nhUrVlBSUgJAZXUlt956Kw//5OHCCHkoFOLGG29k27ZtPP7440QiEQ4dOsTbb79NIpEgkYgDUFJSgmF4gd7n85FOpwmHw1zfeT1vvfUWjz76KKdPn6anp4c33niDgYEBksnkyCRLIcQlIT+BQgghJk1rTSgUwufzkUgkCp04otEoBw4c4Pjx4zQ3N7N48VJCoRCWz2Kgf4CTJ08yMDBAKBSitbWV2tras7ZdWAr9XRAMBulc3cnCBQvp7e3l8JHDvL3tbZ5//nkCgQCf+9znMAxvoqHjOIWJlfl69Wg0is/n8yYg5vj9fizLGn+kXoNpmYXgnZ8ECd7ZgWg0SiAQKEzm1I4mlUoVJnpmMhl27drFF77wBQzDYNWqVcyePZulS5eyatUqfvCDHwDeaHgqncIwRh7L7/ezY+cOvvqVr6K1ZsWKFSxdupTm5mZmzpzJj370IyyfVejQIoS4NCR0CyGEmDTLsggGg1RUVGBZXpBLJpO88847HD16lBUrVtDa2orWmkgkwsGDB3l7+9vs3LGT1tZW7rzzTioqKsbf+Lu40mQkEuGrX/sqPsvHJz/5SVatWsUDH3+Ah//jYb72ta+xc+dOVq9ezZIlSzh27Bhbt25l6dKlDA4OcubMGZ566iksy6Kjo+O8XT4ymQypVAqf5XUuyS/0ox3vAGXlypVs2bKFZ555hqamJoLBII7j8Pzzz3P8+HHq6urQWtPd3c2xY8f4xCc+wQMPPEBpWSldJ7vYvHkz0WiUaDTq1XO7mmw2SyQaIZPJeDXn23dw4sQJPvaxj/HAAw8QDAWJx+I8+eSTZDIZ0qk02WxWQrcQl5CEbiGEEJOWr8lWShEOh3Ech927d3Py5EmuvfZaGhoaOHPmDAcOHODAgQOcOXMGrTV33HEHixcvpqGxAZ/lG9U3Gop6Yr9Lqdvn99FQ38CLL77If/v0f2P6tOmYpsm+ffu49tprWb58ObNnz+az/+9n+d/f+d/84z/9I3PnzPU6iJzuxrZt/uqv/opp06YVyjfKysq8Pt2uWxgRr6+vJ51O88gjjxAKhbj55psxgya43lmBQCjA7bffzunTp3n55Zd5++1tVFVVk0wmicfjNDY2UlZWRiAQoLGxkVmzZvHMM89w6tQpTNNkeHgYrTWZTIb169ezbNkyrrrqKkKhEEcOH+GRRx7h4x//OIsXL6a1tZUnnniCY8ePoVAkEgmGhoYIhUI8/fTTdMzrYNnSZaNep1ErZwohppQsAy+EEGJyFDhZh/Ub1rP5tc382Z/9GSUlJWzdupXp06fT2NjI4cOH2bNnD67r0tjYyMyZM2lqaqK6urrQrSTfsUTnZkROtNLipHdrnEVsMCCTyrB//34OHjxIMpnEdV2mT5/OggULqKquwjRMstksg4OD7N6zm0Q8QSaToa6ujjlz5lBXVwd4deyDg4NEIhGampoKHUwABgcGefXVV+np6WHu3LmsWLHC6+iS6+BimEahN3j+QCQajdLU1MTMmTMLfcEbGxvx+XycOnWKbdu2MTw8TCAQoK2tjYULF/Lmm2/SfbqbJYuXsGDBAnbu2sm+vfvIZrN0dnZSW1tLJBLhrbfeIpFIEAgE6OjooL6hnj179tB1sov29nauvfbas18rCd1CvCckdAshrgxKgy6ayAYSJi6GytV45BfByb+Gub+z6SzPPfccL774Ivfccw9+v5/Dhw9TXl7O4OAgmUyG+fPns3DhQqqqqgoLyQCFEfLixWd+9/0dGR0fN7iPLb/O9892R0baDcsLxq7j1aebljlqgigKXNst3C5/f2UqXNstLJhT3AO7eGVJpdTo/ci9rk7WGVm0puilcJ2RbZo+77Vzss6ozi2WzxpZcMca8yQneP8n40mCweDZr5X8nAjxnpDyEiHE+5eCs9JhcY67mBphdaWMQ6gLWzkyT08UxrwXU+OicTnT38u2t7dSWVnB+vUbuPba5dx88y3Mnj2bivJyVKF1nlHow52fRDjRAi0XFcIn+B4Xtl/c+luN3EcZ3nXFq1gaplG4jTJHb9QwRwfb4ueSb8NX/BzOei4uXrjO749mZELmmPbkxW0VtTMS4seWgphWUX32JF66UDgkB6RCXEISuoUQ718aCkORymX89DXJbamz/vH+psf8PRkTPXU1sjHXdQiFgtTV1ZFIxPH7fXzoQ3/E6s7VNDU2eUuVe2uMM5IRc+Uj+hyhlPd4RcSxB2dwUd/6C1rZ8SKOKS76NSk+GLlSjiOFeJ+T8hIhxJVB2XgpwxwToib7K07jDTleKb8SFd7Q6mRDW+52btF/x75+WoMyiEaGC+UPgUAA13W9ftWmhXadUZMklTIxlFG0iakL3WOXij9rexOF0DElNOc03ttjqt8yV8hxoBC/7yR0CyHevxR4KdEBMmgcwEbj4uYCtPevsb/mirpmjEpiV2roHi+1jRyZmBgYBDAoA3fkoEUbtlduUrxsuJpoe7ltjv1I0d7t35X67fOYdOgu3GjMZecKt1fK20IIcclIecnlQiG/1IW4EAogg0sKmxQuEWyiZIliE8fRDi5JHJ1Cu6OLZrUGV7ugvf4ZXiDMBW7lnv1Y70sKtMHZMwmLbqEUpmFiWiaWCuGnGr9Rh+FUYlKC0mC4IQzD8rI2uRppla+jn6I9v4AR77HLwl/YA521sfEvF0KId4GE7suANwDkoJXrtc7C9P6f+/JG8bwgMPlsPnY0arwCxneLQmGgsACTwgibHmdG/XiDZHKwIS6QVi6aBJAgRYQsMRJODym3h6zux2YY13FwVBTHTeZCdVGi0gq0hdbmyMRBVTzSfZ7ZamLc9QAAIABJREFUmO+HyZbF9e4TpMh8jjYME9MIYOkK/EYdARoJqFpKA1UYRjkWpShCKG1x0RM0p4hCoZnEqPbFuoyeqxDi/U1C96WgC3+gUd7nv3LRZIAsBiYZotgkcEhjk0Bh525tFHrb6gk/DcY7pVwcJN6tUaqRD3QDPyZBSqhG4QMCoIK5A4jcrQvZZUw7AXV5fYiLy5tWGpckNgOk6CWS7SFjR0g5A2R0N641AEYUbbholUAbGe9+ujh0mygdAteP1l6/NpU7pNW4oJziR+Tsfm9X3htWuSaG20/G7SNFHz5qcPwNlKkZGGhMfIBVdOxyYal2KidJjjuZ8UIm1cpAgBDiPSCh+1LRCq3zYVvjKgeHGBl6SNJLwu3BdhNknSSuztWqKl0Y1QGvT+zEJhrdOvvUudbuWWWYF8bAUD4sFaYiNA2DED4qCDMdH6WY+NCYKBXAGLdmVs7likkojC5ncUiSoI+oc4Th5AmybgzHSOKagygVR5PFUAqtfejcrzmti9/7Gk2+9CLX+UTnR37HjIqfozzjSqJ1Fq2y2NrGcTUZJ0XWjZExDSoDITBK8REY+TbIj+1752JaXwohLjsSui8FDRguLilQGTQ2aaIM2odIuIdJ2CfRRgxHp3Bdr7yk0EpWGbnOAPlaxok7ACg1ulOAUqPDw0h3gXNNjJrsczJRro9E7Di4fixdRW1oATX+mWjKMChDEfBOA0vhpLhQSjNSZpXEpp+Ye4SofYCM0YtrZHCVDSrpHaBqA61znUwgV0JSfKbHRWl/LnjrXKYxCg+lR50kUmeNmuorpu57hFI22hhGu0kgi9JJkvYg2TTYWWiq9GNhoSjN3WEKduJiDv7l14gQ4n1CQveloECrNC5RHIaJ00Pc7SViH8E2TpE1+tEqjdbOSLmp8kbclMqVl+QD9XgfOPk2X0auY0C+fZcaPamqcLr9gk/7jle2otAYaB0Fw8B1hhlIObhmjDKzhRBNWMrCIFdDq4pijJzKFeeVD90ODgkS9JHIniJln0YbUa8kBBetnEJfaK1ccL335Uh9M0XdN3LlJCpXTqJHLhv1plSMSuH6Ci0vQbmg0ijDAFLeT7Xhw6WPhBMimqkk4C9FGxZKB5C0K4QQF0ZC9yWh0WTRxHE4Q5RdDKVPkKEHGEYbdq70JHfqW+cnJ05++2d7Nz8gxyuA9IKLVmnv/ypNKuvQH0+QDaSoChiUEUYTzk24JDcSKR/d4jwKvaJdNA5ZEiTtM2ScYTRJtMrmDuS8gz9VOJfioL3TPWPeZLkWdji5QO21GUTl75efUDlCnzVxcrIj3VMZzi+2qfREt9SoQimYRinHO8g3Y7h6kIR9Gu1vBvygTNC+827zXfH7/gvi9/35C3EFkdB9KRigtYFSkOQM0VQXWXcQ10iBa0OuC4jSpnfj4kldReUkE09MUqNvq4pPj+fXIi66v554SubIFs9VgpIbVdRObl8db5TMTJB2u4nZQUL+ZspVyBuvVBpVyEESvMX55N+dPrI6SUYNk6EPW0fASOcmIOe6aqDxlh5QKPyoCd/b7phWQNaYXt7naLPHBb5fp6IUZWxnoHM+/mRH5i20Uw3K9c4OKFDKwdQOECfDaZKcJIwPEz8whaH79/kXwhV4EkUI4ZHQfSlohaEsstikdJyMHcNVWciNvCkU2i3+1Ml/wOaS6qRnPRqgi5eXm4Aad57/2Bvltjde6zQ9egJa4e8EGA4ZZ5BUtp+sP5prPWZ499AUlob+vf6QFRMrjHLnaTQOjpvBcWxvBFpp7ywLo39mtD7XG2ucdpZXrEk+uXx5TaHMJndUonILDiln8tsSvzv5nSjEFUdC93stn0dNgyxpkqkors6AYXsl18oLtspQRQFXjbrzeAPc466+Nl7v2nFuO/mV4iYKMflAbuU+p3OBxnBBZ3GcOGlniDSDWISL7qNG/inEeeR7bY/0r3dzZSX5eQJwMUdwF97KLjcB+YJu/e6a/C6r3MHIJPZCTXBGS+UnsHqtE702oFPU0eV3/V0w0f3lWEEIcRmQ0H3JGLnR4az3levDXVhBrtBtYeTTQmuXcRflKJxCn8Qn1pjbeoFjEp9IGgqn5EddbhRKV3ShP7gu+nJAZdBGEk2S8WphJXOLydB4wdub+GjnfhZMlLYYaaY5iTM7xS7izadQqLFnfM6x/cmcR5rUhorpccLxuMY/8J7wMcZ7Xiq/QFf+gMbism2jeCWEa/mFKMQVS0L3JTPym1UpXVT3eZEfZlpPavhLX8Btxzd2YRvXq08/65NidCgY3SNZiIunAKUMlFJXRMaaHDUmUL7XycybKK0KK85egmQ43vxtIYR4H5HQfSnk5y+CNzJnuEWLMo4z2nTe8g816Qztja5fbGlJYQujL1PumHra0R/LXimAjYmJkesuUZg+KfXc4gIVRrxHdSUpfi8p74zRpCcQ5u4zNtiOun/RGaf8zSe93ckeSJ+r65Ax6jHPPuFV3OJw7AHuu5FO3dxX/vmocX8VTCkJ2UKI9zkJ3VNpog+JMZPDDEPjFj7Jzx5FOu9njSr8cX4XO8I94QROr85z5N969FWAwutsYuRKaopjtxAXZ6KAmj+cG1m59UI2Wfy+HH1/PfamF+AC3uvFaXpUCcnEB7Uj+zP+QcK7QePmSndU0Wh3cdAfc8Ay6uDlXd0VIYR435LQ/V476wMo3xM4N0w32VrRS+GsThI5Oj8CNpHiWlshxPtJvo7eO2NVNNIthBDigkjovkR0Loi6ri6sVD2RUZ1G5Byr+D1lKCVnSS6VC6nUEUIIMS4J3ZetojaB+VPO56q/zpenjNfdRIj3K02uJGriUo/x7qTPuSBNPriPrQufSP5M1OhtjP//fOHHJEs9JprUrPMjysX14BNtx0AVlvZReJ1Gzmf0rIvRczbGlNJoNzdvY6SIRQ57hBDiwknovtydNRlsvA/K/OlexchiOEVhoniRkN/l01LyvLik9Kifh3PPAR59pSr603VBGabXCq9o8aiRScYKpTRaFy0GUzjwzW9n7A9SLhzr3DL0Kl9yNdE8CBuUkVuh3mt9OPKkcoFbm4VRfa1cb7saNDZnnR7LrzqrNVqbKJXNhWSDkRBeXBpSXMo28S8FVXhJ8usDnP8+Qgghxieh+7I1OmDkF5xRheuK68DNXAmKIv9hrLFzNZiMWpnvojsFFlym/XnFFcx7b+vcgWZx95Lx387FPzeAUjiOZngwSiZj4/MFqK6pwTBdXJxcsDVIpx1ikSjJZJLm6XX4gwbpTApDWUXZebwRaFB6/P/r4jNVhd1z0SqNaQRxtQJlg87/Ks4HYhNVCMhe55B02qW/bwB/0KG2uh6l8o/pFlpyppJZMimN6U8QCJqYZhBlZHLbsbygrUcH9uKJkXrsKLmC/Ei/67pFY/4SuoUQ4kJJ6L6s5SdZGnhLp7ugMuSXZfaYuVPkVi6Yq9xts2jSKKyR2wC4GmUYE5/WFuJyU3SiRhcH6nPeAcBCuyZK++nvifDET37D4XciLFrWwgc/cgOllYb3s6Q0aJMje1M8/dPniEQyrP3DZdx+72qUHhqnZMsbJdZaYxQOdnOXF7f4IzeKfVaPeotMspyjx3spKy+ltilYdH8z96/8qo8jJSqDfVHW/XA9C66az613Tsfw2blrvUWztGuQjGmef2IT5VUWN9+5mrJKH47rhWqlTdA+73GU7Y2YFyZI5p/XeAfVueamjlPoYDLxKL4QQoiJSOi+HKmRD1rQoBWum++Na4Lh5D7zlDdC5ga9y0edATcBC8cFtHdqOh+ytdYwzrLx4y8lL8T7lFagfRiqlHQ8w6FdcTa/BvHBk1yzIsH8ZQ1oZaNMSMUNtm/uYvNLGQJBGF4dRjmVKFthGH507mfIcR3QYPksHMfxftZy3T1MEzKZDArDG2HGwLIsstks6XSaYDCIYRgoZdBz7CSPfG89c+Z38CcfvwPDtHFdl4A/RDqVIZ3WaG0QCvnBTGJn4ySiAbZugvJQEHXzTJTO4jpplGljWgrbyeDaw2x//TQz2qvRt1RgYKAdr3wlk3YxVcArZvFlMMwU4KDJ5ML0+CFaKTXSF10IIcRFk9B9WRoduvOlI9q1cgEggdZZwEC5IXBLUShcnUUZjjd65wYAH6ahAQfXzY22KVWoG9Wui2l5p8611ihDnfuDddTgVnFtuRCXJ4WB0n60HUA7pbS3OJSF69j62nEWLJ6LP+iNdh955xg7t+6ntaWJ4cEhLF2DnfGRTZbQczLGG5s3c/L4cRzHpq6hns411zOrbRaO47Bt61uc7j5JqMSkt7eb3lPdNDZ1MG/+Igb6Bzh+9CjJZJKKykpWdXZSXV3FC09vYvdW6OvaT+uM2Sy5ZjbpVIb9e3ez7c1tZNIa0wxQW1fNjWuvoWFaNX4VgCycOqRY9++byGQHSCSHaW6t4uprl9I0vRrlZnIj2mHQITJJm+NHeti7cx/v7N6D1halpdUsXdnB4qvbCYWDXqmashnvZ9mrIde5DvtCCCF+F1Kge4moCwytkUiEo4e6OHEkgp0OonQZOKXgltPXleGdXafo74mTr9t0HT/RIc3RAz2c7uonk86iVP5xvS/XheNHjnHy+AmSyaR3FlwbuRFCRX6xEKXy60jmyleUV9OqtMXkazvzdbmcbwbchZlontpEl59vW5NtjaYn8XW++0ylye7TVBhvnuG7efuiu01MF02M9BiWw6w501i4eBE7t5zg2MFBtF1KfNhg97ZjpNIRVq+5BmVoTMOP6yg2v7qD//GFH9B7UrOg42auXnonscEA/+ehR9n51nGcVCmvrn+bn/5wK0cPDNA6fRGzZq1g06/38K0HH+PwvkEWLbiRGdOv5o1X3mH9L94gFQ3Q0jqL6mqDyooZVJW2kU2Eefn5bTz6/ReprpjPiuX3MGv6tWx97QhPP/YbkhELNxtCu4rd2w5z5nSCxvp2Wqd38NrLW/jXr/8bx4+c9uq1lYNSWSzL5NjhU/z0h4+ze9t+FizsZOGi1SSi8PD/eZXfbNhCOmmAG/SCuhBCiCklI91TaaJUoLxa7Xyv7rNoIzdR0ksjjmOTTMZ55cXX2Lctxkf/tpPFS+ejXZPBvhQ//NZzHD7QxU13XMV9/+kOzEAUH+XsfH0bTz32K667pYW7PngndtIlEAyQtVMYysDQFi888TOmtbSxsrMVwynjtZd209JWQceimaRSSQwVwLJ8aGyUcnBsE2WAUg5a2yjMXG1oUaeHUc/VO22ttIkijNJBcE1c5aKU9oL7eD3IJgqJRu7KfBeJc4XJkTloFBo5FH9fznXcM7ZhTH6Uf7xOdBN3cju3ibu0nf8+Y030XM613Ys95B6vmc6oUubcC65A4+QOtRSafKs+BY7p3cyXv/3kdybXTCNXL52f1qdxlUaN+oa7KK1zMyIUSjsEAg6rb7iKHTs38sqLO6ir/iMiER9dh9OsunERDbUlJJIptGuQjgXY+toR3GwlK5ffRuP0SkJhk8qqcl77zQ5279tE08wQGAmmtZjcdMe1tM9rIjaU5cg7w/T2dHPLndcye2Etvccb2PzbV+nq2keo4lbmL27n189tYsbMVtra5mCFYiy/9jquufomgmFFRXWIrmODvL65jMPvHCc6qDFVCUpBx+JWPv43t1PZmEXrLGV1iv/xxWfZ+sYhbrjtKjQBtC4jnQzyxsYDHN/v54/uu5urrp5NKhVldvsSvve//pVXnt/Jihvb8ZX4GP0DMtk3Qf6HwRz9npCTX0IIMS4J3ZdMLmlNOOqbT2IKw1BUVVXR1NzGM4/u4NCefhYstFBK0XW8h11bu4jHYNvmA3TevILW9jISEYM9206RjJgsXrAW020gmYhi6RBZGxzbwVRBVq64n4qqEBWl9ex8ew9PP7qZq1bMoKa6lfKKapQO4doGkWg/jpPG7wsSCFoYviyGpUcmop2DVi5aZSFfO6oAw849u1w3iIlqyccGcuUCjtftLD9BbDJ16Kroq/iyogcq9CHO1bYXzkYYRTcsnttWvH/jzLUb+xhjv9VqnNtctPEOWiZzuwt11vdj7Ha90Kuxsd0Mx07txvBnKC0PUhIswUcpJiUYZilKhxg9DD/5nRv7rczH+tETLXPvMJ37QhMImLTMaGDJNR28uWkb1y5fw+HD+4lGIly7+gZ6TiZQJjg6SSIeZ3h4kP4zfbz6ygZKKy0cnSQei7JgURu1dRX4gy6um0S7Bsrw6qPzEzN9Vgh/0ECbQ2jDQqsMChetHGw7g1JgWgaO42C4cPTwcXZuO0A6M4zpT1FW0kwm5QAhcP24tiIUCtHW3oo/BJhJ0qkEM9tnMm069PUOkIxrtA7hun7SSUXPqRjxYZM9uw5w6Mg2XJ3ESVdRVjadhul+LDOENyn7YpLymO+ZhG0hhDgnCd2X2GQrLXw+H60zWykp2cGx/QmcdBhHp3j7zb1UVVeyunMJW7a8yt7tx2hovJroEBzce4qScAMzpi3ixMGjPPuLp6mpK+fw4e2UVxrcefefs/31E0yfVUUy5vDq+jfZs90hHjtMfcMubrjxepIxzeubNrFp4wZcb/CSWbNbuOMPb2LarBLMQH7E61xPxAEjicMQjirPlad43Ve0CuJV3uZbrOUohVImGp0ra8kFYjJ4k78Aw8xdO3aELt+V2QTTAlPhtVBMFUJ+8aqGWnlnHPKh28XN3SLfgUKNbFaNxLuRC43Cl8r3Ps6dzVBFZzOKFxchtxeF7avipbUnSvCa8VckVePcIh+IjMI1o29J4flduLHD/cXvAe/0gkOKtIqQMk7QfXoPxkCK2voa6qvaqFAt+GnCtBoYaYunxz/w+p2DnM7VLDsoM0PGjqCsNNfdsIx3dh/imad+wcmTB+m85SpaZzXS3bUTXxAcNYgv5GD5U0yfVcFHP/FhQqUWPp9X6rXr7YPMnOcjGDZw3IQ3Tmzk2/0ZaDJYPoXPb4HKoI0sqFSu6EVh22lQWUyfiy+oGRoc4tfrX6S6ejp/9tEHqKkP49oBvv/thzl27AhoE8NQaO1w+PB+ErHFBMuD+EwfB/btIBaHhsY6wuEyvBaCNkopausaCJUMsfYPbqV1dhm+gInPbeLF5zZQWm1jqiDoFKjsOV9srd0xB7cXfqAkhBC/7yR0vw/kPwpbZjZzzaqZHN0/xJF9cUrLAxzc08usOc1cf9MKTnYd5ODeHm5YU8net3cz1B/j3g/dRGVVJXt2Ovz62SPMX1LFypsXMW/RHOprmjj6zltkUjYLFyxjxYpb2fn6Eyxc3MyyZSuw0z6e+dkr7Nm5m9vv/iBtHfVEBjTPPvUMP/hf6/joX95D28IyDDM3eXPcnTewfJqsO8jxyBbMzNHcmewslmVRUVZHyAiTclJEolEymXShdKSmup5SXxkJJ8HQ0BCu65B1EhimJhQKU1FaAyiSqSSpVMqb9KU1hjIoLS3Hb5WQTKRJZ1K4pNFGAteBULCM0nAJiVSCWCyO1i6Oa2OZJoZpUl9Vh4umt7+30P/YdbwR+srKSnx+i2gkQta2c/2YTUzDorKihpARZiA2wNDwIFo7uUVSNOXl5ZSVlZHNZhgeHiaTyWKaJq7r4vf7qK2pBxRDQ0OkUknyYcYwDCoqK/BZPuKJOLFYDO167wjTNCgtLSUcDhOLxYnH4ziOnbvOxOfzU1NTRzabZXhoCMdxcx03ND7LR11dLVnbJhGPk8lm8RZW8bJvRUUFfr+faCxGMpEgH4xN0yQQ8BMIBtDaJZlMkc16bSy1sglYFdRUVKJJ0Zc4hh3owijrIho/Sff+M/itauqqFzC9ZgXV1jXUlLQy8mtovPfQxdcaK6XAtNFuAjOQwh9y8YcHccwBWtsbWHxNB+se3ki4BBYsacf0Z7ECSXxBCJalqaoNcNMdq3nhqZf493//n8yeO5tA0M/O7Vtx7DRVLatpUCFKKyAW0Zg+r7OJaVmUVTuksoNgJFEEsPxpKmogmXBJZ4YJlRqESl0OHdnM1u3lVFfX4w86nO7Zz283vkJtYwnHj3axd+8OsmmTQ4cO0lDfhBVwOHZsP//fv/2U1rY6YrEh9u44RseCBq5euRh/yMEKRjD8fnzhJKvXXM3JI6d58snvM3N2MyWlpfScTHPi+GFW3bgY06pipB2pN0I//mt5jrNRQgghJkVC9yUzmSG80WUNJWV+Fi2dzc4tGzi6fxC/30dk0OYP/2QJszqqWL5qMet/+TIH93aze8dBtMrStqAC7esH5WAomN3Rxt1/dAO+gEt8ON+1wCQUDFNZU4o/nKRpZpCaRj97tr/D9m1v0DStFV8QTpw8SMBsorGphV+v7+bU8Qjt85rRaghlTrz0tKuzpFKDJM4chOQwSiu0ymKYivZZFkbYpX+oj97ePrLZ/IibAuXgr1cMRc/Q1X2SbDaL7SZBOVRVV+MPmuAqurq7GRoa9CZ8KoXfH6CpcTolIZuevjMMDJzBNZJoI4HCoq6miXC4lVhykJ6+06RSKQwDDNOktLSU2qoysmTpPn20EFJd1yUcClNdW4JLlt5+b/KpN7pt4veFCIZ9BAMWA8M99PR2o91cX2PlEgy3ofFju0n6B7uJRqOYpoll+SivKKc0G0S7moGhbiKRiPcO0V6w9odmYPlKiUT7OHmyKzei6gXr2ro6DKuWRCrC4PAAiUQCpRSmaRIMhigtD5KIx+npO0U6k8F1HBzXpbysjIqqIK7W9J45SSQaHdW5ZobRSnlFBbFEPydPnMwdIGhMy6S6upKa2hoS8Thdp06RSiYxTBfTpykN1mMFWjF8aU6fOcJQ9ChWIOOFeUOTynbT3WcTj7jMqaujpqSZ0bU/555Vqc5zfTGtNaaZwXazVNaZfPAja7DtDGZwECvg484/nsu02Uksn8mcJRW4RJk1p4mP/dU1zJ3fRio9xM13XM2S5bN44dlf0NP3OoZhMG/pNK5ZuZz2jia0a3D9LTeQSseorguDUvgDJtfd3EHWbqGqzkIRpLomzD1/fBfxxAB10ywymRB3/fENbH39daKJI3QsbuIj/9cHePvNPRw/so9o0kfb7Lksu/ZP2bZlK6f6NtM0ayX3faKTktJSIkMRDh3YTToT5frblrPmlusorTAYGu7mnvuvpawyQKB8kFn1tfzF397L3l272fbW65hnfJRX1HLff7qdjsXNYA2gMfAmYJ/79ZTILYQQvxsJ3ZeYMs73UVZUEGA4zJrbTPP0Jra9sZd0JkFVbZBZc+soq9YsXNrOS+s38fzTv+VU9wHmXVVDw4wsWDEwUlh+aJxWgz/kolUCw9Jk7BhZx0/WjaJVAhS4jkI7Jul0hnQ6SzKRpPtUN5hDmG4Wy/Rz6x3LmTZ9Okq5KFNN8Hnt7bt2AoQDjTS1LCesW1Dal1tmW1EariBAkGD1TBrKik9xayyfQZAgVmUt1SVtANhOBpUr8Si1ygGDcMtMnGanUC5hGN4or4lJqLmJ5ro0huWVGKANAr4wAUJY5c3UhhfgODaGAcowsCwTPwF8ZFk0u8Erb1Gq0GkxbIRQKOa2NHs9m1EobWBZPnxmAAOTmU2ltNQvypWVeCPklmVhYhIMaEraWrFtu3C63ufzYSlv0ZKyGTPIZLLeq6cUpmngM/348BFqmk5T9aKRVzcXrv2mj6o6RVN1BsfO1corby6Az/JTXqmoKmnDdRxc7U3QNU2DgD+IiUlJWzO2PTIR1jsYsLDwUdk4k4aKjly5jzfybvlMAvhxwi41ZbPR2sUwFIZhYCgfAcvCJcHslgAD8Rp6zxwkmk5REiihtKSa6rIO6ssWUx2aU6jFzr3Bx3sLFd4PYy6YFK1dDBNKK3wsWT4L286QcXpROkhlrY9VN3bkemensO0MtfVh1tx2FaZlkM0OkHEjlFdrPvznt+C6LkoZ3kGPgni8H78/yFXL2zEt7+cGncHwO7R31OHzg2VlcLXG8MGCJc24uhbDTKEMzYrr57Kicx6G5ZUhVdVU0Np2Hdr12hiapreo1dWdf4BLAjubpWPxAgAcW7Mm3Y7GxjKD+AMxXJ2mvNql85aFuDqDoWy0M0B9S5iapiV03npV7ucDDCsLRgond2ZDj7sozujvw/l/VwkhhDgXCd2XyPi1uePxRvaUUmA4tMyoZUZ7I0+v20a4BD7yf19HIATKStLUUsGcjlk8vW4LFbVwx31LCVUm0CqNgzdBzPJnwEihSeIq8IccMGKYgSTaiOFqwPUT8JXR0tpKXUMV01oaufW2W6ltCpOJBdi+dS9Hju3FdhK4GJjjtvQomojoBrBULZWhDirUTBQBr0OLtlCO9/xKoKiSwFtsBJUBNGE0YV/uKt+YcKBNAoYCI7fiXq4MQrteyPb7XPDnRs61iTcDU6Ec02ucYQFW7vHyXG8fQr5cEXvx9yr3T7/J2ZUP+etUbrv5U/b5q3MBJzTufUdqukv84283BITGXld0fcAA/GOv8J5X0Mf/z967R0lylGfev8jMuldX3++X6e65j2YkMRIzQpYEiIuFAWPBAQ5mD7YBr/i8Pt8CXht5OedjbbAAm+OFw0HY4AUbsMxBgJDZZQGDEJYRCGlad829u2f6fu+u7q7qqsrM+P7IS2VVV/d0j6ZnRjPxzKmp6rxERGZGZDzxxhvP6yqFrEbFawkgEiv+dgY2tv9sY1GvLmsOcRMmkhwWWRIixdmJGTILtWxr6aCxsZmayDYidBGWDYEw5p7v+Vqkzr1AKdBEqT/+uSClcNyHZBYjAkZUgAwDFlJaGN5zQuJI1i8jdIktQTckaK43lGG7PvhuWaVGyNCQdhYjJJG2QBMGjpKPJJ5w6yEFEFm8wJXebdY16WjqB8sqbHeNRPG6BRJLOH7yelhisejsMiQRQ7r1a8kNJ6+hawJwZrWEtBG6DdJC1wL3112M7DzHgE+9goKCgsKWQpHuS4y1CISUtksQXVdKIRGaJBIX7L+xiV8+Cskq2Lm3k3gygi3zxBIav+zxAAAgAElEQVRhbrx5H88/fZR4tUlHZxexSDX5FZtYPEJzG9hikVxuCT1ko+k2yWpI1uhILUu8Cuqa4Nln+mj/j3r27NvNb7x2H//+k3/nK//wHM2tHaTnM0xPTrNnfy91TbsdYoIsxtypeC2OlcwL8lNCyIWo0N8LZxGkHal4x7z74h8bFKvwtgkNhFGydFEQyKskTxEggKuzO1+ULps8V1KboZLnl/+FgGPtlCUXIzxNdwlShBGagSCMIZL0NtzK9tZDxBMhQoSd4ZWMIKQzAnAWkTq/1r6K4jVo6Gib8PMOusxIydqVNHiNvu/yOVR5sF03Z68um/juMf7luORblj3hCvVeoJUO0txrd5YVlN+fSvcr6Hoj3EXIEqQ7i+G3m6CsorJeKygoKFwsCGmr2L4XHUIiyZPmBcayD7MknsSSeZ8aOijqdDvQHbcMIhRyGmf6h4jHE7R1tgKOW4a0DfLZECOD82iGRUNLmFjKRKeWxfk88/OzhKIr1DVrhMI6hZUws+OCZCpMIiUQusnAiRnGR8aJJ6Ns6+mgrr6OgVPDTI7PMT25gKHrdG/vpntHG1poGaEvI7TVXEYg0NxO3jZjJIxddMTvIMU2x9KN7kbOW89HtwIpqFRb16vB5UlfzNq+GT6zVeXaKk4VHKMEJzqCoik+gTTxFklKDGfxqRSlC/PKZxRK4JJPJJJlljjGeO4/WFwZAH3Jta4LV5rS8vNChgLnbxQyUJdtimMx7yKLlu7VZ7oKH2UDug1DlA4wvOsWQuDp3RcHneWzA+UPoVhWIctnEbzh2MZCu2uALuKEZDud8TtIsg+dFM59dhYSU170kus6ZxYKCgoKVwWUpfsyhdMZOtP2RcubjWQFIxxi245mdF2gh5axbJDSQuga0VCE3n01gInUVhCajSZzVNVZJOuiSCFA5LBtCyMMzR0xhGYhjCyIAj07G9m5twO0PCu5OSxtho6eGrp6W4lG4khpky+sYJNGiqxLeDzJvI0vcrug2EyWax27mpOs/r1ZXMmGxPXui1d1pXDJeQjvVeNbtsuNyY4j+iYz2hoUi1E6o1L8PodVvmS3qEjQNwPpyPIE8nDLUDJgFVSY8sGRD9yKiniJ2rqCgoLCSxiKdF92EGXfxd+e37GQOqGQDsLEtHNoIupObdsIzcTR3LURooDju5pFiDya5izQs2xc/2cbTVsBYYGWB0y0UIFcbgUtlEcYjhKGEQ4BOQoyh23ZGBGNfMFJ0ymbGyCnJCz85qyLle/BBnEOV+BzHyuhJMCPS2guJqd4KfGX9cq65r4NXGDF5xXwNy7hjk6Ey1J3iqL7UvHgzZL2sna3iq+Wuzetde5629ZA+azPKsu3h0qDXHe6aVV2oqIry+Yh1viUHaKgoKCgsCYU6b7kEEhbeN6XJdtZRSK8XQVnullINKG7PpuW67ZSAM2kKK2muSRc4FgcbXTNW3AIztS/7Vrjwtgy5y6+AkECiYZkxTnUdQkomOBZ4XEl8RxLnLM40iHgG71898ByK6dnKV19uza2zdu+IT5fTnbKNisHrFJUci9e6x55XlJBbJoHO8GRHC9lh3A6eh/FoESg+U4ovluG6yO98UXLGyrMGhZ5/DJUOuX8ECTd5dZybfVgoOKDERsug5BrBIKXbgIySPaDZZLnJvaXsg1t9v6rsm4Mqqxbh8vBNXGjuFLLCltSXkW6Lzf47pii+LcI7hRFi7e3VVhO6PLAXL1EX12/1pzCd7OVro9nxel1N92KlXA9h87zgVyH2GwS55tMJc8ChbWx0dmGC1JNHDLp1Hnn79XJriVjeb54cS4i54fzdeHYirKeqxwbIN4KCgoKLxVs0bvsyiXd5+PlcFHhTZlvtoDe8TYSTw/BXWQlg5xdIit0lOt1nT6/F2LNY4v+5Z7Fr2xa3w1/jqvDLXD0nYUIKJZs+DoV270icNm2QYXNYv0WqdqsgoKCwnq4FOabrYeA4bPDPPv0s5dnH+CG25by/Ce+Jc7iKkmRtzu/pf+hwkee63POoq8+BzcUetHPwNMBDqanFl4pnCdk6Y9zj6c37lKhsFmIC+yuo6CgoHD14Iq1dIdCIWKx2LkPvELhEPHVc/tSVgpk41jKHe+TjTIV11/c++0rNHhOvDpehEjPIi9K/EEVFDYA33gqkd4sCuBHrVk1mAv+XcmhXOHFQLVhBQUFhfPHlUm6JTS3NtPc2nzlT2275Lpcb1cIu8y9xHM/OddKxPU61Eor5taeLCmxc4siCVdQOD94MygE6pL7LbyAL87eUi1ChRcFb7Gz1HEGO8GVxgoKCgoKG8WVSbrhKuprK19oUec7iI1InW1G4uxcJDqQ/7pBcBQUNoIi6XbkKYOyeeULgFVdu2CQ3syVgUBXij4KCgoK5wllelQ4T5xDs7ci1NS0wvnCIdwSCxAIO4SQhmt9DdQpKdQA74IjBHYYjSgaBo48aSU3NQUFBQWF9aBIt4KCwuULge86In1LtwAZxgnzrsj1VkECtpRghcCKo8skoKFhAoVLXDoFBQWFlx6uXPeSlxq8CIjuojF//lb4/13GKIvmWAbhBzDx9msBi2TFUxQUyuAsx/XXCfjuJYEALX4UUeX7cH4IRoMKuoaFkHYYzYgi0JHujINqtgoKCgqbgyLdFxuuAoPARkdDE84UuUCCdBeDCTvQ5XnyDZ7KdaUwIJWx+sjKOrrBMCLnDoFRgdAEw1UHo0gKga8gIb1gPZobgr6SC4AiSwoBiPI/NAQRdBKERRJdhEEKbH+fAGkhhUBIw3VFudCBmzaP9dXyy/deOirrvV+kcK3Y0kDICNiOlTukJSl2GZu8p1txWep1cWnxUpJlfymVVeGKhiLdFxMCPN9UgU2EKNFwisWVkBPVXVglsmhFVWLpf4sSlZJiNJxV9HXNF8xqX0zHOLiBYD2eFVGUH1NumXd/SAGigBPk0nDD+Xh+uKzuNNVLUcFDRcKtI0gSRacxkYfIGAsrS5gyjy01Z7AqLIQUIEOugo/nlnJpLmJVU3G3A045S7A1ax42LgMqQVgg8iAFgjDYVWhWPdWJbdTHOjGIIQg5Za10cWu/eC4dXkrk/KVUVnhplVeVdWugyropKNJ90aEBni9qFJ2E65vq+asGpM981xL9AuW9jtVvQ31lJcINfkRMwCcO0iMWYYQIo2shdC+AzmVQ8RVeSvA04W0cn+IYMdqoN/ZCTJDOjJK3l5H6vFv9LJB5JAUkJpeuwjltIUiuHWlx0/m9qi1t0QJQsXYs2JISSA0hQ2BH3e8kIa2aVKKb+th2IjSgEXdJt473PBQUFBQUNgZFui8mnOgz7g8DQZyIaCBmdJDNzWGLRYQmnWlx4U2NX6hO2CXcIkiQvV2bISXrWQ11dwChgzTQZAhBhIjeSlW0lQgp57BysiHElnANhZcwglVfAsKLeipxiHeUGJ3U62G0SD1T84NIQ0eLGKDnHAu3NAJ+4JeKeIsKfwUdxeySvRe8GWzEyu1q/Qs0hIwhrTg6NUT0RlLxNqrFHiI0oVGFZsedcooNpq2goKCg4EOR7osOz6IdwiBGVKunNrodYY+RKYxhSxOBjRQrXHCi4LuulBJnuWHO61m6K1jopLOoTcgQEELYETSZJGxUUxfrJUU7GnH38DLiLpTEm0IFeNXM97DySLcEwhjUE6MKLdxIrKGV+ewAWYYx5RyWnUPYphOBVVpcEtItnKBVMjgTVFLNV7cjuQXuGUIT57h6dxAgQ2iymrhRQ1RvIxnuoFq0oFOLLpMIGQVLdwYxmnDGQZX9ZxQUFBQUKkCR7ouJEtJrI9CIUIVFGyIeRi5ZZMwCUtNdYloANITQnKlfQGzQP1VK/CiVPqf12bVj/fOsbsIzK56r/wy6l5dkpgGGQ7hlGCEdwh0zWqmKNZGkA4NqBFE3e+XMrbAJFJc0UHTBcNy0DAsMrZ6I1kgq0cUyZ1hilLy5SD6fw5Yu4b1outIi0EZsEAUEBTf/4uDUOTKg4OOde5F9uoUQzn4BuogQCzUQoQ5DNhG2GwlTg4aNRHOarea8N4SQqtkqKCgobBJC2pvyLVA4X/hSZp6lWwImkhVMZjDJsMIcS+YU6cVpctoEUss45NjtsD2qsQGJESxZwJKWI60mLCQFhOb5uBb9rp0pZeHK+hUTDnbUwd92GXmRUiJtgZQG2BEMUsSitcSMJuKii6iRIkoNOil0EmsUfQ2ycTkuylLYHC7U22U9p2QBCBubApI8ThAdz7psUmxvFwoy4LISVP4xAB2JhvTbdpqJxX5MK09tqoW4Vocg7p/rhbPXvIXSW0G6N5xmGI0qtzSeqpL3rsB5XwgNf8Zro+4lW9WOVc+loKDwEoOydF80BOfKoejiEcKgFo0kBtVEjUaqajOs2PPYIoclTWyZx7ZdYTRf23q9jkxi2haWZQEa6Dly5jy5wgKLy9Mk4zXEY3VoRBHSQEgNURbS3SPaoszfupx0CyFw/hloRAlr1USMFCFShKlHJ4xGGDBc67oi0grngfIZllUCOhpChFziK91DvEHuVvh0ewF7ihDo4BPvPDYrSCzGhqdIpxe49ppWEskkmlXltgNR2s6Qm1Aa2Tg21uaEU3474v4uO0cGfiiXEgUFBYXzgiLdlxhOR51CR6JjOguYsKjSigsfLXKgOx2dtkG1AOlaqByiu8RiZJz5/AjDA2lquzpoie4lQi2OdUtf1cmKQD7FfbKMZsiS4yU6EEVzibYgjKefXJQ/VFA4T5yT67lWWL+2efXtQtc7h8w7bau0DYDuyO2LsD9DZckVljNpLNvCkT3UHdlMKRxlEeEqnAixSkbwgpBwsRHi7QwC1ly67cuFvvjiKCgoKFytUKT7ksOzLgECNNcX23FflaBJdAp4pr6NGpmcKW4AG1tohDGxcwssTElytTGM+iZCNCIJIywnQqTQij2qVqGzd8RX7DLu4/qqoqFJzdFHxpmWDkp2C9dC5mkmr05d9eYK54kSphhwVZJFrnhBIQQSvfJkkzdWRkcKDbDImWlyhSWktF0bsg7oRX9qcOX6XInBku0vtqibk+hUgiQKCgoKWwdFui8pXH9JzaLEnxoNTQQnyd2p6E0TUxGYdg+j2TFioSYMUo5rCQbStbi5tNlffFlZf1eC0ALWPeFY7NxvDQNpa+7CTdfnU9gVfTpLp+UVFF48hLxM3Hy9+o9ER6elpZVYtIpo1Glzwo7gSIKucbLcyGyWM6LYkCX8XMeoZT0KCgoKFwWKdF8SeIE+yn1ORYlpruiUsfkAFMI2kFK4ATgS2BSIh+ro7txOTVU9IWJoRMD2rGqVbM8Vtkk7SLmda5EOZReAVrIe0zf74clPrL2QcoObFT9QqIRg87kI8JtphQyFBCkc1xMDncb6RqLhOOGQgcBGCKs4EPWVBAN/Owk429cizP4IYyPD13M0mvLlJgoKCgoKWwJFui8JPJK7Rm8nysmpR7rlxoQApGsXlzi6v1oYXUSIGgk62zuIhKrQCbmLKEHTtNKTV5fI2SacspR7f3t+276F27++4KLL8+nZK5EFxQwU1sClGJCVc96AqIkQEpMCZwfPkE4vUb23HRG1QZiuvGaZQpAfxdX7z0t0ncxL8l/j2I3elzUdui8y1MBaQUHhCoWK4XvJ4BHTNdw4XoTigm81cy1/QkjAwrRy9PU9wejYCNKVUdMI+mC7VmspqMjuJf5xxWPXKkWw/FuhHqGgcPnDwiKdTrOYTmOaFVxKnAZaskniBtVxxPYrfqQtA65gG4AIfMohbfdzmbVRSenr8TIrnoKCgsJmoSzdFwslUn82Tm/i9SgbNS9txKtbUBJWXYCjU2yxnE2zlJknX8gANkKYoGvOoi+3QytavSVo6+fmy51JUcxXQUHBh45OLB5neTkbaJJru3QB2JaNruuk02lWVlZIJBLYto1lW8RiMQAikfDGClCpTfpiRE6jn5qcwrZtEskkyVTVxi9uKxEg2LYFWgjnNeasTeX48ZM0NjZSV1dzeVjnFRQUFDYAZem+2JBQJNzeR1zAT2lWzseRN0NAKGJgGBqSgqMksmWau+uXTUHhikS5pxiCZDJJfX0dRijkblzd5hyDt7NYenZ2ln/8p3/kD//w/fzN3/wNLxx9ge//7+9z90fu5syZM0Qj0fMrV3kzdEn3j3/8Y/7sI3/G8WPHSifZyj+wetJqC63jtg12AY4fP84jD/+CubkFAAYHz/KpT32SL3zhC8zPp9WrRUFB4SUDZem+FHC097Y2A4HbIRZ7SV3XaGlpJhINY2Fi4AarEcI9XK5KphzBhV0Vjy+5LFG2U0HhCsCavs+lqzkljqW7p70Hs72AQYRSx+9gcJziIHxxaZH/+4MfkEwm+eAHP0hbWxs/e+hnnD59mpWVFWcGatNR7ddui9PT0/Sf7g+05wqLMwUgNMcNBdx3iyh+r5ltYNZtvVdAuQu7O3GWza7wk5/8hAcffJC/+qu/4nDty2lpaeHDH/4TYrEYNbWp0uUxm8W5zq203/1bOmJOLw6Xix+9goLCRYEi3ZcDtiBMspQ2MqCQIhBomk5TUwPJuBcRD4rqKeVqCWuVKbj4y8sscOyaYgpBM5vy8VZ4ieNca3yFE7GyQIFjp4+TyS6zb8fNxNYwUkvpLJ4eHxvlew98j6NHj9HS0sJPf/pTDh8+jGEY5HI5lxgLHnvsMUZHR7j99tupqasDIL+ywhNHnmBoaIg7fvMOEskEw8PDHD92nBMnTjA5NUk0EmXbtm3ceOON7Nm7F4RA0zV0Xee555/j2LFjDAwOYJomdXV13PGbd7B9+3aMcGgVb7fMPJnlDCdOnuCxxx5jamoKJHR1dXHg2gNcs+8aYokEuZUcj/36cdKLaapT1fT19TE+Pk4sHqOttY3XvPY1dHZ2omulQbpmZmZ59NFHefTRRxkdHeW73/0uUkp6e3vp6+ujvb2dtrY2lpeXeeSRR4jH4xiGQV9fH7Ozs7S3t3PDDTcQDoc5cuQIk5OTWJbF9u3bef3rX09zayMImJ2e58iRIzz55JMsLi4SDodpbm7m1a9+NTt3bi+PueTDtiXTk9P09fXR19dHNpslEgmzY8dODh8+REdHJ5qmMTg4yMMPP8y+ffsYHBxgaGiYm266iVe84hWEw4ZSj1FQuIqg3EsuFdZbsHihsvCC7OCI9dkWnDxxmumpWYoyhCUafxe4AGL1B1CuJwpXLlabRZcWFxkZGSK3suJsEmuZqSWRaITq6mqEJogn4tTU1KBpGplMhlAoRMgIkc0s86Mf/ZAvfvGLjIwM+y4emWyGB777AJ///OcZHh4mvZDmJ//2Ez75yU/S39/Pgf0H0HSNT3/60/zFX/yFc64QmAWTEydO8M1vfpPJyUn27d1HOBTmu9/5Ln/5l3/JxMQEVsEMFNNb0Ak/+elP+M9/+J/595//nJaWFpqam/jOd7/DH/+XP+bBf32QpXSadDrNv/zLv/BH/88f8ZnPfAaA2267Dduyueeee/jMZz7D8tJy6cyZgOrqamzbJhqNEomE0TSNVCrF8vIyn/vc5/jmN79JLpdjeHiYv/u7v+NDH/oQP/jBD2hpaWHv3r187Wtf413vehd/+7d/y8LCArt372ZgYIBPf/pTPPzww0gLpsZn+MpXvsLHP/5x+vtPs23bNhKJBN/61rf4gz/4A375y8dWzSrYtvORUvKpT32Sj33sY0xNTdHc3Ew2u8KnP/1pPv7xTzAwMABAf38/n/zkJ/nv//2/8+CD/0o2m6WhoQHd0C+7tasKCgpbC2XpvkIhcBZFyoAV27Zspqenqa1uQV4q84pcw5KueLfClYJAXbaRFEyTkGFgGEZxEWUF9zLbtqltqOfQoUN0dXWxrWsbb/7tN1MoFJBSYlkmQghM08RzTckXAtFqhcAwDEJGiHg8zsLCPE888QS2bfOqV72K2267jdut27npppvIZrKEDMfHXNM0hCa44447eN9730dVVRWDZwaZm5/j+eeeJ5PNuEoqAfapaQyePs29997L3r17+Yu//Au2b98BQvCmN72J//Yn/41v338/N7/iZhJVKaLRKKGQwTve8Q7e9KY3UV1bTUdHB8888wwjw8P+NfqvKwmhkM5NNx3mySefZHx8nDe+8Y3s27eHwcGz6LpOPp9HCIGu68RiMa699lruuusuuru7sW2bsbEx7r//fl7zmtfwtre9jZqaFI2NjYyMjNDf308mk+WXv/wl3/nOd3jDG97Au971LmprazFNk7179/DhD/8JX//619mzZw+1ddUlz6pQKPCVr3yFJ598ive85z28853vpLq6GgTceOON3HvvvTz44IPcddddWJajWtPT08MHP/hBduzY4S+IVVBQuLqgSPeVCiF8C5hAuDJkNkJoTkeFfunKVm7deTE+mQoKlzEMdFpamtF0iWEUX7ci8L+/TQikaWEYq9umExreGUQ7vwM7XWk9TWjY0lE5yWQyXHPgAG/5nbcwNjbKPffcw+c//3l27d7F7bffzvXXX09TS7OfRFdnFze/4maqqlPgLv6sqakhFA6V5iOlH85+YGCAsbEx3vLbb2Hbtm1OZCwhaG5q5vbbb+erX/0qp0+f5trrX0YoFOK6665n165dVFVVIS1JbW0tDQ0NTExMYNt2WbwA5/WVSCSJRqPYto1hGL5l2LkHwj/PMAy6urpob29H13V0XSccDlNVVcXOnTuoqqoCDWpra538pSSTyXD06FHGx8d56qmnOHXqFLFYDCklpmliWRZDQ0PuIKcUuVyOX//61wgheP3rX099Qz3Sluhhwate9Sp+9KMf8eyzzzI3NwdAfX09hw8fdizpyZgjsa7eeQoKVx0U6b6CIbwFkjgKJmjQ1t5GIpnAwrz4tFt1MgpXMiq4ihkYdHf00NzaSFSPsV50WSHEmkRMaG5LlquFQz1/cMu2yOdyIMEIGWSWlrjpppvo6e5hYGCAyalJBgcHue+++7jvn+/jj/7oj3jt618PQDgSxrSK5NLQDXRNx3K1xUus8xJAuO4R0lnc6S0Ol86gIJfLoWka0WgUTQiklD5x1gwNaTmDkFAo5GuSC2/RpU+snWsrJ+Neebz1J5qmYdu2b/HWdYFpOnkJIYhGY2iaWDWbZhg6hmFQXV3NK17xCnp6eojH4+RyOUzT5NChQ7S1tREKhVblDxCPx31yblu2G+AIZmdnSafTRKNR53o1jVwuRywWc65FvQcVFK5aKJ/uKxZFH2rp0m5d09i3dz9dbdsAHdDcSNKuRbx8ytvraIOfilnJjbtnK3duhSsZ/oI754eJSf/ZAY4fO0Gh4LiFrJYM1YqEE0m+kCOTWaJg5pHSRjc0YrGo06SxCYUN4vE4s7OzzMzMIEIhEBrTU9P86rHHWFxcxNANxsbG+Nj/9zG+/e1v8xu/8Rv83nvfx8f+8uN86EMfYmx8jL6+PnIrWUzTZGVlhUgkErgMh+zmC3lnQ1k7tS2LxsZGdu3axSOPPMIzzzzjHic4dvwY3//+92nvaKezs9MnxZqmOQRWOq40QR9uPxiQl5fweLzjTqMJQSgUQhjFbcIl85qmsbS0hGmabrpOMpblWPxt2y7JRwiBpmlEIlEOHDhAVVUV8/Pz3PjyG/mtN9/BW97yFurr6/npT39KOp0mHA6XlEsIiEQi3HHHHQB861vfYm5uDt0Q5FdMHnroIYaHhzlwYD/JpGOptyxrc8GMFNaFtB39dmB9FuPe8nyu4PxQ/Y3CJYaydF+pKHm/O0oKlm1y+tgxWpq66G6ud/ddqLdQcBGUUAIlClc3hKMaZGGyMJ9mIb3gRKQMOVrclWXoJLZtEYlG6OzqpLGxAdtlFtFYhM6uDsKREOFwiEOHDvHQzx7ic5/9HL/4xS/QNI3JyUm29/YiJYTCIWpqati5cyc/+L8/oH+gn6amJqQt6R/o59oD13LbbbcRicepqqpiW9c2wqFiwJ1wOExtXS2dHZ2YBbPEui4QWNJiW9c23v++93Pffffxib/6BL29vRi6wQtHX6C7u5v3v//9tLa2kl5corm5mUwmg67rAck9SVVVks7OzhLXGz8fAYZh0NTUxNmhIf7xH/8R27aprq5m27ZtNDU1EQ6HEULQ1dVFQ0ODm65zbiqVoqenB13XfHtBKBSitraWuro6CoUChw4d4r3vfS/f+973+MTHP05DQyOFQoEzZ84Qj8d52cteRjQaXVWuUCjE6173OgYHB/n+97/PzMwM0WiUXC7H6dOnueWWW3j3u/8TqVQKIQRtbW0kk8nVhg2FTUPajrLN8PAwmqZRX19Pc3MzRqgC+9Yhs7jCyMgI8/PzRCIRdu/eTSRaefZCQWGrIaStht9XJDxrm7CxxCIFFhif7efIU//B9p597O15OSFqEcSKESXLcd4dxDqkW/U5VxeuprdLQIJb6nkslsjKUX7V930W0rPccui3aUzsRCMOZoSgiU64+t7SlmRXskyMTzjydju2g4TJqUlmZ2bp6uoiFo+RW8lx5swZnnnmGQqFAvF4nAPXHiAcCqHpOk2NTYRjMax8nueee45jx49RyBfQNI3t27fT3dNNU2MTwjCYGB0lnU7T2NRITW2tcyG2zdTUFJOTk/T09hCLxhyLurTBdhySJZJCvsDU1BTHjh9jcmKSldwKLc0tvPzlL6e2rhYpJfmCxcJCGtM0aWhsIBaNgQCzYNLf349hGLS1tRGJRFw3Ghdu3RkcOENf35MsLy+zb98+uru7mZqaIplM0tbWRqFQoL//NKlUNe3trb64ytTUFDMzM3R0dJBKJUGH7NIKQ0PD1NfXUV1dgxHRyGdNTp8+zbPPPsv8/DxVVVX09vbS29tDTU0tuq7je7gEVE+ldHTEh4eHOXXqFGNjY6RSKfbv3093dzexRAQkzM+lOXXqFJ2dndTU1BCJOISv6J9elrbCushmchw7doxjx44hpaS1tZWDBw9SXVO1Wo5ewGD/WYrEiqwAACAASURBVPr6+kin08RiUW699Tba2luKi3aDSrZBlKd1KbBW2cqh9N5fMlCk+0qFZznDQmpLmKQZmTnFE08+Qm/3Hg7seIUi3Qpbj6vp7bKKdC+SY4LnT/2MxaV5rtt7O7WRnoqku5iECCgLuSjrUH1rqbdY2tuv67jMfYP3vbiaz/epBhDa2m3fY7SufzmaqHy8lJ6uHrZ00gz6YW/qPXCuoDrlWbveJL4Lumv5RqNyUCFvXzAN09Hh9hatriLGayyELLkNa+h7V4R6L24YK9kcx44d59ixY5im6SvXdHd3Ewrr/r2UFuTzBfr6+hgdHWVlZQXLsnjVq15F17YO56Dgc3ddVqSU6EZgfYH3rQGWU60BVi01cOuRmXMWQ3uykrpRQalLOGlZVtG103GVEpUDLgXruYBCzkTXDbSQk45f1zxoxespKaeqZ5ccyr3kKoDEiTwZi0aJRaNEI9FVi7EUFBQuNBxXkp7eXvL57JoL8oJYRbidZM59npRgmk5kyy1xYQj0+gJnvYhwt5XpaxfVSB3ioknhvIEukWuFn+3a8ugOcdGLfztEe/PlLbkVdgVrtsIFRUtLC7lcjrNnz1JfX09dfY3/nE3TYmZmhpmZGerq6shms84aiOCzsGExvczk5CRzc3Pkcjny+TzhcJimpiZ6enowIpp/7NDQCIuLiyQSCRYXF0mnnRmcSCTiuxBlMhnGxsZYXl4GIJFIsGvXLlLVST/b7FKOmZkZ5uZmWVxcwrIsLMuitraG9vZ2ampqHXcZASuZPENDQ8TjcUKhEGNjo4yPT7Bjxw4ymQyxWJT29g6i0UgJYZ+anGFoaIjm5mbaO1q3+EkobBSKdF/xKPYCkWiUgzfcQDxS43fuqi9QUNgKOC3LxmZifIKCuUK8tX3TS9fXHRy7KiIIWbSwYxeJ91oWVhH84bBksRFrrM8ovUWfYvW+Vek4ZmIRJOznwkan1CulJzdPcH1LuI0/aJDl6ZzHi1LNIW89mpqayGazjI6OMjk5SV1dDeBYkE3T9CUfW1tbmZiYYGZmBu9hShtGR8cYGhpibm6ORCKBrutEIhGy2SzPP/88mUyGPXv2EImFWF7KcubMGSYnJ0ilqolEIs4aBWBsbIyxsTGfGIdCISKRCPPz84yNjZFOp7n55puJxsJYBcnZs2cZHh52o5hGfN32M2fOMjw8wp49e+ju7kYPCaZnpjly5AjJZJJUKsXCwoKfd6FQ4PTp0+RyeXbt2uVY+nFI/enTpxkcHHT0410rverwLz0U6b7CISh2eLZtMT42Tn2tIFHbXFErWEFB4UUgwC0199/U1CSZ7CIdTQdgs+u3ztU8fT1+V7vbI8PrumRIxy9bBMzS53wNeERbbtxlqERicKPnBI73iPAWw7uF3uWV7zsXzkWulZV76xAKhUgkEoyMjDA5OUF3dzfRaBhdF2SzWSYnJ6mqqqKzs5Pp6ekSlZxMJsvZs2eZmBjnwIFr6ejoIBwOIXSYmpjhxIkTnD59mkgkwq5du9B1HdM0yWSy7Nmzh66ubUQiEWzb5ujRozz11FOEw2F6e3tpb29H0zRmZmbo6+sjk8mQy+WIRsNMT08zODiIpgluuOEG6uvrXWlJ6O8f5PHHH+fo0aNU11TT0FSHrunYts3i4iKtra1cc801VFdXY4ScRaRnz55lZGSEjo4OqqNVIGFhYYHJyUkaGxudBcbWOW6kwkWDkgy8KiDQ0Mhmshw/fozx8fGSSJUKCgoXGk7b0tEQQiOfL2yIfIqyf6vTDHwCFuuijvYG2rQ7B13I5zl79izz8/PYlu36VGhFv20vCmUwEqWnmef7l4rSj6eHXWIlXqNMQYt2me/z9NQ0A6cHyK0Uir1UpWTOac1fZ78oXuaq3eLcZFlZsi89TLNAY2MjHR0dzM8vMDo66o1BGR0dxTQLdHR0uAo0xfULAEtLS8zOzvrPcXp6mrGxcUaHx7Esi+rqavL5PCMjIyUBkoQQ1NXVkayOEwrpROKOIo4QgubmZnp7e4nFI4TDIerq6nyFnaWlJQAmJiaYm5ujvr6B1tZmwjEDzTV/dnd309nZydLSEhPjEyWDzlSqiu3bt1NTU4Oua1imJBwO09LSwuLiIuPj42BDfsVZGJzP52ltbaW6umqrH4PCJqAs3VcBhNvDeFqxuq4FtisoKFx4OD25jfSnrNdjcWv6D2/Ex6HSuZ75ttKqL/f4J554gr//+7/njW98I3feeSeaFi4SbbucUVpFUh0k/edipgE3l7m5OSYnJ6murqaxsRE95Cx6k+6CRSklWLCyssKPf/xjHn30Uf7gD97HDS9/GZYp0XWBt050VURO7/Z4+71dEoTOaot5wObgu5IErewetMDxgXMsyyvz+peusLUwTYtoNEpnZyczMzOcOXOGpqYm8nnHD7q+voGWlhYnOFIQEvL5PPPz8+i6zqlTp1alresaiUTCl30sz1eagckctyJomuYv2hUSP2hTLpfDtm0KBYulpSXy+Ty1tbWrXKk0w9GA93Tog/UxkUhSVVXll0UI4UZi7WR0dJTR0VF2797JzMwMw8PD1NXV0dbWVrleK1wyKNJ9FcGJzhZF1w2UlVtBYevg9XEhQvT29rKwOEt4AwspV7fL82inAdkOJ0pl3glMEw6hBbS429raePOb30xPb48z82U5UgdSSqRLuoUmsC0bPRzGzOUwQm6XoRtgW+QyK1i2RbwqxXquJ7ZtMzwyzP/82//JgQMH+P3f/31HUtCWWJaFETIo5AsUCgWklOzdu5dIJEJzUxNYFBUgpKMqYpomkbh7P21YXsoSj8fI5fJE4+Gim48FZt72y+BN44M7trCdSJmWZbnBewyHpHtERYCVl+ghgVmw/TR0QxSDsyhcMnhVPZVKUV9fz8jICOPj465SiUl7ezuJRKKiIohhGBghg4b6Bq6//nrfr9pJV1AoFPzIquWBjRw3lVIPrdWFK6blqQMJAcmks6DSmWHa5oxjXfUR28Qn3J52vZe3rmtoWulATwhBKlVNS0sLExMTnDrV7w8kvGtXhPvygiLdVzp8R0WBrhscuG4/NVUtrJ4DvlhlUVC4elCgwNzcHKaV31hEwvMxj4qAuUzimG41jeGhIZ566ileeOEFdEMnEU9w8IaD3HDwBnSXPCerkoSMECEjxJEnnmBgYADTNJHSW1UI+UKe66+/nmsPXItZcMKeHz36FE8++STjE+PE43F6e3q59dZbqamvLy2bO9c/ODjIwz97mKNHj5JOp2lubua2226jUChw8uRJurq6OHv2LI8//jhveMMbiMViNDQ0kEwmfWv10OAIR448wZkzZ7Esi927d7Njxw5GRkbYuXMnut5INBpmdHicX/ziF657gUl3dzdtbW1ks1muu+466utrARgfn+CZZ57m+PETpNNp6urqOHDgANdccw11jTWsZPIcP36c+fk5WlpaefzxxwE4fPgwPT09FcPTV3qEyuK9dXAMSJBIxGhra2N4eJj+/n7S6TS1tbWuv/Tq5ySlEwAqHouTz+dJp9OkUil/fz6fZ3h4mLNnz9LT001dXS0rK7lV6dj2+j66ngpOMRKqTm1tLalUiuHhYTo7O2loqHOUc2yYm5tldnYWIQSRSKRsJqVIuD0XGgFEo1E6OjoYHh7mxIkTWJZFXV0dHR0d6LquFHQuMyjSfaXCjYgHNpa03SkpwfzCDJqMU93gDa/LBT4vBM5DQkBB4QqERDI+Psbi0jxt9de8uDeu8P+r7FDsBq1BExx57DH++q//Gt3Que6665BS8vDDD/PDH/6Qj3zkIxw6dIizZ89y90fu5gMf+ADd3d3MzjpR/mZmZjBNh1z/6rFfMTE+wd133811B29gcWGe+791P/d/+356e3rZvXs342PjPPi9B/nuA9/lj//LH3P9y65HNwzfd1zatm81zGQzLCwsMDY2hqZpDA0N8ed//ud0dXWRSCRoa2tjcXGRZ555hvvvv58/+9O7ufnmm3niV0/w2c9+loWFBa699lpqa2v5+te/Tn9/P4VCnk9+8lPcdttt/PKXj3HvvfcyMzPN4cOHAcGPf/xjnn32WYQQfPSjH+WOO+5gcHCQL3zhCxw7dowdO3bQ1tbG008/zbfvv59bb7uN9773vbS0tPC9732PBx54gP3791MoFLjlllvI5/MUCgXHZYi1vXtWPzuFCwHpum1ommB5eRnLsrBtg/r6OhobGxkcHARwFxym/C4uHk9gGIY/+K2qqmL//v0899xzHD16lNHRUWKxGJZl+W2gvb2dpqZmhO7kKaXEMAxf/tOyTGxbI5/PE4lGHHLttXEBQmiEw87skke+6+rq2L17FwMDA/zqV7+iubmZZDLJ3Nwcs7MzAOzfv5/m5mYsy0bTNAzD8NOhmLxvba+vr6elpYUTJ05QU1PDoUOHSCYTxWNV/btsYGzI+qLwEoTjhCiR2FKiaWCZFqdOnaSnI0Jnvb+sZOtWBKmqpXA11gHpTj9T9PM0TQvL7bSl3+Yq3ZwN3rCKq/+cr8zSEv39/Zw4cYLf+Z3f4T3veQ/JZJI3v/nNPP7442QymRIVB4BINMKrX/1qbrnlFhAwOzvL/fffTyKR4K677uK1r30t0izw+K8f57777uN1r3sdv/u7v0tbWxuWZfFv//Zv3HPPPTzwwANs376d6vq6EpHqnTt38spXvpKHf/4wN9xwA3fddReJqgQvvPACExMTHDhwgA9/+MPs2bOHxcVFXnjhBSzLAiRDQ0N8+ctfJhwOc88999Dd3U2yKsmzzzzLxz/+cYaHhxFCMDExwTe+8Q2Wlpb4H//jL9izZw+apnHq1CnuuecennvuOfL5HNlslm9961s88si/89GPfpRbb72NRCJBOp3mS1/6Ev/8z/9Mb28v73jH2/3Bx7XXXss73/lOmpqaCIVCrsu8LIrHBB9DhW0KFw6aptHa2koqlSKZTDoLFTWJYYTYvn079fV1GEbI9WeWflPr6OhA0zSqq6vdtU06nZ2dxGJRJienfN1tjxhXV1fT0dFOOBxBIonFomzbto3GxkZSqZRbPx0i3dLSwvXXXU9tbS3Skn5b1DRBS0sLtbW1xONxhIB4IsrOnbuoqkqRTqdZXFxkYmIcXTdoamr2CbQ3QKipqeHgwYOuu4m3GDRwP3RBJBqhrq6OWCzm5+ccpyri5QZl6b4KIDRXCUEILMskHA6j4TkuKigoXDDI0j8EEA5HMIzQxbE2abq/sOzgwYM89NBDnDx1kpqaGm695Vauu+46enp60F0rLTgWONu2CUXD6IbO8PAw//C//hdPP/UUd/7Onbz1rW+lvqEBadv09fVx8uRJent7+eIXv+hoAAtYXFwkm80wODhIejFNdX19yc2wLMvRLzZC2JbtEhZ8X+prrrmGvXv3YhgG8XgccHy9dV1nbm6Op59+mre85S287MbrsAsSzRDs3buXw4cPMzk5QSgU4uzZsxw5coTXve617Nq1i2QygdBhz5493HzzzQwMDACOisSRI0dYXs7ws589zFNPP43tLjidnZkllXLIkBUo56tf/Wra29vRDVEq5lIGZVHceoRjBi2tTUXtade/wzA0WtuaaW1vLvrke4tfBTS21NPY7FibpI0TzRFBc0sTDQ2NrKysYJqmq7EdRg8HHEcsx8Wpp3dbcXLYrQe2DVVVCXbv3emn7fmQhyIGvTu73QPxu1zdELR3tdJOq7NdOotzNU04lnJf0UdgGBrbt/cARct28BsB6YU0U1NThMNhuro6ff1wVR8vPyhL9xWLoqXb+4c7WhdCx5IWuh9RQ1m6FbYIV1sd8JqUsLGRaGh0d/dQlUpgGKGttXRLCZpEGCEOHjzI3X9+NyMjIwwMDDAxPsH/+T//m7//0pd4wxvu4AMf+ICfk2f1lkKj7/Ff8+Uvf5n5hXne/e538+Y3vZlwLIYUAjRnGt00C+zevZuOjg5CoRD5fB7DMNi1cxfNLc1UpxxLYrCMXh4ekY5GoyXT/OFwmEKh4PqgypJziiGyiwvabFMGtjmLzDKZjO/Dqmka6M5bb2VlxVWVEEQiYXK5HKZpkkwm6e7upqWlGU3TsW2LTCbL/v3XcN111/tSb5qmEYvF0HSwrdL7Xk5qVHd6EWCVfQcHQZWaVYDsBiFlMQ1Ng3g8WrrfLEvIS9sO5BH0sbYCv8v2l6RRrpTj/u0sEZCldWiNZi7ddc+53AonTpxkdHSUfD5PV1cXtbV1q9NRuGygdLqvAmhuCzd0gwMHXkZLSzOV304KCgoXFgIpbeyLJHVh5/Mszs3xvQe/xze+8Q2qklX83nvfx5/9+d38v//1v1JbU8O37/826YW0f46maRi6wdN9R/js5z7LqVOn+L33/B53/OYdAGSXlihks0izwMGDB6mpcRaCvfr2V/PWt76Vd7zzHXR1dfGLR3+BrumrfE+hKIloGAa5XM63IJejkhGosbGRw4cP8/TTT/PMk8+RyWQxTYsXXniBn/70p74U6r59+7j++uvp6+vjkUceIbuUQ5pw4sQJHnroIdf316axsZG9e/eSy+XYuXMn73jn23nrW+/kNa95LbZtc+LESVc9wukeLctypvptsCx7c2TmEqxXVwhgPWWRzXZ/Htn2vtc7/yJ1r7Yt3VDwMfbv38+ePXvcAe3W561wflCW7isc0gt5i4VEUsgXMA0TS5pILMAuzlFd+MwVrnZcbXXA7WxtW2ILmxx5Tp06yfzCLC111yCNrbJ0O38L1z0jVZXihedf4Kknn2Lvvr2EQ04kvMWlRd7+jrdTVVVFNBJxA23oTExMcN999/HkU0/R3bWNB//1QX74ox86KduSW269hVfe9koOHz7M+973Ph588EGeeuopWtvbWEovMjE5ga7pNDU3EY7HkHbA/OgqOHihq/v6+vinf/on7rzzTqLRKE1NTY6fLY58nyeDVldXRywep6GhgXe+8518+ctf4hOf+AStra3EYjGWl5fJ5/OEQiHC4QjNzc28/e1v52tf+xr33nsvP//5z6murmZ2dpZ8Po+u6wihoes6v/vu32V2dpYvfOEL/OhHP6KhoYGpqUn6+wc4dPgQ9fX15HIFotEoqVTKHUhIf/C0Svc5iEoa4gqXBpWaWbkV+gI8o/LmeEFo1Tks3kI4yiUHDx70Z2Q8ScESSUOFywrCLJTPoShcEZDOf1JY2GIJiyUmFgY48vTP6e7Yw97ew0SoByLusRtZgr8ZCNXhKFxddSDgR2prOWyxTJ4J+l74EdPTE7zixjfREN+ORhzMCMGJRj/4RiVB4WD6ldRLKrRTaZoMDAzwxJEnOH3qNLqhU1Ndw/Uvc6T/dF1nZWWF555/ju7ubqpT1Tz73LMsphcxLdPxu7YtkE7H3rVtG+1tbSQSCSzL4te//jXPPvcsI8MjxBNxbjp8EwcPHiRVXQ26XsY6HG2zQq7Ao48+yjPPPAPAnXfeSTgc5uTJk3R0dLCtZxvSkghdcHbQCW29e9ceQqEwU1NTZDIZjh49yokTJ9B1R5XlJz/5N44fP8Hf/M1fs2PHTmZnZzl79iz9/f0cP3Gc6lQ1PT09PPfcc/zsZz/j05/+NPv27UPXdRYWFujr6+P5559nYWGBxsZGbrjhBvbt2+eH9x4Y6GdsbJwbb7yR6uoqPyjOmhErFcm5vCBxmln5c1nPBeRCYq06spF6sk4ZS6QDKa2Llbb5v1X9vOQQhXzhauoWrx54pBsLW1sizwKTswM8/uR/0Nu9m/3bDxOmHogq0q2wdbia6kAF0p1jgiPP/5Dl5TSHrvtNaiLdF4V0+8fatvPxlA8sy81DgqaDafrlllIiQgaYVvF8L23bxpa2E5zeDdrhyRMW3x2y5Mv/Qwr3uNJ9fgAeXWCbNloFPWWAworFAw98l0cf/SWvfOUr6e3tJRQKcaTvCF//2te47rrrufvuu0mlUvzLN/+FR3/xKLe98jauv+46DCPE0aMv8OUv/wPXXHMNf/qnf0pDcx1mzvYl4MBxsdF0DWlL12IIBdNCINB1zbcaBpVJNkS6y26NwkXGFUq6oRhsFs7dVSvSfflAqZdc4RBCIJFoCHTDQDd0dEMplygoXAyEMOjp6SGznCYU3khEygsE2yXEQpRanjW9eEyQNGvCjaMlnePLoetoMhhKHoe8+24yrovaKkbqlsFbzBbwpRUBIq7p2mpi4R5rGDo33/wbDA6e4atf/aq/u6amhjvvvJPfeuMbqa6uRtc1Xvua17K8tMz3//Vf+c63v+OrOLz+N1/PG3/rjdTV1YHtKF3YtrbaYh1wGzF03d/nke3gWKfi9L0i1y8NnI9Pt4LCBYDI5/Kq6l2JcC3dCBtLLGKxxFx2hPnFcaoSdTQkeghTi7J0K2wprqY6UMHSLZlj1jzO/NwMLXV7SeodF8fSvSlsdE3H+a79ePEDfNuEbDbL/Pw8CwsLGIZBY2MD1dU17kJHHdt2XD8ymQzT09O+Wko4HKaxsZFYLHLujNZBRWn09S5N2TUuPdaydENR9URZujcF8aLfN1c3lKX7KoDw/glBLBYlHI5gsdVqClu0OFNB4XLEGlV9Ra7w/HPPk8ksUnN9L0lHgto5QVZyurwU2Gjel6iMtmOgTyRjJBIxmpubEUI4Gt86SNcC70kLJhJxktVdDqnyxjAWTqjtiyMio159CmvjQiubXMS6pgj3i4dSL7lS4Vm6XfJrYZFbWeGF40fp6tjO9rZWPO3urRvpbzRhZRW/YnE1PNfgVLXXpFw9boFASI2VlZwrNaYhpUO4RYB0S9tNRDtf9ZIrHAGi4imHGIbu+4V7/ZgXKVIW3N9Bkm0XxzabuX1rnaMiT74EsB7BvRg+3ZXS3gxvXaNs5Vreqhq+dHDl63RfyFHlVmuubpGfmYWJKU1y+TzpdJqVlRw264RVOx9cqN7ncn17XOhybXVdWgsX2spyvlirDJf6jeRFm9sMKh3vL2SW2LYs0Xd21C/WWPx4wdqRrJyWt32tfASrre5ryhtuMM0txHqyaGsV53yLeYkusawQlzj/84XAaVtruXqcCxf6ui/lfQwug1hv24vA+QwuFS4OrhxLd6VV4hu5NFm0kvhJCbHui0GWRyXTyo4P7g4S6bXSLB+1elYb1ilHWbrSksWFSX6axVZsYBAyQiWLl2wsRPkCKD/9sm1edDhN8/8OHmvbthMFrlIBK/aMvmQCPgMNXnslHdy17vF6WOMcaTvSZCVT0IHjpF3pflZIK5h+sA4GT7VkwBInVl/bepaYoC/eetfs7S8XkvCucz2rzgbvq3R9Ztf0Uywvu/ct1ydHa54X/N6M7+wG2z1aqSXUE/VY8x5tZLs/eSSxpETHYFt3F8nqOLquU7BNwsIjqfgRF50FjAInxvg6IzLbLl0Y6edfVjiJe8Nl8e8Sk5gE4S6YXLU6UCvdZluge4olgfB+vg978AGXvfxerCHBex7l73f3b8t0Q2dr+MFrwLOGOweV1DtRWtyN1MlyeTYvTblOuUr+Dvj6r4v17pVGaSRELw+d1REXz5VP2fvJz9v7Xs8ec662Fqxy3syCtsaxG60XwXdB8H4G8yy/7+fiAcHnE/zt9QfrvQcqpVOeVqVjK52z0XdV+aYK3XX5KZbLU9bVlFe46LhyfLrXI0FrvETMgukETNDXMpVU3lbxeO+FsF5DLWuQVsGJkGYYRgmZqUg41yqbd055mQTYlo20LWxDYmGRrErS29tLTarGP8i2LQSr1QoElLRkKSW2lGCaCE2glakgSNt2boFPyoOrPNYyX3rXLPz7t6YFcD2UE85yBF6gUjok1Cei5ee4L91Vz6CcB1V6wZa/TN2XuNAdn/qSPM6VFs7z86AZjrqDL9umBYi010lUqPt+vSgZAzluD95CMyNsrDrPv4ZgkoE65k3r+/tkIJ/g+R43LBfMqdSpBe+DRyiCqHROsCNe6xoqtU09UC4ozZcKv6FIHgLPzyPtorysQhDCII+gsbaZ6poqoiKKjuZk7tZzEdKxCyaa10aE5rLBShcDCNuV/QuwpKC0hi2xpe28p4RA6MW8fIKMG47dwIk97bVBbyRSdhOklFAoOHKCwbbs6nj7iUsqtPVA3uVYq72Wvy/dIkk7QJbdXbrhtAPbvSW67vp3e1ZVcOJ/BRbNmaZFKFpBoSWI4Dk4aWteHQ6WKwjpLPjUXGuutEEYxX0VrzO4PfheKCeSLuG2LOlcs7fLrNC2Kt3XYNtZ69Jt/Fhpqxbeuc/ACigMOwFZyo7z8tHXee2vhfUIqHc/yvvyjQwwvO9ym5DljGFL1jB79yaQjzcOXW/g5E0GBS3MJQMOrwzB91pgEOXnUenZBZtk2fWX1PMy6IYoWWypcHngyrF0A0gYHBxkenra32RZFolkgq6uLlKplL+9kC8wOTnJ/Pw8+Xx+VVKJRILOzk5i8Vhxow1DQ0P+ynhwXjymaRKJRGhqaqKmpoZoNFokTqbNwMAAc3NzvnyVdK3GRsigrbWNmpoaR07MbZRz03NMTEyQz+fJ5XLIgLVKCMH27dupq6/ztyFhYmKC8fFxP33LsrBsC4mFFllh1752LCzqauswRAhbWpwZHmR2KgNytcmnKllFT08PumGAR9BMk/7+fqamptA0zb8eTdOwLIve3l6ampsDqQiWFtOcHRpiJZstSd8Jsxyio6OdVFW1mw8gYGpiiuHhYZaXl/1jve/GxkZaWlpIJpM+MbZN279+794C6LqOlJLa2lqampqIJ+P+/cksZRgbG2NxcdEPSe0NfKQtaW5upqOjo+QlmFnKMDo6yvLyMra0kbYTQc/La9u2bdQ11JW8IOfm5hgaHsI0zZK6J4SgubmZxsZG4ol4yb0ZHRll6OyQX36/+tk2dfV1dLR3EIvF/H1L6SXGx8dZXl4mm82WaA/ruk5LSwudnZ1F/iMlhUKBY8ePUcgXKBQKOOQK/7zt27dT31hf0snMTs8yPj5O6CtY+wAAIABJREFUNpv1r9tDJBqhq7OLmtqaku3DQ6NMTU0hpaN/7JXNtm0aGhpoa2sjFNb9TjG/YjI6OsriUhrLtEvCheu6TkNDA62trSXEI5cpcObMGRaXFimHrul0dXVR11hT0gEvzC0wNDxCIV/wj/XKmEgkaG5pJlWTLBIhG6YnZ5mYmMCyLSzTcq3UzjumuiZFT3cvRshpEwJBzsoxMj3EycHHyOeXaareg2GPIawYshCmtaWdtvZ2fwCEZZPNZhg8M0g+t/qdpBk6rc0tNDQ2Eig0M1NTTE5OsrS0hGmZeDNkhm5gGAa7d+8mlkz6x0vbZnJikonJCVZWVvzyem4v8UScHTt2EI7G/PuFYTBw8hTzC/PO87Nsvw7Ytk1XVxdNTU1o3nsMyGezjIyOsLiUwS4bpOmGTmtrK7W1tf57BGBhfoG5uTnS6TSFQgEpBZrQKBQKVFUlaW5uIZVKYRg6QgMzbzM7O8vk1CT5XN59Vzh12bZtkskkPT09hANyjUZY40z/UEk/UaxjGvX1DTQ0NBCJFMPZm6bt1LHFRb8OB981zc3NdGxrcyzu7j1bWspw9uxZTLNQ0o7z+QKRSJgdO3YST0T9+mWaNsvLS5w6dXpV+k7ZdPbt20dUL5arULAYPVNsY95iUi+AT11dPd3d2xxi7iaVWy4wPjHOwvy8n48deJe1tbXR0NBAKKL75yzNO9cyPz8f6CoEhmGQSCRoa2ulprbarRuO8mJ6YYnBwUG/rQTfyzU1NTQ3NxOLR7ykMAs2o6MjLKTTWGbpilchoLa2jpaWFsJhw3+XZTM5pqenmZqawhtde/2FpgkaGhqdZxkN1kunH1taWip5J3lla29vp7Gx3tmgQSFvkU6nOXPmzKr6YlkWqVSK5mYnqmrwuYyNjbGQXvCvxbIsP6/q6mra29ud5+9mv7yUZXp6homJcQoF048y6X03NTXS2dnpD2akOwg6efIkS8tLWKblP3dN0xFCsGfPHmKx6KpynzeU0fxF48qxdANo8Oxzz/KrX/7Kb3iWZdHR2cGtt97Ktdde6x9q2RbDw8M89thjzM3NrUpq27ZtvO1tbyuxRhQKBU6ePMkjjzyCYRj+YinbsgmHw9x0000cvOEg0f+fvfdqkuTK8vx+97p76NQ6q1ASKAEUgAJQ0I1uoBtoMTM2PWZrM7NL43L3aY184ho/AT8Bn2i2ZnxYGmlcDjmc2WH3cqZnGj2NhtaqIAqlta7MShXS3e/hw3X38IiMyIosXYX4l2VlpIf7vdevPPd/zj2n0BxIYRjy2WefcfDgwRZBJTQhM9Mz7N27l3379rWwkJcvX+b3v/89KysryaIYfzc9Pc3Y2BgjIyOJ0Fmv1zl95jTvvP0O5XKZIAiSsqFCJqaLzG7+Ocqt8/lnn7Nt224mSls5fuIEb7/xEY62gnWcluM47Nmzh4nJSYYGByFajAX4+uuvOXDgAK7X7DomtEEmVlZWePW11yBFeywsLPDB++9z9epVW67UBkJrzY9efpl9T+5rqfsLFy/wN3/z/7Sy6RG2bdvGq6++ysDgQHKtXq/z1Vdf8fHHHxMEQdL2xhgKhQLbt2/nJz/5CQUKiYnE8vIyR44cYf9X+wlTAnEQhGSyti1nZ2et/2CsID43N8dnn32WTL6xkK5Q5PI5SqWSFbpjKDhz9gxvvfUWlXIlacO4jnft2sUPf/hDuxlIySRHjxzl008/pVxeoREJhbHrs2eeeYYNsxsScx67YBqOHj3KN998w9zcXDP7aAJ+8smnmJycJJvLJmlVa1Xe/MObVlALgihQiO2frutRLBYZHBxs+pZWMD8/zxt/eIP5uflEQAXbjoNDg/z4lR8zNDSUcn8Hx44d4+tvvubqfHOMGWOo1Wo88sgjvPLKK0xPTyVMUqPR4Ntvv+Grr75e1feVUjzxxF5+/vNfNDdp2HJ9+OEHHD58ZFV/mZgY5/nnX2Bk5MmWxers2fO8/dbbLfXlRmlOT0/x05/+zArdSR4LHD9+nA8+eJ8wNEk4cInKvG37FmZmNlDy4g2U3fiePHmK8+fOMTI6yJtvvkl9uYBpeFRXhKee3Mef/+VftrBXlUqFL774gtOnT0fMptWGhSZkaHCIffv2MTA4QDbXJAPiyIpHjx5t2XA1/AajI6MUi0UefPBBy1RHdXkpmmMWFxdbtDCCMDE5ydjYGFMz+aQdw0adr77+mk8/+WRVHWutefHFFxkeGSbnNYXbpaUlPv/sc46fPEXQJkRls1n27dvHU089ZYmNSBsxNz/H22+9zalTp+y7iKU4wzBgw4aN/PjHrzA8PGyZQaBWq3HmzBneffcd5ubmWzRlWms2btzI6OgoExPjzcwNHDhwgM8++zTZaIZhiO/7ZDIZnnzySV548flE6BYsqfHll19y6NChhKSJN69jY6Ps2/e0nS88kva8cuUKn376KSdOHLcHaSHZ2MzOzjIxMdkidCmlmJub57333qVWq+P7DYJIYDXGsHXrVh7a8RA5Mom5iec5nDt3jnfffTcZx3GfcRzNjh07yWazzMxMJ/2/Vq+xf/9+vv3m22jD3Yp9+/bx/AvPM+QNJFP54uIiH330ESdPnkw2wjG5k8tl+eUvf8nwyGPJdUSxuLDAb//pty2EE9h1dMeOh3j++RfYtXtH3PGo1+ucPHmKzz//PCFc0qTGE088wcDAAJlMU7i9dOkS3377Lfv3719lJgrwxBNP8Nprr7WwwbV6jY8//phTp04l6ceblenpaQqFQlPojjbVc3NzfPLJJywuLlKv15O6Bti+fTuvvfYaw8PNctXrdU6cOMH+/V+yuLiUvHdcd3v27KFYLFIoTCfPhMZw8OBBvvjiC5aXl5t1Gb3/M888w+zsBlxHJ1oYpRTvvPM2Z86cxXGcpExa62RDtGPHQ6vqpY87B1UpV+4jqtsyJQsLC8kgt4yq7XylUqllp1ZeKTM/P98yIYDt6J7nMTEx0VTjRwzo8vIyi4uL1iwlJXT5vs/wyDADpUgYTKnb7OHFGpVKJSmT1ppsLsvQ4BBuFLQmRr1WZ2FhAT/wW3b8juOQz+cZHh5uljkSVqoV68M2k8ngB36k/hdEGTJFn4EhlwtXj/Hp5++wbetudm3dR6OSYXGumixsYAer0ppioZBoBpS2Np5BEFCv1yO2o3XL6zgOg4OD5AutrK0Yw9LSEtVqNdkMxPA8j9HRUTJeNqXjs8zt1atXWwT7uC49z0vePzHJEbsoxMxFumyCUCwUGRgYaLJAUZvOz89TrVabadFs54GBAYqlYkvejUaD+fl5Go1GS9vHz42OjJLP55vlit5lcWkxYRLTjE+hUGB4eLjV5hpYXl4m8AOq1WpSLtd1qdfrtlzFYrP9lTWTKpfLiQAdL+xKKRzHwXVdRsdGcR23ZRN55coVlpaWcF3LiDqOgyA06g3r1zgWhqJ+Vi1XWV5epuE3kn6slDWdcV2XkZERa6qSepelpRXKy+WE6Y/fR0QolUoMDg7ieKrJKAssLa9QKVdQ0VmB9HPFUpGBwWIzj+iZuStXO2qsYhdyg4ODLSrzaqVOuVxOPWMHuRW8PIaHR8iXsk0bzxAWFpaoVCot/cvWsSabzzBQHGyq1LWPzzJnLn/FoWPv0fBrbJ19koI7i0sJgiwDpSFGxkaT+QWEwG8wNze3ShgSBK00pVKJoZGRlu/qtSqVcoWVlRUc18FGUbRakmw2S6lUws3l4gpBUuO44TeS/B3HwXVcjBjGx8bxsvG4jDQqy8usLC2vGvt2LstRKhXRbnOTJkHA8vIK1Vqdlok3qrdCsUCpuHpOXlpaotFo2E1QInTbTefQ0BC5XJYwNLgZaxpTKzdYXFxs2XDHeWSzGdvHUnO8UnYTFbd9PC6DwJoblgZKFAtFdMq0XQRWVpYplystgk1cx4VCwfaXlAmC3wipVMosL6+0aOtCE5LxMoyOjlotDyT2z+WyncfTDKxEtgtaO8zMTLWYoPh1m0cs2KXZUYBcLmcDB8WaIYFarUGlUknml5b5UoTSQInBgRLGNE1lwkASBjbOJ4brukxOTuJ6kQlc5OJxZaXC0uJSinlvkiFxuVwvNqsi0Q4sd+hjAPl8joGBwaRM6Tq+enWBloknKuPw8LAd+3HzK5AALl++QjWlfY3nymw2y3gbcRIGQqVq1+7ySnmVcJ/P58nn82SzrcGvVsoVKuVKyyYlfnZgcIBSsWRNlqLkgsBQr9cTgirdnq7rkslkGBkZQbu0bNQXF5eoVKvU442dVriOg9ZWM+h5KfnmBpnqnkxf+1gT95fQHdt8pW2g0n2k3ZZ2LXR6Pl1TqvVabCucDAbV4d50OtEk4zd8a9MdHcZMDkR2yr9TOdJ2pvHfJmYIBKUFdIUaV1ksn+ft919n25Zd7HnwWbQM4amBxB47XWBjDGIMjuNYRlMpJGJRXK89sp4i8BtWeE0ftFSKMAhw4oVYTNtjTWG/5b2UtXdPb0SSuujUW+Pr6TaRDtfTecR11X4tTq/9ety3Ot3XrVxxGm2vmXwVt3UvfTJlGtGSn2r73eldZPX9JjSWxW9/r3RZrzUztJclXY74+8hsZNU7tvtNVrZ7BEFo1drt5U4J/6u+iw+ZdavH9vdvr7N0mRTN+aO9veNDa53et93eW/mElKlxgZPnP2V5eZHd218gp6chyKHDHKBxEyFVgYro207nGtY0A4waopPLAokkoDBsRpo0JspHt0bYiMshYu0DkroXmsa7XZA2jiWqg+iw6Crj3jVeJTlYmn4k3bbpg8/pftA+zlP5pG2URbB21ql+15I2rO7D0NrH0mO6fc6JP6/lpSN9b7fv2xCGguOo1r7bqZw9jNlV9sNrrTGpcSNhs3sArfbE8diJn2kfF938o6fLYLBjLD32us3d8Xfxc93qOmovE0JKobsa6WHQqQ7jM8fB6uEpghXq02lEh7ST6+35xmVP9d9kk5MSxJPv0/WSXjINGCM4mbZ1NF1/a8kS60RHobtlPkx3mJuX7/2E+86mG1h7AK33daXD505ClqJ1B7xWvvFEIVg2V0CQ6BCLrH16vB3tUbVitVN8el+ZaO2zi9mWLVsZGhrGiOCiMSZApBk8J4ZWCkmZL8RskNba/t3y7ipR97fWgaDb7JJX14mkPjeva0evfq6bAN1twelyPVnYu9Vzp+Kuda19cun1+fY+0wva+14nwXetfJMFM7Ij7tS/u6XV/n69jK140eh0ACoWYOPya3A9veqQZsf0OpWjl3HTTQBPf98uIMRl7CQ4xN+lx6GAaIPB4OIwOTmFGzGaxpjEFbdWGmkRVlNSYjtWtXGXySi2u5DUg7HU2TY2k5OJLcnK6o1Yr6Hvus1/a47/1GsklzvMgabL527ptV2Li2AkcoWe7jvdNtnpNEzbM2nBu9M4aC/j6vOprXldYxqwQYC61G8Pz7c8l+4K15o72vKR+BmiNMK2+9s/rxWMKF2P7WNsPXPwtd5dSLzbdFu7V6XfXr8ByQZC2ufciDBoeSYeWvH1tdaIeE6O2yWgFd3qJZ5HNHbOvFadrXOp6YRmbIG4I7VmJgSAQqFJB/9q3tZ5kbyWXH6tJalbCr2+suohh7XQ/enV39xfNt23GtfbM7oJJ+1sAHT23tELurIqTVWj42i2bdtK0NDYfyBKoTtIH4kZQJzMDW3OrlUx63jnmzFxXG8dXwtrvWanLK+3GNfzXC8L83r7dyf2ptd80wttt/R7KQOsb5PanlYvea63vuNFFEWI4czpM1xduMxIfitexm5cNY5Ntte+eK05ZM17Ownz0YPtwnj8vEo1zrVY7jidVXlc65ker93ImG9Lr+ObpPvhWmXqdE+vZVurj/YuGdzY82ulcS3chHl3FTpteG9GOmul2asw3+n7a81/bc+oTnPf9bxjL2msR4t/q6CiXZgxiMoSm15KenxdRwV05RruUdxfTPe9jvTOP/77RtKKoa1gXa1XOHrgW6YmHmBgZhqDgIRI264USJjtTsVYTbp1KKhK/ruxsvdxc3Cn6vT71pbRGI4PMoeELCxcZW5unobfQDyJCCKxY06lKmhdc3E7syUdrvWa1Fq7og75Jt93KVcPl9aFm9mHYvaxWx43Q0i6keduN3oVOO8U1sr/dpftWqzxna6r24C0TJCwuAnzb2c832+Q8TIkThNa9vXdhJu1dzASPbLevX3vTXJjjdf96T7TfXei2zp2o7u5pL0tr91o1Li6MMfw8GSksQrQ2MNKqsfMemaJu7G7axc0zuT+m8Dut/fpo2d03rqyemPakRrrBnUTmcLr0DSpe7RD9/qq9+jrrQvfh3fs45YhUYglf1uhOwh9MpnrJAC+B+gz3XcTbmZTpG3MtLIDQgxhKJF7uGiQiETbxtbM73i/6HfL+wPft3ZsY7rB+uRVWvDcTKtlQkzfrErgPsPdxHTfivT6+P4ibSZ3rX51PWZJ18r3NqOF6W6Rq43V60lAaALCMBXwi/R99lOtXiebyaTMWK1c4mjHBoBTOqmu2D1uaEIa9Qb5vHVlurKyjNaaIAgYGBhMvF3F0WjL5TLFYhEjglatUbNbiBABlKJer0duQtduKGPCxJ1x7JEmDEOq1Squ56GVIpfLRfO/bShbBnuwo890369oMdM2QIiXdZmcnCCfyxESoKKDVOsNHNZHH330hgwZHtr0EIv1eXKZDFppq1WKPffcw7aJffTxvUVaOy20eKtpiZy6RjDmm2E+GgQG170bVvDIbktFP9d4uSAIyGYiP/iR0Bof4NZaY6K/nSjITzOWhE3XGOu/PpPJ4rouQRDgeV4Ua8JNhGErzIcYrBvFMAwjshEbYAtFYEIUcZwGS1AGfoDn2b/jfGOT21b3o9YBhR8E5PJ5XNelvLKSBDvUWhGaSM5ybRDBPtN9P0OBmBCRKpqQUiHHlq3bKOVGUKLxGw0cPDzX+iOKmTkVn0q+kwJBv1veH/i+tWMb092gzpEzR6nWVti1dSNZJ7KETDRMbc/eq2Yba+FuY7r76ONGIZGXTAONyKe+4zirzDS1KOs2sM3bCWLdGBoT2ufaXQ5eA7V6w/qIz2QxRtZlIXYjWHXOK/lgkOjH0BR4m+/d6pghDMNEzvB9P/GQVvNr5LJZQmMjYHsZj1qtRj6Xj6ZMSQTgIAiiqN01BgYGqdfraK0pl5colUqEJiQIQoIgwPd98rkctXoN1/WoVisMDgxSrlTIZDwc7VCtVskX8iwuLDI6Osry8gr5fJ5yeYV8vkClUqFYLKa8qurmWXOlbMwLzyOTybC4sEihULCsuOPQqNfxPA/f9/tM930JBeADAUv1OeaXTpAfrVML5jhx7AwbZrcwUmpQW/FwZYjJ0Q2tqm6Ju0V/teujj2uifYOq4ouCIWRxaZ7l5QX8jXWUEx8uUs1nW567Q3rjPvroo3coCMOACxcucPLkSXzfb8aoAMIgpFAoUCwVmZyYYHhkxJpTREurCeDcubMsLS0zPj7O8PAwnud2Fp47nN24cvkyy8vL5PMFNm3a1PrczTrr0SvaiAIVmWusdUZFp8xK6o06xYINRFev10EpgsC37HUUEdl1XcLQEIaxP0WVBAv0PJdarWZNUMKQMIwichtrsmLCsCXQVC6bJQh8lG4GRFIogtAGx8rlslFwKpOw6Z7nJRE/LbPuY5RJAlGFxlAoFqMNg6Eepbu4uEgmA9pxcCKmvc90348QEOUjLLMSnuTrY//MwHKdwTHDheWv8efGOLc4yMIl2L3lZ4wziFK5aJeeWXOQrqu33Ejf6nfL+wPfl3ZMCd5CgJEqCh/wMSwRyDJG1VESIgSRDlo3n12V2H2EPtPdx/0GBa7ncObMWY4dP87GDRsZHx0lDE0STbLRqHPq5ClOnTzF1NQU27dvY2R0GLQNAlapVLl06RL5fJ6hoSGIzB7i9JP9d4dAN4tLSxw5fJitW7dF7G9r2YBE63YzkXgkkaZePPHtjxAEQhhGiry2gClpB2nGGJZWlnC1jYJbXimjtcbzPMIwJIi0B2Fo8LwMKysricAbhmFkC65YXl6OIs9mqdfrOI6dU5W2UZJFDEEYYEKDEYNWOokQakJrBlOr1lBaWZOWxIzE4DiuZd9rNYwxlgnP5xFkVbRsBYlQrrWNUuwHPoVigXq9ThAE5LI5Go0+033fQuECeUaKs2zetJWTc39gsX4KN3+VxfIiNMaZHHmSqfEtKNKRHyU6IdE3Nu2jj3VDgcIg+ARUUQRkCpA3Gt+s4FPBI2v10qKbC2N/uPXRxz0Hx3HIZXNMTk7wyKMPg9iw8SKC62kq5SoHDx7i5MkTVCoV9u7dy+BICS/rsG3bNkZHRykNlMjk3Fbzk0jATgdx7mmKECBs2pSv7+F1INkApCV7hcJBKzc5nNhN6i8UCkmIe6UUxrPmJXHEy4yXsWYk0d/ZbCYKyte8p1AoANZuGqXQWqEdh0xkK54v5FEoPNezQroCNxKkC/kCKJuGGGO1FNlsS7rZbBbtaPL5HK5r7cV1l5gF8XvElV4sFJM6dx03eZdMJtNnuu9fuECOHJNsnHkY3z3LweNH0JkQZbJMDG3jwc1PU2IWJDrQANgRG50KuZNdo98t7w98n9oxOlAVSoMr5fP4ZoGBwQabN01SDUqgqsxVzhBWrzAxsAPPLXUZa/dZpfWZ7j7uN0TyZHy4Lu2tCKLrRsgXc2zdupWFhQXOXzjPxLkJisUdaA/m5+e5fPkSjrOBTMZFDKyslLl8+TKXLl8ijOyRHcdhenqaqakpSqViJMtKi42zRML+4uIiFy5coFQqMT4+Tj6fu6n23k15UVp+xZWilIPSYfPeqKytboAF7ehU8BxpejFJy6MKG2lTNS+ICBJKU0CPPaikDjoqrTGhsey1mITUiJ8LTZiYojiO0zxj01YWaNqP12pVK3gjqwMRCU3TImn2gjiycizwm9AK7X2m+76GC7gMsInNEy/Q8Oucvfg5pfwWdm37MdN6DzCAEJL2MSgqREl8+qOPPvpYDxpBhbmrZzh76SATG8ArXSLwQ6oCS1cu4DJMwZ1keDAbxfe2dotNW/B7AH12vo8+1oxbYYxVGg+NDjA+Ps758+dYXlqm4TdQgeLy5UscP34Cx3XJF/IsLCxw5PARLl++zNTUJKVSCa011VqF7777jqWlJXbv3kU+n2vJR0QwBo4dO8bxE8fJZXPkcjlSxOstQKeDLBqlLNOdEN3QYZ7oEBWkTYg1xqAdjTGCduwGRikFWq1+Li5K+mWjj7HAK6bJmseuDLXSycYJYqG4PW6C1WYkjHxoy9VeDSr9d7QZivMTY4V37Wi8jNdnur8P0DJKSe1h1/QQnkwxmN3EmHoEkSGsi5wOI/NO94t+t7w/cKva8XYfFuoVxrqGGh0f5OKi4dTpowTqJGHYwFNXGMhuY+vGDeQLuci9lfXd2sEdwN2BbmZm69kg9JnuPu43xMIVseeQKIJzm1MiEdACmYyXeNIIfHtAsNHwqdVrAHgZh+WlZc5fOE+xUGTLli0MDw/juh5BGHDh/AWCMECEyFtJk2G/fPkSp0+f5urVBUZGhtm8ZTNDQ8NkPBfR0hqz42a8N7FttyTnUpRYm22NSzbjAk5LRaQswNvQeX7RWiMm1hjY+9LhRFZtJkRatgEqupbkomgrD5GCsTn3Kp3yLJVKN3YLGKezSmbuVLcxS5/krxLWvM90rwf3LLOj8Cjhqe08PDuGIotLkTggqUo8dSdbRhI/wncE7QZp1769j+8R2hmUdtLlTvUHbRDqKEIGc8Ns27ybU+dCLs3VqFfqFIam2DC9nYnRGTQaIbRjr6Wr3yOTTLxqpSv7Vhf9bt1o3ctYT5v167uJyN76WqRlvIwZI/ZAnzE4jk7YVhGxB/oEBgYHmJqcZGWlzNfffMPszCwDAwMUCgU2bNiQmEVEKaO15tLlS5w7d856ychm2L17N6MjYziZ2zmPpDwx3S7fhfcw+kz3unGv1Vd8IkMDOTJMA+m3aD+9Aa3SzJ3CevK+w/bnfXTHrWS6JXWs/3Yf/O30XmIwkcGfJs948QHCSVicrxNSZ3pkN9MTO8jIMBIdt9Tt7gnudD9eK//0d6rDxW4mJzeZZbvp6fbRG/r13YIwlMR0IP5pZ7oBTMO6wvM8j1xkGmIid3RNZyDC+Ngo3iN7uHDhAidOHOfw4UPWxCIMGRoeYXJikg0bNpDNZQHB932kImyYnWVkZISTJ09w7PgxCoUCQ8NDaJeEkb9ZaPrptoNdRUxxzGPHWnOV3NP2fPJpfTJGXKeJp9VVj0nq/zS67dRV29X4DVrL1Vre1RNgix1/+7Uur9Znuu979Dri+jvUPu4lxDrT2KiuyQDdFuGg08F8cVB4KCVobGS0yaFt1Dc6VFaqzI5tJssUimyUQKSGtQ+nEr6D6KYxkA7X7popoy8Nrh93TePd81iLtzRGuHDhAufPn2egVGJ0ZBTtaMtwR4K3jg4E1us20MumTZvYum0rlXKFcrmM7zc4dOgw3333HZ7nsnHTA2ityeVyzM7OsnPnDjwvg+s6HD16DGMMex/fy9DowOpDfzcJTeFUdbl+N6OXMnb3vHKj6DPd60a/vu5K9Jvl7sSNtkv7/KgAojjLnRzYtmhsbhW6CPYCKAeMCyqHJoNHkc2TIzAhgIMOM8SCtqAQbYCwJYk7hdVm2mkNQhznWqIb17G5WafSqtUIVa+hxbD3dWLU+lgbKh4ngtWC9jJk+tXchGqy1WEYUKvVqFetb2lEMMYy0RcuXODY8WOsLK/w+OOPMzU1iUJjJExsfrXj4AchJ06c5NjxY8xMT/PQQzsYGh1gaGiAer3BwsICx4+foF5vWH454hrioDGZjLBz1y5E4Nixo3z55Zc8/MjDDA8N4zjqpk2JTXmxjaled9+4vs60fnG120Td7e5u311bzXbNeSj6us9093GPoW3Q9/2Jf3+gYmY7FrjT9GtaOLzVkBQnmW6xAAAgAElEQVSznrqGIISIioVBWx7XdZK/hKBFlWk/BV3VsbcT7Q4Ammc74m81QuQrF4/E68rNLEDStjFFpzoL+crq8UWZO15v9yIEjZJ7hZm8C2HA0ZpMNkMmk+XcuXNcvnIZIIqGaH0/e67H+Ng4u3btYnJiEs+z7nlNaMhkMpQGSmQzWVxXMzMzw5W5y5w9e45z584xOTmF7/sEgU+j4fPAAxuZnJpEKUWj0UAphR/41i+1glw2y/bt2wmCgIsXL3LxwkUbdOd22FnHvEc3E7M+Eqgrl6/0Z6z1QMWLQhRZriXqUhM32ZTqPkHnGmnlJlczVypa8K1aPn4i9ot5O4SsPq4bNzII4ok86SAhsVBmaBCwDMkYXIu9uBVjsd0OIxa6DbELzqag3Z57bPcYizzmrhC6odOWRWHr10GTA3K4ZNEUQHKr7u5s093jKpwI3UG0ObHz7Oq5Ibad7PPcvaGTzwgV/a9ReGgcrMeJNZLpV3QrBObm5ilXKjTqDYyxskDs7cJxHAaHBikWijiuY69HbeE4iuXlMvNX5xkZHqFUKhGakJWVFRYXFihXytRrNs18Psfg0BClUonBgUEAlpaXmJ+bZ2hokPGJMbsnDa3Av7JSZmlpCdd1GRkZJpvL3LRXdhzn2jf10XWoKEBdvnS5P5TWAyVAg5XGFRpqHu01MEFbFaq+0L0KLbprieox+ohCxQuzinyGx99HArarCuTMBhydRZPBCuEKpD8J3NW43kGwyqykudkFn7K5zHztGxqygOgqqEZ0T4ioZqa3ZhzeihQlEU67mfxZt1O3jrjqZpgj+CiTJaenGcrsoqSmcRi4+UJ3PCUoH1F1AlZocBmhgRBiqEcHVR0QFxP2FbW9ITbRSbVDyjog64yS04M4FNCyhoDWX9CaiOoiDCOtlVLJuOw0PuMhHQe0uVHYaI40B228N76VB5kBx+2y3q43j2tNCe1nRzrzFjcP602/U/lU56/b0Z+11gMlQA3DIgvBd9TkFCZcAO233JZWgveRRqeaUWhxm8F4VFp7oBHjgMmiw0FG83WG9FbAs0J6rOLvq7TuP8Rt2mJNZBltQ50G86w0zuKrC+AsIapBJ55WsPJGZ33UDUDd3BSVsvbTapXZikXTM4LclEW7YxlI7XVpDinXKSF+EdEViq5P6AToiJ2/6YjaXTAEVFmsXsJXlzB6AUPdfi0OIg6h8luY7z7WQNKwKRtc0RBkKHjTDGY2kmMKT41ad7J9s72e4Dgd6qnD7jW2jIt9et8oWqaAdrOO9uTvdUFkPUO83eR8vVjvc211Lqy9qVJK9Q9S9gwFSIBQo8EStWCOSngB486BLq+63Sh1z/f12wONNi5KXGvjqnwScwElIC7alHBMg0BNI1JHKIGJDv/0++/djRtpnvaFJTEtMRgTYqQBTg3RZUQ3UMZj9WoHktgF3yzc/C11nJpZQ9iJ12vVHpXtphYitjdv5hpKHaUy1uRDBJEOQSSumW7v99mQ2iEhVermCtXwNMaZQ5QfqecdiIXudZzn7MO07Ko0DlpnKTcCsl6JLKPWXEcMHQ9X9iu6d9yGuuo6/NqF1JtYljXlxXb2d82Eevk+pdZb7ztc7zuvc66KPydVrlrN21c9JqbPdK8PtioDfIRGpO6sArVVdyV338ip8F5VRd3y6LUD3S5SQ2Jb7GaGWhTWNt6xwlFsy6niw1Qe4ODoBmg/svNkfQO8j/sOCtBaEYhBxCASgqyezm6df4v1pHhzBmKSyq1iulPJiorsfmMNg7I/1i7VQd3yA6vWjE+cJUJZRNQKqCBaizUoB1HRbNAf/z0gNs9KXVE2QJNRVUQCUA6Ih8SWx30lwvXhdm5O1iMP3IuQ1NzdZc1PEwRrykK3ql7ibGNNJCAdbIziUxR9pntdiJ2/awTBKB9DSEe7YgFR0uP62KU3pJinte+7wZF3W/qAsosl8Y9KiGpFrDKPf0z02hkQJ2LWbF3ag2rmNpW5jxvGzWqmZCxIZN8bRP1BIeIgxuswXm5+Ma4P91BfjYqqRCMqtgU2IGFqw3uLme7IM4khxKg6gh9l1aQzRAxyX0kXtxox4dFsDBGNEYWOtBegMaGyPuY7mTndQ934vset2PPfaFrrzkei/9Nrf/ondU/gtzylncgclViTGZF5As2+njorFj/Yclbs2q/RvvlsL1k8BfphSGhC/CD6HQakczIiONrBdd0+070+OChyaMlHFRqr6xxWKRS0neCubWSiEdOmC2q3vwOITpondqsqnV+7fWm3I1Hd0Lt96no2aap9t6fi0x6tJz5EFCr2QpK2kRJr3y0mgxFBkvcPEcdH3WyXZX3cvRCiiTW0G14MISFGNft6J61Sz9qmuwJ3wdZAxQthxGVHG15FiFYBSknrPHQzEellFSo6MBki4iLiYlQ8xzYPWksX+/fOCa/HKPRekS7XO8+3H6YUIDbna0KUoOIzC4l6vwuLeK9U1f2GTm2x3u5wK9Ai1F6bMLSenqIxbRoQ+mACTNAAE1gNJgbrYCF+Juqx4iLKQdA4bhbH9cDNgIpiIYi2hGjcdzsceOz4Cqzu1iYSWeLzQQJUgpBqrUbd9xNfS8Eqk9fUuAkNhI0+071+xIxtxGTHf6u2CHkRC7c2LJMkLVKBpBrNNBssYolV+vAgEvkEbmUwkh62bldd18b6uovq8rm5sNna0jQn/kgol0TJiRKDiLV3bW5j+mz3PYGb2kQx020w8TCRWAPSJSt1r3WTu0DwJmJnAB0FIRIJMCZMxuUtYbrjewWs7X6AGLspt2pmRftU2ceNQKK5NdYcROHM6WKO1elivw3uftzENrqmvJh83U7kSdtnQfAxQR0xPiaogvHB1BKeutUQtXVusn/4iPj2QlAhDD1oOIjy0F4RpbOgoui/LdYI166Q9jvivWcgUA0NcytLNEQIBUuwqkiGkdTNKUIo/SZ9pnvdUDS9bVoh0DK6GkntxtL3r50aHaa4eDt2rVNCKlIDx8xx6mZplvJauG417VplU8l/PSQjqVubTL/qmL4DuPT9c/exCtcaLn1cJzpr3m5dVtI0ZUkWaKJDk514qLWxDk7hnupD63qv5IE++rjdkLa/QkTKSFjHBHVMWEMToCNpO7GPbkuhRUSIPqaJZRErhBtqhGENxy3guHnQWZTy7DmQlGnrekteCw3LlSpLjRqNjAadIjbb2e2W363oM93rhjQZAUnv/K7nsFbEKajmAtNsjjahO/JTnLarTLqOqEjwTifde2nWV/KmcdOt7juSXusTV2lRmG1rCd5fSO523BKmOx5/8RhsEqT92exmIdJEJWMwmquSg03S+xzTa6NEemNRglF2rjNGLNutSFjY5Hbp3SxO9bhJF3Uv9aI2m9U1b+0kaDTXsITh7jPd9x9uJ9PdMeN4xoiDgAX4tWW0VBHjo1O3KeLNtUXaIsSk70kt/ZLKSitLPAdhg9A0CPwq2i3iZIoonaN3IrCZrwA+wnK1wnKjTl1DwmqbyJ5cmhYOqwrVhj7TfdPRogTpAZE5hUovYrGCJZ2OPUCmkiAh8a7Nmqgo0S1TZdO7gCRPNxnkVuMvJetwb9iRfl79rko6Xu41ky4sNyRKp3T66ye/+uijj7sW7Yt1H+tBOwHT64ajjz5uHaz5bUhIvbKEZxoo/KaUEw3yhOVOcY46lmljRjuVanx/mgUnBEdZedioOmEIBA5uJkvar//a4knTjM4AS+UyZb9BLdHARQc5HScqnLaG3xFBCAql7abYSGQuqyxR2Ge6142YESBh2tLfdFbFdk/L9pgQJPZNHdsfxfoV1exxKt5pRj9pll1alSZp8VvahHphteDd+7t3ejdZdUlaBOGWPWmHz+m/4xEXX4vYtZjtxqzebd9L5NT3DbeQ6Y61LfbjGgxdH+tA6xiNfXLrWJuQsM23iOkWUmxrWqPRtN1vsvC9Jqx67xnxPHxPQEXESxpxJaUInDVep2U5SZjupkWuarmxUwLXU+4+bgm6EV13jOmOM48dt4YkByfFR6XSSktNSTCzSBwyaRkrEodUG++WiFJ0et0afpBBe3k7vJWLc804Ks1xYICq36COIK6ydHpS6Jjhjsadsb8dBU602VXS3Byg+kz3LUAszPai+ozZ59gWXGN3UPa3iljdWK0LQdM4X1K/VSer7NSkm6hM051c6N2yqQs66Xdavkgf+qSbkXaHZ9caDvF7tAvyfTuTPu5W3Et9MyXWxqYkdyUxs96ddq+mKPfaDr7be7UxcuuAJGtYE+u2H+/j9iG9BHZqo7tiiUzTIgYIWr9OybFpWTb+2OzHVp4RwohIjO5RreLFKkrPBCgx9jxeN088XUsOvgkJXAecyGlFetgp0J6HI5HEY6z05jrWCsEYe7M9+9dnuq8DrTbdqwXO9Uza0ShRBiSDMnmQLKu8jkSqCXQdkTj6pYnUH4Iy7aYozXKiwpSSJGbmdfN7YD2HLuMFOHYHKMSMY+t7KdEpl4Hr5SDj2cOOvLRWIWE5E8Q27n0V6l2JW8J0p9hQuR72pY+eIPH4ltb6blLSPafT833SJI2a7RszsrL6/j46IO2WVUA0itUMfjKOUu2btHk77rW9yPcJ12qXm8l095pYIjS3E2oKIyqSXpqSa0p+bkki/qAISMxpY+WNNI1F2o9ipP8UQOuUX2+dymwNzUD6zJgShYvCF7D2Kjqi2+09obIetRRWK2iSuROMsbbsxOYl16i6Pm41xEHJIJohHFUiDDRz85eoVmoopXAdl8GhQXL5PFChpTspcLRjJ0wjXfqRivxg205np2Fp66W9bvuatuYSdSbXzXL16lXqtQbj45O4XhSkJOqQIiEogyJMcWj92buPPvro4/ahf/Clj9uMRPBWgGOJONG4bp4wqCBSS4RUUr8hFckjdU1Fh6slSdd+ryR6NqUE11gu3QgoJ4OXyZMIyu1lhI4iUJy/VjBcLLFQqeBLCK4T71ibgnfoJ5vYeCvR6Fgp/YiU14G0TWmadb0+i1IlDmFQpFb22P/5fj56710q1QbFooMYzcqSj+PBU08/zbM/fJziYCHKKbDxdwClrK1zTL1HXDSxrZFSLrE5iohE5igRwx6XPM3YRwMlYbNjSj/Fgiil8bwMy4vLvPvGW1w8V+WXf/5nDA3lOfTdAYLAZ9eenWS85gHPps37+oT92Bw9fcK+iXhb2u/HdyVuCdOdZrjjfnm9I3A1Yg3Suop1L1mQ9AQ76FTzY4uG4dYy3TYPE+UXZ95k2aPb19XY8ay4zrZN0F1oVUp10bZ0OsvS/l36+7Xu74YeaM4ut9hIwM3YB5KsZ32m+57C7WS61zvm011bFIhGKw/ReUxowNQtEx3flro/7aEkSSs2OUmJKibqm+mYgkZHt+sC2iuAziYcs5gO5rgt5Wy9rhTkPY8wmyOsVKjVA3uAUqnISoE15v90YpF5Sbdb+7hdcBG/yHdfn+FXf/0Gux7ZyMu/2MSG6Z24bpH5uXneffMd3nj9Y9B1Xv75s2g0WilCP6DuN0CB5zk4rmCkhvVoYm3DRWwgJCWOFb6VoJUhFJ8wDACN52mUCiJ1iAtojLHhTAE8J2NVIxIQmEY0GDTiOHheiccff4X8c8OU8gMszi/z4VtfUl6uMTO7iYmpQZBUkJ/kUGcvBzlj2/XU353u6a8GfawLbQd1U/1KxVKmEYjDoCfnLjqZMFkBUUnMoghNgz8deY5QiAqjz/aQtKigY1r2x4nujczAVBwC+Xol+/ZVofsq0T7aWkdXh83uLUNKuF/Xa8dRggWS+o4JCKIToZYxU7jRvOikNvWBXUij9lE4iOioCE5TKI2iNtr+kg7j0ZRORVST6Eu+UyDxeR2JYjt0IiF0S1pNdBPW0/n3MrfGt68dpeG+20v2cXvQQXhF2U2vozM47jj4RRqNCmFQRVTdzpG0ktGrZpm2oSLR5zA5uuYhykUcF5wMrpOPguR4xCaoPffpWLAXcBUUvAwUYLlepy5CIJEckx7kq4bn6tz6THevSNap1En6NrJHUv/3DANXLi7w+9+8x8jwJC//5DXGNlbI5QUlVUojJQqDzzGzqcjQSAETQK1u+G7/Cb764jBLVys06oZSaZA9T25i3w83EDY8Dh04zcGvj1AoDXLl0nnKy9CowraHNpMfMFw4f5qVpSpZd5onn9vOo089yNLiVd7/w1eUl3xyhRznzp5Aa8Xw0EZGx8Y4f+EQ1fp5yssBm7c+xKs//Tn5fIbjhz7k4vmD7HvmaQ4fOsx3n9XwA/jtf/kdP/zpszywZRpjotPCKiRxsXPNHXo8sjQSHWkW3W23bVhlC9/HncctYrpjjzaWoUtE396zE3tGIhGmTZbQ+OTyjvXxKuBICa1dQtMApwxiwwsrpcA4BKaC6ynEGMTkUJJB6QY4FUCBKYLJAi6oZZAcSnKIhIgzHwl2Lkm0NBUABiUOEuYQydjNsLcULRg2KJRS9nCO1gqlIAxNEqCr85LS7ouik5DXrs6NGVKxp+9FbAh4aW2D3uq6t9vi+2zwDIPEB8x79l4ioHzAR1SAIocyJRRepA1UQJ2QMqgqKhxDSxElBZS4GAnQThXlLmNU1fr7bXhImENrF00BjWPnMFVDdNmWUVzEZC2LHrVhTCwYsWyYUsqWTTLosISoAMEHHYKKFNGSsUI+gjJ5lA4w1NYgKdJCudt0G6va7Le7MNhKC1qa2sxYi+i01PHq9unjLkW39rmZ7SarPvT4XEpKFh1NuwW8XAakSOiXMWENY6po7GZ2lUl4Oud4Lojtu8kALoKHiIPrZnHcLOAhOJG23JC4PUnQYQ6ME0/JE1qs15GBXJZcNstKvUEt8Kk3fAKlIv/+q5JL5dWce/tM9x2Hw9lTcxz69govvfIY45NDZAt1RC1Fcr7D0Bi89NpeEA9XeXz24QH+4W/fYPO2zfzsT37CyMg4f/j9G/zuN3+g3niCZ5//ARdOX+Wj907y2N5N/PyP/hS/7vD+W5/x67/9lF/82Q5e/vGr+L7w67/+Hf/pf/0t/8P0DK5b4MuPD2OM5kevPcsLrzzGZx9+zd/9p4/Z9uAMv/jTVxid8vj8k6956/VP2TC1h8f2PsLxQxc48NVRfvCDH/Poo0/w7WeXqFZWeGLfU0xMjFs1Uprpbm57u63//Qm+j1sKhUIki5IMQV3j6gGWrpSZD2ugIJvL4TlFSoMuSi2B5DFBltDX+D6UFxuEJkculyVXcHA9K7g4bo7KVQcTeBClj7igcsSuQEX7FIazOI6LciKXnglDbhDAr2oaNU02W8QrDdMUsCQiWhXVco1GvU42myOby1jhrEXgilnZ9kN0Kea3B8b7dkOiejCYiHVez9PR2RXjoaRI0MgivksQgIgmly/gekW020BUNhIqDSIu5YUAxxkkNFnQBfKDBq0NrqcRY6iVfbLuIKHvRmVspARiq1lUbgXlLqO0FWBVErAgJA7s1WgYUCGu56BEEDz73kajtIsSoV61Ancmb3Dc2HyljUZTgg2DLSgMkmy6emW5o42LvpOt3cf3Ask4ISX4apRyEaVxsi6OlBDjIyYg9BvEfRwgDINoLNnnVbI1VKAUbiaPdpph3yWaR622zEdF94G2nxNmulXQkNTmNlFcRto2N1aWKcjkMgRkqDcCag2fql8nBAJjHSNqrYn1Y7GTChHBiOkz3etHu/9Yey1u3utIDsfJ4GXAiA8YxChCCVFO1CeUolopU14KGB4scPibYzgu/ODlp9n16CyhMbzwo72cO32Wrz6ZY8/D4LkFXAce3fsYD+7cysqSz5FDI0xNw65HdjD7gD30ODaV5+B34OoCfj2gUQvZsGmKvfseojQa8NDuB8gXP+aBzRvZ9tAWCkM+Z0+P43oQBoIJNYEfWi2LFgoDWYZGCoiqMzU9jedpuzCsqp9YgOhix5jeabb46m236U492+/Kdx9uEdO9OopeK+/XDfHkKwgS5KhXMnz16TG+/PRbKuUljPGtCGzgoV0P8dSzjzK7eQAxwuKc8OE7X3D80DHK5RAEtNY4ruHRp3by4ssvsHy1zNtvfMzxQ2fRKkPQyDB/uUY+X6RQ0ih3GScT8NJPH+HhPTvJ5XMEQYjSgNIIARg4eOAIn7xziMefeJonXpxGaUHpEGMCBIOSDEcOnODd33/CD3/yArsf3WmZe10HJPJvGwnyiR12XAfXqOLkc9OjRbw23T6b7ij6rphm+4q0F68FSikQF2VcTOixMBfw/pvvcurYKfxAcHSW0NQZmxjkmRf3sfXBLbie0Kgbzp24wofvfsKlC3OEQYChiuP5bNkxxlPPPcnk9AjHj57kgzd/TXU5gwk9GjVDo1FnYKhEoZBBaWFozOXln+1jbHyUwNRR2r6DFZBDqishb/7uHUxY55Wf/5BcIQPKRSuNCUPEOFQrPu+88SGGJZ576QkGh0sQe24gEqu1FRDEhDSVHO0VHZvnKcvydaENU0cjUu17A+3Yx92Fm9hu6TNsvaFto9jyWLyR1JHw7IDjoRyD66ZJBsGJiYl4ExuZ7SWx49ERo+1EK4QmjoBpc5KoNJLI0d1KG+fcFL9b5zodfaMA13PIug4lyWCAMBo/jYafpAEKpaxJsNK6z3TfDSiWcpSG4MrceWo1n9LIIIYMgQlwlMeV+QV+9de/Jl8Y4qWXRqnVAgpFl2xeg1MnCCtksi7j45u4fFrwG3YHCZDL5zDUEdXAzURqG8eArqOdEDdTxXEhNAatXBzPJV/S5IoholcwUkOEKK8qgVQxKnJbqCJhIemaBqV8jKxYNbuyC2Hf6qOPuwXW/lpAKWrVkG8/O86v/q+32fPYHv7olz8jP2Cn3YPfHOZ3f/8xC1cv8mf/8k/I5TO8/fonvP/mYV74wXM884PdDA+NsbxU5ssvvuAPv3mfrFfiiaf38tKPfsyLL7pImOH0sQX+t//w/7Lp8Qd55Rd7yA9V8PIBA0MenlukuhJQKo0jxtAIyijtAwG1asCJI3Ns3FDB+C5GDI7nIuICIYoitaUcF0/D3HmNfmQEoUxoIvefSoMYvIzGD1asaUgc2a1le3L/SFLWS5OLokRQ9finv/snDn57mpdeeY7tOzajyLG8tMzbb77OX/3H3/Nv/ts/ZmbjGFculvk//+M/4nkuP/7pK4xODCP4nD51hA/e/ZCDX73Ov/nv/pipmRmeeSFPUMsT1DK8+fpnLM83eO65Z5mYLqK9EC9rcBkhrBdx3CKOBjGGIGiQybiU/TInD86hHDCNHKFjGXjH9dA6JGgY/EqGi2cqNBpXMc9nUGSR0LWux9JBPVSIoKMNmwBhd518H33cVrQbdacup7Z18QY+Fk7t3zqy6263k06lp2LBt1WzE5ukqShNe9ammUOSYJfixbkkXu6TGCiSKi+Q5KzIxLtgrJ5SAPJO+oWTT4q+Tfd1IO3PFGhhX9ZflyIBsxtHefYHe3jz9a/53W/+wIuvPMHM7CzKwPJKja8/PcSXH8ELL00xWJxmbGyak8cucPkMbJyaRYzP2ePfcPzYYTZt2sbQUJ4w0JgAXD1gVd1GEOPRqIIEHhgvOrkedY7Q2pZKqPE8z6pqjI8yQcI6iwQoZSNK2chQ0Y5TMpEZYw57eNNFKydiWexhNEl6eXovaeuv0wCQdrkgZsD6TPe9hVvIdMeKkrRf555SEWUPz4Vw/tw5zp+Hn/7RFDNbCtTqV8jlBnjmhSfJ50a4cvkiCpfFq2VOHLmANnmefOJFhicXcN2rTAzleW3DD8jlCogsodwGI1PYQ3bGYWFBkS0o8gM+4xsCBiYg8BVL84a3fvs+507NsbKoyLgltj40xb4XdzE+NUpGLVKrKC6eLfP3f/d7Ll+6hONk2TC7mUcf38vkTAnjZ6mWQZkS2hSoVg2HDpzl6/37WV5cRIDZTTM89vQ0Mxsn8TwPMQYrnIUQm2+kmyrNZCVzXIoFvW1Md9TSkmpfaWvjTsStOIh4lJeEA/tPMzo6ySOPPc7MAwUcVcCEMDDs8dYbv2F5eYEHvFnmL13h/KkyTz23m207p8gP1MkVMzyw/TFcz+Hbrw4iYZ5sUfPw45vw3ALVFeHjD0OuzFXY/dgmJjfkMFKlXm9w+sQlTp44zeULczQaDUbHRnjk8d1s3bYZfIWrJ5i/con33vycam0ev6bI5vM8unc30zMbcMkT1AaAOppBgnqWRjnHwW8Pc/L4CZYWFxgdH2PLg7Ns3DrO0HAJkQaoAJIDuib53X2Nl9Z5lXT73kA79nF34ZYw3b1m2HmtbhW6IRa449iVsYC6WmRtTSv2793qCdA0hfhIdknSUG1avzZGUNrKFxttNcveeoeVaJpRTnTb6FFJ4SLR3fQjUt5ZKIXShuKw4eWfP4GoZb74+ACHDx1gZsMsJlAsXl2gvFLmhz/ZxSuv/Yj8oOHRpzaxsHiBf/rN33Pgm8P44QpnzxylNOTy9A83I9mLeIUlciWomqMEFMFz0N4yQ5MQ6osEyi5CxWKGwgAs184wUBpiaCIgX9QIZbS3ANl5CgPgFcqIewlcyA2WyRaB7Hkkc5FMoUJhAIwzh3KLFAYNhw7N8eYbv+aln7zE+OQQoUkf5op/TEuH7KOP2wURRS5X4OE9j/DVjqP86m//mW+/KzA4NMjmzdvZvHUbmzdv4+FHd+O4Idox7HthF//wnz/gP/zP/xOzm0vMbNjAhg2b2LJ1J0/vexHjXqVQqlD1z+LoAsrE3oQCDMsY8QkDw9W5OV7/1YdcOl/j+RdfZaA0ytXLNd5+87ecOXuSf/Wv/5wwyLA4L5w+fZQ906M8/OgjrCz6vP27z/j2iwv8V//2L1BSRAwYozF+jvfffJuPP3yHzVt28Ohju/GDBh9/+DbffPEdf/aXP2P3Y5sxLEXD7X4bd/ZdtAYxdTIFw9adY+z/5BL/+//yf7D1wS1s3LCT2dkNDI9t5i/+5b9D6RBPw8h4lo0PwscfHMAPF5ndNHLvckgAACAASURBVMYDmzcwMjLBnkee4bHHngF3EaXL+OEKyg0IRKEdHyHEl3mMk0GpDMe+Pc7f/dXrzG4aYc+jT1JebvD5R5/zyXvf8G//3X/D5MQstQocObjC2OQVtu14AGcoy8FvD/PlR7/i53/yp+zcuYewnkV5wzjhBFdO1fmbv/rPVMo1nn7uWWYmC5w4fpz/8n+/zaNPP8Crf/RjsvlstMKnA+P00cetQgdTpo6f26Ha7mgKrAqFTrz29AiVDusXk3pO6vs4uSazt1bp4pzT4QbT3HY7Y65Tn9N3rboci+canH//3//7/3Gtd+qjHYaQCkuNk9S5gqha01C+RW3bAxKyVyiUPDZv28TOh7eSL2SBgEzWYWp2lFd+8QJPP/8YAyMOOCsUBzNs3rqRkfEi1eoVhsY99uzdzo9ee5apjUXcbIPSQIaHH59l49YS2vUxEpDNO2x5aJSNWwfIl0DpkMGhEXY9OsKWB6cpDGrGJks89PBmMoUGRi+Ry2u2bN3IjkceYGRKYVikUHJ4YGueLds3UBh0GBkbYs8TWxmZctFOwOjECFMzGbxcyPjkBIViFiRMVD+du33rNRWbbwFIBi1FCt4MeTWFllyXiuy96vu4TbipbWJZWkOdmixQbpwnVGWE2AtJr95LbChgTYGB0jhPPPkkD2wd48qly1RW6hw9eIz33/qSwwe/wxjD6PgwxVKB6ZkZ9jy+m6GRQRYXlzh59CTffHWUN1//iNOnTlIczDC1sYiTKROaAGOEq1dqfP7BISZnijz48CaKAxlEFCNDW9i16wlmZjdSKHqIEb478A1aOzz6+F7mryzy9ZffsfPhB/ijf/E8D+7cxsaNWzChy8FvTrJ5yyaCoMGBbw6yY9c2xsYmeOOf38BvhLz0o5cpDhQolnIUSkX2f3yW0fES23ZsAmpRXQlNdW6kKJV0DVotVmytoHBxGaDoPUCGEcCjZ7ux9TLdKkCoUucq1fAyvllB4kOLqTl2Netml20UeFmHrdu2MrthlEqlyqWLF/nuwDd89MEHvPf2e5SXfGZmHsDJ+AyOOuzcs4WZ6WkunL/AqRPH+fzjI3z47n6OHTmMH4RMbRjCzQQox0drIWgIX35yhIWrVZ5+YSdD44qMm6deVQwOjvDiD19kZGSMwcFRlhYaHPnuAo/ufZyhwVH2f34QwpCf/+mrPP3842x/aAtj49N8u/8wC1drPLj9IQ58dQzHFXY9vJsDX53inTe+5Mc/eZU9e/YyMDDA7OwsJ45/x6EDV9j60BSjYyUgiFwQQqvbSqdjI8Rt66hh8s4kWcbRphgJPjfQjn3cXbiJ7aZ1l75xV+NGTenS3PZqDr63vJuf+0z3nYSAEYOiBsYnW/DYsHmQjVv2Ua/VcFwFKsRxDMJlfEKUC57OMTqlGZnawOPPj+KoDKEJcV0D1FBaMTFTYmK2CLqKCStoT5jaUGB8ZhZ0mVDKGFNjcrbExOwUWq+gtMO23cO4nhD4dSTM4GarbN09BPgE4QqhVMkXYfuuDThao2SJDVuKduOh6yglbNw8yOwDjyMEZDIZwqDe7KOJ3+NUJQB9ZqaP2wYRlFLU6wHHDh0kmy2w95ntPPX8TiqVMgvzK1w5X+Hzjw7zT79+l4GhAjt37uSr/fvZuGkjr/z0WX7wymOIqjN/eYmTR6/yh3/8kl/99f/H+OwfM7NFo5RPSB3Bj4gWjcIFk0FMhlMnjvDNF0cQEaZmR/DcAZaXfIoD1n++6zo4LgwND+BmDUo3cLwMux99kDdff4/zF08xODQQHZhs0PArXL2yAHh88P57hGYZ8AkCYeeeSQaG82glSVzYGErSi6jh3oWgIqP1MPSpVspUaz5PPreLR5/YhR+ELC5dprJkOLD/LG/85mMWFpZ47ZePYvQVsvkMT7+wl33PPYkxVRpmmcPfnmb/J8f5u796i0DO89Kre6N8rE2o0hoxlmwJwxDCkDAwnD5xhi8//xitsgyUJjh17BKNGvg1IfANnptnZnorwyPDOJkGOAEDQzA9O8HliwuslJdAWZeJYehz/txpVlbg26+/5fjxQ4iuYEydaq3M5HRq5kw2JfdyO/bRx82GavsN6xPAb65s0rfpvg5E1m/QYl98Pd5LLJ1rxET20j4ohSgHLyFzQ4wKrA2maDAuYgRUgNCwrq+oop3Ykklj3em4aDQmsMEdQkKrHFFgxEPh2EVKhdHCYf0NKx1Yv8RELs9Qia4lDDwEFfnrtW6sxAgQRZUKdaSP8UFb+6YgCGzdxL65SQeDSNVD+7WULZZKbDvb6zx9c4dk+7jzuAU23XF/ktjQt+WbXsrjICZPUPf46N0vOX38Iv/iv/4FO3dvI5PJMj1dYmqsyJkTy3y9/zvCusuFc4v88z+8xfjEBH/xr/+CwnAdpMH45CSjAzv57J2LnL84T23FI2xkwRjwNQ4uihyaIi5DaJPn9LEz/OOvvuTJp3fwk9depTDgUF5qcOLIGcBFKw9wqFdh/soKjZUiOadIrdLg2NFjhEYYGx3HiB27+v9n7z2fNTmuNL/fyTKvub69QaOBhiEcAcKRAB3IIXcwljMTu9pVKKRV6Ks+aP8F/RXSKkIRo1VICo121sxsDDmGM6AFSAIECG8I0x5otEPfvuY1VXn0ITOr6nW339t9b6MbqAe4/bqqrKzMrMwnnzx5jolppE1arVkajRm++/R3mV9MiRLh7Jmz/Pa3b3Lott2o9NzzWgR0mODRgqCCButKb08tQza/2xyRkupzT2nrXRw+0g1Y0CY2S3n7leP83V8/zxPfeJgnv/ZVWs0G8wu3onmDHQtHeOm59/nwxHk6Kym/fe8kzz/7Lv/iXy5x5I5bSRoN2o2YJ792K814L7/4+XFOHHufbudemt5vmNuK4mxG1bp8nT37MT//8S95+43T/MGf/i533XUvsbR48Vev85fHf+CItMnI8g4XL/RYXe7R77aJElhbX+fixXM027PMzCVguigdkqbSno1ZXIRvf/cp7rrnCETrdLqrHD/+HkqPWw4dAvoVP+ahMKV8O7Yi1PP04AO9tun+TGIrbbpv1kYwMdtDP0zg1yPS4CTKMbx1reoq0Z9RK903AJyrK8dsVRTRvPhNJdjo+c/gFGX1virtDCrep2WxMcrZS5cbj5xirrjIdlLYPbmWYcSUqYs7zwVsyCrHWX9u5AY3sd5HrAXNAMESVTYmyPDuhho1bgyoxdIhacDDX76Po++d4T/+3z/g0G37abVmabVm6Kz3eOEXb3DvQ3u54579NFoRX/2dh/mnH7zEn//b/5O5hRl27NiBtYZTxz7m7EeX+MY/e5zFnU2s7QApUdyk0YDZxZjWbISli5iYVqtBswUfnjzDKy+9TZIYjr9/lvNnuvT7K5w8doZ2c5EdO2Z5+/UP+Mv/a4W777+d9377Jh+8e4EHH7+Vu+49yNEPPmBmASRapzmrPPnUI/zjD37Ef/73f81d99xFnnV5840XMUnG7XfvQrVq3nWTDp4bwPV1GZFJufXwHRw+/BE/+YeXePOV97n/gYeZn9vJyuU13nn7Lfr5Jb71rd9h1+4lTPwQ77z+Pv/Pn/8FDz16P3v276Q902BleY2Xf/06d94d88TXv8nC4iLd7BLgujZjDNaCiSIiE2GMiwC8ehnWVtY5cewkZ05f5J03jyGifHz2JHsPzqLS4eTJ4/zw+z/j2LFDRLHl1ZdfottRnvidx0gbBpWMKFGgzxe/dD/HPjjN337/b7h46Svs2LHAb37zImfPvM9DX74fkSMDC+A1atQYwnZ0eVJOuMV7RKmGonevoxwo+jf/07/5n7c4K59xWHJWWe4fp6fnsOLDrhP23l4NBOfhI6g74oXeinY3EJHMOX7HptheG9trEFyEFekRlAsfxnFABzTuO5UyXQ3EOketvx91YeJlQEesqCcqPsnSLnRkKjhw7iQtcoyNVEXpLm2699GSvd5LyvB1ZHzSNT5dbGmdlDbd696m28oqSo9gODGd0u1fjbJ//wFuO3KY+YV5Vi/36HX6XFq+hEqHhx67jaf+2ZeZW4qJ0i6HbjvALbfuZnVlhW4nY211ldx2mV2I+dbTX+H+hw/Snu/7SIXW+2WFJFEOHVli/y1zEHWJUzh0227WOyusrqyQ55Yjd97BF+4/QrNtiVLl1sP72bVnkXu/eAd9e5kzZ47Snot46LEjfPM7T7K4s0lfV9i5u8GtR/axsCNl/8Gd7Nw7z/r6MhcvfkSvt8bBw3v56rcf5vCR/SiVaIkFTavuRBkqQQ2BJAANNt23XEeb7gus52fJvE23SunfAMYL7cHlWKs1y6233cnsXJOVy5d57513OH70JB9/fIrWjPL0n32Nhx+/G4l7LCzNsv/gLbTnYk6f+oATx9/lxLGjnD17iluP3MLT3/sdDt2+B6SDSo4xQp5ZkrTBjt0Rt96xm9n5mCRJmF9cpNGAU6d+y+nTx4hi5chdtzKzELGydoo9BxfYu38HR+66hbnFlKNH3+bjs6eYnWvwxDe/zEOP3k0uy1hdZ98t8+w5MM/SjjkO3baffr7CiRNv8+5vX0alxz0P3slDj95Dey4m7GvQsJIY3DpgwEZM6ntVlVgWaUZ7abILsTOYzYgldZ9742ML68hEN6NNt8dG5bBZfbBCh67oC2JYTH//vffrx2ZaCEBOj485ufZTVvQtcvOJN+ewfhPLVhTnqGuc8ntPkEXRfosPj/V47+3THLl3gQO3tRFTHVjD6cmQ7ea4cNHq7yErJgAuqE2ZJ7ec6gm8DO7dHXcLMtJ5BzV+47uHsJHSB4PQWWK7h13tL7HTPEhkFykIfnB5pjdxZ/BZxlb1LoIzsaJPzjIX7VHOrr5EZs6gctmZTsgUGynVICEYgxqEStTIrEWuFtUuSA8TKxL1CWG6i+asEWqb9Ho9ogjnHtCAyhqYDkjf5zUCbSC25U0k/HHWrSj1OxER80Qy54LfRDkiYUWplE2s5iiZ3/aYo8Eb7Ehob9c/qAW1BiMxYsQHzPHPaxGd0hPYistACeYG4foauU11IpA3aJkD7G0/ySxHgJnxz9y4Z3sz5FzBRh0sF7jMe1zovcl69hFWVlATQsO7PE/2hOfcmGrWBJtgFfr9LohijLookw0plX8VhBibK71+v3D+kSQpSZrgomM6+3wkI4oEiAsxonAiZhWbO//svZ4LchQnKVGU0O/3sDYnTRKiOHb9tyrdbod+v0e71SZOYoxxqzC5zSs36ASSPLfuL8tJ0pA3lwfxY1MZht6LLZq49i1luZWwiELDHGZH80EWuZfI7nGTxZG+e4KoUbOHGx8jthFXD9fmPgMYbrcTzUrc5NVpi+VJRgx5niNG3ObSkeeg3KI+fIHapnvTGIqIVyi9g/9e6zUmw62TiEI/y3nnrXf5x795hT+efYADh++uhDGtmKVoUqoelKYsRYoSV+4jA7F+YGnQ72WoKsaIt+kMHfd45WTQgc81bOhRfCMXCpvD4k+HDoTJI3CNTxVbWi0lydGiTYQdFs7+eDqlO6woKRRkSiBZdgHOPEFx5DZ4hLAVIhJjTEyShj0Sdkgptv46PhohCib4t88hsvR6KySNGUQsai+jxvnOFvH3ZHPCKpS7rgszHlbVnImXvyXf9oOzKhWByKCBMHvS60zXKkRRQv6Gy8el5gYbLe27r6uf7lDP4XP5Whw+9vq+/FGIMoicG7J2y0048qxHP+9iiz7QRYlTiYgTg0ldvUeRkOfrZNZvnCz2o+TkFqTwh13Ji4qbHMU9GnHsy7ADdDBmnUYSY0wPa4PvbCGWHIkzJMnRKCL3Eyvnc7tyATFEMUSqpGnq3U8qRhsuPXJnilgtk4HFxQmVEMp3KLrrxPqZ5rsaNxa2so505M0EbJVp6ZTseOLx488daeXDanTlVRX6vd7A70makGWOG8VxPHpieOvHjNKEt/ZecpNBoXC75wLZ5H1hfQ0i00BIfKcbOdMQA9iURBa4cH6NY0ePce7cB6TJIkfuvJu9e3eRtgRsQqdj+fDUGT788Cj9fJl9+w4z09pNP1tnz4F5oqai9Ctm2jJAsAuEA0ZCEteocWPAEU5HesLEsFQKByd06oNBDXTTkmN1rRD/Ahl33NYAMcXGZyLQyK8Khf0QSho33AlqqJLzQpQyYTWq8oxpuMjg9zJghqYY0VLZFKdYV5O40ibKmxeBHOMrNC++zhVXxpElCREcPVEOK2Z5mCiJkvtJjYSi0zDxcV848aFSD57YuuiQvuxVcF8oLjh1RpZnrkp8xowoJo288p1V7qE6kFfqSSDLc6xVsDmWvl/8LNtpuZpRo8b1wlbv3xrXfof6wjEWqUGUHDx/XN6KZcvxvxR9LYgqjSjGqvNS5DzOOeJtc0uWZeR5NpBaHCcYY4giKcQQEcizvFa6N4+qAkNFWdiuchxSdX0HrBqRZ6A2wQiOcBPj/GErJm5g8wybNXjtteP85Ie/5MK5ddIWZL1z/Oqn7/LFh+/hiW8+xMLcDM8/+zw/f+Z54gSiFGz/BJ+chcVdhn/9P/4pjabB0gX1g8GEZ6w06Q6Nf6P72fi2VSsDWlVpq5XumwfbpnQHhY4iKuWmMjRkmqGFMl0lOFplqRWIN71yBGlg83BQo4O3nkD2tEqmTKGgOAKWoRr58PTjVpBKoi0qfmJQPl/q8yiVAUf9ZmcZ2AtSLYJx1xkuRx14BsvokNdL6a6q3GMuN5Lu8L3aynHhfsvv1O9JkUDAi4nI6MUUv3FdIz/gq58wDV0vVCzVvTTgbKt9WpUhw3lBcV8OxuGrBPgo2qo70SrFtcvNsT7vVbW7HKQqZTBahAMrRrXS/dnDFtbRhtFNtx06+G6DSw4/vTCJsgweWfSq4Z+i/3a/xXE8sLJojBBFhjhuVtIT/79QsUkEFUwU1Ur3jY2SZBefR5ZF/MAuEUKE9YNs1odI2pw/s8rf/dWPaKb7+O//h/+OnQeUrNPih3/7DM98/1UWFhbYs6/Dsz96ntuP3MXv/sF3aMx0OXOyz1/+ux9z9sMT5H0F6aG6jsjsxrbcA3nd5E9bPVmuUWMEo4S2JM2msnnZVnrf4MFnGME0IxAkMzgp9RNPNR1H1oj9PgW/VyFIKkEJr5h/DKL0LqR+M2m1L5CgsGsg3uLV788bJpmzDfejXsHyg2P5dRk0aBA+6I5GhM2l6tvFwNYZiSqM2ha/uzmRGTNH0SnrSQbfW3W2+v7jABHSMNDXvrprfDYxXi4YfkoGn+HKNH7M0eXn4un3q0UiUjy3Uu03wlliiKqPfUGyxb91n60tI8XWSvemMeije9CEbqvKckKHGVQr6YPmqBVPtEHz3I3f1vnfdps7U9Yur/Hm6/D0H+xk38FFTPMSaaI8+KX7+MXPXuX00ZzO8iW6a/Dw4w8zs5QhBg4ePMiOnbtZXjmNtUI/70HUCzLL2HJxGKM0DWCM8lacP1CYfkAbXFWole6bDFtaLV7FxRONoNCFJrCpJ7AkVzrU7gaJ10YzQe/mE4uoqaQTTDq8ul2ozc5EC7oD90PRORu06jGkgC3zWfh9HT6mouLC0DHTEzCplCWEx0oL1fR623RXP7v/y37iypffgIQDRV9UqMHR0O/DyMtf1X0eOHLktMrvUzfMSf1rFT7PWtbTQJsN8vkVk9KiVYa0aqX7M4gtrKNPny+GHmCw/wvNfbKaXf2rnjXal2rlnIE+vfKqOhQQfsjyxR1TfjLexYlS++m+QeGb0EgLMuXAoDFhQHd2/I5kO4N9gxFFSDDSACDPM7I8J85iDDHrnS4oNBsz2DxGNKGzmmNoeCUlpZ91XN9u8SrPJMVvHMbkX8O91ahxo+BqBhGpqMpjSEqhNsoE8hvI9hiyPxJMYUzayBgzlEnmXJ9nVO02r8RAw2rClSYok4f264lyQK+SgRsjbzVqbBfCZvnhng9cwL6KfauffGpxlo49s1wdRE3lfBk4JiRZ/hr64FHSPklSDOfVSvemUdq+lWJPOTfa2mll9YNTwkQjLzr5AV/65Dmc+egsr70kLsokliSNabdnmV9Y4vEnF3n/3bd55TeHufOuIywvf8zPnvkpzRYcufMQ7Zk2P//pT/jxPz7L7PxTLC4t8NZrz/P2W2/QngGsgTwBaTDsCKfM6PB9jykHnfD9uOO9su2W/wftuWul+ybCtijdlXbg28nU3ksKXBs5EQ3XKpclx157o3Y5QK6rJH3iVctTp32OAMaag03IsYYrlYqOyxcDtr+Vzu/KuAale2AlYyrvJVeTkeF6GFc2Jlx0k9fcTmw8vA/exsb5rm26P8P4TCnd42iuM93QQiG0kPcrwoTS6/WY+FyrIW22Kby6icG5sapuZh9yCzho/D01lNp7yQ2MaPBjseycE2rcxBl7DrS55XDE6eNHOfbeO0RxhIs+Cbv2zPOVr32dP/1Xv8fPn/kFP/vRP/GrZ3+N2oyFpQX+1b/+FrfetheVHr//vaf5+Y9+zX/6i7+l0UxY2rGD1gw02jjVThug/VpIqVFjSxCNfjXWtKRGjRo1aozCeQRCM0ewbRfb75DnHdD14qgqSR8RsgHUkK9eJrhltWIwjSYSJ4gkQEQZxfva44HUSvemMei9pCy/rbPoHn9ZdYEPpA+agljiBtz70CHufei/IYota2srxFELNetoFtFszYL0iUzKv/hv/4iL51bodHqIKDNzKXGqWP2IvBfxyaUP+cPv/T6LS3P0+mt0e+ucOP4OSzt2kiTeFaGGyJtTZ3rMx41IxdBy+zjPCbXSfXNhW5XuSruAsTrG9mC8yjti/zfW9nrSngY21Ya3rbfRwQ9C8GDiy9uKfyy3U+kWf2Vx1/bOX0rPKf7wTRXBtDLt8HfV+tIrrETcSChXgcp7Gr8aWSrctdL9mcSWLr7fCBWuQI5qhs27qO2T99cQ7SPadU+st/CrWpsESOWz60NyVNfLLk0g67UQm2JMQhSlqGm4zZUa/O/LVQuQtdJ9w2KocQ9M0cIacAbxKkYEJac96zZZhl2zqqvktk+er2O1w8xiREvVBX6wayg5BsvqapfzF1/jNy++wL6Du9C8z/LyJeYWDF/55gM02orS8yZM0/a8somHfZQulfxcKmPdzTLg1fisQyX4aR5GINxj/GxXfx8H2eyQthk2uzm4sacarTK8ryo9Y+5Fx3+9KVjABI8hQ8rSNaVftXufzoxnQCO7JsI9jsyPex+O3ej4K6UbCmnwGuNWUVwU0mKKg5tojYlYfCNwrRo1gGBOYvNVst4qajtEkrkWr3gXygxuz6g+9lUCPsZ0G8DYdbS3Ti7Qp0FjZgmhCRJT+Hq9StRK96YxZFNKZfa3pWU5XpUoXJLhXa5Ll7CP1okaIXR75o8CJCcP3wvYob1Cswspv//Pv8PZM+c4/sFJGo0d7NnzMItLO2nNJCDrqOmjal0HPS5E8Nhsb6JhDu8D0wEdpla6b1Zsk9Jd9WSjql4Jvd5tYKPrTVK0r5THTcrCI9e8+jQHjwoeU6SYnBerC+HadoIwcLXVoDiXuIZCcQ37V1w0XFC1V5n+yALzxhkZQLDn3mCVYpo0B8rnSuno4CFjz5kgdgwdrzrhahJ+dL691Qdp0oENZVe4XI0bH1updN8Q46wl636CZquoXSu0OSpcuLrAM+CqnqGmXV2UrHwV9khaQKVDd+0SJs5J0hjnUOLqy6FWum96XLv6Kyan2RYO3b6Hw0f2k2VKnllEMqztgPRQcqeUeAVvkHiPUUZq1Phc42qeh8105HYCB9vq51C53j6fb4hxvUaNGjcmbE7eXSPSNSLf3QWTEhjR7gb0Dx1egA9kPRxcfY9TzRXI8jVyG5HEs2CSa8p+rXRvGoMR0koVofBs+ynm7coYWWIUv+sXC0bJsS70seZuF6/kqOZ+xdIACdWw0iWu5b7HnKvhHykjNtfeS24+bJPSPWDPXaivm/FecqPiGu7gGp+B4cUmqOjphfJ8Fd5LpkWlLksb4/DcU3zefBltUT636n4H7mFKSXmqaw8vNbhX2dBOe7Bey/qdLls1bgJs5wL8dU5YAZv1MZoReYcieeasPiD0H6PJmjgBckTsiJWYUDo7CVxj2BbcGLCao1mGJOPyO73YUSvdm4Ffchg3NJWEe6PO9EZE1QYwfOWWHAueHaJeFv6HN4InypvNxsigMmiyIuMOqVHjpkOQXap9xVUQqiKKzZWftK3sicYtzW49Qn90s/ShU2LDaq62BR38ChhXHjJ60ER8xkqyxmcek03lTBShYsgzMDGYcRrguPQ8d3FcIgJsERF2ZMvY2Hmvn5T2+5gk3iCPG6NWujcNZ/s26CMYZw9HmCrBTdPNqSDG2yhZH/YU68d051Je1JQKsw27FMaozR6OUkwi3uPamw59X9XcrN8UEco9KPND6dXt+MbEtindTpLQirQx3IpuTIwj2lfKtVJuYAzPht/IqWOCuoh/7wP4yJB7wuEgEcXGuRCifkTyzlGbokTes0jwWVs1O9mC/i50qcF+nHIlIzzfV/2YT3viyG1Uy3q4YLaijx9uD8PCTZVsl9fbiHCrN2J13hucnbYzR9LhA4s6H15h2DCrNW4ubGG9XT++OPk6ipCp29Om1qnQ4yhB9bPNuuXXAmhWvg9fj1HJrfptmwpiYohiRKKrXHFzqJXuq4X4HT/EhPDANyukWJb3KrXEjnyrp84SfhlHGITBAd+AWgQzMNiXA/201GgwXUWw2pk8INSocdNgM224XPN0z5Pb2FimYykIuQDkIG6tVNQgNgHSIUU8I4gHqKCaICSIphhtDGTPTboVI22wLYwmQOICZplJI52MdhGbud9C6b52n7hlBqbMRNhYODIpkjGkNaQ9VcJDixXBmDSM9NVJVTXNKvEO9T3uqqV3EpGo6G8VC9JFis9FBhAi1KY+EEhI5vra79eosWlIRNKcIesrua65uDW5j3xQecyqdGXSZmKBkf3R1a7SmmkCqwAAIABJREFU+q7MxLOYqOWk9WucbNdK91VAyf1fhlU3gAU3NgVRvKad7tuJ0foum4DBqmJEfEOtqGF2wEOu776D27TqnyMEEhzreqIg46LvVd8HlQ182Tmf4CIRxs4R2UUka4MxtdJ9M2HLq2U0ImWhit50U7JyNcdhXJ8RCKxbgXIrahkifffMFK4JTXGcmBijCWJTRFNEo0JFBojEqTZChEiESIpojEiCaIJIjBHBSISqQXOLISGSOdAUlZwRQjxMQK+yItxEoBKJsuqPnU9LaZvQj191VhTXTxYyPgyvNhRath0jdkghghS/aVSc5zy8RAgxELsoxeLaiBGpdJXqWAVt0Ni3rwzVmLETnpvr4aoxjC2ovxuGL8bzxMbQ70Vkdh3x3tnMuOzJwMvYn4tVNSpcXcCqQWnQSOdBY69+5z7y91Vm/arP/DzCCx7qO02VHk41CkpTVaW5eTD4HAmI8R26VGiMa5HOa8ngL0LDN0hnN2UkQmxMRArWDwYaue+NO05EEGMwhM2ZScUgRYolbyMJcTRHpPO0oh0I6XUpkxo1tg/VB86C+CizWlU7qwik2r8KYBOEFNGme1/h65ILkcwQyyxJ1CbSlDiOK89XRGKaRCRePY/8q1u5EyLckxkmv+FzBNqgUGgH1mbZmkF94PZvrn50MrQyNoxbLQRX/64OhLB8Xa5BIq4/FvF9KSAaYTRGTOT6RY2BCBfZNMKQYiR1Eyvj+98iYoggoq73lSUSlhASiomfTMhmjRqfOlzPpGaWpNmEvIPNOmjeI7ddRLJRFiaVLmvMglXgQEqEJUElIUoaJHGKSAy458hdu1a6rx+C8lJRupUMSCmlpBu8txqz8Wq0DVis+slFxZZSVUAiZ+MN5f3qLGKbGIkREmJpEkmDiARjUgwpkWkQRQlGEgSD8epLLJEj7ZRueFy37wYOIfbL3k1EY7DJ+Nl23Y5vTGxptYTF8TJy3oBniwmbfK9fyxi+/kZXDitFirO5DRhWULwtcU6pZpoYsbNEzGJoY2iTpilJ4szCHOFqkTJLyjwxLRJPqFwOI6d+U6qj5es4s47Y57UP9L04a0ePm2RtsgkET0rVqKNU6/haEp8uB5XkZfD7q02vqOMq6a7CkWVXJ7FTmtVNwlSD+GCIophIUkRSDIbEtElkhsg0iaXtVilIaJgWBXn3EyYwXhcPpiVSKOWGpiPvpEDk+/aChVx7EdT4zODG4YuV/spESNrE2B6a97C2h80uM2D2W53rDs17nb12AzEpJkqJJUaSBkiMEDsCrwYt+ju9pmehVrq3FMMmFDcwJng/ULQInjOsZ6OxW7KWxC03mxZJ3CCRRWKZI5E2wiwJLSJSDLHrzLWBkZRYUsKDEsYgEeNLqrSjDMYChggX+Cfyu41d4x+6ka0tlxo3LcYFSx22ethWaKC1egWnIlW5xXo7Wh/rnNGt+EaEuNEikjaRtIhMTMJeEhaJmCFhnpQm5R4KQUiJaDo1nKhUZwptwJP5aeYJitutBAQldbsKtSyZG2Fwr95jZcDddN6qNtnD6bmVBNHUTao0QWwDiIloEJk2SdQkieZJ4zYpLSDFEBHRJNIWRhoY68NWSwT0h/pulwcdqrNg540miI+wKjYZb+VUo8aNhqK/FEQSMAliWhjbJ0rmqO4Js1lGaNQC3mtJRWQIblDErxZRyiLufflAbPbxGO4taqV7Mwh9FH67rAWMBXqUClHExmut474ft3llnM3QZnvC4Q1BlQ2TxY723Jt2OPvQSBqoNSg51vYx0gI74zv3Fq14iTSZI6aN5imJpCTScmq2JohXbQyJH/SDPaE4wuzZSGh24/btlLksiUIgDVrdEXE141+N64strR+L0sd51xEvUQhCaHegVRIL/lEczIQWy/2DGEfap8NoNyyEyLBlmx89xymbjigJeZ6gubOpzvtCmjZJ4xka0S4a0QyGBjEtYk2IWPLPV+LNAqKBYcHddiDIMGztPrxDQ4rzJgwp1vrnOKrcz2DfMiAhVVcdpi3XQgewqGYoXQgxAoK5hRrKuh1NePylNttRVNehhycYGwkr4ZzgYalSTkWbdGYkIgloCnmMSBOxbZrJPI10ntgugCYkZpZGNEdCm4iG2xhbjC/laqC7tbgoc7HpSO5GltsrvwjBtAVnD46ML666r/3c44bYNTPGPATfbsvN5oM8QYbk5dEuWcofPCEfpCY68G6s7fiY5MahVro3A4EqkXVDlN+8Ekh3UIFGdsBPwkbk/FrkBmVwsBlS1yq/CwpqnH1oNkskTYyJiGJDZFqk0RIxcxiapGaGmBnQFhKlRAWpEE8eDBIsQoOt6UC2gvHIFW5/EmoF5vMJt8YHlE3AtaQcpV/M3qQ42J+mw9FTQ3LjG941Na+weVrChFE94ff9gQZ7QPH9RAS2AdrCSEqkM0QyR5q2aM7OkNBEaNFiN8E8oDC78uZWhUtAP4r4PdCedPuQQWPNbgZXlQoXn1LtM4ZPGVbhNyqtIUI+9XMe0nQTLLdE7OtWyxyXkv0msjQ1hon1pESr3w/2qUV3q57Waloh2k2SuEkStUnSGWLTJmGBFCdmRGYeg/MSE9FAvJ19uY7ir65DOStIxqhgM9HwamTecK3jTo0a2wwp+62BL8M3Ysr5+HAfIeHLYeFlkCvZYpW9mvrWoFa6NwMB1Cltag1qY5wtsvO0oRIWJHSCurXZsp52VBluPOHVetIb1JDKcko4UgWxEdgm2Dlm0ltI4wWSqE1MTESTmBln90fi7LpJMDRxmyfd/RpjEI0KOu0uNxw98iqKoMbNja2sb4VAPt1ijUGNoGSodL1i58mp33Q4SNM3ztaIn9aJmNAFe1LonrKEQvEU8b6nIpTYkaJgdqWzzKT7SeM5UrOLROaJSEk0Rf3GxpgZb+WcF9cvHcRREnsonreB+5h0U6IDJA50e7ZGXI3QHN74gVH9hEbJ3eocjJkEDJ1+zfCeREJfLlB4HSlQ1kM5kTPFSoO1ghBjaBGbBRJZJEmWaKRtGrS8gt3wtvkpQoqhiSDOJ7r6lUKp1tIVbnTqSpxUMZMmXVMmW+MzixuBL5Y93CDvKYxHtPxUOaECcVxtzJyzPCF4ZivPGThiYp866ZolaqV7WlRU7oiEVBZYzxfd5i3TJ9M+SgeRHpCDthm7KWrskuQ485KNFPBhVK8T0vMKVnDbp7Ef6BPQmMi0iEyb2CTMNnZiaCE6R1sOYGh7dcUN5gbnQqpU1RJEvepSvSUdzEVQ/Ubvt0aNq4BGXtEWxEBqloCc3MZYlhGNsNa7PRMGPHpsHcKK1tDivVCo7QrOj7UkZf+tMUZnnI1u0iKWFkk0QypLJOx0Cifz7jn01zCFC7jS+EMHFP1qnq79rtybT//5dH1PAjQgb0KeQtRzkwTBTz58v7aNuXB9ZWnO4TxWVUyXgHKVIEym3J+YlEgaNJptGmaOmB2kLJGwgDDrCXbs+1Zvx+3N74J5nTE4gUcZmkR6Hl5k9WqJ0Lj+mZpc17ih4RiO69zDVBygjKRVmohsnEowKfGfK7NZMVnBf0Ym39eIWumeFm6dFrfBpUXMPBHzWGtQ20O0g5oINQYKe85xXgmGllql+lu40DjleuAE37hcYyjcfVUjpkloNAaxDeKohTFtJFskjpq0GztpskhMk1gTDCnQQLTtvIQE12Qj5RAV0zy3ihk2gAWlLZTVhPzXze3zhS2vb4OSkrCDpVabLL+Nvl2mYy9gbZ/cdsltB8s6lgziZYjWh7I03rhkUgCFsQcO2/paKb9T5x85iVOMJCANYtOmleykwaJXMlMiUiJtgCdgzi495C0rNPMhWwUGBgyCwB6e+3HZnaRmBs1omx/KTSvdgpK4PlZ3EGkfbBOlB2YdSweVHhqiyl3xUpvNAIBxE6dguuNXMV0qzuTFBRTy7k7tDGncJpYFjC4S03A22jJLpA2EhlexnaemYHrn2lzsbNX9cGH8xEcthM2xrmvXgTg2Y7TvyZh4yJgfNqP31Ph8Yeo2sNnGMj2hHfc0S+gbNRwxYIg1cHY4pPhVq+Tbv9XqFy7hEKW7mtKwRjENna6V7k0jAlospEdI4jkyVulmK3TzFTI+QVkDemS59aYWFjXB1VZQaLwa7Q0wC22j+Mctqyob2IV7l1IiMdjIvXo/rc6mOrjqi0kbM8RRg4Q54mQ3iTS9stbCkPghPARliED8QFO0yqFwz0VLqzDsiY3t01fOatzEGLR/wE0yUxK7g4YxGBOR06FnV1Fv353LOj27TD9bpSdnyXQZqzmFf33UfdZSmRYqgqFWXdMNU3RnJiLhOZPSxMxog0hSoshthkzihCRqEjNLQpuYeYQWaIoR49eOwsYfiiuWGP9t0Heqhg0bKtTjfqocvz2Wi1PkYYODhSYN9jAbG1KzRCaXUfpYWaOXrZBl61hWKDbOSo61GeIcWPvvM1RzXICZYCIytEIxULVluTrxwO1PESKsVUeOpeFSEsFok8i0iE2bNFkiiWZosJNU9hCREHnPMYOTJK+EBxepRotBX41rg6EdSqXc1I5mfaKwMaFMp8Yk9btWxWtMjSvZWVx9XxPkjcGUqiZgw8mPn54WWnkYY6Tyi5piP5Dzz61YDStQJd+pkuyBcULBeI9P1lqMMeTWomqR37z0m/qxmRYCg7WjKBl9VujrCplcQllH6ZFZ53pPycjkEpleopetked9Rw607wd9Q2TiUtUKPnslEPRh1TvM1BzRjiRBxPvBliaRtIijlISdJLJAQ1Ii3/EbGgjznmAHH72FRl25zNADUWwKFcZt0qlRYyKutXeZWrnFK5IWTB/LuiPgrJCzTp8ueL/6ORmWnNz2HaW2zva6eLwVLNZH9lP/nFZUE40QcYQ7iWeKyWtEiyRuEUnsJ8xOqYxpQtj8aF1UMzVeJZHqrCJsD9ooFHfVnrsqe46VQCeWYXmz1ddPf4LstnWHqL5uUFOzjmUNSw+hT481uv1VMr3s+knTp29XWV9fJlO/+dLkqKyT2y6IEhnj9YKwIqcDr4AbXDUcYwheRiKTIPgJlTQx0iQyKWk0S4N5EloYZnB7XdoYnSkIcuF3XDJKO1HjfXL7wVuMO976GhgXoLTKuodFj+FqG/t4XCPpniSs1Ozhc4Vms/lpZ+G6oN/vk9scVfUxRRx5BnyQqQqRH/MMiJEB0p0kCVk/I8/zWum+JqggEhMzTyrzWHZR7LYP5n1k5KySsUYWd3EBdRSlT992yfs5ueZFzVlbIdoT+kkjzi9lbFIfcCZ272lgaBKREnsioH6TZ+EPNvjsHRnXK0ssMvp12cGPY0Gf/mBd4/ODwn3k8IgfpEFNMOJ05JglysmqpVC6UdR4FdtUTg9QCrI9SoIVjMXFaEwBv18i+LDWMo+ldOkZVPEilYWictrrNmNPntheazS0Gx/Dqj6IdTbw7tb7NMiYSTLfl+ZAnzzq0k86ZPSwZE4Vp0tu++S2j7VuZaMMrDQ6UooEYm7cpIoGceTItpGE2DSLFcQY199GPqAMFSEj+AAuXVOOG5W1rHu/T8EpbjKk1oV+dxzpnoCxivQkqbpGjRpXgs1tQboxpYpdRbVPkWApEDQVLUeh2qZ706h2olopTIPQdOXsC9t1cZaIORKc4uHCxjsyjuTkaeZVuBznEKziVmxA6qi+CkW0xvA5hIguAmGYUj3HVbYzY8ldXoNvsWGMLLUAA0rfmJPqJlRjErazbYykHdb8BIgrc0Hf3XlSXlLg6vM1hurKyBvKHrR68eAq1AwcVeal0vMOmGpp5VHzoUo27I+rqvgQgRpeEJsKGzzTnxIGb8N9EvWbSQ1QbOpOcLq4956EJfE+XtyZTvywkqNRRh71iz5wtINzKCc0wTWj3+TobfVDFE/xblEhbOiq5j6nbF1C6HnLRXHXVsrvQr/sT9chk5fC73zFa0rRpkKaU5DprajiWun+3OPzwhejKHIe2WS8y9lhKMPPbbmqJmJ8mgZjklrp3gqI31VeiFoDlhjehq/oLxuekFuUnAiLoY/rviuKWHXjZfFahmyWgc62WtvjG0hVGyxilUl1uB86emD5efJAVaPGDQkZ+iCFJ2ogtOxgXnWldr3R+r0taJUjR2aUiBSPjhbnjKY8jYlH9Rm8Hs/jWMn0ul0zCL+FaUOxKhCi005aESzNbwzOBDAiAzbyvFsS5SBaTOMdRYt/KyoXUO2/ncGMswtFQ4Cf8POY1jcwWfSvI9/VqFFjuzAt2S6OL1XWEYSN0cFMpVa6N41Rgqpo6eO38nPYqCVqClPtwKndYBKIc1BnhsmzDHwuNztWQ/qOG+E3zvcE3w2DbwvJPnwx6XobXLJGjU+jbQiMGMZq8cNIpq7Oe0dJoBXrZ9hBBR9nHjLuWRo+YpJflU1mqfpe2KAONlK6hfHGittfoaNXKD0OjD0i1O3w7Xh3NEIMEg8U+4ZTGx1+U8FwtzwmRR1z7oBbs/De102pco/khFLBqVy4IANSueA0uMa6q5Xuzz1qvnjtqJXuzWBg4C4xqQMfUDSGxmEZ+DcZdyEGe+LhpUQdOXow/WHzkap6Pc60ZMxdDASFGPquRo3rgUkc9YrCcCAkw2xmImu6QiYmwe2TcIeFdMdshJxirNq8vfYEm5Jqv6MMmbRMyM8AqbODfd0Axxs2p9hi6BVqZ0IfPAAZfvVRd8cz28rB/q8a1nNiHqbAQLMLGwfG5GHDtlw1JRl3/U20mY0WRKv9ugwfvAE2WgSqUaPGCGqle7twpWItOtoNpSimGeSuKGSNfN5knevEDzVqbIytbC7V+aYSAsFOcc3pMnEzteyN8zpoNz7VjQ3w96GJ/QgB3aaSCnEGrjih2my6IbFpE7zC/U1YGNjwmGsusi0ojCqZrq5kDpT3OEGGweM2ws30ENXYNLbdp/+Niqu97TGPba10f9oYq6hMsqGuVeYanzMMqJa2eO/sqJUrhZ3UEaW7xlhUyzGo4xL8W4fNgabyCtvWHxV1HiYPw/EKQt847fU3S7iv0F6mSUqqb4bMQ64r/P0UkTQHy1GLZygEWYN6nKlRYwhb+EjUSvcNgTF1MM6MY8Ky39RKd40a1xtb0QYF3KaIHPBbF23mfGmTV3ymevm7iCBYY3NwBM25LcxAM/Au+cAQ0URoI6TeJG6rffYHMu1dO2qP4BJQCcGNgto2uv17MrbSnGiz8JuotryspoWvU3V7D4ZjJLudQilCC4NA2PA5KalpLlfjM4uaL147aqW7Ro0aNwlCcJEuPS6z3rlMn8uo9EAy1IQAJIOoh4npUfoX76HSB+NcmYqmmHyWhfQ2Eub8kek25CD43+7Rscv0sjX6XETjZRfDQPEb1APpvhL5DuquP2rSZKwQOYIivbUk2eVygwjD2wyFwSDDuD1HhpRGNE/T7KYpOxCalFE0a9QYhFpFTN02rgW10n2jYly9bLS5Z+T0ul5r3AC4lmY4sN3BFn+WHj1dZiU/Ssd+iJp1BsP5VTYZy+fWCvGqYMImTPGrCN78IGIGY3fSjHeBNEhpbpN9p+ICGPXp62WWO6fo2DNYswzS9ZEdCw/exRklQsyC0i5dJwWoGYvh87cGZaCcTw/VUnCkWxASmmYvs3GGpA1SbWAmTkymvEiNzyz6/T5xEjv3dzWuCrXSfSNgMx1V3anV+DxgeP9wYW6cY+mTZWv0OU8enUHNGqXdLAMeIhStHe5MCVHQMYOpiPM1LdIuSO92wlHqDEyfTD4h4xPgMiprblXD25jbkXr1PtJlOGBMUJmngeGKER+vAsVezk8LY6pMBIwkZNIgk11YerXAXWND5HlOnuefdjZuatRKd40aNbYPV9u9jHVvFkK452TaR4sIhD4ozYBttxbnhqX1GpMhOl43BlBryckQ7Xvb+hAnYHvGjlDHLmqv/zO529gZwv16Q5jBelVPuIeV7c0o3cGEaWuhnzKbFRlniCNuX4S4yJ1WM/9MTVAxa6W7Ro1rRq1016hR46aCAMatj3svG0oZfUpHOFNwu1xjAxTWGEOKsCpWlcj0UQ028xHTRGvcNFS93XGYSPVBumC6QBekj1O5fTh24zI+WLc3preazWz73J7rj4Mi3mRLqXqKqVGjxnahVrpr1Kixfdiy7qViLhJe1ZEza21ph1sEdnGwDG4gqzEZVis23RW4svZeRDSv0NotLlV1dapivdLt/7SPlT7YzE+wnJqtCozY7Afb6eG8TZvX7bFV3RoqO446T3dfG1mpq9ud6j2cbBAVtVa6a9S4ZtRKd40aNW5cbLQqLxUnciPREm9WXD2xulY4M5xxG7g9kdXt35QqhemKy5FV6/Nki7w5w5YxbiGlstpxPcpsE5eQqdvnuERlwvvpd9YLOpJ0MCcyYjHYQo1X1U3kt0aNGptBrXTXqFFj+7Cl3Yt4m1PnoduqYgVUxJE1644Z9F4y3hHQ9cMGXitGvGRM0iOv9QbsFflToG92jNKNKNZ6AqzlSsOWQwdXM8D7q7GghZsyg/pyszZ3ORfxgX2rpHsaTNZ+p8vvJrycbKa4qu1lYAfmuOtNl/CwTbmoWykQATVO5SYo3dZizJh2UCvdNWpcM2qlu0aNGjc9Jm2WvHE4wNidoTcUxnnYKPlflQZfr1INMyZ3veCtRMLuWAl5GXQRWGMT0PCPrUx1dDMieo0aNTaBWumuUaPG9mFLbbq1/M9ZO5ScIXx3Q5KuqlcVGf168hdbhOmN2kemBv4LVbDB5noju99rwYDSHeq5rOtqPZdfhjMGcn0tmZg+jevR1HTih2vLQFGetijLYNONTqjfWumuUeOaUSvdNWrUqDGAwBymXcrfKklwOJ2tcsu3BfkTMJ+q38VqnUwy2QnO3GXw80ga4ecJtt/KhPTHXOuKuFrJeFIbHM5DzXJr1LiZUCvdNWrU2D5sm9IdvJeEV6nYbl/jRQPhGk5mwJwh2A8b701jnNcLHXo/TKSCVL+RX2Sp8K7q9TfCOF/Vm0e5ilB+DqsJ10/pdgq7q2fjCXWITlpCqu8K0j1crsM+RMaYymgIrJMzuRy9OctwAY3ekOfFmyXelWsW+dlowrd53yhavYRSrijUSneNGtuKWumuUaNGjQKBCA95iTA9/3Y42mHlmBG74glkrSBJ02zEq5iGiAFyFyxGYwbJmDBIMocJ/zTYIC8iN5yJ7+YCRwqlb3Fnw1yWX6UMXVhO0NQdM+ARxTCxLCVz52tEWQ+e1BfEO+Qj/D6G0BcTu2p7kqGJXV6x/alZbo0aNxNqpbtGjRrbh21Vukv1NRxy9ZfTCuExnjyBqCGEJVcyFxGxIN7BnMFdNVA4ER30mFIorzHivYOo6eLsaWEy+R53Q560qWGAFGpI2+XCJVslZdPKlAOasb+Pqh399bTpLpXX8DK4SjBuYhFUaBl4X3VFKHgXk+H8gaJ3hFzCyknw5hLIOMPHBlLt6kSIKPyIDwRtqpjFhO/GVvnwfYQ6rNyv2KF73zykKGup2M1rrXTXqLHNqEl3jRo1tg/bRroDSagQw7A8fhUQIyWpU4N4xVKJXNo2LzkQntyqID7cpSJgjCcsxrlgq2ZdIkQTnx6o7fuAM4rIYOjxqoKr/nPVHAAdUrTVIBr7tIOSLqB5xX/5VYZnqZqXfCobKd11XbkOsVQdVqrB3adXhVX9RCTy5BI85UZEsP5cMWPuRSyqUUG0xSXngzAZz4lzIPdZSHDuDEuVW4N/88pkRsS5vBSRwixqhH1XbNJdNNBA0kuTKnfcpFWXKaDlm9K8pCbdNWpcNYbGHxkwDSxRm5fUqFHjcwz1xDlCbEowQxAxGGPIc0dChIQ8F6Ko4QIjGuNIs4CJHCs2OPvj2ERkmiHGkWBVi1pBg3mCWNQmjkRKDmQuD6W2C4AxEcGrxGDnbVAboVaABCMJImkx+SiPFUQtKvn2F+N1RVCBx/kU7xEmImiMauzUZwylgYziyLIj0GoVQUiS2NuQ+xUIdRMuqy7iqTs7xpD6ATarmJ9ERX5cSPXcW4A4kk8I8GMNYirmJQPqvXtVVYwR4jii2+14sp1XDrkGsl2jRo3psIGII0PKSPU4Jw/4537M6bXSXaNGje3DtijdQf3031Q2Umpx7DSICIrkJxfP88mHs2T9iDzvsrhzhl27d5A0c1TWQCGSNr014dKFLufOrACKMcrsfJs9e3djBKIk4fzFS1y+3CVJBMErrWqxdFF6IH3ac4aFxVls3oPIVKwFHKFaX12l012n2WjRbs+4uwrKqliMiVheXmPlUs7Cwk5m5hLyvIfjc0O25SqoeHOUiuo6TTlV95SWbhq3W+muXENLF4Hu1yFb+xEEM48E0ZRe17J6uYfttdyvRmg2W7Rnm6icB+m7lQURVi736K836HeadNbXSBrC7Fyb2bkWvW6PJI65dGGNrC84m3pTkGkXHdWSpDnteUMUGU++SxMk9TbZqyvrZP2Mufk5qrck3nRI85i17hpKj5mZNporKp2Kvbk3fRL/HBSYvl7DIc7KRmulu0aNCrToi0aJc7FKVdlSUxxffR4Fxu2EqZXuGjVqfAYwvfu0YK6hFvJeyi9++jxH3ztL1jE0mnP0emtYm9FuN3jo8fu478E7QCzrK/CTH/6Kk0c/Jm20mJmdpd/r0u2usbC4g8e+8hi79izy1ptv8darr9PvCt1OzPkzfRDYcxCSpuNNd90zwxPf+AaNZtsr39aTKUGly8enV/inv32Zw7fv4dtPf504joEM1S5IjhDxybkOf//XL/DAQ/fy5FNfIooirM19Rx8jAnmeOwKojpBbzTdVVtcVA9kar+TKlUi3TRASjDQ5d+YyL/zi15w5dQG1LeLY0Ol0aDRmuOOuu3joy4dJGxEWOHnsNM8/+wLLF/ukDWcetLoKu3bPc+fdd/Pgw/dx7MRJnv3xT7h4PsOQsHIpp9e1zC81SZtdVJXZRXjyW1/i0OFbiZMUtbYyocpQCy//8jXef+c0T3/vKXZftrp7AAAVIElEQVTumUMMiLh9BEYaZFnEGy99wLvvvMbT3/sdlnbNOLXeKmIM1vp7V5AQ1KbYjzChXGrUqLEplJNQCpIt5QzZm5qVk9bqOSGAl1KeF46ple4aNWpsH7bNpjsoc3j1D2+jO2Vqqqg1HH33HL/88VkeeOAevvKNh2jNpGT9nE8uLvOTf/pHnvvJiyzt2MHSjkV+8dNXePG5E/zRn/wht31hJ400Jc9zTp86w/f/6vtkWY/v/VdP88hX7uaLj9yO7c2xeqHJn/+v/5nZ+Zjf/97j7Nxvyew6jXQWQ8r5jy8jGIwYmq02zXYD6IOdZeUCRIcPsH45otdbI0kN7dkWSE4cx2S9Bpc/ge6aQXODSRIi02J5eZnLy5eJ45ilHUsogokMWbbqHKBsplKCvXyhOm+jTTdUVNZhm27/s1SU+nGm2Jqg2mC9Y/nJD3/B8feX+b0/+l1uOXQIJaOz3uHl37zMM3//Akkz58FH7uXihQv8/V8/RzPdx3d/71EWd0PaMFw4t8KvfvYyf/tfXmB+sc2eA3N89w+/hc0juqsJLz13lFd/8zYPPvgYR+5bIIogbiiLO1porlxa7mJzod2eJU1biFkDYjorc6xcmIFsie5aTq+3zszsIrFpA02MTVg53+LyhYjueoTNIzRvksQNOmsd+v0ecRyTNmLc6kUGplcxd5liUlXdsBlWMGqlu0aNAQJt1W2qjuOYOInprHdQdSaJ4RkJY1EURTQaDYwxWGvp9XpkWVaka4xx6Xwqd1WjRo0anyKcTZ7h4oVzdDqQ2x6ax5A3aKTCbbcvMfO9P+SDY6/SnresdS6ytvYJUQwXL57nYL9FowFJw3Dk7r08/Sdfo9/vkHGBZrNL1LRoP0KzhLmFBq0ZYWGxyc7dMZ1uxOmjK7zy4huc/egCRmZYW1mnPdPk4Sfu4+4H9iLaQi0cffdDlpfPcfHCx1jNaLdnuP+LD3LfQ3cQyxw2A0gRZuisrPPmK+/yzttvgihrq5dJkph7H7ybO+85RHsuxvmf/qxg3OZQ58O73+9z6eIyeQ5JI8aYiGZzhp27lljYFdOeX6HRyrG6jpKxfAnSHUqaNmjPCCZZ48jd+5mb28nOXW/QbBtm5mJMFBFHTbprCQs7U5rtnPkdCbv2zZCmEZeXu7zz6sd88N4x1lczwCBi2LNvD48/eT9RlJB1mlw81+NXP32dpL3OxYunMdLi8K338sADjzI31ybrRRhpQ9aiv95kfSXj9Vdf4sSxo+R5xszMLLv27uTue4+w98AurK6CCKr96Yl3jRo1JkJVSdOUJElKoj0sUvv5vzGGZrNJlmV0Oh2SJKHZarK2ukae5zSbTZLUpVMr3TVq1Ng+bKvS7b9XRTcRLVEBay1JbLjzC3dy5tGLvPn6+/z6V++ze3eLHbuWOHhoP7fedoh7vvAQs4vQ7+d8+cmvcOn8z3nuZ7/gZz+BHTsTDt56mIO33MKhW46wtLtFlKySZ+cxsfhNdBarfawVev111juGbneVo++d4PKlLl9/6mkW5vbQ71m+/9d/w9/91S/Zf/B75L0Em6ecP3uRLz52P9/87uOsrq7z3I9/xQ+//3Na7TlsLqgF248wOsMLP3+J5597la88+WXuuPs2xFjeeP0VnvnBK6yvdXjiGw95O+Nhc4TJ5VQozAyqodutdFdt94PDjqo1Ogx/8OdqDpqRNiIeevyLPPvMq/zv/8v32bMLjtx1N3v2LbJz9yyPPvZN0kZMr7/K/MIMjz15Oz/94Qf8u//tP7J7v2H/4Rn27T/A3t138q3f+S4kl+jnF8nyLlYzlBYm7mMSi4n7IF0yq3z04Sn+8e9/zeHDt/Poo19lbnaB119/mWd/9Avi2PKlRx4hzyznzvVZvrTKY/ffyz3338nR90/w7I9f4PTxZb73J39GnglZ3xDJPKsXIv7mr54BjXj08e+ytLTEyZMnef75H3H8g2N8++lvs2f/TOmGfIq6KYf9yqpRrXTXqDGgdGf9jG6nSxRFNFvN4jkREdI0JY5j1tfXAeh2u/R6PfI8p9/vM5/MOy9J1okA3a5Lp1a6a9So8fmCgmBQCzOzLb77B9/loUcvceroBTprPT768CNefvElnv3Jr7njnkW+/fST7N6zix07ZvnjP/tjLpxb5szHx1lbW+f08Y955o33SJImX/zS3Tzx1H20FlsoXbTiMkqB3CpZvw8Y7rnnYfbv7dBIZzh75gyffLLC6kqXrGeIaBOZLpobDt5ygPsevIu0CUs7F/j2d7/L//Fv/5Kj757iwMFbEAwiEaIp7751nPWVnLxvOH3iIzJdR61gBI6+e5Iv3HcHi7u92q3ifRN+dliSGystIpZG2uCBh+5j9579HH//FJcvrXH+/BmOPvcOvS7s2NXgyace5fCRfcRpwpPffJwjR+7j+NGTLC+f5+xHJ3n7tbdJzNscuOUWvvLUfew7OOM9j6jfOBk8iljnhUZg554lvvN7T9BO99NK5/j4o3OsXF4jz6DfB2NikiRhxw7Dlx55jLu/cIicZfbsPsjZD7ucOnGac+fO4VYkhKyvfHjmY9575wwPP/wwscyxflmZa+1m/77beOHFd7n7vlPs2X8XbkPnZ2klo0aN64/C8whuT4y1lijyrl4rIrW1ljzPi/dZlhW/p6nzcBR+7/f7AI5010p3jRo1tg3bpnQH1ZXSJnXqizl3c7lV3nnzLVaWM+5/4BEOPHkAkQg0YmV5nTdee51fPvciL7/wWx56pMnbb77NwsIu7r3vfg7c3qSz3uWJr32Z/nrMP/39z3juZy+ztCflvkf2kaRO5VbNnctANWANSdzk0vmPeeXXb/DWa+8xvzDPrt1LLCwu0mw2WVvtkmeGrO869CRJieOUyDidN200iaKEfi8nz62z0VYl62VkWY5qzvLyRToZID1E4L4v3s/ufXM0mzOgzqWeC9yycQVV48eUqvP1VLpLlbv0XrLxdfv9Po2kwYULn3Dq2HkO7D/MV7/xBEpOlmVcvtTn/Jk1nvn7n/Ff/v2z/Ol//XXml1pcvHCeQwfu4ZbDu8nponlOZ1V467WT/MP3f063/zHf+5dP02xHqLj9AFV/2tgEBJY/OcdrL/+a7uockcwzN+9svfNMEE0xJGSZZX5+gZn2HKIxWR9EUvbu2c+HJy6w1ll2nm60R6ORcOHcOTrrsLa2yttvv0maJBgTkTZTnvjqXnbv3YVTrDNctNJooyJyOR4IjlOuKNRKd40ag2q3VjrBKl/Osqyw2Q7HNRoNGo0GAJ1Oh37WR5DCNEVVa6W7Ro0anyNoSSe6611OHfuYF569SLa+wIOPfIE0TXBqaUQQqpPE2di+8cpvuXj+DaIo5dDhfbRb86Ax/XVFiJidTVlY2OFNIbo49385yrpzHmcMoimrl1d55ddvsu/AQX7397/D0q5ZTp3+gDde+QDRBpqlxFEPtcKZDz/hw2Or3HX3nVw4f4G333wHMV327NsFYun3LTldoihmz75ddDqr3PPAndx6+34kyjhx4ijvvvNblnbuJW0414UqSnU/4mcGIqRJhGrCpfNr/OTvfsOe/cd56jtPsXv3bprJLI2dEeQXQTokMTTSWT7+8GN+8Fcv8qUvrfPE155gcecimVklbSgLi3M0mpDnPdKGQUzm/aODSteZvAhIvoBozNF33uLtV/v8/h9/kfvue4Aoijlx/BS/fu5tsm5E1jPY3HLp4iqnT33I3gOLxPEiFz+5wPvvvkd7psHi4jxZvgqmT6/fZfe+nezaA3tvWeDr3/gG7VaLtfV1fvveq6x1EhYXFnxbjVCNqZlvjRpbAxEZ8Mk91q67gl6vR6/XczbdzSZ5nhdqd0irVrpr1Khx40Krb0q/FsF/cwhKqDq99qo4l8czszM8/PgjoG/xwi9f5NWXX2Rp5w6MCBfOn6ffgyNf2MN9X7yTxaU5vvP0t3n2Zz/lP/1/P2RxCZZ2xvR70F2H1cuWLz32ELfedhCiC9jcoCpYesSNjnPfZ9fp5xHNVovd++Y4ffIUP/yHv6HXWyZKoJ/3WV6DN958gcUdO5hZ7NHtfcSPf/S3/OpXbZYvXeTcx5Yv3LePI3cd4MKFC6RtkKgDcYcHH72Li5dO8pd/8R84eOsciHLh3AqLO+DOew6ikgF5EdRnmgJzAV58qQfVuXjZhrGjqqxTKuvFTzrm4AqsKrEo+w/u4aHH7+f5517nP/y//4ldu3fSbLXorK9z7ux5eh147MkHOXTrLexYm+dLj17glRfe5OSxMyzunEeidTrr61y6sE6jKTz51FdptVt0+yvhSojkiECSOp/cWd6j1U4xMbzxxoucv3Cazvo6qysdctvl1KljnD13kCjJyfIev3juJ3xw7BXa7Rk+PHWCLFO+8rWvMjPXoNmOMZGS5z0OHtrLFx+5l9deeYETx3/L/gMHuHD+PBcvnuGeB2+B6JBbSZGqe8Lpyjr46a6qeBP93ddU4eZExVFNjekwsLNEBj8PjzQumJUhiRN6vZ4zNckz0kZKnMRkeVYQd0WRZ/7pmfpRqlGjxo0NUaCH0iNjleX8NJd679A3p0DWPcGdNtS5i2hoSMj7CWoTTp84w9H3TqAIIpYkjTh4634OHNxHs9Uk62cYk7L8yWVOnDjO+XOn6HV7oBGtmQVuv/1OduxcoDUT0ddLQAbE2H7M6ZPnMJFl5545WjNOibx0Lubou8dZXb2E0mffgf2027OcPH6SJE04fNtt2Nx13isrl/n4ow9J05S5+Xluve02ms0G62trXL68QrPVYnZ2DhTWVtc4fvwEK5cv0+t1mZ2d4Y67jzA33ybXLpjg57taFhuVEoAlkgax7mRX4zFa3E7MwtXV45WgoLKO5RJrnOJs50269iOIVn2omUo0RrEj57oRsoHYNpr//+2d73LUNhTFf5JsbzfpFAYKlBKGQsOXvkB5+fIgnaYT6FBIKUNosvljW7r9IMkrO85mA2FJgs5MZrK2bNnSen10dHRvxetXr/nj9y1m+0c0dU1Rau7cu8NPTx7z3Y0bTKqCoippjoUXW695uf2K/f096mYfrSxPnv7CxsMH3L43Ccp2DYBtCz68n7HzeocHGxusr69TlhWz2SEvt1/y14sXNE3Drdvfc/feD7x/e8Te3jseP31MYQraWnNcz9jZecVsf5/p2pTHP2/y44P7VJOStztveffuXzY2HjJdm2Jby59bW+zuvuefN2+YTtd48Og+T54+pKwMwiGiGubRaRYzLBVWpio0E32HdfMT35pNpmwgzqDDTE96RCbdVxSZdJ8baXxu5xxlWTKZTJjNZt1CSmMMxhjqukZrzXQ6pa5rmqahKAomkwmHh4e07Zx0l2WJev7b8/woZWRkXG6cQboRjV2adAMIWhms9YvbfLKcMA2ofXp2o7WfEtQa24CITyfuI4If0DbgnE/XrQuHUmGBnaMrh3J+vSKSkEQFrgoEMuwDjCk4Oq4R5yiK0ifxwXXLejq1JCgrKmT58Qrw/I3aZY10gaZ26ehtWGiXXAcjqdSTvX3SfWvFpPvvHun2rbSIdEfPTMhIie/X46MWnMJawRQKU/i46KiQxEL5NtJaYVuLINR1g9GKajJBKRP8mO18liCQUOf8DECcOvbZLRMPKILWYIymaUKK+tCyZVXRNA1t01KEF7iE9nYx/afynwlVauUXbXkzv0ajsdaiTOjXru55741hTroVE32XdfMok+7riky6PwppVJ9Iog8ODnqLJYui6LYVRUFVVSitECfUTU3beM93/O3OcbozMjK+WggOVIuoY0/ATPTeacRpfFoEn8pdtEVcARhC1nC/Qh3jz6N92DgRjWINpALV+L+YDlyqnl1GBqqkdTWmaFEqJDyRAk0JeHoVcryDk+i/SG4mklEBWm99KAJZi36B6/7S7byXFsH62Q+BaqoAh3MSFhlqfD/qMH3cYlWNUy2qcn4OxCgKM8W2x2jKbsEhIn5QFqpTKixKFPEZ6MNAC3EhQIzCoXDWoYwmsYdSN0cYXVJWMV5Ci8QMk9H7QUq8BSeCKQsQi7UtVuLALERVycjIuDBEsmytZTab9bY1TUPTNN3ndGFlenzqCW/bNnu6MzIyrgKG0Uvi9F/c/bERNXRQLiQQ10hdFCJeuVROcKIIEjaCRrlv8CEBBbDgFKgyRIJwKGpPvFx6TW5gpR5IUFGkDNfh+ZYF5ZMPS+vrV12ov6HXOfoGXaKSkjRSxBmp1EfQjxjzOaOXDPyUMXrAktFL0nYAT4r77zhPXqXLXypd5ERxGglKuogKIcAI5YNyrGJzxr6UdErA15m0jy8bvlfiei9gUDhxfrq66zvhRNKfUF+sw1qfTj4yeKXnIc76hy5qK+naqotcIvNn66Ojl2RcPuR++2gM+XH/+e2XGS6yHCurlMpKd0ZGxtcM1bNmjO13nW0B5m+wqCzaoDR60ubLOU98Y/Hkx7dPuMfehn27xzyE2xikXy69p4V2gGsveZ++PTpTVGz/ZODTqeBeefblYtva0I/xHC4Z7AhdYTouO0dvQ+qmF6QbyMm88BndM/869uvt3WdGRsYnIyXSYyR6uH1RmXierHRnZGR8OSxtexgq3XQKKIyIucuccYmDTpaJ+uZxKOATkkjCmU7e0Fg9KeE7xXQpJ5hbuKZF5120/Xw4QelXEqe7r3R3XTzqkBlTY8e/TMOSp3f9iZLJ/2Gm4dRDx04apfG5H/9sLNuvccAogyJnP1DpWIGocmel+3oi99vKcJrSnW7PSndGRsZqEX+LogviSglzkSx7RTu/0a4G1CgRHfnyjS1A7AU1v2T9faWenYyM643TlO4UWenOyMhYHYbCXBpIYyFSpTtR5qLnVtSK6VBiM5Gx7REjNo8YYWLYGKdVcf6dF4L06nybM4+MsgKlG+be/c6CvMTxn1r/Yiwzi3H+IheGJeuK7pSeV7/7nJXua4Xcb5cKWenOyMi4UMQ4pid3QNs49vf3ODw8wjlLVU24efMGZVlcQdVu6NM9zSszsIlEC8CZaSGH5PzKNdAXwgWzjO50atAFn6NPupWaJzbn/s/IuPrISndGRsa5sPRvRowKYaG1Lbu7u2xtbbG9vc2HD/+hFGxuPuXZs18pCnNWrfQ93YnfN1zTZ1Nfz8R56z0Hie619ervL10CuvroJXR1Lh295LzXtZTZOxlUpbuX9UX1DNTLYHzAuhTnXroufy8qiV4SIwBlpfuaIffbpcL/5hEaKQv5tYEAAAAASUVORK5CYII=;" vertex="1" parent="1">
          <mxGeometry x="630" y="490" width="520" height="204" as="geometry" />
        </mxCell>
        <mxCell id="58oBhlepc2mfSOxgYQyz-6" value="Read" style="text;html=1;align=center;verticalAlign=middle;resizable=0;points=[];autosize=1;strokeColor=none;fillColor=none;" vertex="1" parent="1">
          <mxGeometry x="970" y="470" width="40" height="20" as="geometry" />
        </mxCell>
        <mxCell id="58oBhlepc2mfSOxgYQyz-7" value="&lt;b&gt;REF -&amp;nbsp;https://youtu.be/VSOIU8UxAtg&lt;/b&gt;" style="text;html=1;align=center;verticalAlign=middle;resizable=0;points=[];autosize=1;strokeColor=none;fillColor=none;fontSize=15;" vertex="1" parent="1">
          <mxGeometry x="135" y="90" width="270" height="20" as="geometry" />
        </mxCell>
      </root>
    </mxGraphModel>
  </diagram>
</mxfile>
